<?xml version="1.0" encoding="utf-8"?>
<!-- Generator: Adobe Illustrator 19.2.1, SVG Export Plug-In . SVG Version: 6.00 Build 0)  -->
<svg version="1.1" id="Layer_1" xmlns="http://www.w3.org/2000/svg" xmlns:xlink="http://www.w3.org/1999/xlink" x="0px" y="0px"
	 viewBox="0 0 81.4 40.7" style="enable-background:new 0 0 81.4 40.7;" xml:space="preserve">
<style type="text/css">
	.st0{fill:none;stroke:#3DBFBD;stroke-miterlimit:10;}
	.st1{fill:none;stroke:#3DBFBD;stroke-width:0.75;stroke-miterlimit:10;}
	.st2{fill:#3DBFBD;}
</style>
<g>
	<path class="st0" d="M16.2,38.7v-14c0-2.8,2.2-5,5-5h14c2.8,0,5,2.2,5,5v14H16.2z"/>
	<circle class="st0" cx="28.2" cy="9.3" r="8.3"/>
	<path class="st0" d="M45.6,38.7v-14c0-2.8,2.2-5,5-5h14c2.8,0,5,2.2,5,5v14H45.6z"/>
	<circle class="st0" cx="57.6" cy="9.3" r="8.3"/>
	<g>
		<path class="st1" d="M75.4,25.4v12.5c0,0.8,0.6,1.4,1.4,1.4c0.7,0,1.3-0.6,1.4-1.4V25.4c-0.4,0.3-0.9,0.5-1.4,0.5
			S75.8,25.7,75.4,25.4z"/>
		<path class="st1" d="M78.2,25.3v0.1c1.3-0.9,2.2-3,2.2-5.5c0-3.3-1.6-6-3.6-6s-3.6,2.7-3.6,6c0,2.5,0.9,4.6,2.2,5.5v-0.1"/>
	</g>
	<g>
		<path class="st1" d="M8,24.2H5.5c-2.1,0-3.8-1.7-3.8-3.8L1,14.9c0-2.1,1.7-3.8,3.8-3.8h4c2.1,0,3.8,1.7,3.8,3.8l-0.8,5.5
			C11.8,22.5,10.1,24.2,8,24.2z"/>
		<g>
			<path class="st2" d="M4.3,21.9L4.3,21.9c-0.3,0-0.6-0.3-0.6-0.6v-7.2c0-0.3,0.3-0.6,0.6-0.6l0,0c0.3,0,0.6,0.3,0.6,0.6v7.2
				C4.9,21.6,4.6,21.9,4.3,21.9z"/>
			<path class="st2" d="M9.2,21.9L9.2,21.9c-0.3,0-0.6-0.3-0.6-0.6v-7.2c0-0.3,0.3-0.6,0.6-0.6l0,0c0.3,0,0.6,0.3,0.6,0.6v7.2
				C9.8,21.6,9.6,21.9,9.2,21.9z"/>
			<path class="st2" d="M6.8,21.9L6.8,21.9c-0.3,0-0.6-0.3-0.6-0.6v-7.2c0-0.3,0.3-0.6,0.6-0.6l0,0c0.3,0,0.6,0.3,0.6,0.6v7.2
				C7.4,21.6,7.1,21.9,6.8,21.9z"/>
		</g>
	</g>
</g>
<g>
	<path class="st1" d="M5.4,25.3v12.6c0,0.8,0.6,1.4,1.4,1.4c0.7,0,1.3-0.6,1.4-1.4V25.3c0-0.5-0.2-0.8-0.6-1.1H6
		C5.6,24.5,5.4,24.8,5.4,25.3z"/>
</g>
</svg>
