<?xml version="1.0" encoding="utf-8"?>
<!-- Generator: Adobe Illustrator 19.2.1, SVG Export Plug-In . SVG Version: 6.00 Build 0)  -->
<svg version="1.1" id="Layer_1" xmlns="http://www.w3.org/2000/svg" xmlns:xlink="http://www.w3.org/1999/xlink" x="0px" y="0px"
	 viewBox="0 0 56.8 40.7" style="enable-background:new 0 0 56.8 40.7;" xml:space="preserve">
<style type="text/css">
	.st0{fill:none;stroke:#3DBFBD;stroke-miterlimit:10;}
	.st1{fill:none;stroke:#3DBFBD;stroke-width:0.75;stroke-miterlimit:10;}
	.st2{fill:none;stroke:#3DBFBD;stroke-width:0.5;stroke-miterlimit:10;}
</style>
<g>
	<path class="st0" d="M1.6,39.2v-14c0-2.8,2.2-5,5-5h14c2.8,0,5,2.2,5,5v14H1.6z"/>
	<circle class="st0" cx="13.6" cy="9.9" r="8.3"/>
	<path class="st0" d="M31,39.2v-14c0-2.8,2.2-5,5-5h14c2.8,0,5,2.2,5,5v14H31z"/>
	<circle class="st0" cx="43" cy="9.9" r="8.3"/>
	<g>
		<circle class="st1" cx="9" cy="9.9" r="2.7"/>
		<circle class="st1" cx="18.3" cy="9.9" r="2.7"/>
		<line class="st2" x1="15.6" y1="9.9" x2="11.6" y2="9.9"/>
	</g>
	<g>
		<circle class="st1" cx="38.3" cy="9.9" r="2.7"/>
		<circle class="st1" cx="47.6" cy="9.9" r="2.7"/>
		<line class="st2" x1="45" y1="9.9" x2="41" y2="9.9"/>
	</g>
</g>
</svg>
