<?xml version="1.0" encoding="utf-8"?>
<!-- Generator: Adobe Illustrator 19.2.1, SVG Export Plug-In . SVG Version: 6.00 Build 0)  -->
<svg version="1.1" id="Layer_1" xmlns="http://www.w3.org/2000/svg" xmlns:xlink="http://www.w3.org/1999/xlink" x="0px" y="0px"
	 viewBox="0 0 81.4 40.7" style="enable-background:new 0 0 81.4 40.7;" xml:space="preserve">
<style type="text/css">
	.st0{fill:none;stroke:#3DBFBD;stroke-miterlimit:10;}
</style>
<g>
	<path class="st0" d="M4.5,39.2v-14c0-2.8,2.2-5,5-5h14c2.8,0,5,2.2,5,5v14H4.5z"/>
	<circle class="st0" cx="16.5" cy="9.9" r="8.3"/>
	<path class="st0" d="M53,39.2v-14c0-2.8,2.2-5,5-5h14c2.8,0,5,2.2,5,5v14H53z"/>
	<circle class="st0" cx="65" cy="9.9" r="8.3"/>
	<path class="st0" d="M34,39v-8.2c0-1.6,1.3-2.9,2.9-2.9H45c1.6,0,2.9,1.3,2.9,2.9V39H34z"/>
	<circle class="st0" cx="41" cy="21.3" r="4.9"/>
</g>
</svg>
