<svg id="Layer_1" data-name="Layer 1" xmlns="http://www.w3.org/2000/svg" viewBox="0 0 525.78 386.31"><defs><style>.cls-1,.cls-10,.cls-2,.cls-5,.cls-6,.cls-7,.cls-8,.cls-9{fill:none;stroke-miterlimit:10;}.cls-1,.cls-10,.cls-5,.cls-6{stroke:#4d4d57;}.cls-2{stroke:#231f20;}.cls-3{fill:#4d4d57;}.cls-4{fill:#fff;}.cls-5{stroke-width:1.13px;}.cls-6{stroke-width:1.07px;}.cls-7,.cls-8,.cls-9{stroke:#3dbfbd;}.cls-10,.cls-7,.cls-8,.cls-9{stroke-width:2px;}.cls-8{stroke-dasharray:26.48 26.48;}.cls-9{stroke-dasharray:23.23 23.23;}.cls-11{font-size:70.64px;fill:#3dbfbd;font-family:Raleway;}</style></defs><title>Untitled-1</title><rect class="cls-1" x="0.5" y="0.5" width="96.55" height="204.43"/><rect class="cls-1" x="100.01" y="0.5" width="96.55" height="204.43"/><rect class="cls-1" x="0.5" y="208.87" width="96.55" height="175.43"/><rect class="cls-1" x="100.01" y="208.87" width="96.55" height="175.43"/><path class="cls-2" d="M3.45,58" transform="translate(-1.5 -1.8)"/><rect class="cls-1" x="12.82" y="82.27" width="55.67" height="29.06"/><rect class="cls-1" x="12.82" y="111.34" width="55.67" height="67.49"/><rect class="cls-3" x="119.71" y="31.06" width="67.98" height="147.77"/><rect class="cls-4" x="125.62" y="47.79" width="56.65" height="103.45"/><rect class="cls-3" x="2.5" y="204.93" width="192.06" height="3.94"/><rect class="cls-3" x="97.05" y="3.2" width="2.96" height="381.11"/><rect class="cls-3" x="0.5" y="384.31" width="30.95" height="1.89"/><rect class="cls-3" x="164.61" y="384.31" width="30.95" height="1.89"/><rect class="cls-1" x="88.45" y="31.06" width="20.67" height="295.81"/><rect class="cls-1" x="31.45" y="111.34" width="19" height="6.53"/><path class="cls-1" d="M25.61,113.14v31.19c0,4.67-5,36.3-5,36.3" transform="translate(-1.5 -1.8)"/><path class="cls-1" d="M59.76,113.14v31.19c0,4.67,5,36.3,5,36.3" transform="translate(-1.5 -1.8)"/><path class="cls-5" d="M50.28,119.6v24.65c0,3.84-4.91,3.41-6.83,3.41s-7.5.43-7.5-3.41V119.6" transform="translate(-1.5 -1.8)"/><line class="cls-6" x1="24.11" y1="142.53" x2="34.45" y2="142.53"/><line class="cls-6" x1="58.26" y1="142.53" x2="48.78" y2="142.53"/><polyline class="cls-7" points="524.78 373.31 524.78 385.31 512.78 385.31"/><line class="cls-8" x1="486.3" y1="385.31" x2="340.68" y2="385.31"/><polyline class="cls-7" points="327.45 385.31 315.45 385.31 315.45 373.31"/><line class="cls-9" x1="315.45" y1="350.07" x2="315.45" y2="175.82"/><polyline class="cls-7" points="315.45 164.21 315.45 152.21 327.45 152.21"/><line class="cls-8" x1="353.92" y1="152.21" x2="499.54" y2="152.21"/><polyline class="cls-7" points="512.78 152.21 524.78 152.21 524.78 164.21"/><line class="cls-9" x1="524.78" y1="187.44" x2="524.78" y2="361.69"/><line class="cls-10" x1="242.68" y1="248.9" x2="268.88" y2="248.9"/><line class="cls-10" x1="255.78" y1="262" x2="255.78" y2="235.81"/><text class="cls-11" transform="translate(405.78 284)">?</text></svg>