<?xml version="1.0" encoding="utf-8"?>
<!-- Generator: Adobe Illustrator 19.2.1, SVG Export Plug-In . SVG Version: 6.00 Build 0)  -->
<svg version="1.1" id="Layer_1" xmlns="http://www.w3.org/2000/svg" xmlns:xlink="http://www.w3.org/1999/xlink" x="0px" y="0px"
	 viewBox="0 0 528.9 362.9" style="enable-background:new 0 0 528.9 362.9;" xml:space="preserve">
<style type="text/css">
	.st0{fill:none;stroke:#4D4D57;stroke-width:1.5565;stroke-miterlimit:10;}
	.st1{fill:none;stroke:#4D4D57;stroke-width:0.7783;stroke-miterlimit:10;}
	.st2{fill:#3DBFBD;}
	.st3{fill:#FFFFFF;}
</style>
<rect x="189.8" y="167" class="st0" width="161.4" height="165.5"/>
<polyline class="st0" points="189.8,167 212.6,142.6 327.3,142.6 351.2,167 "/>
<rect x="208.8" y="186.2" class="st0" width="123.5" height="116.2"/>
<line class="st0" x1="208.8" y1="244.3" x2="332.2" y2="244.3"/>
<rect x="245.1" y="186.2" class="st0" width="50.8" height="5.2"/>
<line class="st1" x1="216.2" y1="157.1" x2="239.2" y2="157.1"/>
<line class="st1" x1="227.7" y1="161.6" x2="227.7" y2="152.6"/>
<line class="st1" x1="302.1" y1="157.1" x2="325" y2="157.1"/>
<line class="st1" x1="313.6" y1="161.6" x2="313.6" y2="152.6"/>
<line class="st1" x1="234.1" y1="147.1" x2="252.5" y2="147.1"/>
<line class="st1" x1="243.3" y1="150.7" x2="243.3" y2="143.5"/>
<line class="st1" x1="288.5" y1="147.1" x2="306.9" y2="147.1"/>
<line class="st1" x1="297.7" y1="150.7" x2="297.7" y2="143.5"/>
<circle class="st2" cx="162.7" cy="81.9" r="55"/>
<g>
	<g>
		<path class="st3" d="M138.1,77V65.4h5.1c0.5,0,1,0.1,1.5,0.3c0.4,0.2,0.8,0.5,1.1,0.9c0.3,0.4,0.6,0.8,0.7,1.2
			c0.2,0.5,0.3,0.9,0.3,1.4c0,0.4-0.1,0.8-0.2,1.1c-0.1,0.4-0.3,0.7-0.5,1c-0.2,0.3-0.4,0.6-0.7,0.8c-0.3,0.2-0.6,0.4-0.9,0.5
			l2.7,4.4h-2.1l-2.5-4h-2.7v4H138.1z M139.9,71.3h3.2c0.3,0,0.5-0.1,0.7-0.2s0.4-0.3,0.5-0.5c0.2-0.2,0.3-0.4,0.4-0.7
			c0.1-0.3,0.1-0.5,0.1-0.8c0-0.3-0.1-0.6-0.2-0.8c-0.1-0.3-0.2-0.5-0.4-0.7c-0.2-0.2-0.4-0.4-0.6-0.5s-0.5-0.2-0.7-0.2h-3.1V71.3z"
			/>
		<path class="st3" d="M152.6,77.2c-0.7,0-1.3-0.1-1.8-0.4c-0.5-0.2-1-0.6-1.4-1s-0.7-0.9-0.9-1.4s-0.3-1.1-0.3-1.7
			c0-0.6,0.1-1.2,0.3-1.7c0.2-0.5,0.5-1,0.9-1.4s0.9-0.7,1.4-1c0.5-0.2,1.2-0.4,1.8-0.4c0.7,0,1.3,0.1,1.8,0.4c0.5,0.2,1,0.6,1.4,1
			c0.4,0.4,0.7,0.9,0.9,1.4c0.2,0.5,0.3,1.1,0.3,1.7c0,0.1,0,0.3,0,0.4c0,0.1,0,0.2,0,0.3h-6.9c0,0.4,0.1,0.7,0.3,1
			c0.1,0.3,0.3,0.6,0.6,0.8c0.2,0.2,0.5,0.4,0.8,0.5c0.3,0.1,0.6,0.2,0.9,0.2c0.2,0,0.5,0,0.7-0.1c0.2-0.1,0.5-0.1,0.6-0.3
			c0.2-0.1,0.4-0.3,0.5-0.4c0.2-0.2,0.3-0.3,0.4-0.5l1.5,0.4c-0.3,0.6-0.8,1.2-1.5,1.6S153.5,77.2,152.6,77.2z M155.2,72.1
			c0-0.4-0.1-0.7-0.3-1c-0.1-0.3-0.3-0.6-0.6-0.8s-0.5-0.4-0.8-0.5c-0.3-0.1-0.6-0.2-1-0.2c-0.3,0-0.7,0.1-1,0.2
			c-0.3,0.1-0.6,0.3-0.8,0.5s-0.4,0.5-0.6,0.8c-0.1,0.3-0.2,0.6-0.3,1H155.2z"/>
		<path class="st3" d="M157.9,72.7c0-0.6,0.1-1.2,0.3-1.7c0.2-0.5,0.5-1,0.9-1.4s0.9-0.7,1.4-1c0.5-0.2,1.2-0.4,1.8-0.4
			c0.9,0,1.6,0.2,2.3,0.6c0.6,0.4,1.1,0.9,1.4,1.5l-1.8,0.6c-0.2-0.4-0.5-0.6-0.8-0.8c-0.3-0.2-0.7-0.3-1.2-0.3
			c-0.4,0-0.7,0.1-1,0.2s-0.6,0.3-0.8,0.6s-0.4,0.6-0.5,0.9c-0.1,0.4-0.2,0.7-0.2,1.2c0,0.4,0.1,0.8,0.2,1.2s0.3,0.7,0.6,0.9
			c0.2,0.3,0.5,0.5,0.8,0.6c0.3,0.1,0.6,0.2,1,0.2c0.2,0,0.4,0,0.7-0.1c0.2-0.1,0.4-0.1,0.6-0.3c0.2-0.1,0.3-0.2,0.5-0.4
			c0.1-0.1,0.2-0.3,0.3-0.5l1.8,0.5c-0.3,0.6-0.8,1.2-1.4,1.6c-0.7,0.4-1.5,0.6-2.4,0.6c-0.7,0-1.3-0.1-1.8-0.4
			c-0.5-0.2-1-0.6-1.4-1s-0.7-0.9-0.9-1.4C158,73.9,157.9,73.3,157.9,72.7z"/>
		<path class="st3" d="M167.6,67v-2h1.8v2H167.6z M167.6,77v-8.6h1.8V77H167.6z"/>
		<path class="st3" d="M176.4,77.2c-0.7,0-1.3-0.2-1.8-0.5s-0.9-0.8-1.2-1.3v5.1h-1.8V68.4h1.6V70c0.3-0.5,0.8-0.9,1.3-1.2
			c0.5-0.3,1.1-0.5,1.8-0.5c0.6,0,1.1,0.1,1.6,0.4c0.5,0.2,0.9,0.6,1.3,1c0.4,0.4,0.6,0.9,0.8,1.4c0.2,0.5,0.3,1.1,0.3,1.7
			c0,0.6-0.1,1.2-0.3,1.7c-0.2,0.5-0.4,1-0.8,1.4c-0.3,0.4-0.7,0.7-1.2,1C177.5,77,177,77.2,176.4,77.2z M175.9,75.6
			c0.4,0,0.7-0.1,1-0.2c0.3-0.2,0.6-0.4,0.8-0.7c0.2-0.3,0.4-0.6,0.5-0.9c0.1-0.3,0.2-0.7,0.2-1.1c0-0.4-0.1-0.8-0.2-1.1
			s-0.3-0.7-0.6-0.9c-0.2-0.3-0.5-0.5-0.8-0.6c-0.3-0.2-0.7-0.2-1.1-0.2c-0.2,0-0.5,0-0.7,0.1c-0.3,0.1-0.5,0.2-0.7,0.4
			c-0.2,0.2-0.4,0.3-0.6,0.5s-0.3,0.4-0.3,0.7v2.2c0.1,0.3,0.3,0.5,0.4,0.7c0.2,0.2,0.4,0.4,0.6,0.6c0.2,0.2,0.4,0.3,0.7,0.4
			C175.3,75.6,175.6,75.6,175.9,75.6z"/>
		<path class="st3" d="M185.8,77.2c-0.7,0-1.3-0.1-1.8-0.4c-0.5-0.2-1-0.6-1.4-1s-0.7-0.9-0.9-1.4s-0.3-1.1-0.3-1.7
			c0-0.6,0.1-1.2,0.3-1.7c0.2-0.5,0.5-1,0.9-1.4s0.9-0.7,1.4-1c0.5-0.2,1.2-0.4,1.8-0.4c0.7,0,1.3,0.1,1.8,0.4c0.5,0.2,1,0.6,1.4,1
			c0.4,0.4,0.7,0.9,0.9,1.4c0.2,0.5,0.3,1.1,0.3,1.7c0,0.1,0,0.3,0,0.4c0,0.1,0,0.2,0,0.3h-6.9c0,0.4,0.1,0.7,0.3,1
			c0.1,0.3,0.3,0.6,0.6,0.8c0.2,0.2,0.5,0.4,0.8,0.5c0.3,0.1,0.6,0.2,0.9,0.2c0.2,0,0.5,0,0.7-0.1c0.2-0.1,0.5-0.1,0.6-0.3
			c0.2-0.1,0.4-0.3,0.5-0.4c0.2-0.2,0.3-0.3,0.4-0.5l1.5,0.4c-0.3,0.6-0.8,1.2-1.5,1.6S186.7,77.2,185.8,77.2z M188.4,72.1
			c0-0.4-0.1-0.7-0.3-1c-0.1-0.3-0.3-0.6-0.6-0.8s-0.5-0.4-0.8-0.5c-0.3-0.1-0.6-0.2-1-0.2c-0.3,0-0.7,0.1-1,0.2
			c-0.3,0.1-0.6,0.3-0.8,0.5s-0.4,0.5-0.6,0.8c-0.1,0.3-0.2,0.6-0.3,1H188.4z"/>
		<path class="st3" d="M126.6,97.2V85.5h7.8v1.6h-5.9v3.5h4.9v1.5h-4.9v5H126.6z"/>
		<path class="st3" d="M139.7,97.3c-0.7,0-1.3-0.1-1.8-0.4s-1-0.6-1.4-1c-0.4-0.4-0.7-0.9-0.9-1.4c-0.2-0.5-0.3-1.1-0.3-1.7
			s0.1-1.2,0.3-1.7c0.2-0.5,0.5-1,0.9-1.4c0.4-0.4,0.9-0.7,1.4-1c0.5-0.2,1.1-0.4,1.8-0.4c0.7,0,1.3,0.1,1.8,0.4
			c0.5,0.2,1,0.6,1.4,1c0.4,0.4,0.7,0.9,0.9,1.4c0.2,0.5,0.3,1.1,0.3,1.7s-0.1,1.2-0.3,1.7c-0.2,0.5-0.5,1-0.9,1.4
			c-0.4,0.4-0.9,0.7-1.4,1S140.4,97.3,139.7,97.3z M137.2,92.9c0,0.4,0.1,0.8,0.2,1.1c0.1,0.4,0.3,0.7,0.5,0.9
			c0.2,0.3,0.5,0.5,0.8,0.6s0.6,0.2,1,0.2s0.7-0.1,1-0.2s0.6-0.4,0.8-0.6c0.2-0.3,0.4-0.6,0.5-0.9s0.2-0.7,0.2-1.1
			c0-0.4-0.1-0.8-0.2-1.1c-0.1-0.4-0.3-0.7-0.5-0.9c-0.2-0.3-0.5-0.5-0.8-0.6s-0.6-0.2-1-0.2c-0.3,0-0.7,0.1-1,0.2
			c-0.3,0.2-0.6,0.4-0.8,0.6s-0.4,0.6-0.5,0.9S137.2,92.5,137.2,92.9z"/>
		<path class="st3" d="M145.7,85.2h1.8v9.5c0,0.3,0.1,0.6,0.2,0.7c0.2,0.2,0.4,0.3,0.7,0.3c0.1,0,0.3,0,0.4-0.1
			c0.2,0,0.3-0.1,0.5-0.1l0.3,1.4c-0.3,0.1-0.6,0.2-0.9,0.3c-0.4,0.1-0.7,0.1-1,0.1c-0.6,0-1.1-0.2-1.5-0.5
			c-0.3-0.3-0.5-0.8-0.5-1.4V85.2z"/>
		<path class="st3" d="M150.7,85.2h1.8v9.5c0,0.3,0.1,0.6,0.2,0.7c0.2,0.2,0.4,0.3,0.7,0.3c0.1,0,0.3,0,0.4-0.1
			c0.2,0,0.3-0.1,0.5-0.1l0.3,1.4c-0.3,0.1-0.6,0.2-0.9,0.3c-0.4,0.1-0.7,0.1-1,0.1c-0.6,0-1.1-0.2-1.5-0.5
			c-0.3-0.3-0.5-0.8-0.5-1.4V85.2z"/>
		<path class="st3" d="M159.4,97.3c-0.7,0-1.3-0.1-1.8-0.4s-1-0.6-1.4-1c-0.4-0.4-0.7-0.9-0.9-1.4c-0.2-0.5-0.3-1.1-0.3-1.7
			s0.1-1.2,0.3-1.7c0.2-0.5,0.5-1,0.9-1.4c0.4-0.4,0.9-0.7,1.4-1c0.5-0.2,1.1-0.4,1.8-0.4c0.7,0,1.3,0.1,1.8,0.4
			c0.5,0.2,1,0.6,1.4,1c0.4,0.4,0.7,0.9,0.9,1.4c0.2,0.5,0.3,1.1,0.3,1.7s-0.1,1.2-0.3,1.7c-0.2,0.5-0.5,1-0.9,1.4
			c-0.4,0.4-0.9,0.7-1.4,1S160.1,97.3,159.4,97.3z M156.9,92.9c0,0.4,0.1,0.8,0.2,1.1c0.1,0.4,0.3,0.7,0.5,0.9
			c0.2,0.3,0.5,0.5,0.8,0.6s0.6,0.2,1,0.2s0.7-0.1,1-0.2s0.6-0.4,0.8-0.6c0.2-0.3,0.4-0.6,0.5-0.9s0.2-0.7,0.2-1.1
			c0-0.4-0.1-0.8-0.2-1.1c-0.1-0.4-0.3-0.7-0.5-0.9c-0.2-0.3-0.5-0.5-0.8-0.6s-0.6-0.2-1-0.2c-0.3,0-0.7,0.1-1,0.2
			c-0.3,0.2-0.6,0.4-0.8,0.6s-0.4,0.6-0.5,0.9S156.9,92.5,156.9,92.9z"/>
		<path class="st3" d="M176.1,88.6h1.7l-3.6,8.6h-1.5l-1.6-4l-1.6,4h-1.5l-3.6-8.6h1.7l2.8,6.8l1.2-3.2l-1.5-3.6h1.5l1,2.7l1-2.7
			h1.5l-1.5,3.6l1.2,3.2L176.1,88.6z"/>
		<path class="st3" d="M179.1,87.2v-2h1.8v2H179.1z M179.1,97.2v-8.6h1.8v8.6H179.1z"/>
		<path class="st3" d="M190.7,97.2h-1.8v-4.8c0-0.8-0.1-1.4-0.4-1.8c-0.3-0.4-0.6-0.5-1.1-0.5c-0.3,0-0.5,0-0.8,0.1
			c-0.3,0.1-0.5,0.2-0.7,0.4c-0.2,0.2-0.4,0.4-0.6,0.6c-0.2,0.2-0.3,0.5-0.4,0.8v5.1H183v-8.6h1.6v1.7c0.3-0.6,0.8-1,1.4-1.4
			c0.6-0.3,1.3-0.5,2.1-0.5c0.5,0,0.9,0.1,1.3,0.3c0.3,0.2,0.6,0.4,0.8,0.8c0.2,0.3,0.3,0.7,0.4,1.1c0.1,0.4,0.1,0.9,0.1,1.3V97.2z"
			/>
		<path class="st3" d="M196.2,97.2c-0.6,0-1.1-0.1-1.6-0.4c-0.5-0.2-0.9-0.6-1.2-1c-0.3-0.4-0.6-0.9-0.8-1.4s-0.3-1.1-0.3-1.7
			c0-0.6,0.1-1.2,0.3-1.7c0.2-0.5,0.5-1,0.8-1.4c0.3-0.4,0.8-0.7,1.3-1c0.5-0.2,1-0.4,1.6-0.4c0.7,0,1.3,0.2,1.8,0.5
			c0.5,0.3,0.9,0.8,1.3,1.3v-1.6h1.6v8.3c0,0.6-0.1,1.2-0.3,1.7c-0.2,0.5-0.5,0.9-1,1.2c-0.4,0.3-0.9,0.6-1.5,0.8
			c-0.6,0.2-1.2,0.3-1.8,0.3c-1,0-1.7-0.2-2.4-0.5c-0.6-0.3-1.2-0.8-1.6-1.4l1-1c0.3,0.5,0.8,0.8,1.3,1c0.5,0.2,1.1,0.4,1.7,0.4
			c0.4,0,0.7,0,1.1-0.1c0.3-0.1,0.6-0.3,0.9-0.5c0.3-0.2,0.5-0.5,0.6-0.8s0.2-0.7,0.2-1.1v-1.3c-0.3,0.5-0.7,0.9-1.3,1.2
			C197.4,97.1,196.8,97.2,196.2,97.2z M196.8,95.8c0.3,0,0.5,0,0.8-0.1c0.3-0.1,0.5-0.2,0.7-0.4s0.4-0.3,0.5-0.5
			c0.2-0.2,0.3-0.4,0.3-0.6v-2.2c-0.1-0.3-0.3-0.5-0.4-0.7c-0.2-0.2-0.4-0.4-0.6-0.6c-0.2-0.2-0.5-0.3-0.7-0.4
			c-0.3-0.1-0.5-0.1-0.8-0.1c-0.4,0-0.7,0.1-1.1,0.3c-0.3,0.2-0.6,0.4-0.8,0.7c-0.2,0.3-0.4,0.6-0.5,0.9c-0.1,0.4-0.2,0.7-0.2,1.1
			c0,0.4,0.1,0.8,0.2,1.1c0.1,0.3,0.3,0.6,0.6,0.9c0.2,0.3,0.5,0.5,0.8,0.6C196.1,95.7,196.4,95.8,196.8,95.8z"/>
	</g>
</g>
<circle class="st2" cx="429.9" cy="274" r="48.9"/>
<g>
	<g>
		<path class="st3" d="M410.1,257.5l3.5,9.3l3.5-9.3h2l-4.7,11.6h-1.6l-4.7-11.6H410.1z"/>
		<path class="st3" d="M424.1,269.3c-0.7,0-1.3-0.1-1.8-0.4s-1-0.6-1.4-1c-0.4-0.4-0.7-0.9-0.9-1.4c-0.2-0.5-0.3-1.1-0.3-1.7
			s0.1-1.2,0.3-1.7c0.2-0.5,0.5-1,0.9-1.4c0.4-0.4,0.9-0.7,1.4-1c0.5-0.2,1.1-0.4,1.8-0.4c0.7,0,1.3,0.1,1.8,0.4
			c0.5,0.2,1,0.6,1.4,1c0.4,0.4,0.7,0.9,0.9,1.4c0.2,0.5,0.3,1.1,0.3,1.7s-0.1,1.2-0.3,1.7c-0.2,0.5-0.5,1-0.9,1.4s-0.9,0.7-1.4,1
			S424.7,269.3,424.1,269.3z M421.5,264.9c0,0.4,0.1,0.8,0.2,1.1c0.1,0.3,0.3,0.7,0.5,0.9c0.2,0.3,0.5,0.5,0.8,0.6s0.6,0.2,1,0.2
			s0.7-0.1,1-0.2s0.6-0.4,0.8-0.6c0.2-0.3,0.4-0.6,0.5-0.9s0.2-0.7,0.2-1.1c0-0.4-0.1-0.8-0.2-1.1c-0.1-0.4-0.3-0.7-0.5-0.9
			c-0.2-0.3-0.5-0.5-0.8-0.6s-0.6-0.2-1-0.2c-0.3,0-0.7,0.1-1,0.2c-0.3,0.2-0.6,0.4-0.8,0.6c-0.2,0.3-0.4,0.6-0.5,0.9
			C421.6,264.1,421.5,264.5,421.5,264.9z"/>
		<path class="st3" d="M430.1,259.2v-2h1.8v2H430.1z M430.1,269.2v-8.6h1.8v8.6H430.1z"/>
		<path class="st3" d="M433.5,264.9c0-0.6,0.1-1.2,0.3-1.7c0.2-0.5,0.5-1,0.9-1.4s0.9-0.7,1.4-1s1.2-0.4,1.8-0.4
			c0.9,0,1.6,0.2,2.3,0.6c0.6,0.4,1.1,0.9,1.4,1.5l-1.8,0.6c-0.2-0.4-0.5-0.6-0.8-0.8s-0.7-0.3-1.2-0.3c-0.4,0-0.7,0.1-1,0.2
			c-0.3,0.1-0.6,0.3-0.8,0.6s-0.4,0.6-0.5,0.9c-0.1,0.4-0.2,0.7-0.2,1.2c0,0.4,0.1,0.8,0.2,1.2c0.1,0.4,0.3,0.7,0.6,0.9
			c0.2,0.3,0.5,0.5,0.8,0.6c0.3,0.1,0.6,0.2,1,0.2c0.2,0,0.4,0,0.7-0.1c0.2-0.1,0.4-0.1,0.6-0.3c0.2-0.1,0.3-0.2,0.5-0.4
			c0.1-0.1,0.2-0.3,0.3-0.5l1.8,0.5c-0.3,0.6-0.8,1.2-1.4,1.6c-0.7,0.4-1.5,0.6-2.4,0.6c-0.7,0-1.3-0.1-1.8-0.4
			c-0.5-0.2-1-0.6-1.4-1c-0.4-0.4-0.7-0.9-0.9-1.4S433.5,265.5,433.5,264.9z"/>
		<path class="st3" d="M447.1,269.3c-0.7,0-1.3-0.1-1.8-0.4c-0.5-0.2-1-0.6-1.4-1s-0.7-0.9-0.9-1.4s-0.3-1.1-0.3-1.7
			c0-0.6,0.1-1.2,0.3-1.7s0.5-1,0.9-1.4c0.4-0.4,0.9-0.7,1.4-1c0.5-0.2,1.2-0.4,1.8-0.4c0.7,0,1.3,0.1,1.8,0.4c0.5,0.2,1,0.6,1.4,1
			c0.4,0.4,0.7,0.9,0.9,1.4c0.2,0.5,0.3,1.1,0.3,1.7c0,0.1,0,0.3,0,0.4c0,0.1,0,0.2,0,0.3h-6.9c0,0.4,0.1,0.7,0.3,1s0.3,0.6,0.6,0.8
			c0.2,0.2,0.5,0.4,0.8,0.5c0.3,0.1,0.6,0.2,0.9,0.2c0.2,0,0.5,0,0.7-0.1c0.2-0.1,0.5-0.1,0.6-0.3c0.2-0.1,0.4-0.3,0.5-0.4
			s0.3-0.3,0.4-0.5l1.5,0.4c-0.3,0.6-0.8,1.2-1.5,1.6C448.8,269.1,448,269.3,447.1,269.3z M449.7,264.2c0-0.4-0.1-0.7-0.3-1
			s-0.3-0.6-0.6-0.8s-0.5-0.4-0.8-0.5c-0.3-0.1-0.6-0.2-1-0.2c-0.3,0-0.7,0.1-1,0.2c-0.3,0.1-0.6,0.3-0.8,0.5s-0.4,0.5-0.6,0.8
			c-0.1,0.3-0.2,0.6-0.3,1H449.7z"/>
		<path class="st3" d="M401.6,283.4c0-0.7,0.1-1.4,0.4-2.1s0.6-1.3,1.1-1.9s1.1-1,1.8-1.3c0.7-0.3,1.5-0.5,2.4-0.5
			c1.1,0,2,0.2,2.7,0.7s1.3,1.1,1.7,1.8l-1.4,1c-0.2-0.3-0.4-0.6-0.6-0.9s-0.5-0.4-0.8-0.6c-0.3-0.1-0.6-0.2-0.9-0.3
			c-0.3-0.1-0.6-0.1-0.9-0.1c-0.6,0-1.1,0.1-1.6,0.4c-0.5,0.2-0.8,0.6-1.2,1s-0.5,0.9-0.7,1.4c-0.2,0.5-0.2,1-0.2,1.5
			c0,0.6,0.1,1.1,0.3,1.6c0.2,0.5,0.4,1,0.8,1.4c0.3,0.4,0.7,0.7,1.2,0.9c0.5,0.2,1,0.4,1.5,0.4c0.3,0,0.6,0,0.9-0.1
			c0.3-0.1,0.6-0.2,0.9-0.3s0.5-0.4,0.8-0.6c0.2-0.2,0.4-0.5,0.6-0.9l1.5,0.9c-0.2,0.4-0.4,0.8-0.8,1.2c-0.3,0.3-0.7,0.6-1.1,0.8
			s-0.9,0.4-1.4,0.5c-0.5,0.1-0.9,0.2-1.4,0.2c-0.8,0-1.6-0.2-2.2-0.5c-0.7-0.3-1.3-0.8-1.8-1.4c-0.5-0.6-0.9-1.2-1.1-1.9
			C401.8,284.9,401.6,284.2,401.6,283.4z"/>
		<path class="st3" d="M417.2,289.5c-0.7,0-1.3-0.1-1.8-0.4s-1-0.6-1.4-1c-0.4-0.4-0.7-0.9-0.9-1.4c-0.2-0.5-0.3-1.1-0.3-1.7
			s0.1-1.2,0.3-1.7c0.2-0.5,0.5-1,0.9-1.4c0.4-0.4,0.9-0.7,1.4-1c0.5-0.2,1.1-0.4,1.8-0.4c0.7,0,1.3,0.1,1.8,0.4
			c0.5,0.2,1,0.6,1.4,1c0.4,0.4,0.7,0.9,0.9,1.4c0.2,0.5,0.3,1.1,0.3,1.7s-0.1,1.2-0.3,1.7c-0.2,0.5-0.5,1-0.9,1.4s-0.9,0.7-1.4,1
			S417.9,289.5,417.2,289.5z M414.6,285.1c0,0.4,0.1,0.8,0.2,1.1c0.1,0.3,0.3,0.7,0.5,0.9c0.2,0.3,0.5,0.5,0.8,0.6s0.6,0.2,1,0.2
			s0.7-0.1,1-0.2s0.6-0.4,0.8-0.6c0.2-0.3,0.4-0.6,0.5-0.9s0.2-0.7,0.2-1.1c0-0.4-0.1-0.8-0.2-1.1c-0.1-0.4-0.3-0.7-0.5-0.9
			c-0.2-0.3-0.5-0.5-0.8-0.6s-0.6-0.2-1-0.2c-0.3,0-0.7,0.1-1,0.2c-0.3,0.2-0.6,0.4-0.8,0.6c-0.2,0.3-0.4,0.6-0.5,0.9
			C414.7,284.3,414.6,284.7,414.6,285.1z"/>
		<path class="st3" d="M430.9,289.3h-1.8v-4.8c0-0.8-0.1-1.4-0.4-1.8s-0.6-0.5-1.1-0.5c-0.3,0-0.5,0-0.8,0.1
			c-0.3,0.1-0.5,0.2-0.7,0.4c-0.2,0.2-0.4,0.4-0.6,0.6c-0.2,0.2-0.3,0.5-0.4,0.8v5.1h-1.8v-8.6h1.6v1.7c0.3-0.6,0.8-1,1.4-1.4
			c0.6-0.3,1.3-0.5,2.1-0.5c0.5,0,0.9,0.1,1.3,0.3c0.3,0.2,0.6,0.4,0.8,0.8c0.2,0.3,0.3,0.7,0.4,1.1s0.1,0.9,0.1,1.3V289.3z"/>
		<path class="st3" d="M437.8,288.9c-0.2,0.1-0.5,0.2-1,0.4c-0.4,0.1-0.8,0.2-1.3,0.2c-0.3,0-0.6,0-0.8-0.1
			c-0.3-0.1-0.5-0.2-0.7-0.3c-0.2-0.2-0.3-0.4-0.5-0.6s-0.2-0.5-0.2-0.9v-5.4h-1.1v-1.4h1.1v-2.8h1.8v2.8h1.9v1.4h-1.9v4.8
			c0,0.3,0.1,0.5,0.3,0.7c0.2,0.1,0.4,0.2,0.6,0.2s0.5,0,0.7-0.1c0.2-0.1,0.4-0.2,0.5-0.2L437.8,288.9z"/>
		<path class="st3" d="M443.8,282.3c-0.7,0-1.3,0.2-1.9,0.5c-0.5,0.3-0.9,0.7-1.2,1.3v5.2H439v-8.6h1.7v1.9c0.3-0.6,0.7-1.1,1.2-1.4
			c0.5-0.4,1-0.5,1.5-0.6c0.1,0,0.2,0,0.3,0s0.1,0,0.2,0V282.3z"/>
		<path class="st3" d="M449,289.5c-0.7,0-1.3-0.1-1.8-0.4s-1-0.6-1.4-1c-0.4-0.4-0.7-0.9-0.9-1.4c-0.2-0.5-0.3-1.1-0.3-1.7
			s0.1-1.2,0.3-1.7c0.2-0.5,0.5-1,0.9-1.4c0.4-0.4,0.9-0.7,1.4-1c0.5-0.2,1.1-0.4,1.8-0.4c0.7,0,1.3,0.1,1.8,0.4
			c0.5,0.2,1,0.6,1.4,1c0.4,0.4,0.7,0.9,0.9,1.4c0.2,0.5,0.3,1.1,0.3,1.7s-0.1,1.2-0.3,1.7c-0.2,0.5-0.5,1-0.9,1.4s-0.9,0.7-1.4,1
			S449.6,289.5,449,289.5z M446.4,285.1c0,0.4,0.1,0.8,0.2,1.1c0.1,0.3,0.3,0.7,0.5,0.9c0.2,0.3,0.5,0.5,0.8,0.6s0.6,0.2,1,0.2
			s0.7-0.1,1-0.2s0.6-0.4,0.8-0.6c0.2-0.3,0.4-0.6,0.5-0.9s0.2-0.7,0.2-1.1c0-0.4-0.1-0.8-0.2-1.1c-0.1-0.4-0.3-0.7-0.5-0.9
			c-0.2-0.3-0.5-0.5-0.8-0.6s-0.6-0.2-1-0.2c-0.3,0-0.7,0.1-1,0.2c-0.3,0.2-0.6,0.4-0.8,0.6c-0.2,0.3-0.4,0.6-0.5,0.9
			C446.5,284.3,446.4,284.7,446.4,285.1z"/>
		<path class="st3" d="M455,277.4h1.8v9.5c0,0.3,0.1,0.6,0.2,0.7s0.4,0.3,0.7,0.3c0.1,0,0.3,0,0.4-0.1c0.2,0,0.3-0.1,0.5-0.1
			l0.3,1.4c-0.3,0.1-0.6,0.2-0.9,0.3c-0.4,0.1-0.7,0.1-1,0.1c-0.6,0-1.1-0.2-1.5-0.5c-0.3-0.3-0.5-0.8-0.5-1.4V277.4z"/>
	</g>
</g>
<circle class="st2" cx="48.9" cy="169.6" r="48.9"/>
<g>
	<g>
		<path class="st3" d="M20.7,164.7v-11.6h4.9c0.5,0,1,0.1,1.5,0.3c0.4,0.2,0.8,0.5,1.1,0.9c0.3,0.4,0.6,0.8,0.7,1.2
			c0.2,0.5,0.3,0.9,0.3,1.4c0,0.5-0.1,1-0.3,1.4c-0.2,0.5-0.4,0.9-0.7,1.2c-0.3,0.4-0.7,0.6-1.1,0.9s-0.9,0.3-1.4,0.3h-3.1v4H20.7z
			 M22.6,159.1h3c0.3,0,0.5-0.1,0.7-0.2c0.2-0.1,0.4-0.3,0.5-0.5c0.2-0.2,0.3-0.4,0.4-0.7c0.1-0.3,0.1-0.6,0.1-0.9
			c0-0.3,0-0.6-0.1-0.9c-0.1-0.3-0.2-0.5-0.4-0.7c-0.2-0.2-0.4-0.3-0.6-0.4c-0.2-0.1-0.5-0.2-0.7-0.2h-2.9V159.1z"/>
		<path class="st3" d="M35.5,157.7c-0.7,0-1.3,0.2-1.9,0.5c-0.5,0.3-0.9,0.7-1.2,1.3v5.2h-1.8v-8.6h1.7v1.9c0.3-0.6,0.7-1.1,1.2-1.4
			c0.5-0.4,1-0.5,1.5-0.6c0.1,0,0.2,0,0.3,0s0.1,0,0.2,0V157.7z"/>
		<path class="st3" d="M40.7,164.9c-0.7,0-1.3-0.1-1.8-0.4c-0.5-0.2-1-0.6-1.4-1s-0.7-0.9-0.9-1.4s-0.3-1.1-0.3-1.7
			c0-0.6,0.1-1.2,0.3-1.7c0.2-0.5,0.5-1,0.9-1.4s0.9-0.7,1.4-1c0.5-0.2,1.2-0.4,1.8-0.4c0.7,0,1.3,0.1,1.8,0.4c0.5,0.2,1,0.6,1.4,1
			c0.4,0.4,0.7,0.9,0.9,1.4c0.2,0.5,0.3,1.1,0.3,1.7c0,0.1,0,0.3,0,0.4c0,0.1,0,0.2,0,0.3h-6.9c0,0.4,0.1,0.7,0.3,1
			c0.1,0.3,0.3,0.6,0.6,0.8c0.2,0.2,0.5,0.4,0.8,0.5c0.3,0.1,0.6,0.2,0.9,0.2c0.2,0,0.5,0,0.7-0.1c0.2-0.1,0.5-0.1,0.6-0.3
			c0.2-0.1,0.4-0.3,0.5-0.4c0.2-0.2,0.3-0.3,0.4-0.5l1.5,0.4c-0.3,0.6-0.8,1.2-1.5,1.6S41.6,164.9,40.7,164.9z M43.3,159.8
			c0-0.4-0.1-0.7-0.3-1c-0.1-0.3-0.3-0.6-0.6-0.8s-0.5-0.4-0.8-0.5c-0.3-0.1-0.6-0.2-1-0.2c-0.3,0-0.7,0.1-1,0.2
			c-0.3,0.1-0.6,0.3-0.8,0.5s-0.4,0.5-0.6,0.8c-0.1,0.3-0.2,0.6-0.3,1H43.3z"/>
		<path class="st3" d="M54.3,164.7h-1.8v-4.8c0-0.8-0.1-1.4-0.4-1.7c-0.3-0.4-0.7-0.6-1.2-0.6c-0.3,0-0.5,0-0.8,0.1
			c-0.3,0.1-0.5,0.2-0.7,0.4c-0.2,0.2-0.4,0.4-0.6,0.6c-0.2,0.2-0.3,0.5-0.4,0.8v5.1h-1.8v-12h1.8v5.1c0.3-0.6,0.8-1,1.3-1.4
			c0.6-0.3,1.2-0.5,1.8-0.5c0.5,0,1,0.1,1.3,0.3c0.3,0.2,0.6,0.4,0.8,0.8c0.2,0.3,0.4,0.7,0.4,1.1c0.1,0.4,0.1,0.9,0.1,1.3V164.7z"
			/>
		<path class="st3" d="M60.3,164.9c-0.7,0-1.3-0.1-1.8-0.4c-0.5-0.2-1-0.6-1.4-1s-0.7-0.9-0.9-1.4s-0.3-1.1-0.3-1.7
			c0-0.6,0.1-1.2,0.3-1.7c0.2-0.5,0.5-1,0.9-1.4s0.9-0.7,1.4-1c0.5-0.2,1.2-0.4,1.8-0.4c0.7,0,1.3,0.1,1.8,0.4c0.5,0.2,1,0.6,1.4,1
			c0.4,0.4,0.7,0.9,0.9,1.4c0.2,0.5,0.3,1.1,0.3,1.7c0,0.1,0,0.3,0,0.4c0,0.1,0,0.2,0,0.3h-6.9c0,0.4,0.1,0.7,0.3,1
			c0.1,0.3,0.3,0.6,0.6,0.8c0.2,0.2,0.5,0.4,0.8,0.5c0.3,0.1,0.6,0.2,0.9,0.2c0.2,0,0.5,0,0.7-0.1c0.2-0.1,0.5-0.1,0.6-0.3
			c0.2-0.1,0.4-0.3,0.5-0.4c0.2-0.2,0.3-0.3,0.4-0.5l1.5,0.4c-0.3,0.6-0.8,1.2-1.5,1.6S61.2,164.9,60.3,164.9z M62.9,159.8
			c0-0.4-0.1-0.7-0.3-1c-0.1-0.3-0.3-0.6-0.6-0.8s-0.5-0.4-0.8-0.5c-0.3-0.1-0.6-0.2-1-0.2c-0.3,0-0.7,0.1-1,0.2
			c-0.3,0.1-0.6,0.3-0.8,0.5s-0.4,0.5-0.6,0.8c-0.1,0.3-0.2,0.6-0.3,1H62.9z"/>
		<path class="st3" d="M68.4,164.9c-0.4,0-0.8-0.1-1.2-0.2c-0.4-0.1-0.7-0.3-0.9-0.6c-0.3-0.2-0.5-0.5-0.6-0.9s-0.2-0.7-0.2-1.1
			c0-0.4,0.1-0.8,0.3-1.1s0.4-0.6,0.7-0.9s0.7-0.4,1.1-0.6c0.4-0.1,0.9-0.2,1.5-0.2c0.4,0,0.8,0,1.2,0.1c0.4,0.1,0.7,0.2,1.1,0.3
			v-0.6c0-0.6-0.2-1.1-0.5-1.5c-0.4-0.4-0.9-0.5-1.6-0.5c-0.5,0-0.9,0.1-1.4,0.3s-0.9,0.4-1.4,0.7l-0.6-1.1c1.1-0.7,2.2-1.1,3.4-1.1
			c1.2,0,2.1,0.3,2.8,0.9c0.7,0.6,1,1.5,1,2.6v3.1c0,0.4,0.2,0.6,0.5,0.6v1.5c-0.2,0-0.3,0.1-0.5,0.1c-0.1,0-0.2,0-0.4,0
			c-0.3,0-0.6-0.1-0.8-0.3c-0.2-0.2-0.3-0.4-0.4-0.7l0-0.5c-0.4,0.5-0.9,0.9-1.4,1.2S69.1,164.9,68.4,164.9z M68.9,163.6
			c0.4,0,0.8-0.1,1.2-0.2s0.7-0.4,0.9-0.7c0.2-0.2,0.3-0.4,0.3-0.6v-1.1c-0.3-0.1-0.6-0.2-1-0.3c-0.3-0.1-0.7-0.1-1-0.1
			c-0.6,0-1.2,0.1-1.6,0.4c-0.4,0.3-0.6,0.6-0.6,1.1c0,0.4,0.2,0.8,0.5,1.1C68,163.4,68.4,163.6,68.9,163.6z"/>
		<path class="st3" d="M80.1,164.3c-0.2,0.1-0.5,0.2-1,0.4c-0.4,0.1-0.8,0.2-1.3,0.2c-0.3,0-0.6,0-0.8-0.1c-0.3-0.1-0.5-0.2-0.7-0.3
			c-0.2-0.2-0.3-0.4-0.5-0.6c-0.1-0.2-0.2-0.5-0.2-0.9v-5.4h-1.1v-1.4h1.1v-2.8h1.8v2.8h1.9v1.4h-1.9v4.8c0,0.3,0.1,0.5,0.3,0.7
			c0.2,0.1,0.4,0.2,0.6,0.2s0.5,0,0.7-0.1c0.2-0.1,0.4-0.2,0.5-0.2L80.1,164.3z"/>
		<path class="st3" d="M13.5,184.9v-11.6h5.1c0.5,0,1,0.1,1.5,0.3c0.4,0.2,0.8,0.5,1.1,0.9c0.3,0.4,0.6,0.8,0.7,1.2
			c0.2,0.5,0.3,0.9,0.3,1.4c0,0.4-0.1,0.8-0.2,1.1c-0.1,0.4-0.3,0.7-0.5,1c-0.2,0.3-0.4,0.6-0.7,0.8c-0.3,0.2-0.6,0.4-0.9,0.5
			l2.7,4.4h-2.1l-2.5-4h-2.7v4H13.5z M15.4,179.2h3.2c0.3,0,0.5-0.1,0.7-0.2s0.4-0.3,0.5-0.5c0.2-0.2,0.3-0.4,0.4-0.7
			c0.1-0.3,0.1-0.5,0.1-0.8c0-0.3-0.1-0.6-0.2-0.8c-0.1-0.3-0.2-0.5-0.4-0.7c-0.2-0.2-0.4-0.4-0.6-0.5s-0.5-0.2-0.7-0.2h-3.1V179.2z
			"/>
		<path class="st3" d="M28,185.1c-0.7,0-1.3-0.1-1.8-0.4c-0.5-0.2-1-0.6-1.4-1s-0.7-0.9-0.9-1.4s-0.3-1.1-0.3-1.7
			c0-0.6,0.1-1.2,0.3-1.7c0.2-0.5,0.5-1,0.9-1.4s0.9-0.7,1.4-1c0.5-0.2,1.2-0.4,1.8-0.4c0.7,0,1.3,0.1,1.8,0.4c0.5,0.2,1,0.6,1.4,1
			c0.4,0.4,0.7,0.9,0.9,1.4c0.2,0.5,0.3,1.1,0.3,1.7c0,0.1,0,0.3,0,0.4c0,0.1,0,0.2,0,0.3h-6.9c0,0.4,0.1,0.7,0.3,1
			c0.1,0.3,0.3,0.6,0.6,0.8c0.2,0.2,0.5,0.4,0.8,0.5c0.3,0.1,0.6,0.2,0.9,0.2c0.2,0,0.5,0,0.7-0.1c0.2-0.1,0.5-0.1,0.6-0.3
			c0.2-0.1,0.4-0.3,0.5-0.4c0.2-0.2,0.3-0.3,0.4-0.5l1.5,0.4c-0.3,0.6-0.8,1.2-1.5,1.6C29.7,184.9,28.9,185.1,28,185.1z M30.6,180
			c0-0.4-0.1-0.7-0.3-1c-0.1-0.3-0.3-0.6-0.6-0.8s-0.5-0.4-0.8-0.5c-0.3-0.1-0.6-0.2-1-0.2c-0.3,0-0.7,0.1-1,0.2
			c-0.3,0.1-0.6,0.3-0.8,0.5s-0.4,0.5-0.6,0.8c-0.1,0.3-0.2,0.6-0.3,1H30.6z"/>
		<path class="st3" d="M47,184.9h-1.8v-4.8c0-0.8-0.1-1.4-0.4-1.8c-0.3-0.4-0.6-0.6-1.1-0.6c-0.5,0-1,0.2-1.4,0.6
			c-0.4,0.4-0.7,0.9-0.9,1.5v5.1h-1.8v-4.8c0-0.8-0.1-1.4-0.4-1.8c-0.3-0.4-0.6-0.5-1.1-0.5c-0.5,0-1,0.2-1.4,0.6s-0.7,0.9-0.9,1.5
			v5.1h-1.8v-8.6h1.6v1.7c0.3-0.6,0.8-1.1,1.3-1.4s1.2-0.5,1.9-0.5s1.3,0.2,1.7,0.6c0.4,0.4,0.7,0.8,0.8,1.4
			c0.4-0.6,0.8-1.1,1.4-1.5c0.5-0.3,1.2-0.5,1.9-0.5c0.5,0,0.9,0.1,1.3,0.3c0.3,0.2,0.6,0.4,0.8,0.8c0.2,0.3,0.3,0.7,0.4,1.1
			c0.1,0.4,0.1,0.9,0.1,1.3V184.9z"/>
		<path class="st3" d="M52.9,185.1c-0.7,0-1.3-0.1-1.8-0.4s-1-0.6-1.4-1c-0.4-0.4-0.7-0.9-0.9-1.4c-0.2-0.5-0.3-1.1-0.3-1.7
			s0.1-1.2,0.3-1.7c0.2-0.5,0.5-1,0.9-1.4c0.4-0.4,0.9-0.7,1.4-1c0.5-0.2,1.1-0.4,1.8-0.4c0.7,0,1.3,0.1,1.8,0.4
			c0.5,0.2,1,0.6,1.4,1c0.4,0.4,0.7,0.9,0.9,1.4c0.2,0.5,0.3,1.1,0.3,1.7s-0.1,1.2-0.3,1.7c-0.2,0.5-0.5,1-0.9,1.4
			c-0.4,0.4-0.9,0.7-1.4,1S53.6,185.1,52.9,185.1z M50.4,180.7c0,0.4,0.1,0.8,0.2,1.1c0.1,0.4,0.3,0.7,0.5,0.9
			c0.2,0.3,0.5,0.5,0.8,0.6s0.6,0.2,1,0.2s0.7-0.1,1-0.2s0.6-0.4,0.8-0.6c0.2-0.3,0.4-0.6,0.5-0.9s0.2-0.7,0.2-1.1
			c0-0.4-0.1-0.8-0.2-1.1c-0.1-0.4-0.3-0.7-0.5-0.9c-0.2-0.3-0.5-0.5-0.8-0.6s-0.6-0.2-1-0.2c-0.3,0-0.7,0.1-1,0.2
			c-0.3,0.2-0.6,0.4-0.8,0.6s-0.4,0.6-0.5,0.9S50.4,180.3,50.4,180.7z"/>
		<path class="st3" d="M63.7,184.5c-0.2,0.1-0.5,0.2-1,0.4c-0.4,0.1-0.8,0.2-1.3,0.2c-0.3,0-0.6,0-0.8-0.1c-0.3-0.1-0.5-0.2-0.7-0.3
			c-0.2-0.2-0.3-0.4-0.5-0.6c-0.1-0.2-0.2-0.5-0.2-0.9v-5.4h-1.1v-1.4h1.1v-2.8h1.8v2.8h1.9v1.4h-1.9v4.8c0,0.3,0.1,0.5,0.3,0.7
			c0.2,0.1,0.4,0.2,0.6,0.2s0.5,0,0.7-0.1c0.2-0.1,0.4-0.2,0.5-0.2L63.7,184.5z"/>
		<path class="st3" d="M68.8,185.1c-0.7,0-1.3-0.1-1.8-0.4c-0.5-0.2-1-0.6-1.4-1s-0.7-0.9-0.9-1.4s-0.3-1.1-0.3-1.7
			c0-0.6,0.1-1.2,0.3-1.7c0.2-0.5,0.5-1,0.9-1.4s0.9-0.7,1.4-1c0.5-0.2,1.2-0.4,1.8-0.4c0.7,0,1.3,0.1,1.8,0.4c0.5,0.2,1,0.6,1.4,1
			c0.4,0.4,0.7,0.9,0.9,1.4c0.2,0.5,0.3,1.1,0.3,1.7c0,0.1,0,0.3,0,0.4c0,0.1,0,0.2,0,0.3h-6.9c0,0.4,0.1,0.7,0.3,1
			c0.1,0.3,0.3,0.6,0.6,0.8c0.2,0.2,0.5,0.4,0.8,0.5c0.3,0.1,0.6,0.2,0.9,0.2c0.2,0,0.5,0,0.7-0.1c0.2-0.1,0.5-0.1,0.6-0.3
			c0.2-0.1,0.4-0.3,0.5-0.4c0.2-0.2,0.3-0.3,0.4-0.5l1.5,0.4c-0.3,0.6-0.8,1.2-1.5,1.6C70.5,184.9,69.7,185.1,68.8,185.1z M71.4,180
			c0-0.4-0.1-0.7-0.3-1c-0.1-0.3-0.3-0.6-0.6-0.8s-0.5-0.4-0.8-0.5c-0.3-0.1-0.6-0.2-1-0.2c-0.3,0-0.7,0.1-1,0.2
			c-0.3,0.1-0.6,0.3-0.8,0.5s-0.4,0.5-0.6,0.8c-0.1,0.3-0.2,0.6-0.3,1H71.4z"/>
		<path class="st3" d="M74.7,173h1.8v9.5c0,0.3,0.1,0.6,0.2,0.7c0.2,0.2,0.4,0.3,0.7,0.3c0.1,0,0.3,0,0.4-0.1c0.2,0,0.3-0.1,0.5-0.1
			l0.3,1.4c-0.3,0.1-0.6,0.2-0.9,0.3c-0.4,0.1-0.7,0.1-1,0.1c-0.6,0-1.1-0.2-1.5-0.5c-0.3-0.3-0.5-0.8-0.5-1.4V173z"/>
		<path class="st3" d="M79.9,186.9c0.2,0,0.3,0.1,0.5,0.1c0.2,0,0.3,0,0.4,0c0.1,0,0.3,0,0.4-0.1c0.1-0.1,0.2-0.2,0.3-0.3
			c0.1-0.2,0.2-0.4,0.3-0.6c0.1-0.3,0.2-0.6,0.4-1.1l-3.5-8.6h1.9l2.7,7l2.4-7h1.7l-3.9,10.6c-0.2,0.5-0.5,0.9-0.9,1.2
			c-0.4,0.3-1,0.5-1.7,0.5c-0.1,0-0.3,0-0.4,0s-0.3-0.1-0.5-0.1V186.9z"/>
	</g>
</g>
<circle class="st2" cx="337.6" cy="54.4" r="54.4"/>
<g>
	<g>
		<path class="st3" d="M298.5,40.9h1.6l4.6,11.6h-1.9l-1.2-3.2h-4.5l-1.2,3.2h-2L298.5,40.9z M301.2,48l-1.9-5l-1.9,5H301.2z"/>
		<path class="st3" d="M308.6,52.7c-0.9,0-1.6-0.3-2-0.9c-0.5-0.6-0.7-1.5-0.7-2.6v-5.2h1.8v4.9c0,1.5,0.5,2.3,1.6,2.3
			c0.5,0,1-0.2,1.5-0.5s0.8-0.8,1.1-1.4v-5.3h1.8v6.4c0,0.2,0,0.4,0.1,0.4c0.1,0.1,0.2,0.1,0.4,0.1v1.5c-0.2,0-0.3,0.1-0.5,0.1
			s-0.2,0-0.3,0c-0.3,0-0.6-0.1-0.8-0.3s-0.3-0.4-0.4-0.7l0-0.9c-0.4,0.6-0.9,1.1-1.5,1.4C310,52.5,309.3,52.7,308.6,52.7z"/>
		<path class="st3" d="M320.7,52c-0.2,0.1-0.5,0.2-1,0.4c-0.4,0.1-0.8,0.2-1.3,0.2c-0.3,0-0.6,0-0.8-0.1c-0.3-0.1-0.5-0.2-0.7-0.3
			c-0.2-0.2-0.3-0.4-0.5-0.6c-0.1-0.2-0.2-0.5-0.2-0.9v-5.4h-1.1v-1.4h1.1v-2.8h1.8v2.8h1.9v1.4h-1.9v4.8c0,0.3,0.1,0.5,0.3,0.7
			c0.2,0.1,0.4,0.2,0.6,0.2s0.5,0,0.7-0.1c0.2-0.1,0.4-0.2,0.5-0.2L320.7,52z"/>
		<path class="st3" d="M325.8,52.7c-0.7,0-1.3-0.1-1.8-0.4s-1-0.6-1.4-1c-0.4-0.4-0.7-0.9-0.9-1.4c-0.2-0.5-0.3-1.1-0.3-1.7
			s0.1-1.2,0.3-1.7c0.2-0.5,0.5-1,0.9-1.4c0.4-0.4,0.9-0.7,1.4-1c0.5-0.2,1.1-0.4,1.8-0.4c0.7,0,1.3,0.1,1.8,0.4
			c0.5,0.2,1,0.6,1.4,1c0.4,0.4,0.7,0.9,0.9,1.4c0.2,0.5,0.3,1.1,0.3,1.7s-0.1,1.2-0.3,1.7c-0.2,0.5-0.5,1-0.9,1.4
			c-0.4,0.4-0.9,0.7-1.4,1S326.4,52.7,325.8,52.7z M323.2,48.2c0,0.4,0.1,0.8,0.2,1.1c0.1,0.4,0.3,0.7,0.5,0.9
			c0.2,0.3,0.5,0.5,0.8,0.6s0.6,0.2,1,0.2s0.7-0.1,1-0.2s0.6-0.4,0.8-0.6c0.2-0.3,0.4-0.6,0.5-0.9s0.2-0.7,0.2-1.1
			c0-0.4-0.1-0.8-0.2-1.1c-0.1-0.4-0.3-0.7-0.5-0.9c-0.2-0.3-0.5-0.5-0.8-0.6s-0.6-0.2-1-0.2c-0.3,0-0.7,0.1-1,0.2
			c-0.3,0.2-0.6,0.4-0.8,0.6s-0.4,0.6-0.5,0.9S323.2,47.8,323.2,48.2z"/>
		<path class="st3" d="M344.9,52.5h-1.8v-4.8c0-0.8-0.1-1.4-0.4-1.8c-0.3-0.4-0.6-0.6-1.1-0.6c-0.5,0-1,0.2-1.4,0.6
			c-0.4,0.4-0.7,0.9-0.9,1.5v5.1h-1.8v-4.8c0-0.8-0.1-1.4-0.4-1.8c-0.3-0.4-0.6-0.5-1.1-0.5c-0.5,0-1,0.2-1.4,0.6s-0.7,0.9-0.9,1.5
			v5.1h-1.8v-8.6h1.6v1.7c0.3-0.6,0.8-1.1,1.3-1.4s1.2-0.5,1.9-0.5s1.3,0.2,1.7,0.6c0.4,0.4,0.7,0.8,0.8,1.4
			c0.4-0.6,0.8-1.1,1.4-1.5c0.5-0.3,1.2-0.5,1.9-0.5c0.5,0,0.9,0.1,1.3,0.3c0.3,0.2,0.6,0.4,0.8,0.8c0.2,0.3,0.3,0.7,0.4,1.1
			c0.1,0.4,0.1,0.9,0.1,1.3V52.5z"/>
		<path class="st3" d="M349.2,52.7c-0.4,0-0.8-0.1-1.2-0.2c-0.4-0.1-0.7-0.3-0.9-0.6c-0.3-0.2-0.5-0.5-0.6-0.9s-0.2-0.7-0.2-1.1
			c0-0.4,0.1-0.8,0.3-1.1s0.4-0.6,0.7-0.9s0.7-0.4,1.1-0.6c0.4-0.1,0.9-0.2,1.5-0.2c0.4,0,0.8,0,1.2,0.1c0.4,0.1,0.7,0.2,1.1,0.3
			v-0.6c0-0.6-0.2-1.1-0.5-1.5c-0.4-0.4-0.9-0.5-1.6-0.5c-0.5,0-0.9,0.1-1.4,0.3s-0.9,0.4-1.4,0.7l-0.6-1.1c1.1-0.7,2.2-1.1,3.4-1.1
			c1.2,0,2.1,0.3,2.8,0.9c0.7,0.6,1,1.5,1,2.6v3.1c0,0.4,0.2,0.6,0.5,0.6v1.5c-0.2,0-0.3,0.1-0.5,0.1c-0.1,0-0.2,0-0.4,0
			c-0.3,0-0.6-0.1-0.8-0.3c-0.2-0.2-0.3-0.4-0.4-0.7l0-0.5c-0.4,0.5-0.9,0.9-1.4,1.2S349.9,52.7,349.2,52.7z M349.7,51.3
			c0.4,0,0.8-0.1,1.2-0.2s0.7-0.4,0.9-0.7c0.2-0.2,0.3-0.4,0.3-0.6v-1.1c-0.3-0.1-0.6-0.2-1-0.3c-0.3-0.1-0.7-0.1-1-0.1
			c-0.6,0-1.2,0.1-1.6,0.4c-0.4,0.3-0.6,0.6-0.6,1.1c0,0.4,0.2,0.8,0.5,1.1C348.8,51.2,349.2,51.3,349.7,51.3z"/>
		<path class="st3" d="M361,52c-0.2,0.1-0.5,0.2-1,0.4c-0.4,0.1-0.8,0.2-1.3,0.2c-0.3,0-0.6,0-0.8-0.1c-0.3-0.1-0.5-0.2-0.7-0.3
			c-0.2-0.2-0.3-0.4-0.5-0.6c-0.1-0.2-0.2-0.5-0.2-0.9v-5.4h-1.1v-1.4h1.1v-2.8h1.8v2.8h1.9v1.4h-1.9v4.8c0,0.3,0.1,0.5,0.3,0.7
			c0.2,0.1,0.4,0.2,0.6,0.2s0.5,0,0.7-0.1c0.2-0.1,0.4-0.2,0.5-0.2L361,52z"/>
		<path class="st3" d="M366.1,52.7c-0.7,0-1.3-0.1-1.8-0.4c-0.5-0.2-1-0.6-1.4-1s-0.7-0.9-0.9-1.4s-0.3-1.1-0.3-1.7
			c0-0.6,0.1-1.2,0.3-1.7c0.2-0.5,0.5-1,0.9-1.4s0.9-0.7,1.4-1c0.5-0.2,1.2-0.4,1.8-0.4c0.7,0,1.3,0.1,1.8,0.4c0.5,0.2,1,0.6,1.4,1
			c0.4,0.4,0.7,0.9,0.9,1.4c0.2,0.5,0.3,1.1,0.3,1.7c0,0.1,0,0.3,0,0.4c0,0.1,0,0.2,0,0.3h-6.9c0,0.4,0.1,0.7,0.3,1
			c0.1,0.3,0.3,0.6,0.6,0.8c0.2,0.2,0.5,0.4,0.8,0.5c0.3,0.1,0.6,0.2,0.9,0.2c0.2,0,0.5,0,0.7-0.1c0.2-0.1,0.5-0.1,0.6-0.3
			c0.2-0.1,0.4-0.3,0.5-0.4c0.2-0.2,0.3-0.3,0.4-0.5l1.5,0.4c-0.3,0.6-0.8,1.2-1.5,1.6S367,52.7,366.1,52.7z M368.7,47.6
			c0-0.4-0.1-0.7-0.3-1c-0.1-0.3-0.3-0.6-0.6-0.8s-0.5-0.4-0.8-0.5c-0.3-0.1-0.6-0.2-1-0.2c-0.3,0-0.7,0.1-1,0.2
			c-0.3,0.1-0.6,0.3-0.8,0.5s-0.4,0.5-0.6,0.8c-0.1,0.3-0.2,0.6-0.3,1H368.7z"/>
		<path class="st3" d="M375.5,52.7c-0.6,0-1.1-0.1-1.6-0.4c-0.5-0.2-0.9-0.6-1.3-1c-0.4-0.4-0.6-0.9-0.8-1.4
			c-0.2-0.5-0.3-1.1-0.3-1.7c0-0.6,0.1-1.2,0.3-1.7c0.2-0.5,0.5-1,0.8-1.4c0.3-0.4,0.7-0.7,1.2-1c0.5-0.2,1-0.4,1.5-0.4
			c0.7,0,1.3,0.2,1.8,0.5c0.5,0.3,0.9,0.8,1.2,1.3v-5h1.8v9.8c0,0.2,0,0.4,0.1,0.4c0.1,0.1,0.2,0.1,0.4,0.1v1.5
			c-0.2,0-0.3,0.1-0.5,0.1c-0.1,0-0.2,0-0.3,0c-0.4,0-0.7-0.1-0.9-0.3c-0.2-0.2-0.4-0.4-0.4-0.7l0-0.6c-0.3,0.5-0.7,1-1.3,1.3
			C376.7,52.5,376.1,52.7,375.5,52.7z M375.9,51.1c0.3,0,0.5,0,0.8-0.1c0.3-0.1,0.5-0.2,0.7-0.4c0.2-0.2,0.4-0.3,0.6-0.5
			c0.2-0.2,0.3-0.4,0.3-0.7v-2.2c-0.1-0.3-0.2-0.5-0.4-0.8c-0.2-0.2-0.4-0.4-0.6-0.6c-0.2-0.2-0.5-0.3-0.7-0.4
			c-0.3-0.1-0.5-0.1-0.8-0.1c-0.4,0-0.7,0.1-1,0.2c-0.3,0.2-0.6,0.4-0.8,0.7c-0.2,0.3-0.4,0.6-0.5,0.9c-0.1,0.4-0.2,0.7-0.2,1.1
			c0,0.4,0.1,0.8,0.2,1.1c0.1,0.4,0.3,0.7,0.6,0.9s0.5,0.5,0.8,0.6C375.2,51,375.6,51.1,375.9,51.1z"/>
		<path class="st3" d="M313.3,61h1.6l4.6,11.6h-1.9l-1.2-3.2h-4.5l-1.2,3.2h-2L313.3,61z M316,68.1l-1.9-5l-1.9,5H316z"/>
		<path class="st3" d="M320.2,68.4c0-0.6,0.1-1.2,0.3-1.7c0.2-0.5,0.5-1,0.9-1.4s0.9-0.7,1.4-1c0.5-0.2,1.2-0.4,1.8-0.4
			c0.9,0,1.6,0.2,2.3,0.6c0.6,0.4,1.1,0.9,1.4,1.5l-1.8,0.6c-0.2-0.4-0.5-0.6-0.8-0.8c-0.3-0.2-0.7-0.3-1.2-0.3
			c-0.4,0-0.7,0.1-1,0.2s-0.6,0.3-0.8,0.6s-0.4,0.6-0.5,0.9c-0.1,0.4-0.2,0.7-0.2,1.2c0,0.4,0.1,0.8,0.2,1.2s0.3,0.7,0.6,0.9
			c0.2,0.3,0.5,0.5,0.8,0.6c0.3,0.1,0.6,0.2,1,0.2c0.2,0,0.4,0,0.7-0.1c0.2-0.1,0.4-0.1,0.6-0.3c0.2-0.1,0.3-0.2,0.5-0.4
			c0.1-0.1,0.2-0.3,0.3-0.5l1.8,0.5c-0.3,0.6-0.8,1.2-1.4,1.6c-0.7,0.4-1.5,0.6-2.4,0.6c-0.7,0-1.3-0.1-1.8-0.4
			c-0.5-0.2-1-0.6-1.4-1s-0.7-0.9-0.9-1.4C320.3,69.5,320.2,69,320.2,68.4z"/>
		<path class="st3" d="M334.6,72.2c-0.2,0.1-0.5,0.2-1,0.4c-0.4,0.1-0.8,0.2-1.3,0.2c-0.3,0-0.6,0-0.8-0.1c-0.3-0.1-0.5-0.2-0.7-0.3
			c-0.2-0.2-0.3-0.4-0.5-0.6c-0.1-0.2-0.2-0.5-0.2-0.9v-5.4h-1.1v-1.4h1.1v-2.8h1.8v2.8h1.9v1.4h-1.9v4.8c0,0.3,0.1,0.5,0.3,0.7
			c0.2,0.1,0.4,0.2,0.6,0.2s0.5,0,0.7-0.1c0.2-0.1,0.4-0.2,0.5-0.2L334.6,72.2z"/>
		<path class="st3" d="M335.9,62.7v-2h1.8v2H335.9z M335.9,72.7v-8.6h1.8v8.6H335.9z"/>
		<path class="st3" d="M343.7,72.8c-0.7,0-1.3-0.1-1.8-0.4s-1-0.6-1.4-1c-0.4-0.4-0.7-0.9-0.9-1.4c-0.2-0.5-0.3-1.1-0.3-1.7
			s0.1-1.2,0.3-1.7c0.2-0.5,0.5-1,0.9-1.4c0.4-0.4,0.9-0.7,1.4-1c0.5-0.2,1.1-0.4,1.8-0.4c0.7,0,1.3,0.1,1.8,0.4
			c0.5,0.2,1,0.6,1.4,1c0.4,0.4,0.7,0.9,0.9,1.4c0.2,0.5,0.3,1.1,0.3,1.7s-0.1,1.2-0.3,1.7c-0.2,0.5-0.5,1-0.9,1.4
			c-0.4,0.4-0.9,0.7-1.4,1S344.4,72.8,343.7,72.8z M341.1,68.4c0,0.4,0.1,0.8,0.2,1.1c0.1,0.4,0.3,0.7,0.5,0.9
			c0.2,0.3,0.5,0.5,0.8,0.6s0.6,0.2,1,0.2s0.7-0.1,1-0.2s0.6-0.4,0.8-0.6c0.2-0.3,0.4-0.6,0.5-0.9s0.2-0.7,0.2-1.1
			c0-0.4-0.1-0.8-0.2-1.1c-0.1-0.4-0.3-0.7-0.5-0.9c-0.2-0.3-0.5-0.5-0.8-0.6s-0.6-0.2-1-0.2c-0.3,0-0.7,0.1-1,0.2
			c-0.3,0.2-0.6,0.4-0.8,0.6s-0.4,0.6-0.5,0.9S341.1,68,341.1,68.4z"/>
		<path class="st3" d="M357.4,72.7h-1.8v-4.8c0-0.8-0.1-1.4-0.4-1.8c-0.3-0.4-0.6-0.5-1.1-0.5c-0.3,0-0.5,0-0.8,0.1
			c-0.3,0.1-0.5,0.2-0.7,0.4c-0.2,0.2-0.4,0.4-0.6,0.6c-0.2,0.2-0.3,0.5-0.4,0.8v5.1h-1.8v-8.6h1.6v1.7c0.3-0.6,0.8-1,1.4-1.4
			c0.6-0.3,1.3-0.5,2.1-0.5c0.5,0,0.9,0.1,1.3,0.3c0.3,0.2,0.6,0.4,0.8,0.8c0.2,0.3,0.3,0.7,0.4,1.1c0.1,0.4,0.1,0.9,0.1,1.3V72.7z"
			/>
		<path class="st3" d="M362.6,72.8c-0.7,0-1.4-0.1-2.1-0.3c-0.7-0.2-1.3-0.5-1.8-1l0.7-1.1c0.5,0.4,1,0.7,1.5,0.8
			c0.5,0.2,1,0.3,1.5,0.3c0.5,0,1-0.1,1.3-0.3c0.3-0.2,0.5-0.5,0.5-0.9c0-0.4-0.2-0.6-0.5-0.8s-0.9-0.3-1.6-0.5
			c-0.5-0.1-1-0.3-1.4-0.4c-0.4-0.1-0.7-0.3-0.9-0.5s-0.4-0.4-0.5-0.6s-0.2-0.5-0.2-0.8c0-0.4,0.1-0.8,0.3-1.2
			c0.2-0.3,0.4-0.6,0.7-0.9c0.3-0.2,0.7-0.4,1.1-0.5s0.8-0.2,1.3-0.2c0.6,0,1.2,0.1,1.8,0.3c0.6,0.2,1.1,0.5,1.5,0.9l-0.8,1.1
			c-0.8-0.6-1.6-1-2.5-1c-0.5,0-0.8,0.1-1.2,0.3c-0.3,0.2-0.5,0.5-0.5,0.9c0,0.2,0,0.3,0.1,0.4s0.2,0.2,0.3,0.3
			c0.1,0.1,0.3,0.2,0.6,0.2c0.2,0.1,0.5,0.2,0.9,0.2c0.6,0.1,1.1,0.3,1.5,0.4c0.4,0.1,0.8,0.3,1,0.5c0.3,0.2,0.5,0.4,0.6,0.7
			s0.2,0.6,0.2,0.9c0,0.8-0.3,1.5-0.9,1.9C364.5,72.6,363.7,72.8,362.6,72.8z"/>
	</g>
</g>
<circle class="st2" cx="101.7" cy="301.7" r="61.2"/>
<g>
	<g>
		<path class="st3" d="M61.4,291.1h-3.9v10h-1.9v-10h-3.9v-1.6h9.6V291.1z"/>
		<path class="st3" d="M66.6,301.3c-0.7,0-1.3-0.1-1.8-0.4c-0.5-0.2-1-0.6-1.4-1s-0.7-0.9-0.9-1.4s-0.3-1.1-0.3-1.7
			c0-0.6,0.1-1.2,0.3-1.7s0.5-1,0.9-1.4c0.4-0.4,0.9-0.7,1.4-1c0.5-0.2,1.2-0.4,1.8-0.4c0.7,0,1.3,0.1,1.8,0.4c0.5,0.2,1,0.6,1.4,1
			c0.4,0.4,0.7,0.9,0.9,1.4c0.2,0.5,0.3,1.1,0.3,1.7c0,0.1,0,0.3,0,0.4c0,0.1,0,0.2,0,0.3h-6.9c0,0.4,0.1,0.7,0.3,1s0.3,0.6,0.6,0.8
			c0.2,0.2,0.5,0.4,0.8,0.5c0.3,0.1,0.6,0.2,0.9,0.2c0.2,0,0.5,0,0.7-0.1c0.2-0.1,0.5-0.1,0.6-0.3c0.2-0.1,0.4-0.3,0.5-0.4
			s0.3-0.3,0.4-0.5l1.5,0.4c-0.3,0.6-0.8,1.2-1.5,1.6C68.3,301.1,67.5,301.3,66.6,301.3z M69.2,296.2c0-0.4-0.1-0.7-0.3-1
			s-0.3-0.6-0.6-0.8s-0.5-0.4-0.8-0.5c-0.3-0.1-0.6-0.2-1-0.2c-0.3,0-0.7,0.1-1,0.2c-0.3,0.1-0.6,0.3-0.8,0.5s-0.4,0.5-0.6,0.8
			c-0.1,0.3-0.2,0.6-0.3,1H69.2z"/>
		<path class="st3" d="M85.6,301.2h-1.8v-4.8c0-0.8-0.1-1.4-0.4-1.8c-0.3-0.4-0.6-0.6-1.1-0.6c-0.5,0-1,0.2-1.4,0.6
			c-0.4,0.4-0.7,0.9-0.9,1.5v5.1h-1.8v-4.8c0-0.8-0.1-1.4-0.4-1.8c-0.3-0.4-0.6-0.5-1.1-0.5c-0.5,0-1,0.2-1.4,0.6
			c-0.4,0.4-0.7,0.9-0.9,1.5v5.1h-1.8v-8.6h1.6v1.7c0.3-0.6,0.8-1.1,1.3-1.4s1.2-0.5,1.9-0.5s1.3,0.2,1.7,0.6
			c0.4,0.4,0.7,0.8,0.8,1.4c0.4-0.6,0.8-1.1,1.4-1.5c0.5-0.3,1.2-0.5,1.9-0.5c0.5,0,0.9,0.1,1.3,0.3s0.6,0.4,0.8,0.8
			c0.2,0.3,0.3,0.7,0.4,1.1s0.1,0.9,0.1,1.3V301.2z"/>
		<path class="st3" d="M92.6,301.3c-0.7,0-1.3-0.2-1.8-0.5c-0.5-0.3-0.9-0.8-1.2-1.3v5.1h-1.8v-12.1h1.6v1.5
			c0.3-0.5,0.8-0.9,1.3-1.2c0.5-0.3,1.1-0.5,1.8-0.5c0.6,0,1.1,0.1,1.6,0.4c0.5,0.2,0.9,0.6,1.3,1c0.4,0.4,0.6,0.9,0.8,1.4
			c0.2,0.5,0.3,1.1,0.3,1.7c0,0.6-0.1,1.2-0.3,1.7s-0.4,1-0.8,1.4c-0.3,0.4-0.7,0.7-1.2,1C93.6,301.2,93.1,301.3,92.6,301.3z
			 M92,299.8c0.4,0,0.7-0.1,1-0.2s0.6-0.4,0.8-0.7s0.4-0.6,0.5-0.9c0.1-0.3,0.2-0.7,0.2-1.1c0-0.4-0.1-0.8-0.2-1.1s-0.3-0.7-0.6-0.9
			c-0.2-0.3-0.5-0.5-0.8-0.6c-0.3-0.2-0.7-0.2-1.1-0.2c-0.2,0-0.5,0-0.7,0.1c-0.3,0.1-0.5,0.2-0.7,0.4s-0.4,0.3-0.6,0.5
			s-0.3,0.4-0.3,0.7v2.2c0.1,0.3,0.3,0.5,0.4,0.7c0.2,0.2,0.4,0.4,0.6,0.6s0.4,0.3,0.7,0.4C91.5,299.7,91.7,299.8,92,299.8z"/>
		<path class="st3" d="M101.9,301.3c-0.7,0-1.3-0.1-1.8-0.4c-0.5-0.2-1-0.6-1.4-1s-0.7-0.9-0.9-1.4s-0.3-1.1-0.3-1.7
			c0-0.6,0.1-1.2,0.3-1.7s0.5-1,0.9-1.4c0.4-0.4,0.9-0.7,1.4-1c0.5-0.2,1.2-0.4,1.8-0.4c0.7,0,1.3,0.1,1.8,0.4c0.5,0.2,1,0.6,1.4,1
			c0.4,0.4,0.7,0.9,0.9,1.4c0.2,0.5,0.3,1.1,0.3,1.7c0,0.1,0,0.3,0,0.4c0,0.1,0,0.2,0,0.3h-6.9c0,0.4,0.1,0.7,0.3,1s0.3,0.6,0.6,0.8
			c0.2,0.2,0.5,0.4,0.8,0.5c0.3,0.1,0.6,0.2,0.9,0.2c0.2,0,0.5,0,0.7-0.1c0.2-0.1,0.5-0.1,0.6-0.3c0.2-0.1,0.4-0.3,0.5-0.4
			s0.3-0.3,0.4-0.5l1.5,0.4c-0.3,0.6-0.8,1.2-1.5,1.6C103.6,301.1,102.8,301.3,101.9,301.3z M104.5,296.2c0-0.4-0.1-0.7-0.3-1
			s-0.3-0.6-0.6-0.8s-0.5-0.4-0.8-0.5c-0.3-0.1-0.6-0.2-1-0.2c-0.3,0-0.7,0.1-1,0.2c-0.3,0.1-0.6,0.3-0.8,0.5s-0.4,0.5-0.6,0.8
			c-0.1,0.3-0.2,0.6-0.3,1H104.5z"/>
		<path class="st3" d="M112.6,294.1c-0.7,0-1.3,0.2-1.9,0.5c-0.5,0.3-0.9,0.7-1.2,1.3v5.2h-1.8v-8.6h1.7v1.9
			c0.3-0.6,0.7-1.1,1.2-1.4c0.5-0.4,1-0.5,1.5-0.6c0.1,0,0.2,0,0.3,0s0.1,0,0.2,0V294.1z"/>
		<path class="st3" d="M116.1,301.3c-0.4,0-0.8-0.1-1.2-0.2c-0.4-0.1-0.7-0.3-0.9-0.6c-0.3-0.2-0.5-0.5-0.6-0.9
			c-0.1-0.3-0.2-0.7-0.2-1.1c0-0.4,0.1-0.8,0.3-1.1c0.2-0.3,0.4-0.6,0.7-0.9s0.7-0.4,1.1-0.6c0.4-0.1,0.9-0.2,1.5-0.2
			c0.4,0,0.8,0,1.2,0.1c0.4,0.1,0.7,0.2,1.1,0.3v-0.6c0-0.6-0.2-1.1-0.5-1.5c-0.4-0.4-0.9-0.5-1.6-0.5c-0.5,0-0.9,0.1-1.4,0.3
			c-0.4,0.2-0.9,0.4-1.4,0.7l-0.6-1.1c1.1-0.7,2.2-1.1,3.4-1.1c1.2,0,2.1,0.3,2.8,0.9s1,1.5,1,2.6v3.1c0,0.4,0.2,0.6,0.5,0.6v1.5
			c-0.2,0-0.3,0.1-0.5,0.1c-0.1,0-0.2,0-0.4,0c-0.3,0-0.6-0.1-0.8-0.3c-0.2-0.2-0.3-0.4-0.4-0.7l0-0.5c-0.4,0.5-0.9,0.9-1.4,1.2
			S116.8,301.3,116.1,301.3z M116.6,300c0.4,0,0.8-0.1,1.2-0.2s0.7-0.4,0.9-0.7c0.2-0.2,0.3-0.4,0.3-0.6v-1.1
			c-0.3-0.1-0.6-0.2-1-0.3c-0.3-0.1-0.7-0.1-1-0.1c-0.6,0-1.2,0.1-1.6,0.4c-0.4,0.3-0.6,0.6-0.6,1.1c0,0.4,0.2,0.8,0.5,1.1
			C115.7,299.8,116.1,300,116.6,300z"/>
		<path class="st3" d="M127.9,300.7c-0.2,0.1-0.5,0.2-1,0.4c-0.4,0.1-0.8,0.2-1.3,0.2c-0.3,0-0.6,0-0.8-0.1
			c-0.3-0.1-0.5-0.2-0.7-0.3c-0.2-0.2-0.3-0.4-0.5-0.6s-0.2-0.5-0.2-0.9V294h-1.1v-1.4h1.1v-2.8h1.8v2.8h1.9v1.4h-1.9v4.8
			c0,0.3,0.1,0.5,0.3,0.7c0.2,0.1,0.4,0.2,0.6,0.2s0.5,0,0.7-0.1c0.2-0.1,0.4-0.2,0.5-0.2L127.9,300.7z"/>
		<path class="st3" d="M131.8,301.3c-0.9,0-1.6-0.3-2-0.9c-0.5-0.6-0.7-1.5-0.7-2.6v-5.2h1.8v4.9c0,1.5,0.5,2.3,1.6,2.3
			c0.5,0,1-0.2,1.5-0.5c0.5-0.3,0.8-0.8,1.1-1.4v-5.3h1.8v6.4c0,0.2,0,0.4,0.1,0.4c0.1,0.1,0.2,0.1,0.4,0.1v1.5
			c-0.2,0-0.3,0.1-0.5,0.1s-0.2,0-0.3,0c-0.3,0-0.6-0.1-0.8-0.3c-0.2-0.2-0.3-0.4-0.4-0.7l0-0.9c-0.4,0.6-0.9,1.1-1.5,1.4
			C133.2,301.2,132.5,301.3,131.8,301.3z"/>
		<path class="st3" d="M143.9,294.1c-0.7,0-1.3,0.2-1.9,0.5c-0.5,0.3-0.9,0.7-1.2,1.3v5.2h-1.8v-8.6h1.7v1.9
			c0.3-0.6,0.7-1.1,1.2-1.4c0.5-0.4,1-0.5,1.5-0.6c0.1,0,0.2,0,0.3,0s0.1,0,0.2,0V294.1z"/>
		<path class="st3" d="M149.1,301.3c-0.7,0-1.3-0.1-1.8-0.4c-0.5-0.2-1-0.6-1.4-1s-0.7-0.9-0.9-1.4s-0.3-1.1-0.3-1.7
			c0-0.6,0.1-1.2,0.3-1.7s0.5-1,0.9-1.4c0.4-0.4,0.9-0.7,1.4-1c0.5-0.2,1.2-0.4,1.8-0.4c0.7,0,1.3,0.1,1.8,0.4c0.5,0.2,1,0.6,1.4,1
			c0.4,0.4,0.7,0.9,0.9,1.4c0.2,0.5,0.3,1.1,0.3,1.7c0,0.1,0,0.3,0,0.4c0,0.1,0,0.2,0,0.3h-6.9c0,0.4,0.1,0.7,0.3,1s0.3,0.6,0.6,0.8
			c0.2,0.2,0.5,0.4,0.8,0.5c0.3,0.1,0.6,0.2,0.9,0.2c0.2,0,0.5,0,0.7-0.1c0.2-0.1,0.5-0.1,0.6-0.3c0.2-0.1,0.4-0.3,0.5-0.4
			s0.3-0.3,0.4-0.5l1.5,0.4c-0.3,0.6-0.8,1.2-1.5,1.6C150.8,301.1,150,301.3,149.1,301.3z M151.7,296.2c0-0.4-0.1-0.7-0.3-1
			s-0.3-0.6-0.6-0.8s-0.5-0.4-0.8-0.5c-0.3-0.1-0.6-0.2-1-0.2c-0.3,0-0.7,0.1-1,0.2c-0.3,0.1-0.6,0.3-0.8,0.5s-0.4,0.5-0.6,0.8
			c-0.1,0.3-0.2,0.6-0.3,1H151.7z"/>
		<path class="st3" d="M74.4,315.4c0-0.7,0.1-1.4,0.4-2.1s0.6-1.3,1.1-1.9s1.1-1,1.8-1.3c0.7-0.3,1.5-0.5,2.4-0.5
			c1.1,0,2,0.2,2.7,0.7s1.3,1.1,1.7,1.8l-1.4,1c-0.2-0.3-0.4-0.6-0.6-0.9s-0.5-0.4-0.8-0.6c-0.3-0.1-0.6-0.2-0.9-0.3
			c-0.3-0.1-0.6-0.1-0.9-0.1c-0.6,0-1.1,0.1-1.6,0.4c-0.5,0.2-0.8,0.6-1.2,1s-0.5,0.9-0.7,1.4c-0.2,0.5-0.2,1-0.2,1.5
			c0,0.6,0.1,1.1,0.3,1.6c0.2,0.5,0.4,1,0.8,1.4c0.3,0.4,0.7,0.7,1.2,0.9c0.5,0.2,1,0.4,1.5,0.4c0.3,0,0.6,0,0.9-0.1
			c0.3-0.1,0.6-0.2,0.9-0.3s0.5-0.4,0.8-0.6c0.2-0.2,0.4-0.5,0.6-0.9l1.5,0.9c-0.2,0.4-0.4,0.8-0.8,1.2c-0.3,0.3-0.7,0.6-1.1,0.8
			s-0.9,0.4-1.4,0.5c-0.5,0.1-0.9,0.2-1.4,0.2c-0.8,0-1.6-0.2-2.2-0.5c-0.7-0.3-1.3-0.8-1.8-1.4c-0.5-0.6-0.9-1.2-1.1-1.9
			C74.5,316.9,74.4,316.2,74.4,315.4z"/>
		<path class="st3" d="M90,321.5c-0.7,0-1.3-0.1-1.8-0.4s-1-0.6-1.4-1c-0.4-0.4-0.7-0.9-0.9-1.4c-0.2-0.5-0.3-1.1-0.3-1.7
			s0.1-1.2,0.3-1.7c0.2-0.5,0.5-1,0.9-1.4c0.4-0.4,0.9-0.7,1.4-1c0.5-0.2,1.1-0.4,1.8-0.4c0.7,0,1.3,0.1,1.8,0.4
			c0.5,0.2,1,0.6,1.4,1c0.4,0.4,0.7,0.9,0.9,1.4c0.2,0.5,0.3,1.1,0.3,1.7s-0.1,1.2-0.3,1.7c-0.2,0.5-0.5,1-0.9,1.4s-0.9,0.7-1.4,1
			S90.6,321.5,90,321.5z M87.4,317.1c0,0.4,0.1,0.8,0.2,1.1c0.1,0.3,0.3,0.7,0.5,0.9c0.2,0.3,0.5,0.5,0.8,0.6s0.6,0.2,1,0.2
			s0.7-0.1,1-0.2s0.6-0.4,0.8-0.6c0.2-0.3,0.4-0.6,0.5-0.9s0.2-0.7,0.2-1.1c0-0.4-0.1-0.8-0.2-1.1c-0.1-0.4-0.3-0.7-0.5-0.9
			c-0.2-0.3-0.5-0.5-0.8-0.6s-0.6-0.2-1-0.2c-0.3,0-0.7,0.1-1,0.2c-0.3,0.2-0.6,0.4-0.8,0.6c-0.2,0.3-0.4,0.6-0.5,0.9
			C87.5,316.3,87.4,316.7,87.4,317.1z"/>
		<path class="st3" d="M103.7,321.3h-1.8v-4.8c0-0.8-0.1-1.4-0.4-1.8s-0.6-0.5-1.1-0.5c-0.3,0-0.5,0-0.8,0.1
			c-0.3,0.1-0.5,0.2-0.7,0.4c-0.2,0.2-0.4,0.4-0.6,0.6c-0.2,0.2-0.3,0.5-0.4,0.8v5.1H96v-8.6h1.6v1.7c0.3-0.6,0.8-1,1.4-1.4
			c0.6-0.3,1.3-0.5,2.1-0.5c0.5,0,0.9,0.1,1.3,0.3c0.3,0.2,0.6,0.4,0.8,0.8c0.2,0.3,0.3,0.7,0.4,1.1s0.1,0.9,0.1,1.3V321.3z"/>
		<path class="st3" d="M110.5,320.9c-0.2,0.1-0.5,0.2-1,0.4c-0.4,0.1-0.8,0.2-1.3,0.2c-0.3,0-0.6,0-0.8-0.1
			c-0.3-0.1-0.5-0.2-0.7-0.3c-0.2-0.2-0.3-0.4-0.5-0.6s-0.2-0.5-0.2-0.9v-5.4h-1.1v-1.4h1.1v-2.8h1.8v2.8h1.9v1.4H108v4.8
			c0,0.3,0.1,0.5,0.3,0.7c0.2,0.1,0.4,0.2,0.6,0.2s0.5,0,0.7-0.1c0.2-0.1,0.4-0.2,0.5-0.2L110.5,320.9z"/>
		<path class="st3" d="M116.6,314.3c-0.7,0-1.3,0.2-1.9,0.5c-0.5,0.3-0.9,0.7-1.2,1.3v5.2h-1.8v-8.6h1.7v1.9
			c0.3-0.6,0.7-1.1,1.2-1.4c0.5-0.4,1-0.5,1.5-0.6c0.1,0,0.2,0,0.3,0s0.1,0,0.2,0V314.3z"/>
		<path class="st3" d="M121.8,321.5c-0.7,0-1.3-0.1-1.8-0.4s-1-0.6-1.4-1c-0.4-0.4-0.7-0.9-0.9-1.4c-0.2-0.5-0.3-1.1-0.3-1.7
			s0.1-1.2,0.3-1.7c0.2-0.5,0.5-1,0.9-1.4c0.4-0.4,0.9-0.7,1.4-1c0.5-0.2,1.1-0.4,1.8-0.4c0.7,0,1.3,0.1,1.8,0.4
			c0.5,0.2,1,0.6,1.4,1c0.4,0.4,0.7,0.9,0.9,1.4c0.2,0.5,0.3,1.1,0.3,1.7s-0.1,1.2-0.3,1.7c-0.2,0.5-0.5,1-0.9,1.4s-0.9,0.7-1.4,1
			S122.4,321.5,121.8,321.5z M119.2,317.1c0,0.4,0.1,0.8,0.2,1.1c0.1,0.3,0.3,0.7,0.5,0.9c0.2,0.3,0.5,0.5,0.8,0.6s0.6,0.2,1,0.2
			s0.7-0.1,1-0.2s0.6-0.4,0.8-0.6c0.2-0.3,0.4-0.6,0.5-0.9s0.2-0.7,0.2-1.1c0-0.4-0.1-0.8-0.2-1.1c-0.1-0.4-0.3-0.7-0.5-0.9
			c-0.2-0.3-0.5-0.5-0.8-0.6s-0.6-0.2-1-0.2c-0.3,0-0.7,0.1-1,0.2c-0.3,0.2-0.6,0.4-0.8,0.6c-0.2,0.3-0.4,0.6-0.5,0.9
			C119.3,316.3,119.2,316.7,119.2,317.1z"/>
		<path class="st3" d="M127.8,309.4h1.8v9.5c0,0.3,0.1,0.6,0.2,0.7s0.4,0.3,0.7,0.3c0.1,0,0.3,0,0.4-0.1c0.2,0,0.3-0.1,0.5-0.1
			l0.3,1.4c-0.3,0.1-0.6,0.2-0.9,0.3c-0.4,0.1-0.7,0.1-1,0.1c-0.6,0-1.1-0.2-1.5-0.5c-0.3-0.3-0.5-0.8-0.5-1.4V309.4z"/>
	</g>
</g>
<g>
	<circle class="st2" cx="467.1" cy="140.6" r="61.8"/>
</g>
<g>
	<g>
		<path class="st3" d="M435.7,126.8c0-0.7,0.1-1.4,0.4-2.1c0.3-0.7,0.6-1.3,1.1-1.9c0.5-0.6,1.1-1,1.8-1.3c0.7-0.3,1.5-0.5,2.4-0.5
			c1.1,0,2,0.2,2.7,0.7s1.3,1.1,1.7,1.8l-1.4,1c-0.2-0.3-0.4-0.6-0.6-0.9c-0.2-0.2-0.5-0.4-0.8-0.6c-0.3-0.1-0.6-0.2-0.9-0.3
			s-0.6-0.1-0.9-0.1c-0.6,0-1.1,0.1-1.6,0.4c-0.5,0.2-0.8,0.6-1.2,1c-0.3,0.4-0.5,0.9-0.7,1.4c-0.2,0.5-0.2,1-0.2,1.5
			c0,0.6,0.1,1.1,0.3,1.6c0.2,0.5,0.4,1,0.8,1.4c0.3,0.4,0.7,0.7,1.2,0.9c0.5,0.2,1,0.4,1.5,0.4c0.3,0,0.6,0,0.9-0.1
			c0.3-0.1,0.6-0.2,0.9-0.3c0.3-0.2,0.5-0.4,0.8-0.6s0.4-0.5,0.6-0.9l1.5,0.9c-0.2,0.4-0.4,0.8-0.8,1.2c-0.3,0.3-0.7,0.6-1.1,0.8
			s-0.9,0.4-1.4,0.5s-0.9,0.2-1.4,0.2c-0.8,0-1.6-0.2-2.2-0.5c-0.7-0.3-1.3-0.8-1.8-1.4c-0.5-0.6-0.9-1.2-1.1-1.9
			C435.8,128.3,435.7,127.6,435.7,126.8z"/>
		<path class="st3" d="M451.2,132.9c-0.7,0-1.3-0.1-1.8-0.4s-1-0.6-1.4-1c-0.4-0.4-0.7-0.9-0.9-1.4c-0.2-0.5-0.3-1.1-0.3-1.7
			s0.1-1.2,0.3-1.7c0.2-0.5,0.5-1,0.9-1.4c0.4-0.4,0.9-0.7,1.4-1c0.5-0.2,1.1-0.4,1.8-0.4s1.3,0.1,1.8,0.4c0.5,0.2,1,0.6,1.4,1
			c0.4,0.4,0.7,0.9,0.9,1.4c0.2,0.5,0.3,1.1,0.3,1.7s-0.1,1.2-0.3,1.7c-0.2,0.5-0.5,1-0.9,1.4c-0.4,0.4-0.9,0.7-1.4,1
			S451.9,132.9,451.2,132.9z M448.7,128.5c0,0.4,0.1,0.8,0.2,1.1c0.1,0.4,0.3,0.7,0.5,0.9c0.2,0.3,0.5,0.5,0.8,0.6
			c0.3,0.1,0.6,0.2,1,0.2c0.4,0,0.7-0.1,1-0.2c0.3-0.1,0.6-0.4,0.8-0.6c0.2-0.3,0.4-0.6,0.5-0.9s0.2-0.7,0.2-1.1
			c0-0.4-0.1-0.8-0.2-1.1c-0.1-0.4-0.3-0.7-0.5-0.9c-0.2-0.3-0.5-0.5-0.8-0.6c-0.3-0.1-0.6-0.2-1-0.2c-0.3,0-0.7,0.1-1,0.2
			c-0.3,0.2-0.6,0.4-0.8,0.6c-0.2,0.3-0.4,0.6-0.5,0.9S448.7,128.1,448.7,128.5z"/>
		<path class="st3" d="M461.1,132.9c-0.7,0-1.3-0.1-1.8-0.4s-1-0.6-1.4-1c-0.4-0.4-0.7-0.9-0.9-1.4c-0.2-0.5-0.3-1.1-0.3-1.7
			s0.1-1.2,0.3-1.7c0.2-0.5,0.5-1,0.9-1.4c0.4-0.4,0.9-0.7,1.4-1c0.5-0.2,1.1-0.4,1.8-0.4c0.7,0,1.3,0.1,1.8,0.4
			c0.5,0.2,1,0.6,1.4,1c0.4,0.4,0.7,0.9,0.9,1.4c0.2,0.5,0.3,1.1,0.3,1.7s-0.1,1.2-0.3,1.7c-0.2,0.5-0.5,1-0.9,1.4
			c-0.4,0.4-0.9,0.7-1.4,1S461.8,132.9,461.1,132.9z M458.5,128.5c0,0.4,0.1,0.8,0.2,1.1c0.1,0.4,0.3,0.7,0.5,0.9
			c0.2,0.3,0.5,0.5,0.8,0.6c0.3,0.1,0.6,0.2,1,0.2c0.4,0,0.7-0.1,1-0.2c0.3-0.1,0.6-0.4,0.8-0.6s0.4-0.6,0.5-0.9s0.2-0.7,0.2-1.1
			c0-0.4-0.1-0.8-0.2-1.1c-0.1-0.4-0.3-0.7-0.5-0.9s-0.5-0.5-0.8-0.6c-0.3-0.1-0.6-0.2-1-0.2c-0.3,0-0.7,0.1-1,0.2
			c-0.3,0.2-0.6,0.4-0.8,0.6c-0.2,0.3-0.4,0.6-0.5,0.9S458.5,128.1,458.5,128.5z"/>
		<path class="st3" d="M473.1,132.7l-2.7-3.9l-1.4,1.3v2.6h-1.8v-12h1.8v7.6l3.9-4.2h2l-3.3,3.6l3.5,5H473.1z"/>
		<path class="st3" d="M476.1,122.8v-2h1.8v2H476.1z M476.1,132.7v-8.6h1.8v8.6H476.1z"/>
		<path class="st3" d="M487.7,132.7h-1.8v-4.8c0-0.8-0.1-1.4-0.4-1.8c-0.3-0.4-0.6-0.5-1.1-0.5c-0.3,0-0.5,0-0.8,0.1
			c-0.3,0.1-0.5,0.2-0.7,0.4c-0.2,0.2-0.4,0.4-0.6,0.6c-0.2,0.2-0.3,0.5-0.4,0.8v5.1H480v-8.6h1.6v1.7c0.3-0.6,0.8-1,1.4-1.4
			c0.6-0.3,1.3-0.5,2.1-0.5c0.5,0,0.9,0.1,1.3,0.3c0.3,0.2,0.6,0.4,0.8,0.8c0.2,0.3,0.3,0.7,0.4,1.1c0.1,0.4,0.1,0.9,0.1,1.3V132.7z
			"/>
		<path class="st3" d="M493.2,132.8c-0.6,0-1.1-0.1-1.6-0.4c-0.5-0.2-0.9-0.6-1.2-1s-0.6-0.9-0.8-1.4s-0.3-1.1-0.3-1.7
			c0-0.6,0.1-1.2,0.3-1.7c0.2-0.5,0.5-1,0.8-1.4c0.3-0.4,0.8-0.7,1.3-1c0.5-0.2,1-0.4,1.6-0.4c0.7,0,1.3,0.2,1.8,0.5
			c0.5,0.3,0.9,0.8,1.3,1.3v-1.6h1.6v8.3c0,0.6-0.1,1.2-0.3,1.7c-0.2,0.5-0.5,0.9-1,1.2c-0.4,0.3-0.9,0.6-1.4,0.8s-1.2,0.3-1.8,0.3
			c-1,0-1.7-0.2-2.4-0.5c-0.6-0.3-1.2-0.8-1.6-1.4l1-1c0.3,0.5,0.8,0.8,1.3,1c0.5,0.2,1.1,0.4,1.7,0.4c0.4,0,0.7,0,1.1-0.1
			s0.6-0.3,0.9-0.5s0.5-0.5,0.6-0.8c0.1-0.3,0.2-0.7,0.2-1.1v-1.3c-0.3,0.5-0.7,0.9-1.3,1.2C494.4,132.7,493.8,132.8,493.2,132.8z
			 M493.8,131.4c0.3,0,0.5,0,0.8-0.1s0.5-0.2,0.7-0.4s0.4-0.3,0.5-0.5c0.2-0.2,0.3-0.4,0.3-0.6v-2.2c-0.1-0.3-0.2-0.5-0.4-0.7
			c-0.2-0.2-0.4-0.4-0.6-0.6c-0.2-0.2-0.5-0.3-0.7-0.4s-0.5-0.1-0.8-0.1c-0.4,0-0.7,0.1-1.1,0.3s-0.6,0.4-0.8,0.7
			c-0.2,0.3-0.4,0.6-0.5,0.9c-0.1,0.4-0.2,0.7-0.2,1.1c0,0.4,0.1,0.8,0.2,1.1c0.1,0.3,0.3,0.6,0.6,0.9s0.5,0.5,0.8,0.6
			C493.1,131.3,493.4,131.4,493.8,131.4z"/>
		<path class="st3" d="M426.5,152.9v-8.4l-3.5,6.3h-1l-3.5-6.3v8.4h-1.8v-11.6h2l3.9,7.1l3.9-7.1h2v11.6H426.5z"/>
		<path class="st3" d="M433,153.1c-0.4,0-0.8-0.1-1.2-0.2c-0.4-0.1-0.7-0.3-0.9-0.6c-0.3-0.2-0.5-0.5-0.6-0.9
			c-0.1-0.3-0.2-0.7-0.2-1.1c0-0.4,0.1-0.8,0.3-1.1c0.2-0.3,0.4-0.6,0.7-0.9s0.7-0.4,1.1-0.6c0.4-0.1,0.9-0.2,1.5-0.2
			c0.4,0,0.8,0,1.2,0.1c0.4,0.1,0.7,0.2,1.1,0.3v-0.6c0-0.6-0.2-1.1-0.5-1.5c-0.4-0.4-0.9-0.5-1.6-0.5c-0.5,0-0.9,0.1-1.4,0.3
			c-0.4,0.2-0.9,0.4-1.4,0.7l-0.6-1.1c1.1-0.7,2.2-1.1,3.4-1.1c1.2,0,2.1,0.3,2.8,0.9c0.7,0.6,1,1.5,1,2.6v3.1
			c0,0.4,0.2,0.6,0.5,0.6v1.5c-0.2,0-0.3,0.1-0.5,0.1s-0.2,0-0.4,0c-0.3,0-0.6-0.1-0.8-0.3s-0.3-0.4-0.4-0.7l0-0.5
			c-0.4,0.5-0.9,0.9-1.4,1.2S433.7,153.1,433,153.1z M433.5,151.8c0.4,0,0.8-0.1,1.2-0.2c0.4-0.2,0.7-0.4,0.9-0.7
			c0.2-0.2,0.3-0.4,0.3-0.6v-1.1c-0.3-0.1-0.6-0.2-1-0.3c-0.3-0.1-0.7-0.1-1-0.1c-0.6,0-1.2,0.1-1.6,0.4c-0.4,0.3-0.6,0.6-0.6,1.1
			c0,0.4,0.2,0.8,0.5,1.1C432.6,151.6,433,151.8,433.5,151.8z"/>
		<path class="st3" d="M447.7,152.9h-1.8v-4.8c0-0.8-0.1-1.4-0.4-1.8c-0.3-0.4-0.6-0.5-1.1-0.5c-0.3,0-0.5,0-0.8,0.1
			c-0.3,0.1-0.5,0.2-0.7,0.4c-0.2,0.2-0.4,0.4-0.6,0.6c-0.2,0.2-0.3,0.5-0.4,0.8v5.1H440v-8.6h1.6v1.7c0.3-0.6,0.8-1,1.4-1.4
			c0.6-0.3,1.3-0.5,2.1-0.5c0.5,0,0.9,0.1,1.3,0.3c0.3,0.2,0.6,0.4,0.8,0.8s0.3,0.7,0.4,1.1c0.1,0.4,0.1,0.9,0.1,1.3V152.9z"/>
		<path class="st3" d="M452,153.1c-0.4,0-0.8-0.1-1.2-0.2c-0.4-0.1-0.7-0.3-0.9-0.6c-0.3-0.2-0.5-0.5-0.6-0.9
			c-0.1-0.3-0.2-0.7-0.2-1.1c0-0.4,0.1-0.8,0.3-1.1c0.2-0.3,0.4-0.6,0.7-0.9s0.7-0.4,1.1-0.6c0.4-0.1,0.9-0.2,1.5-0.2
			c0.4,0,0.8,0,1.2,0.1c0.4,0.1,0.7,0.2,1.1,0.3v-0.6c0-0.6-0.2-1.1-0.5-1.5c-0.4-0.4-0.9-0.5-1.6-0.5c-0.5,0-0.9,0.1-1.4,0.3
			c-0.4,0.2-0.9,0.4-1.4,0.7l-0.6-1.1c1.1-0.7,2.2-1.1,3.4-1.1c1.2,0,2.1,0.3,2.8,0.9c0.7,0.6,1,1.5,1,2.6v3.1
			c0,0.4,0.2,0.6,0.5,0.6v1.5c-0.2,0-0.3,0.1-0.4,0.1c-0.1,0-0.2,0-0.4,0c-0.3,0-0.6-0.1-0.8-0.3c-0.2-0.2-0.3-0.4-0.4-0.7l0-0.5
			c-0.4,0.5-0.9,0.9-1.4,1.2S452.7,153.1,452,153.1z M452.5,151.8c0.4,0,0.8-0.1,1.2-0.2c0.4-0.2,0.7-0.4,0.9-0.7
			c0.2-0.2,0.3-0.4,0.3-0.6v-1.1c-0.3-0.1-0.6-0.2-1-0.3s-0.7-0.1-1-0.1c-0.6,0-1.2,0.1-1.6,0.4c-0.4,0.3-0.6,0.6-0.6,1.1
			c0,0.4,0.2,0.8,0.5,1.1S452,151.8,452.5,151.8z"/>
		<path class="st3" d="M462.4,153c-0.6,0-1.1-0.1-1.6-0.4c-0.5-0.2-0.9-0.6-1.2-1c-0.3-0.4-0.6-0.9-0.8-1.4s-0.3-1.1-0.3-1.7
			c0-0.6,0.1-1.2,0.3-1.7c0.2-0.5,0.5-1,0.8-1.4s0.8-0.7,1.3-1c0.5-0.2,1-0.4,1.6-0.4c0.7,0,1.3,0.2,1.8,0.5
			c0.5,0.3,0.9,0.8,1.3,1.3v-1.6h1.6v8.3c0,0.6-0.1,1.2-0.3,1.7c-0.2,0.5-0.5,0.9-1,1.2c-0.4,0.3-0.9,0.6-1.5,0.8
			c-0.6,0.2-1.2,0.3-1.8,0.3c-0.9,0-1.7-0.2-2.4-0.5s-1.2-0.8-1.6-1.4l1-1c0.3,0.5,0.8,0.8,1.3,1c0.5,0.2,1.1,0.4,1.7,0.4
			c0.4,0,0.7,0,1.1-0.1c0.3-0.1,0.6-0.3,0.9-0.5c0.3-0.2,0.5-0.5,0.6-0.8c0.1-0.3,0.2-0.7,0.2-1.1v-1.3c-0.3,0.5-0.7,0.9-1.3,1.2
			C463.6,152.9,463,153,462.4,153z M463,151.5c0.3,0,0.5,0,0.8-0.1c0.2-0.1,0.5-0.2,0.7-0.4s0.4-0.3,0.5-0.5
			c0.2-0.2,0.3-0.4,0.3-0.6v-2.2c-0.1-0.3-0.3-0.5-0.4-0.7c-0.2-0.2-0.4-0.4-0.6-0.6c-0.2-0.2-0.5-0.3-0.7-0.4
			c-0.3-0.1-0.5-0.1-0.8-0.1c-0.4,0-0.7,0.1-1.1,0.3c-0.3,0.2-0.6,0.4-0.8,0.7c-0.2,0.3-0.4,0.6-0.5,0.9c-0.1,0.4-0.2,0.7-0.2,1.1
			c0,0.4,0.1,0.8,0.2,1.1c0.1,0.3,0.3,0.6,0.6,0.9c0.2,0.3,0.5,0.5,0.8,0.6C462.3,151.5,462.6,151.5,463,151.5z"/>
		<path class="st3" d="M473.2,153.1c-0.7,0-1.3-0.1-1.8-0.4c-0.5-0.2-1-0.6-1.4-1c-0.4-0.4-0.7-0.9-0.9-1.4s-0.3-1.1-0.3-1.7
			c0-0.6,0.1-1.2,0.3-1.7c0.2-0.5,0.5-1,0.9-1.4c0.4-0.4,0.9-0.7,1.4-1c0.5-0.2,1.2-0.4,1.8-0.4c0.7,0,1.3,0.1,1.8,0.4
			c0.5,0.2,1,0.6,1.4,1c0.4,0.4,0.7,0.9,0.9,1.4c0.2,0.5,0.3,1.1,0.3,1.7c0,0.1,0,0.3,0,0.4c0,0.1,0,0.2,0,0.3h-6.9
			c0,0.4,0.1,0.7,0.3,1c0.1,0.3,0.3,0.6,0.6,0.8c0.2,0.2,0.5,0.4,0.8,0.5s0.6,0.2,0.9,0.2c0.2,0,0.5,0,0.7-0.1
			c0.2-0.1,0.5-0.1,0.6-0.3s0.4-0.3,0.5-0.4c0.2-0.2,0.3-0.3,0.4-0.5l1.5,0.4c-0.3,0.6-0.8,1.2-1.5,1.6
			C474.9,152.9,474.1,153.1,473.2,153.1z M475.8,148c0-0.4-0.1-0.7-0.3-1c-0.1-0.3-0.3-0.6-0.6-0.8c-0.2-0.2-0.5-0.4-0.8-0.5
			c-0.3-0.1-0.6-0.2-1-0.2s-0.7,0.1-1,0.2c-0.3,0.1-0.6,0.3-0.8,0.5c-0.2,0.2-0.4,0.5-0.6,0.8c-0.1,0.3-0.2,0.6-0.3,1H475.8z"/>
		<path class="st3" d="M492.2,152.9h-1.8v-4.8c0-0.8-0.1-1.4-0.4-1.8c-0.3-0.4-0.6-0.6-1.1-0.6c-0.5,0-1,0.2-1.4,0.6
			c-0.4,0.4-0.7,0.9-0.9,1.5v5.1h-1.8v-4.8c0-0.8-0.1-1.4-0.4-1.8c-0.3-0.4-0.6-0.5-1.1-0.5c-0.5,0-1,0.2-1.4,0.6s-0.7,0.9-0.9,1.5
			v5.1h-1.8v-8.6h1.6v1.7c0.3-0.6,0.8-1.1,1.3-1.4c0.6-0.3,1.2-0.5,1.9-0.5c0.7,0,1.3,0.2,1.7,0.6c0.4,0.4,0.7,0.8,0.8,1.4
			c0.4-0.6,0.8-1.1,1.4-1.5c0.5-0.3,1.2-0.5,1.9-0.5c0.5,0,0.9,0.1,1.3,0.3c0.3,0.2,0.6,0.4,0.8,0.8s0.3,0.7,0.4,1.1
			c0.1,0.4,0.1,0.9,0.1,1.3V152.9z"/>
		<path class="st3" d="M498.1,153.1c-0.7,0-1.3-0.1-1.8-0.4s-1-0.6-1.4-1c-0.4-0.4-0.7-0.9-0.9-1.4s-0.3-1.1-0.3-1.7
			c0-0.6,0.1-1.2,0.3-1.7c0.2-0.5,0.5-1,0.9-1.4c0.4-0.4,0.9-0.7,1.4-1c0.5-0.2,1.2-0.4,1.8-0.4c0.7,0,1.3,0.1,1.8,0.4
			c0.5,0.2,1,0.6,1.4,1c0.4,0.4,0.7,0.9,0.9,1.4c0.2,0.5,0.3,1.1,0.3,1.7c0,0.1,0,0.3,0,0.4c0,0.1,0,0.2,0,0.3h-6.9
			c0,0.4,0.1,0.7,0.3,1c0.1,0.3,0.3,0.6,0.6,0.8c0.2,0.2,0.5,0.4,0.8,0.5c0.3,0.1,0.6,0.2,0.9,0.2c0.2,0,0.5,0,0.7-0.1
			s0.5-0.1,0.6-0.3c0.2-0.1,0.4-0.3,0.5-0.4c0.2-0.2,0.3-0.3,0.4-0.5l1.5,0.4c-0.3,0.6-0.8,1.2-1.5,1.6
			C499.8,152.9,499.1,153.1,498.1,153.1z M500.7,148c0-0.4-0.1-0.7-0.3-1c-0.1-0.3-0.3-0.6-0.6-0.8c-0.2-0.2-0.5-0.4-0.8-0.5
			c-0.3-0.1-0.6-0.2-1-0.2c-0.3,0-0.7,0.1-1,0.2c-0.3,0.1-0.6,0.3-0.8,0.5c-0.2,0.2-0.4,0.5-0.6,0.8c-0.1,0.3-0.2,0.6-0.3,1H500.7z"
			/>
		<path class="st3" d="M511.7,152.9h-1.8v-4.8c0-0.8-0.1-1.4-0.4-1.8c-0.3-0.4-0.6-0.5-1.1-0.5c-0.3,0-0.5,0-0.8,0.1
			c-0.3,0.1-0.5,0.2-0.7,0.4c-0.2,0.2-0.4,0.4-0.6,0.6c-0.2,0.2-0.3,0.5-0.4,0.8v5.1H504v-8.6h1.6v1.7c0.3-0.6,0.8-1,1.4-1.4
			c0.6-0.3,1.3-0.5,2.1-0.5c0.5,0,0.9,0.1,1.3,0.3c0.3,0.2,0.6,0.4,0.8,0.8c0.2,0.3,0.3,0.7,0.4,1.1c0.1,0.4,0.1,0.9,0.1,1.3V152.9z
			"/>
		<path class="st3" d="M518.6,152.5c-0.2,0.1-0.5,0.2-1,0.4c-0.4,0.1-0.8,0.2-1.3,0.2c-0.3,0-0.6,0-0.8-0.1
			c-0.3-0.1-0.5-0.2-0.7-0.3s-0.3-0.4-0.5-0.6c-0.1-0.2-0.2-0.5-0.2-0.9v-5.4h-1.1v-1.4h1.1v-2.8h1.8v2.8h1.9v1.4H516v4.8
			c0,0.3,0.1,0.5,0.3,0.7c0.2,0.1,0.4,0.2,0.6,0.2c0.3,0,0.5,0,0.7-0.1c0.2-0.1,0.4-0.2,0.5-0.2L518.6,152.5z"/>
	</g>
</g>
</svg>
