<?xml version="1.0" encoding="utf-8"?>
<!-- Generator: Adobe Illustrator 19.2.1, SVG Export Plug-In . SVG Version: 6.00 Build 0)  -->
<svg version="1.1" id="Layer_1" xmlns="http://www.w3.org/2000/svg" xmlns:xlink="http://www.w3.org/1999/xlink" x="0px" y="0px"
	 viewBox="0 0 435.5 219.8" style="enable-background:new 0 0 435.5 219.8;" xml:space="preserve">
<style type="text/css">
	.st0{clip-path:url(#SVGID_8_);}
	.st1{fill:#010101;}
	.st2{clip-path:url(#SVGID_8_);fill:none;stroke:#979797;stroke-width:0.25;stroke-linecap:square;stroke-miterlimit:10;}
	.st3{clip-path:url(#SVGID_10_);}
	.st4{clip-path:url(#SVGID_12_);fill:#040505;}
	
		.st5{clip-path:url(#SVGID_14_);fill:none;stroke:#558DCA;stroke-width:0.375;stroke-linecap:round;stroke-linejoin:round;stroke-miterlimit:10;}
	
		.st6{clip-path:url(#SVGID_14_);fill:none;stroke:#FFFFFF;stroke-width:0.375;stroke-linecap:round;stroke-linejoin:round;stroke-miterlimit:10;}
	.st7{clip-path:url(#SVGID_16_);}
	.st8{clip-path:url(#SVGID_18_);fill:#FFFFFF;}
	.st9{clip-path:url(#SVGID_20_);}
	.st10{clip-path:url(#SVGID_22_);fill:#FFFFFF;}
	.st11{clip-path:url(#SVGID_24_);}
	.st12{clip-path:url(#SVGID_26_);fill:#FFFFFF;}
	.st13{clip-path:url(#SVGID_28_);}
	.st14{clip-path:url(#SVGID_30_);fill:#FFFFFF;}
	.st15{clip-path:url(#SVGID_32_);fill:none;stroke:#010101;stroke-width:0.3125;stroke-miterlimit:10;}
	.st16{clip-path:url(#SVGID_34_);}
	.st17{clip-path:url(#SVGID_36_);fill:#010101;}
	.st18{clip-path:url(#SVGID_38_);fill:none;stroke:#010101;stroke-width:0.3125;stroke-miterlimit:10;}
	.st19{fill:#FFFFFF;stroke:#000000;stroke-width:0.5318;stroke-miterlimit:10;}
	.st20{clip-path:url(#SVGID_54_);}
	.st21{clip-path:url(#SVGID_54_);fill:none;stroke:#979797;stroke-width:0.25;stroke-linecap:square;stroke-miterlimit:10;}
	.st22{clip-path:url(#SVGID_56_);}
	.st23{clip-path:url(#SVGID_58_);fill:#040505;}
	
		.st24{clip-path:url(#SVGID_60_);fill:none;stroke:#558DCA;stroke-width:0.375;stroke-linecap:round;stroke-linejoin:round;stroke-miterlimit:10;}
	
		.st25{clip-path:url(#SVGID_60_);fill:none;stroke:#FFFFFF;stroke-width:0.375;stroke-linecap:round;stroke-linejoin:round;stroke-miterlimit:10;}
	.st26{clip-path:url(#SVGID_62_);}
	.st27{clip-path:url(#SVGID_64_);fill:#FFFFFF;}
	.st28{clip-path:url(#SVGID_66_);}
	.st29{clip-path:url(#SVGID_68_);fill:#FFFFFF;}
	.st30{clip-path:url(#SVGID_70_);}
	.st31{clip-path:url(#SVGID_72_);fill:#FFFFFF;}
	.st32{clip-path:url(#SVGID_74_);}
	.st33{clip-path:url(#SVGID_76_);fill:#FFFFFF;}
	.st34{clip-path:url(#SVGID_78_);fill:none;stroke:#010101;stroke-width:0.3125;stroke-miterlimit:10;}
	.st35{clip-path:url(#SVGID_80_);}
	.st36{clip-path:url(#SVGID_82_);fill:#010101;}
	.st37{clip-path:url(#SVGID_84_);fill:none;stroke:#010101;stroke-width:0.3125;stroke-miterlimit:10;}
	.st38{fill:#FFFFFF;stroke:#000000;stroke-width:0.5;stroke-miterlimit:10;}
</style>
<g>
	<g>
		<defs>
			<rect id="SVGID_1_" x="1.2" y="2.3" width="244.5" height="186.8"/>
		</defs>
		<use xlink:href="#SVGID_1_"  style="overflow:visible;fill:#FFFFFF;"/>
		<clipPath id="SVGID_2_">
			<use xlink:href="#SVGID_1_"  style="overflow:visible;"/>
		</clipPath>
		<use xlink:href="#SVGID_1_"  style="overflow:visible;fill:none;stroke:#4B4B4B;stroke-width:0.75;stroke-miterlimit:10;"/>
	</g>
	<g>
		<defs>
			<rect id="SVGID_3_" x="1.2" y="2.3" width="244.5" height="186.8"/>
		</defs>
		<clipPath id="SVGID_4_">
			<use xlink:href="#SVGID_3_"  style="overflow:visible;"/>
		</clipPath>
	</g>
	<g>
		<g>
			<defs>
				<rect id="SVGID_5_" x="1.2" y="2.3" width="244.5" height="186.8"/>
			</defs>
			<clipPath id="SVGID_6_">
				<use xlink:href="#SVGID_5_"  style="overflow:visible;"/>
			</clipPath>
		</g>
	</g>
	<g>
		<defs>
			<rect id="SVGID_7_" x="1.2" y="2.3" width="244.5" height="186.8"/>
		</defs>
		<clipPath id="SVGID_8_">
			<use xlink:href="#SVGID_7_"  style="overflow:visible;"/>
		</clipPath>
		<g class="st0">
			<path class="st1" d="M114.7,11.3h-2.9V11l1.5-1.7c0.3-0.3,0.5-0.6,0.6-0.8c0.1-0.2,0.2-0.4,0.2-0.6c0-0.3-0.1-0.5-0.2-0.7
				S113.5,7,113.2,7c-0.4,0-0.6,0.1-0.8,0.3s-0.3,0.5-0.3,0.8h-0.4l0,0c0-0.4,0.1-0.7,0.4-1s0.6-0.4,1.1-0.4c0.4,0,0.7,0.1,1,0.3
				s0.4,0.5,0.4,0.9c0,0.3-0.1,0.5-0.2,0.8c-0.2,0.3-0.4,0.6-0.7,0.9l-1.3,1.4l0,0h2.4V11.3z"/>
			<path class="st1" d="M115.9,8.4h-0.4V7.9h0.4V8.4z M115.9,11.3h-0.4v-0.5h0.4V11.3z"/>
			<path class="st1" d="M119.8,9.5c0,0.6-0.1,1.1-0.4,1.4s-0.6,0.5-1.1,0.5c-0.5,0-0.8-0.2-1.1-0.5c-0.3-0.3-0.4-0.8-0.4-1.4v-1
				c0-0.6,0.1-1.1,0.4-1.4s0.6-0.5,1.1-0.5s0.8,0.2,1.1,0.5s0.4,0.8,0.4,1.4V9.5z M119.4,8.4c0-0.5-0.1-0.8-0.3-1.1
				c-0.2-0.3-0.5-0.4-0.8-0.4s-0.6,0.1-0.8,0.4c-0.2,0.3-0.3,0.6-0.3,1.1v1.2c0,0.5,0.1,0.8,0.3,1.1s0.5,0.4,0.8,0.4
				s0.6-0.1,0.8-0.4c0.2-0.3,0.3-0.6,0.3-1.1V8.4z"/>
			<path class="st1" d="M123.5,9.5c0,0.6-0.1,1.1-0.4,1.4s-0.6,0.5-1.1,0.5c-0.5,0-0.8-0.2-1.1-0.5c-0.3-0.3-0.4-0.8-0.4-1.4v-1
				c0-0.6,0.1-1.1,0.4-1.4s0.6-0.5,1.1-0.5s0.8,0.2,1.1,0.5s0.4,0.8,0.4,1.4V9.5z M123.2,8.4c0-0.5-0.1-0.8-0.3-1.1
				c-0.2-0.3-0.5-0.4-0.8-0.4s-0.6,0.1-0.8,0.4C121.1,7.6,121,8,121,8.4v1.2c0,0.5,0.1,0.8,0.3,1.1s0.5,0.4,0.8,0.4s0.6-0.1,0.8-0.4
				c0.2-0.3,0.3-0.6,0.3-1.1V8.4z"/>
			<path class="st1" d="M126.5,9.4v1.9h-0.4V6.7h1.6c0.5,0,0.9,0.1,1.1,0.4c0.3,0.2,0.4,0.6,0.4,1c0,0.4-0.1,0.7-0.4,1
				s-0.6,0.4-1.1,0.4H126.5z M126.5,9.1h1.2c0.4,0,0.7-0.1,0.9-0.3c0.2-0.2,0.3-0.4,0.3-0.7c0-0.3-0.1-0.5-0.3-0.7
				c-0.2-0.2-0.5-0.3-0.9-0.3h-1.2V9.1z"/>
			<path class="st1" d="M130.7,6.7l1.7,4.1h0l1.7-4.1h0.5v4.6h-0.4v-2l0-2l0,0l-1.7,4.1h-0.3l-1.7-4l0,0l0,2v2h-0.4V6.7H130.7z"/>
		</g>
		<line class="st2" x1="0.9" y1="14.9" x2="245.4" y2="14.9"/>
	</g>
	<g>
		<defs>
			<rect id="SVGID_9_" x="1.2" y="170.4" width="244.5" height="18.6"/>
		</defs>
		<clipPath id="SVGID_10_">
			<use xlink:href="#SVGID_9_"  style="overflow:visible;"/>
		</clipPath>
		<g class="st3">
			<defs>
				<rect id="SVGID_11_" x="1.2" y="2.3" width="244.5" height="186.8"/>
			</defs>
			<clipPath id="SVGID_12_">
				<use xlink:href="#SVGID_11_"  style="overflow:visible;"/>
			</clipPath>
			<rect x="0" y="169.1" class="st4" width="247" height="21.1"/>
		</g>
	</g>
	<g>
		<defs>
			<rect id="SVGID_13_" x="1.2" y="2.3" width="244.5" height="186.8"/>
		</defs>
		<clipPath id="SVGID_14_">
			<use xlink:href="#SVGID_13_"  style="overflow:visible;"/>
		</clipPath>
		<circle class="st5" cx="31.9" cy="177.6" r="1.7"/>
		<circle class="st5" cx="31.9" cy="182.6" r="1.7"/>
		<circle class="st5" cx="36.8" cy="177.6" r="1.7"/>
		<circle class="st5" cx="36.8" cy="182.6" r="1.7"/>
		<rect x="88.3" y="176" class="st6" width="11.2" height="8.5"/>
		<rect x="90.1" y="177.8" class="st6" width="7.6" height="4.8"/>
		<path class="st6" d="M157,182.8h-4.2l-1.7,1.6l-0.2-1.6h-1.3c-0.6,0-1-0.5-1-1v-4.7c0-0.6,0.5-1,1-1h7.4c0.6,0,1,0.5,1,1v4.7
			C158.1,182.4,157.6,182.8,157,182.8z"/>
	</g>
	<g>
		<defs>
			<path id="SVGID_15_" d="M153.5,177.9c-0.1,0.1-0.1,0.1-0.2,0.1c-0.1,0-0.2,0-0.2-0.1c-0.1-0.1-0.1-0.1-0.1-0.2
				c0-0.1,0-0.2,0.1-0.2s0.1-0.1,0.2-0.1s0.2,0,0.2,0.1c0.1,0.1,0.1,0.1,0.1,0.2C153.6,177.8,153.6,177.8,153.5,177.9z M153.1,181.4
				h0.4v-2.6h-0.4V181.4z"/>
		</defs>
		<clipPath id="SVGID_16_">
			<use xlink:href="#SVGID_15_"  style="overflow:visible;"/>
		</clipPath>
		<g class="st7">
			<defs>
				<rect id="SVGID_17_" x="1.2" y="2.3" width="244.5" height="186.8"/>
			</defs>
			<clipPath id="SVGID_18_">
				<use xlink:href="#SVGID_17_"  style="overflow:visible;"/>
			</clipPath>
			<rect x="151.8" y="176.1" class="st8" width="3.1" height="6.5"/>
		</g>
	</g>
	<g>
		<defs>
			<path id="SVGID_19_" d="M210.4,179.9c0,0.3-0.2,0.5-0.5,0.5c-0.3,0-0.5-0.2-0.5-0.5c0-0.3,0.2-0.5,0.5-0.5
				C210.1,179.4,210.4,179.6,210.4,179.9"/>
		</defs>
		<clipPath id="SVGID_20_">
			<use xlink:href="#SVGID_19_"  style="overflow:visible;"/>
		</clipPath>
		<g class="st9">
			<defs>
				<rect id="SVGID_21_" x="1.2" y="2.3" width="244.5" height="186.8"/>
			</defs>
			<clipPath id="SVGID_22_">
				<use xlink:href="#SVGID_21_"  style="overflow:visible;"/>
			</clipPath>
			<rect x="208" y="178.1" class="st10" width="3.6" height="3.6"/>
		</g>
	</g>
	<g>
		<defs>
			<path id="SVGID_23_" d="M213.8,179.9c0,0.3-0.2,0.5-0.5,0.5c-0.3,0-0.5-0.2-0.5-0.5c0-0.3,0.2-0.5,0.5-0.5
				C213.6,179.4,213.8,179.6,213.8,179.9"/>
		</defs>
		<clipPath id="SVGID_24_">
			<use xlink:href="#SVGID_23_"  style="overflow:visible;"/>
		</clipPath>
		<g class="st11">
			<defs>
				<rect id="SVGID_25_" x="1.2" y="2.3" width="244.5" height="186.8"/>
			</defs>
			<clipPath id="SVGID_26_">
				<use xlink:href="#SVGID_25_"  style="overflow:visible;"/>
			</clipPath>
			<rect x="211.5" y="178.1" class="st12" width="3.6" height="3.6"/>
		</g>
	</g>
	<g>
		<defs>
			<path id="SVGID_27_" d="M217.2,179.9c0,0.3-0.2,0.5-0.5,0.5c-0.3,0-0.5-0.2-0.5-0.5c0-0.3,0.2-0.5,0.5-0.5
				C217,179.4,217.2,179.6,217.2,179.9"/>
		</defs>
		<clipPath id="SVGID_28_">
			<use xlink:href="#SVGID_27_"  style="overflow:visible;"/>
		</clipPath>
		<g class="st13">
			<defs>
				<rect id="SVGID_29_" x="1.2" y="2.3" width="244.5" height="186.8"/>
			</defs>
			<clipPath id="SVGID_30_">
				<use xlink:href="#SVGID_29_"  style="overflow:visible;"/>
			</clipPath>
			<rect x="214.9" y="178.1" class="st14" width="3.6" height="3.6"/>
		</g>
	</g>
	<g>
		<defs>
			<rect id="SVGID_31_" x="1.2" y="2.3" width="244.5" height="186.8"/>
		</defs>
		<clipPath id="SVGID_32_">
			<use xlink:href="#SVGID_31_"  style="overflow:visible;"/>
		</clipPath>
		<circle class="st15" cx="121.7" cy="47.9" r="4.9"/>
	</g>
	<g>
		<defs>
			<circle id="SVGID_33_" cx="130.2" cy="55.4" r="4.9"/>
		</defs>
		<clipPath id="SVGID_34_">
			<use xlink:href="#SVGID_33_"  style="overflow:visible;"/>
		</clipPath>
		<g class="st16">
			<defs>
				<rect id="SVGID_35_" x="1.2" y="2.3" width="244.5" height="186.8"/>
			</defs>
			<clipPath id="SVGID_36_">
				<use xlink:href="#SVGID_35_"  style="overflow:visible;"/>
			</clipPath>
			<rect x="124.1" y="49.3" class="st17" width="12.2" height="12.2"/>
		</g>
	</g>
	<g>
		<defs>
			<rect id="SVGID_37_" x="1.2" y="2.3" width="244.5" height="186.8"/>
		</defs>
		<clipPath id="SVGID_38_">
			<use xlink:href="#SVGID_37_"  style="overflow:visible;"/>
		</clipPath>
		<circle class="st18" cx="130.2" cy="55.4" r="4.9"/>
		<circle class="st18" cx="132.8" cy="46.3" r="3.2"/>
		<circle class="st18" cx="119.1" cy="57.1" r="3.2"/>
	</g>
	<g>
		<g>
			<defs>
				<rect id="SVGID_39_" x="1.2" y="2.3" width="244.5" height="186.8"/>
			</defs>
			<clipPath id="SVGID_40_">
				<use xlink:href="#SVGID_39_"  style="overflow:visible;"/>
			</clipPath>
		</g>
	</g>
	<g>
		<defs>
			<rect id="SVGID_41_" x="1.2" y="2.3" width="244.5" height="186.8"/>
		</defs>
		<clipPath id="SVGID_42_">
			<use xlink:href="#SVGID_41_"  style="overflow:visible;"/>
		</clipPath>
	</g>
	<g>
		<g>
			<defs>
				<rect id="SVGID_43_" x="1.2" y="2.3" width="244.5" height="186.8"/>
			</defs>
			<clipPath id="SVGID_44_">
				<use xlink:href="#SVGID_43_"  style="overflow:visible;"/>
			</clipPath>
		</g>
	</g>
	<g>
		<g>
			<defs>
				<rect id="SVGID_45_" x="1.2" y="2.3" width="244.5" height="186.8"/>
			</defs>
			<clipPath id="SVGID_46_">
				<use xlink:href="#SVGID_45_"  style="overflow:visible;"/>
			</clipPath>
		</g>
	</g>
	<g>
		<path d="M60.1,87.1c-0.5,0-0.8,0.1-1.1,0.4c-0.3,0.2-0.4,0.6-0.4,1s0.1,0.7,0.3,1c0.2,0.2,0.5,0.4,0.8,0.5
			c0.3,0.1,0.7,0.2,1.1,0.3c0.4,0.1,0.8,0.2,1.2,0.4c0.4,0.1,0.8,0.3,1.1,0.5c0.3,0.2,0.6,0.5,0.8,0.9c0.2,0.4,0.3,0.9,0.3,1.5
			c0,0.9-0.4,1.7-1.1,2.4c-0.7,0.7-1.7,1-3,1c-1.2,0-2.2-0.3-3-0.9c-0.8-0.6-1.1-1.4-1.1-2.5h2.5c0.1,1,0.7,1.5,1.7,1.5
			c0.5,0,0.9-0.1,1.2-0.4c0.3-0.3,0.5-0.6,0.5-1.1s-0.2-0.8-0.6-1.1c-0.4-0.3-0.9-0.5-1.5-0.6c-0.6-0.1-1.1-0.3-1.7-0.5
			s-1.1-0.5-1.5-1c-0.4-0.5-0.6-1.1-0.6-1.8c0-1,0.4-1.9,1.1-2.5s1.7-0.9,2.9-0.9s2.1,0.3,2.9,0.8c0.7,0.5,1.1,1.4,1.2,2.5h-2.5
			c0-0.4-0.2-0.8-0.5-1S60.5,87.1,60.1,87.1z"/>
		<path d="M68.9,87.8v1.4c0.6-1,1.5-1.5,2.8-1.5c0.7,0,1.3,0.2,1.8,0.5c0.5,0.3,1,0.8,1.3,1.4c0.3-0.6,0.8-1,1.3-1.3
			s1.2-0.5,1.9-0.5c1.1,0,2,0.3,2.6,1s1,1.6,1,2.9v5.3h-2.3v-5c0-0.7-0.2-1.3-0.5-1.6c-0.4-0.4-0.9-0.6-1.5-0.6
			c-0.6,0-1.1,0.2-1.5,0.6c-0.4,0.4-0.5,0.9-0.5,1.6v5H73v-5c0-0.7-0.2-1.3-0.5-1.6c-0.4-0.4-0.9-0.6-1.5-0.6
			c-0.6,0-1.1,0.2-1.5,0.6c-0.4,0.4-0.5,0.9-0.5,1.6v5h-2.3v-9.1H68.9z"/>
		<path d="M84.7,95.7c-0.9-0.9-1.3-2-1.3-3.4s0.4-2.5,1.3-3.4c0.9-0.9,2-1.3,3.3-1.3c1.3,0,2.4,0.4,3.3,1.3c0.9,0.9,1.3,2,1.3,3.4
			s-0.5,2.5-1.4,3.4c-0.9,0.9-2,1.3-3.4,1.3S85.6,96.6,84.7,95.7z M88,95c0.6,0,1.2-0.2,1.7-0.7c0.5-0.5,0.7-1.1,0.7-2
			c0-0.9-0.2-1.5-0.7-2s-1-0.7-1.7-0.7c-0.7,0-1.2,0.2-1.6,0.7c-0.4,0.5-0.7,1.1-0.7,2s0.2,1.5,0.7,2C86.8,94.8,87.4,95,88,95z"/>
		<path d="M96.8,96.9h-2.3V84.7h2.3v6.9l3.1-3.9h3.1l-4,4.6l4,4.5H100l-3.1-3.8V96.9z"/>
		<path d="M108.2,97c-1.3,0-2.4-0.4-3.2-1.3s-1.2-2-1.2-3.4s0.4-2.5,1.3-3.4s1.9-1.3,3.2-1.3s2.4,0.4,3.3,1.2
			c0.9,0.8,1.3,1.9,1.3,3.3c0,0.3,0,0.6-0.1,0.9h-6.6c0.1,0.6,0.3,1.1,0.7,1.4c0.4,0.4,0.9,0.5,1.5,0.5c0.8,0,1.4-0.3,1.8-1h2.5
			c-0.3,0.9-0.8,1.6-1.5,2.1C110.2,96.7,109.3,97,108.2,97z M109.7,90.1c-0.4-0.4-0.9-0.5-1.5-0.5c-0.6,0-1.1,0.2-1.5,0.5
			c-0.4,0.4-0.6,0.8-0.7,1.4h4.3C110.4,91,110.1,90.5,109.7,90.1z"/>
		<path d="M120.1,95.7c-0.8-0.9-1.2-2-1.2-3.4c0-1.4,0.4-2.5,1.2-3.4c0.8-0.9,1.8-1.3,3.1-1.3c1.2,0,2.2,0.5,2.9,1.5v-4.5h2.3v12.1
			H126v-1.5c-0.7,1.1-1.6,1.7-2.9,1.7C121.9,97,120.9,96.5,120.1,95.7z M125.3,94.3c0.5-0.5,0.7-1.1,0.7-2s-0.2-1.5-0.7-2
			c-0.5-0.5-1-0.7-1.7-0.7c-0.6,0-1.2,0.2-1.7,0.7c-0.5,0.5-0.7,1.1-0.7,2s0.2,1.5,0.7,2s1,0.7,1.7,0.7S124.8,94.8,125.3,94.3z"/>
		<path d="M134.6,97c-1.3,0-2.4-0.4-3.2-1.3s-1.2-2-1.2-3.4s0.4-2.5,1.3-3.4s1.9-1.3,3.2-1.3s2.4,0.4,3.3,1.2
			c0.9,0.8,1.3,1.9,1.3,3.3c0,0.3,0,0.6-0.1,0.9h-6.6c0.1,0.6,0.3,1.1,0.7,1.4c0.4,0.4,0.9,0.5,1.5,0.5c0.8,0,1.4-0.3,1.8-1h2.5
			c-0.3,0.9-0.8,1.6-1.5,2.1C136.6,96.7,135.7,97,134.6,97z M136.1,90.1c-0.4-0.4-0.9-0.5-1.5-0.5c-0.6,0-1.1,0.2-1.5,0.5
			c-0.4,0.4-0.6,0.8-0.7,1.4h4.3C136.7,91,136.5,90.5,136.1,90.1z"/>
		<path d="M144.5,94.9h1.1v1.9h-1.5c-0.9,0-1.6-0.2-2.1-0.6c-0.5-0.4-0.8-1.1-0.8-2.1v-4.4h-1v-1.9h1v-2.2h2.3v2.2h2v1.9h-2v4.4
			c0,0.3,0.1,0.5,0.2,0.6S144.2,94.9,144.5,94.9z"/>
		<path d="M151.3,97c-1.3,0-2.4-0.4-3.2-1.3s-1.2-2-1.2-3.4s0.4-2.5,1.3-3.4s1.9-1.3,3.2-1.3s2.4,0.4,3.3,1.2
			c0.9,0.8,1.3,1.9,1.3,3.3c0,0.3,0,0.6-0.1,0.9h-6.6c0.1,0.6,0.3,1.1,0.7,1.4c0.4,0.4,0.9,0.5,1.5,0.5c0.8,0,1.4-0.3,1.8-1h2.5
			c-0.3,0.9-0.8,1.6-1.5,2.1C153.2,96.7,152.3,97,151.3,97z M152.8,90.1c-0.4-0.4-0.9-0.5-1.5-0.5c-0.6,0-1.1,0.2-1.5,0.5
			c-0.4,0.4-0.6,0.8-0.7,1.4h4.3C153.4,91,153.2,90.5,152.8,90.1z"/>
		<path d="M158.2,95.7c-0.8-0.9-1.2-2-1.2-3.4s0.4-2.5,1.2-3.4c0.8-0.9,1.9-1.3,3.2-1.3c1.1,0,2,0.3,2.8,0.8s1.2,1.3,1.5,2.3h-2.5
			c-0.3-0.8-0.9-1.1-1.8-1.1c-0.7,0-1.2,0.2-1.6,0.7s-0.6,1.2-0.6,2s0.2,1.5,0.6,2s0.9,0.7,1.6,0.7c0.9,0,1.5-0.4,1.8-1.1h2.5
			c-0.3,1-0.8,1.7-1.5,2.3c-0.7,0.6-1.7,0.8-2.7,0.8C160.2,97,159.1,96.6,158.2,95.7z"/>
		<path d="M171,94.9h1.1v1.9h-1.5c-0.9,0-1.6-0.2-2.1-0.6c-0.5-0.4-0.8-1.1-0.8-2.1v-4.4h-1v-1.9h1v-2.2h2.3v2.2h2v1.9h-2v4.4
			c0,0.3,0.1,0.5,0.2,0.6S170.6,94.9,171,94.9z"/>
		<path d="M177.7,97c-1.3,0-2.4-0.4-3.2-1.3s-1.2-2-1.2-3.4s0.4-2.5,1.3-3.4s1.9-1.3,3.2-1.3s2.4,0.4,3.3,1.2
			c0.9,0.8,1.3,1.9,1.3,3.3c0,0.3,0,0.6-0.1,0.9h-6.6c0.1,0.6,0.3,1.1,0.7,1.4c0.4,0.4,0.9,0.5,1.5,0.5c0.8,0,1.4-0.3,1.8-1h2.5
			c-0.3,0.9-0.8,1.6-1.5,2.1C179.7,96.7,178.8,97,177.7,97z M179.2,90.1c-0.4-0.4-0.9-0.5-1.5-0.5c-0.6,0-1.1,0.2-1.5,0.5
			c-0.4,0.4-0.6,0.8-0.7,1.4h4.3C179.9,91,179.7,90.5,179.2,90.1z"/>
		<path d="M184.7,95.7c-0.8-0.9-1.2-2-1.2-3.4c0-1.4,0.4-2.5,1.2-3.4c0.8-0.9,1.8-1.3,3.1-1.3c1.2,0,2.2,0.5,2.9,1.5v-4.5h2.3v12.1
			h-2.3v-1.5c-0.7,1.1-1.6,1.7-2.9,1.7C186.5,97,185.5,96.5,184.7,95.7z M189.9,94.3c0.5-0.5,0.7-1.1,0.7-2s-0.2-1.5-0.7-2
			c-0.5-0.5-1-0.7-1.7-0.7c-0.6,0-1.2,0.2-1.7,0.7c-0.5,0.5-0.7,1.1-0.7,2s0.2,1.5,0.7,2s1,0.7,1.7,0.7S189.4,94.8,189.9,94.3z"/>
		<path d="M199.1,95.5c0,0.4-0.1,0.7-0.4,0.9c-0.3,0.3-0.6,0.4-0.9,0.4s-0.7-0.1-0.9-0.4c-0.3-0.3-0.4-0.6-0.4-0.9
			c0-0.4,0.1-0.7,0.4-0.9c0.3-0.3,0.6-0.4,0.9-0.4s0.7,0.1,0.9,0.4C199,94.9,199.1,95.2,199.1,95.5z M196.7,93l-0.3-8.5h2.5
			l-0.3,8.5H196.7z"/>
		<path class="st1" d="M74.5,111.1v2.7h-0.9v-6.8h2.6c0.7,0,1.3,0.2,1.7,0.6c0.4,0.4,0.6,0.9,0.6,1.5c0,0.6-0.2,1.1-0.6,1.5
			c-0.4,0.4-1,0.5-1.7,0.5H74.5z M74.5,110.4h1.7c0.5,0,0.8-0.1,1-0.4c0.2-0.2,0.3-0.6,0.3-0.9c0-0.4-0.1-0.7-0.3-0.9
			s-0.6-0.4-1-0.4h-1.7V110.4z"/>
		<path class="st1" d="M80.5,113.9h-0.9v-7.2h0.9V113.9z"/>
		<path class="st1" d="M84,114c-0.7,0-1.3-0.2-1.7-0.7c-0.4-0.5-0.6-1.1-0.6-1.8v-0.2c0-0.7,0.2-1.3,0.6-1.8
			c0.4-0.5,0.9-0.7,1.5-0.7c0.7,0,1.2,0.2,1.5,0.6c0.3,0.4,0.5,1,0.5,1.6v0.6h-3.3l0,0c0,0.5,0.1,0.9,0.4,1.2c0.2,0.3,0.6,0.5,1,0.5
			c0.3,0,0.6,0,0.8-0.1c0.2-0.1,0.4-0.2,0.6-0.4l0.4,0.6c-0.2,0.2-0.4,0.3-0.7,0.4C84.7,113.9,84.4,114,84,114z M83.8,109.5
			c-0.3,0-0.6,0.1-0.8,0.4c-0.2,0.3-0.3,0.6-0.4,1l0,0H85v-0.1c0-0.4-0.1-0.7-0.3-0.9C84.5,109.6,84.2,109.5,83.8,109.5z"/>
		<path class="st1" d="M90,113.9c0-0.2-0.1-0.3-0.1-0.4c0-0.1,0-0.2,0-0.4c-0.2,0.2-0.4,0.4-0.7,0.6c-0.3,0.2-0.6,0.2-0.9,0.2
			c-0.5,0-0.9-0.1-1.2-0.4s-0.4-0.6-0.4-1.1c0-0.5,0.2-0.9,0.6-1.1c0.4-0.3,0.9-0.4,1.6-0.4h1v-0.5c0-0.3-0.1-0.5-0.3-0.7
			c-0.2-0.2-0.4-0.3-0.8-0.3c-0.3,0-0.5,0.1-0.7,0.2c-0.2,0.2-0.3,0.3-0.3,0.5H87l0,0c0-0.4,0.2-0.7,0.5-1c0.4-0.3,0.8-0.5,1.4-0.5
			c0.6,0,1,0.1,1.4,0.4c0.3,0.3,0.5,0.7,0.5,1.2v2.4c0,0.2,0,0.4,0,0.5c0,0.2,0.1,0.3,0.1,0.5H90z M88.5,113.2
			c0.3,0,0.6-0.1,0.9-0.3c0.3-0.2,0.4-0.4,0.5-0.6v-0.8h-1c-0.4,0-0.7,0.1-0.9,0.3c-0.2,0.2-0.3,0.4-0.3,0.7c0,0.2,0.1,0.4,0.2,0.5
			C88,113.1,88.2,113.2,88.5,113.2z"/>
		<path class="st1" d="M95,112.5c0-0.2-0.1-0.4-0.2-0.5s-0.4-0.2-0.9-0.3c-0.6-0.1-1.1-0.3-1.4-0.5c-0.3-0.2-0.5-0.5-0.5-0.9
			c0-0.4,0.2-0.8,0.5-1c0.3-0.3,0.8-0.4,1.4-0.4c0.6,0,1,0.1,1.4,0.4c0.3,0.3,0.5,0.7,0.5,1.1l0,0H95c0-0.2-0.1-0.4-0.3-0.6
			c-0.2-0.2-0.4-0.3-0.7-0.3c-0.3,0-0.6,0.1-0.7,0.2c-0.2,0.1-0.2,0.3-0.2,0.5c0,0.2,0.1,0.4,0.2,0.5c0.1,0.1,0.4,0.2,0.8,0.3
			c0.6,0.1,1.1,0.3,1.4,0.6c0.3,0.2,0.5,0.5,0.5,0.9c0,0.4-0.2,0.8-0.5,1.1S94.6,114,94,114c-0.6,0-1.1-0.2-1.5-0.5
			c-0.4-0.3-0.5-0.7-0.5-1.1l0,0h0.9c0,0.3,0.1,0.6,0.4,0.7s0.5,0.2,0.8,0.2c0.3,0,0.6-0.1,0.8-0.2C94.9,112.9,95,112.7,95,112.5z"
			/>
		<path class="st1" d="M99.2,114c-0.7,0-1.3-0.2-1.7-0.7c-0.4-0.5-0.6-1.1-0.6-1.8v-0.2c0-0.7,0.2-1.3,0.6-1.8
			c0.4-0.5,0.9-0.7,1.5-0.7c0.7,0,1.2,0.2,1.5,0.6c0.3,0.4,0.5,1,0.5,1.6v0.6h-3.3l0,0c0,0.5,0.1,0.9,0.4,1.2c0.2,0.3,0.6,0.5,1,0.5
			c0.3,0,0.6,0,0.8-0.1c0.2-0.1,0.4-0.2,0.6-0.4l0.4,0.6c-0.2,0.2-0.4,0.3-0.7,0.4C99.9,113.9,99.6,114,99.2,114z M99,109.5
			c-0.3,0-0.6,0.1-0.8,0.4c-0.2,0.3-0.3,0.6-0.4,1l0,0h2.3v-0.1c0-0.4-0.1-0.7-0.3-0.9C99.7,109.6,99.4,109.5,99,109.5z"/>
		<path class="st1" d="M106.5,113.2c0.3,0,0.6-0.1,0.8-0.3c0.2-0.2,0.3-0.4,0.3-0.7h0.8l0,0c0,0.4-0.2,0.8-0.6,1.2s-0.9,0.5-1.4,0.5
			c-0.7,0-1.3-0.2-1.7-0.7c-0.4-0.5-0.6-1.1-0.6-1.8v-0.2c0-0.7,0.2-1.3,0.6-1.8c0.4-0.5,0.9-0.7,1.7-0.7c0.6,0,1.1,0.2,1.4,0.5
			c0.4,0.3,0.6,0.8,0.5,1.3l0,0h-0.8c0-0.3-0.1-0.6-0.3-0.8s-0.5-0.3-0.8-0.3c-0.5,0-0.8,0.2-1,0.5c-0.2,0.3-0.3,0.8-0.3,1.3v0.2
			c0,0.5,0.1,0.9,0.3,1.3C105.7,113.1,106,113.2,106.5,113.2z"/>
		<path class="st1" d="M110.4,109.5c0.2-0.2,0.4-0.4,0.6-0.6s0.5-0.2,0.8-0.2c0.5,0,1,0.2,1.2,0.5c0.3,0.3,0.4,0.8,0.4,1.5v3.1h-0.9
			v-3.2c0-0.4-0.1-0.7-0.3-0.9c-0.2-0.2-0.4-0.3-0.8-0.3c-0.3,0-0.5,0.1-0.7,0.2c-0.2,0.1-0.4,0.3-0.5,0.5v3.7h-0.9v-7.2h0.9V109.5z
			"/>
		<path class="st1" d="M117,114c-0.7,0-1.3-0.2-1.7-0.7c-0.4-0.5-0.6-1.1-0.6-1.8v-0.2c0-0.7,0.2-1.3,0.6-1.8
			c0.4-0.5,0.9-0.7,1.5-0.7c0.7,0,1.2,0.2,1.5,0.6c0.3,0.4,0.5,1,0.5,1.6v0.6h-3.3l0,0c0,0.5,0.1,0.9,0.4,1.2c0.2,0.3,0.6,0.5,1,0.5
			c0.3,0,0.6,0,0.8-0.1c0.2-0.1,0.4-0.2,0.6-0.4l0.4,0.6c-0.2,0.2-0.4,0.3-0.7,0.4C117.8,113.9,117.4,114,117,114z M116.9,109.5
			c-0.3,0-0.6,0.1-0.8,0.4c-0.2,0.3-0.3,0.6-0.4,1l0,0h2.3v-0.1c0-0.4-0.1-0.7-0.3-0.9C117.5,109.6,117.2,109.5,116.9,109.5z"/>
		<path class="st1" d="M122,113.2c0.3,0,0.6-0.1,0.8-0.3c0.2-0.2,0.3-0.4,0.3-0.7h0.8l0,0c0,0.4-0.2,0.8-0.6,1.2s-0.9,0.5-1.4,0.5
			c-0.7,0-1.3-0.2-1.7-0.7c-0.4-0.5-0.6-1.1-0.6-1.8v-0.2c0-0.7,0.2-1.3,0.6-1.8c0.4-0.5,0.9-0.7,1.7-0.7c0.6,0,1.1,0.2,1.4,0.5
			c0.4,0.3,0.6,0.8,0.5,1.3l0,0h-0.8c0-0.3-0.1-0.6-0.3-0.8s-0.5-0.3-0.8-0.3c-0.5,0-0.8,0.2-1,0.5c-0.2,0.3-0.3,0.8-0.3,1.3v0.2
			c0,0.5,0.1,0.9,0.3,1.3C121.2,113.1,121.5,113.2,122,113.2z"/>
		<path class="st1" d="M126.5,111.5h-0.6v2.3H125v-7.2h0.9v4.2h0.6l1.4-2h1.1l-1.7,2.3l2,2.7h-1.1L126.5,111.5z"/>
		<path class="st1" d="M133.7,112l0.2,0.6h0l1.2-3.8h1l-2.1,5.8c-0.1,0.3-0.3,0.6-0.5,0.9c-0.2,0.3-0.6,0.4-1,0.4
			c-0.1,0-0.2,0-0.3,0c-0.1,0-0.2,0-0.3,0l0.1-0.7c0,0,0,0,0.2,0c0.1,0,0.2,0,0.2,0c0.2,0,0.4-0.1,0.5-0.3c0.1-0.2,0.2-0.4,0.3-0.6
			l0.2-0.5l-1.9-4.9h1L133.7,112z"/>
		<path class="st1" d="M136.8,111.3c0-0.7,0.2-1.4,0.6-1.8c0.4-0.5,0.9-0.7,1.6-0.7c0.7,0,1.2,0.2,1.6,0.7c0.4,0.5,0.6,1.1,0.6,1.8
			v0.1c0,0.7-0.2,1.4-0.6,1.8c-0.4,0.5-0.9,0.7-1.6,0.7c-0.7,0-1.2-0.2-1.6-0.7c-0.4-0.5-0.6-1.1-0.6-1.8V111.3z M137.7,111.4
			c0,0.5,0.1,1,0.3,1.3c0.2,0.3,0.6,0.5,1,0.5c0.4,0,0.8-0.2,1-0.5s0.3-0.8,0.3-1.3v-0.1c0-0.5-0.1-1-0.3-1.3
			c-0.2-0.3-0.6-0.5-1-0.5c-0.4,0-0.8,0.2-1,0.5c-0.2,0.3-0.3,0.8-0.3,1.3V111.4z"/>
		<path class="st1" d="M145.6,113.1c-0.2,0.3-0.4,0.5-0.6,0.6c-0.2,0.1-0.5,0.2-0.9,0.2c-0.5,0-1-0.2-1.3-0.5
			c-0.3-0.3-0.5-0.9-0.5-1.6v-3h0.9v3c0,0.5,0.1,0.9,0.2,1.1c0.2,0.2,0.4,0.3,0.7,0.3c0.3,0,0.6-0.1,0.8-0.2
			c0.2-0.1,0.4-0.3,0.5-0.6v-3.6h0.9v5h-0.8L145.6,113.1z"/>
		<path class="st1" d="M150.2,109.6l-0.5,0c-0.2,0-0.4,0.1-0.6,0.2c-0.2,0.1-0.3,0.3-0.4,0.5v3.6h-0.9v-5h0.8l0.1,0.7
			c0.1-0.3,0.3-0.5,0.5-0.6c0.2-0.1,0.4-0.2,0.7-0.2c0.1,0,0.1,0,0.2,0c0.1,0,0.1,0,0.2,0L150.2,109.6z"/>
		<path class="st1" d="M153.2,111.4c0-0.8,0.2-1.5,0.5-2c0.3-0.5,0.8-0.7,1.5-0.7c0.3,0,0.6,0.1,0.8,0.2s0.4,0.3,0.6,0.5v-2.8h0.9
			v7.2h-0.7l-0.1-0.6c-0.2,0.2-0.4,0.4-0.6,0.5c-0.2,0.1-0.5,0.2-0.8,0.2c-0.6,0-1.1-0.2-1.4-0.7
			C153.4,112.8,153.2,112.3,153.2,111.4L153.2,111.4z M154.1,111.5c0,0.5,0.1,0.9,0.3,1.2c0.2,0.3,0.5,0.5,1,0.5
			c0.3,0,0.5-0.1,0.7-0.2c0.2-0.1,0.3-0.3,0.5-0.5v-2.3c-0.1-0.2-0.3-0.4-0.5-0.5s-0.4-0.2-0.7-0.2c-0.4,0-0.8,0.2-1,0.5
			C154.2,110.4,154.1,110.9,154.1,111.5L154.1,111.5z"/>
		<path class="st1" d="M159.8,107.6h-0.9v-0.9h0.9V107.6z M159.8,113.9h-0.9v-5h0.9V113.9z"/>
		<path class="st1" d="M164.1,112.5c0-0.2-0.1-0.4-0.2-0.5s-0.4-0.2-0.9-0.3c-0.6-0.1-1.1-0.3-1.4-0.5c-0.3-0.2-0.5-0.5-0.5-0.9
			c0-0.4,0.2-0.8,0.5-1c0.3-0.3,0.8-0.4,1.4-0.4c0.6,0,1,0.1,1.4,0.4c0.3,0.3,0.5,0.7,0.5,1.1l0,0h-0.9c0-0.2-0.1-0.4-0.3-0.6
			c-0.2-0.2-0.4-0.3-0.7-0.3c-0.3,0-0.6,0.1-0.7,0.2c-0.2,0.1-0.2,0.3-0.2,0.5c0,0.2,0.1,0.4,0.2,0.5c0.1,0.1,0.4,0.2,0.8,0.3
			c0.6,0.1,1.1,0.3,1.4,0.6c0.3,0.2,0.5,0.5,0.5,0.9c0,0.4-0.2,0.8-0.5,1.1s-0.8,0.4-1.4,0.4c-0.6,0-1.1-0.2-1.5-0.5
			c-0.4-0.3-0.5-0.7-0.5-1.1l0,0h0.9c0,0.3,0.1,0.6,0.4,0.7s0.5,0.2,0.8,0.2c0.3,0,0.6-0.1,0.8-0.2
			C164,112.9,164.1,112.7,164.1,112.5z"/>
		<path class="st1" d="M167.1,109.5c0.2-0.2,0.4-0.4,0.6-0.6s0.5-0.2,0.8-0.2c0.5,0,1,0.2,1.2,0.5c0.3,0.3,0.4,0.8,0.4,1.5v3.1h-0.9
			v-3.2c0-0.4-0.1-0.7-0.3-0.9c-0.2-0.2-0.4-0.3-0.8-0.3c-0.3,0-0.5,0.1-0.7,0.2c-0.2,0.1-0.4,0.3-0.5,0.5v3.7h-0.9v-7.2h0.9V109.5z
			"/>
		<path class="st1" d="M173.6,114c-0.7,0-1.3-0.2-1.7-0.7c-0.4-0.5-0.6-1.1-0.6-1.8v-0.2c0-0.7,0.2-1.3,0.6-1.8
			c0.4-0.5,0.9-0.7,1.5-0.7c0.7,0,1.2,0.2,1.5,0.6c0.3,0.4,0.5,1,0.5,1.6v0.6h-3.3l0,0c0,0.5,0.1,0.9,0.4,1.2c0.2,0.3,0.6,0.5,1,0.5
			c0.3,0,0.6,0,0.8-0.1c0.2-0.1,0.4-0.2,0.6-0.4l0.4,0.6c-0.2,0.2-0.4,0.3-0.7,0.4C174.4,113.9,174.1,114,173.6,114z M173.5,109.5
			c-0.3,0-0.6,0.1-0.8,0.4c-0.2,0.3-0.3,0.6-0.4,1l0,0h2.3v-0.1c0-0.4-0.1-0.7-0.3-0.9C174.2,109.6,173.9,109.5,173.5,109.5z"/>
		<path class="st1" d="M179.5,112.5c0-0.2-0.1-0.4-0.2-0.5s-0.4-0.2-0.9-0.3c-0.6-0.1-1.1-0.3-1.4-0.5c-0.3-0.2-0.5-0.5-0.5-0.9
			c0-0.4,0.2-0.8,0.5-1c0.3-0.3,0.8-0.4,1.4-0.4c0.6,0,1,0.1,1.4,0.4c0.3,0.3,0.5,0.7,0.5,1.1l0,0h-0.9c0-0.2-0.1-0.4-0.3-0.6
			c-0.2-0.2-0.4-0.3-0.7-0.3c-0.3,0-0.6,0.1-0.7,0.2c-0.2,0.1-0.2,0.3-0.2,0.5c0,0.2,0.1,0.4,0.2,0.5c0.1,0.1,0.4,0.2,0.8,0.3
			c0.6,0.1,1.1,0.3,1.4,0.6c0.3,0.2,0.5,0.5,0.5,0.9c0,0.4-0.2,0.8-0.5,1.1s-0.8,0.4-1.4,0.4c-0.6,0-1.1-0.2-1.5-0.5
			c-0.4-0.3-0.5-0.7-0.5-1.1l0,0h0.9c0,0.3,0.1,0.6,0.4,0.7s0.5,0.2,0.8,0.2c0.3,0,0.6-0.1,0.8-0.2
			C179.4,112.9,179.5,112.7,179.5,112.5z"/>
		<path class="st1" d="M182.6,113.9h-0.9v-0.9h0.9V113.9z"/>
	</g>
	<rect x="98" y="137" class="st19" width="60.2" height="13.5"/>
	<g>
		<path class="st1" d="M106.3,142.1h-1.4v3.9h-0.3v-3.9h-1.4v-0.3h3.2V142.1z"/>
		<path class="st1" d="M109.9,141.8v2.8c0,0.5-0.1,0.8-0.4,1c-0.3,0.2-0.6,0.4-1.1,0.4c-0.4,0-0.8-0.1-1.1-0.4s-0.4-0.6-0.4-1v-2.8
			h0.3v2.8c0,0.4,0.1,0.6,0.3,0.8c0.2,0.2,0.5,0.3,0.8,0.3c0.3,0,0.6-0.1,0.8-0.3c0.2-0.2,0.3-0.5,0.3-0.8v-2.8H109.9z"/>
		<path class="st1" d="M111.3,144.1v1.9h-0.3v-4.2h1.4c0.4,0,0.8,0.1,1,0.3s0.4,0.5,0.4,0.9c0,0.2-0.1,0.4-0.2,0.6
			c-0.1,0.2-0.3,0.3-0.5,0.4c0.3,0.1,0.4,0.2,0.6,0.3c0.1,0.2,0.2,0.4,0.2,0.6v0.4c0,0.1,0,0.2,0,0.3c0,0.1,0.1,0.2,0.2,0.3v0.1
			h-0.3c-0.1-0.1-0.1-0.2-0.1-0.3c0-0.1,0-0.3,0-0.4v-0.4c0-0.3-0.1-0.5-0.2-0.6c-0.2-0.1-0.4-0.2-0.7-0.2H111.3z M111.3,143.8h1
			c0.4,0,0.7-0.1,0.8-0.2c0.2-0.2,0.3-0.4,0.3-0.6c0-0.3-0.1-0.5-0.3-0.6s-0.4-0.2-0.8-0.2h-1.1V143.8z"/>
		<path class="st1" d="M117.9,146h-0.3l-2.4-3.6l0,0v3.6h-0.3v-4.2h0.3l2.4,3.6l0,0v-3.6h0.3V146z"/>
		<path class="st1" d="M123.5,144.2c0,0.5-0.1,1-0.4,1.3c-0.3,0.3-0.7,0.5-1.2,0.5c-0.5,0-0.9-0.2-1.2-0.5c-0.3-0.3-0.4-0.8-0.4-1.3
			v-0.7c0-0.5,0.1-1,0.4-1.3c0.3-0.3,0.7-0.5,1.2-0.5c0.5,0,0.9,0.2,1.2,0.5c0.3,0.3,0.4,0.8,0.4,1.3V144.2z M123.1,143.5
			c0-0.5-0.1-0.8-0.3-1.1c-0.2-0.3-0.5-0.4-1-0.4c-0.4,0-0.7,0.1-0.9,0.4c-0.2,0.3-0.3,0.6-0.3,1.1v0.7c0,0.5,0.1,0.8,0.3,1.1
			c0.2,0.3,0.5,0.4,0.9,0.4c0.4,0,0.7-0.1,1-0.4c0.2-0.3,0.3-0.6,0.3-1.1V143.5z"/>
		<path class="st1" d="M126.7,144h-2v2h-0.3v-4.2h2.7v0.3h-2.3v1.6h2V144z"/>
		<path class="st1" d="M130.1,144h-2v2h-0.3v-4.2h2.7v0.3h-2.3v1.6h2V144z"/>
		<path class="st1" d="M134.8,144.8h-1.9l-0.4,1.2h-0.4l1.6-4.2h0.3l1.6,4.2h-0.4L134.8,144.8z M133,144.5h1.7l-0.8-2.3h0L133,144.5
			z"/>
		<path class="st1" d="M136.6,145.7h2.1v0.3h-2.4v-4.2h0.3V145.7z"/>
		<path class="st1" d="M141.6,144.8h-1.9l-0.4,1.2h-0.4l1.6-4.2h0.3l1.6,4.2H142L141.6,144.8z M139.8,144.5h1.7l-0.8-2.3h0
			L139.8,144.5z"/>
		<path class="st1" d="M143.3,144.1v1.9H143v-4.2h1.4c0.4,0,0.8,0.1,1,0.3s0.4,0.5,0.4,0.9c0,0.2-0.1,0.4-0.2,0.6
			c-0.1,0.2-0.3,0.3-0.5,0.4c0.3,0.1,0.4,0.2,0.6,0.3c0.1,0.2,0.2,0.4,0.2,0.6v0.4c0,0.1,0,0.2,0,0.3c0,0.1,0.1,0.2,0.2,0.3v0.1
			h-0.3c-0.1-0.1-0.1-0.2-0.1-0.3c0-0.1,0-0.3,0-0.4v-0.4c0-0.3-0.1-0.5-0.2-0.6c-0.2-0.1-0.4-0.2-0.7-0.2H143.3z M143.3,143.8h1
			c0.4,0,0.7-0.1,0.8-0.2c0.2-0.2,0.3-0.4,0.3-0.6c0-0.3-0.1-0.5-0.3-0.6s-0.4-0.2-0.8-0.2h-1.1V143.8z"/>
		<path class="st1" d="M147.3,141.8l1.5,3.7h0l1.5-3.7h0.5v4.2h-0.3v-1.8l0-1.8l0,0L149,146h-0.2l-1.5-3.7l0,0l0,1.8v1.8h-0.3v-4.2
			H147.3z"/>
	</g>
</g>
<g>
	<g>
		<defs>
			<rect id="SVGID_47_" x="189.8" y="31.9" width="244.5" height="186.8"/>
		</defs>
		<use xlink:href="#SVGID_47_"  style="overflow:visible;fill:#FFFFFF;"/>
		<clipPath id="SVGID_48_">
			<use xlink:href="#SVGID_47_"  style="overflow:visible;"/>
		</clipPath>
		<use xlink:href="#SVGID_47_"  style="overflow:visible;fill:none;stroke:#4B4B4B;stroke-width:0.75;stroke-miterlimit:10;"/>
	</g>
	<g>
		<defs>
			<rect id="SVGID_49_" x="189.8" y="31.9" width="244.5" height="186.8"/>
		</defs>
		<clipPath id="SVGID_50_">
			<use xlink:href="#SVGID_49_"  style="overflow:visible;"/>
		</clipPath>
	</g>
	<g>
		<g>
			<defs>
				<rect id="SVGID_51_" x="189.8" y="31.9" width="244.5" height="186.8"/>
			</defs>
			<clipPath id="SVGID_52_">
				<use xlink:href="#SVGID_51_"  style="overflow:visible;"/>
			</clipPath>
		</g>
	</g>
	<g>
		<defs>
			<rect id="SVGID_53_" x="189.8" y="31.9" width="244.5" height="186.8"/>
		</defs>
		<clipPath id="SVGID_54_">
			<use xlink:href="#SVGID_53_"  style="overflow:visible;"/>
		</clipPath>
		<g class="st20">
			<path class="st1" d="M303.3,40.9h-2.9v-0.3l1.5-1.7c0.3-0.3,0.5-0.6,0.6-0.8c0.1-0.2,0.2-0.4,0.2-0.6c0-0.3-0.1-0.5-0.2-0.7
				s-0.4-0.3-0.7-0.3c-0.4,0-0.6,0.1-0.8,0.3s-0.3,0.5-0.3,0.8h-0.4l0,0c0-0.4,0.1-0.7,0.4-1s0.6-0.4,1.1-0.4c0.4,0,0.7,0.1,1,0.3
				s0.4,0.5,0.4,0.9c0,0.3-0.1,0.5-0.2,0.8c-0.2,0.3-0.4,0.6-0.7,0.9l-1.3,1.4l0,0h2.4V40.9z"/>
			<path class="st1" d="M304.5,38H304v-0.5h0.4V38z M304.5,40.9H304v-0.5h0.4V40.9z"/>
			<path class="st1" d="M308.3,39.1c0,0.6-0.1,1.1-0.4,1.4s-0.6,0.5-1.1,0.5c-0.5,0-0.8-0.2-1.1-0.5c-0.3-0.3-0.4-0.8-0.4-1.4v-1
				c0-0.6,0.1-1.1,0.4-1.4s0.6-0.5,1.1-0.5s0.8,0.2,1.1,0.5s0.4,0.8,0.4,1.4V39.1z M307.9,38c0-0.5-0.1-0.8-0.3-1.1
				c-0.2-0.3-0.5-0.4-0.8-0.4s-0.6,0.1-0.8,0.4c-0.2,0.3-0.3,0.6-0.3,1.1v1.2c0,0.5,0.1,0.8,0.3,1.1s0.5,0.4,0.8,0.4
				s0.6-0.1,0.8-0.4c0.2-0.3,0.3-0.6,0.3-1.1V38z"/>
			<path class="st1" d="M312.1,39.1c0,0.6-0.1,1.1-0.4,1.4s-0.6,0.5-1.1,0.5c-0.5,0-0.8-0.2-1.1-0.5c-0.3-0.3-0.4-0.8-0.4-1.4v-1
				c0-0.6,0.1-1.1,0.4-1.4s0.6-0.5,1.1-0.5s0.8,0.2,1.1,0.5s0.4,0.8,0.4,1.4V39.1z M311.7,38c0-0.5-0.1-0.8-0.3-1.1
				c-0.2-0.3-0.5-0.4-0.8-0.4s-0.6,0.1-0.8,0.4c-0.2,0.3-0.3,0.6-0.3,1.1v1.2c0,0.5,0.1,0.8,0.3,1.1s0.5,0.4,0.8,0.4
				s0.6-0.1,0.8-0.4c0.2-0.3,0.3-0.6,0.3-1.1V38z"/>
			<path class="st1" d="M315.1,39v1.9h-0.4v-4.6h1.6c0.5,0,0.9,0.1,1.1,0.4c0.3,0.2,0.4,0.6,0.4,1c0,0.4-0.1,0.7-0.4,1
				s-0.6,0.4-1.1,0.4H315.1z M315.1,38.6h1.2c0.4,0,0.7-0.1,0.9-0.3c0.2-0.2,0.3-0.4,0.3-0.7c0-0.3-0.1-0.5-0.3-0.7
				c-0.2-0.2-0.5-0.3-0.9-0.3h-1.2V38.6z"/>
			<path class="st1" d="M319.2,36.3l1.7,4.1h0l1.7-4.1h0.5v4.6h-0.4v-2l0-2l0,0l-1.7,4.1h-0.3l-1.7-4l0,0l0,2v2h-0.4v-4.6H319.2z"/>
		</g>
		<line class="st21" x1="189.4" y1="44.5" x2="433.9" y2="44.5"/>
	</g>
	<g>
		<defs>
			<rect id="SVGID_55_" x="189.8" y="200" width="244.5" height="18.6"/>
		</defs>
		<clipPath id="SVGID_56_">
			<use xlink:href="#SVGID_55_"  style="overflow:visible;"/>
		</clipPath>
		<g class="st22">
			<defs>
				<rect id="SVGID_57_" x="189.8" y="31.9" width="244.5" height="186.8"/>
			</defs>
			<clipPath id="SVGID_58_">
				<use xlink:href="#SVGID_57_"  style="overflow:visible;"/>
			</clipPath>
			<rect x="188.5" y="198.7" class="st23" width="247" height="21.1"/>
		</g>
	</g>
	<g>
		<defs>
			<rect id="SVGID_59_" x="189.8" y="31.9" width="244.5" height="186.8"/>
		</defs>
		<clipPath id="SVGID_60_">
			<use xlink:href="#SVGID_59_"  style="overflow:visible;"/>
		</clipPath>
		<circle class="st24" cx="220.4" cy="207.2" r="1.7"/>
		<circle class="st24" cx="220.4" cy="212.2" r="1.7"/>
		<circle class="st24" cx="225.4" cy="207.2" r="1.7"/>
		<circle class="st24" cx="225.4" cy="212.2" r="1.7"/>
		<rect x="276.8" y="205.6" class="st25" width="11.2" height="8.5"/>
		<rect x="278.6" y="207.4" class="st25" width="7.6" height="4.8"/>
		<path class="st25" d="M345.6,212.4h-4.2l-1.7,1.6l-0.2-1.6h-1.3c-0.6,0-1-0.5-1-1v-4.7c0-0.6,0.5-1,1-1h7.4c0.6,0,1,0.5,1,1v4.7
			C346.6,211.9,346.1,212.4,345.6,212.4z"/>
	</g>
	<g>
		<defs>
			<path id="SVGID_61_" d="M342.1,207.5c-0.1,0.1-0.1,0.1-0.2,0.1c-0.1,0-0.2,0-0.2-0.1c-0.1-0.1-0.1-0.1-0.1-0.2
				c0-0.1,0-0.2,0.1-0.2c0.1-0.1,0.1-0.1,0.2-0.1s0.2,0,0.2,0.1s0.1,0.1,0.1,0.2C342.2,207.3,342.1,207.4,342.1,207.5z M341.7,211
				h0.4v-2.6h-0.4V211z"/>
		</defs>
		<clipPath id="SVGID_62_">
			<use xlink:href="#SVGID_61_"  style="overflow:visible;"/>
		</clipPath>
		<g class="st26">
			<defs>
				<rect id="SVGID_63_" x="189.8" y="31.9" width="244.5" height="186.8"/>
			</defs>
			<clipPath id="SVGID_64_">
				<use xlink:href="#SVGID_63_"  style="overflow:visible;"/>
			</clipPath>
			<rect x="340.3" y="205.7" class="st27" width="3.1" height="6.5"/>
		</g>
	</g>
	<g>
		<defs>
			<path id="SVGID_65_" d="M398.9,209.5c0,0.3-0.2,0.5-0.5,0.5s-0.5-0.2-0.5-0.5c0-0.3,0.2-0.5,0.5-0.5S398.9,209.2,398.9,209.5"/>
		</defs>
		<clipPath id="SVGID_66_">
			<use xlink:href="#SVGID_65_"  style="overflow:visible;"/>
		</clipPath>
		<g class="st28">
			<defs>
				<rect id="SVGID_67_" x="189.8" y="31.9" width="244.5" height="186.8"/>
			</defs>
			<clipPath id="SVGID_68_">
				<use xlink:href="#SVGID_67_"  style="overflow:visible;"/>
			</clipPath>
			<rect x="396.6" y="207.7" class="st29" width="3.6" height="3.6"/>
		</g>
	</g>
	<g>
		<defs>
			<path id="SVGID_69_" d="M402.4,209.5c0,0.3-0.2,0.5-0.5,0.5s-0.5-0.2-0.5-0.5c0-0.3,0.2-0.5,0.5-0.5S402.4,209.2,402.4,209.5"/>
		</defs>
		<clipPath id="SVGID_70_">
			<use xlink:href="#SVGID_69_"  style="overflow:visible;"/>
		</clipPath>
		<g class="st30">
			<defs>
				<rect id="SVGID_71_" x="189.8" y="31.9" width="244.5" height="186.8"/>
			</defs>
			<clipPath id="SVGID_72_">
				<use xlink:href="#SVGID_71_"  style="overflow:visible;"/>
			</clipPath>
			<rect x="400" y="207.7" class="st31" width="3.6" height="3.6"/>
		</g>
	</g>
	<g>
		<defs>
			<path id="SVGID_73_" d="M405.8,209.5c0,0.3-0.2,0.5-0.5,0.5s-0.5-0.2-0.5-0.5c0-0.3,0.2-0.5,0.5-0.5S405.8,209.2,405.8,209.5"/>
		</defs>
		<clipPath id="SVGID_74_">
			<use xlink:href="#SVGID_73_"  style="overflow:visible;"/>
		</clipPath>
		<g class="st32">
			<defs>
				<rect id="SVGID_75_" x="189.8" y="31.9" width="244.5" height="186.8"/>
			</defs>
			<clipPath id="SVGID_76_">
				<use xlink:href="#SVGID_75_"  style="overflow:visible;"/>
			</clipPath>
			<rect x="403.5" y="207.7" class="st33" width="3.6" height="3.6"/>
		</g>
	</g>
	<g>
		<defs>
			<rect id="SVGID_77_" x="189.8" y="31.9" width="244.5" height="186.8"/>
		</defs>
		<clipPath id="SVGID_78_">
			<use xlink:href="#SVGID_77_"  style="overflow:visible;"/>
		</clipPath>
		<circle class="st34" cx="310.2" cy="75.5" r="4.9"/>
	</g>
	<g>
		<defs>
			<circle id="SVGID_79_" cx="318.7" cy="83" r="4.9"/>
		</defs>
		<clipPath id="SVGID_80_">
			<use xlink:href="#SVGID_79_"  style="overflow:visible;"/>
		</clipPath>
		<g class="st35">
			<defs>
				<rect id="SVGID_81_" x="189.8" y="31.9" width="244.5" height="186.8"/>
			</defs>
			<clipPath id="SVGID_82_">
				<use xlink:href="#SVGID_81_"  style="overflow:visible;"/>
			</clipPath>
			<rect x="312.6" y="76.9" class="st36" width="12.2" height="12.2"/>
		</g>
	</g>
	<g>
		<defs>
			<rect id="SVGID_83_" x="189.8" y="31.9" width="244.5" height="186.8"/>
		</defs>
		<clipPath id="SVGID_84_">
			<use xlink:href="#SVGID_83_"  style="overflow:visible;"/>
		</clipPath>
		<circle class="st37" cx="318.7" cy="83" r="4.9"/>
		<circle class="st37" cx="321.4" cy="73.9" r="3.2"/>
		<circle class="st37" cx="307.6" cy="84.6" r="3.2"/>
	</g>
	<g>
		<g>
			<defs>
				<rect id="SVGID_85_" x="189.8" y="31.9" width="244.5" height="186.8"/>
			</defs>
			<clipPath id="SVGID_86_">
				<use xlink:href="#SVGID_85_"  style="overflow:visible;"/>
			</clipPath>
		</g>
	</g>
	<g>
		<defs>
			<rect id="SVGID_87_" x="189.8" y="31.9" width="244.5" height="186.8"/>
		</defs>
		<clipPath id="SVGID_88_">
			<use xlink:href="#SVGID_87_"  style="overflow:visible;"/>
		</clipPath>
	</g>
	<g>
		<g>
			<defs>
				<rect id="SVGID_89_" x="189.8" y="31.9" width="244.5" height="186.8"/>
			</defs>
			<clipPath id="SVGID_90_">
				<use xlink:href="#SVGID_89_"  style="overflow:visible;"/>
			</clipPath>
		</g>
	</g>
	<g>
		<g>
			<defs>
				<rect id="SVGID_91_" x="189.8" y="31.9" width="244.5" height="186.8"/>
			</defs>
			<clipPath id="SVGID_92_">
				<use xlink:href="#SVGID_91_"  style="overflow:visible;"/>
			</clipPath>
		</g>
	</g>
	<g>
		<path d="M257,104.7c-0.5,0-0.8,0.1-1.1,0.4c-0.3,0.2-0.4,0.6-0.4,1s0.1,0.7,0.3,1c0.2,0.2,0.5,0.4,0.8,0.5
			c0.3,0.1,0.7,0.2,1.1,0.3c0.4,0.1,0.8,0.2,1.2,0.4c0.4,0.1,0.8,0.3,1.1,0.5c0.3,0.2,0.6,0.5,0.8,0.9c0.2,0.4,0.3,0.9,0.3,1.5
			c0,0.9-0.4,1.7-1.1,2.4c-0.7,0.7-1.7,1-3,1c-1.2,0-2.2-0.3-3-0.9c-0.8-0.6-1.1-1.4-1.1-2.5h2.5c0.1,1,0.7,1.5,1.7,1.5
			c0.5,0,0.9-0.1,1.2-0.4c0.3-0.3,0.5-0.6,0.5-1.1c0-0.5-0.2-0.8-0.6-1.1c-0.4-0.3-0.9-0.5-1.5-0.6c-0.6-0.1-1.1-0.3-1.7-0.5
			s-1.1-0.5-1.5-1c-0.4-0.5-0.6-1.1-0.6-1.8c0-1,0.4-1.9,1.1-2.5s1.7-0.9,2.9-0.9s2.1,0.3,2.9,0.8c0.7,0.5,1.1,1.4,1.2,2.5h-2.5
			c0-0.4-0.2-0.8-0.5-1S257.5,104.7,257,104.7z"/>
		<path d="M264.3,113.3c-0.9-0.9-1.3-2-1.3-3.4c0-1.4,0.4-2.5,1.3-3.4c0.9-0.9,2-1.3,3.3-1.3c1.3,0,2.4,0.4,3.3,1.3
			c0.9,0.9,1.3,2,1.3,3.4c0,1.4-0.5,2.5-1.4,3.4c-0.9,0.9-2,1.3-3.4,1.3S265.2,114.1,264.3,113.3z M267.6,112.6
			c0.6,0,1.2-0.2,1.7-0.7c0.5-0.5,0.7-1.1,0.7-2c0-0.9-0.2-1.5-0.7-2s-1-0.7-1.7-0.7c-0.7,0-1.2,0.2-1.6,0.7c-0.4,0.5-0.7,1.1-0.7,2
			s0.2,1.5,0.7,2C266.4,112.4,267,112.6,267.6,112.6z"/>
		<path d="M276.5,105.4v1.4c0.6-1,1.5-1.5,2.8-1.5c0.7,0,1.3,0.2,1.8,0.5c0.5,0.3,1,0.8,1.3,1.4c0.3-0.6,0.8-1,1.3-1.3
			s1.2-0.5,1.9-0.5c1.1,0,2,0.3,2.6,1s1,1.6,1,2.9v5.3h-2.3v-5c0-0.7-0.2-1.3-0.5-1.6c-0.4-0.4-0.9-0.6-1.5-0.6
			c-0.6,0-1.1,0.2-1.5,0.6c-0.4,0.4-0.5,0.9-0.5,1.6v5h-2.3v-5c0-0.7-0.2-1.3-0.5-1.6c-0.4-0.4-0.9-0.6-1.5-0.6
			c-0.6,0-1.1,0.2-1.5,0.6c-0.4,0.4-0.5,0.9-0.5,1.6v5h-2.3v-9.1H276.5z"/>
		<path d="M295.3,114.6c-1.3,0-2.4-0.4-3.2-1.3s-1.2-2-1.2-3.4c0-1.4,0.4-2.5,1.3-3.4s1.9-1.3,3.2-1.3s2.4,0.4,3.3,1.2
			c0.9,0.8,1.3,1.9,1.3,3.3c0,0.3,0,0.6-0.1,0.9h-6.6c0.1,0.6,0.3,1.1,0.7,1.4c0.4,0.4,0.9,0.5,1.5,0.5c0.8,0,1.4-0.3,1.8-1h2.5
			c-0.3,0.9-0.8,1.6-1.5,2.1C297.3,114.3,296.4,114.6,295.3,114.6z M296.9,107.7c-0.4-0.4-0.9-0.5-1.5-0.5c-0.6,0-1.1,0.2-1.5,0.5
			c-0.4,0.4-0.6,0.8-0.7,1.4h4.3C297.5,108.6,297.3,108.1,296.9,107.7z"/>
		<path d="M305.3,112.5h1.1v1.9h-1.5c-0.9,0-1.6-0.2-2.1-0.6c-0.5-0.4-0.8-1.1-0.8-2.1v-4.4h-1v-1.9h1v-2.2h2.3v2.2h2v1.9h-2v4.4
			c0,0.3,0.1,0.5,0.2,0.6S304.9,112.5,305.3,112.5z"/>
		<path d="M310.5,102.3v4.4c0.6-1,1.5-1.5,2.8-1.5c1,0,1.9,0.3,2.5,1c0.7,0.7,1,1.6,1,2.8v5.3h-2.3v-5c0-0.7-0.2-1.3-0.5-1.6
			c-0.4-0.4-0.9-0.6-1.5-0.6c-0.6,0-1.1,0.2-1.5,0.6c-0.4,0.4-0.5,0.9-0.5,1.6v5h-2.3v-12.1H310.5z"/>
		<path d="M321.7,103c0,0.4-0.1,0.7-0.4,1c-0.3,0.3-0.6,0.4-1,0.4c-0.4,0-0.7-0.1-1-0.4c-0.3-0.3-0.4-0.6-0.4-1c0-0.4,0.1-0.7,0.4-1
			c0.3-0.3,0.6-0.4,1-0.4c0.4,0,0.7,0.1,1,0.4C321.6,102.3,321.7,102.7,321.7,103z M319.2,114.4v-9.1h2.3v9.1H319.2z"/>
		<path d="M326.3,105.4v1.4c0.6-1,1.5-1.5,2.8-1.5c1,0,1.9,0.3,2.5,1c0.7,0.7,1,1.6,1,2.8v5.3h-2.3v-5c0-0.7-0.2-1.3-0.5-1.6
			c-0.4-0.4-0.9-0.6-1.5-0.6c-0.6,0-1.1,0.2-1.5,0.6c-0.4,0.4-0.5,0.9-0.5,1.6v5H324v-9.1H326.3z"/>
		<path d="M335.6,113.2c-0.8-0.9-1.2-2-1.2-3.4c0-1.4,0.4-2.5,1.2-3.4c0.8-0.9,1.8-1.3,3.1-1.3c1.2,0,2.2,0.5,2.9,1.5v-1.4h2.3v9.1
			c0,1.3-0.4,2.4-1.1,3.2c-0.8,0.8-1.8,1.2-3.2,1.2c-1.4,0-2.5-0.3-3.3-0.9c-0.8-0.6-1.3-1.4-1.4-2.5h2.3c0.1,0.4,0.4,0.7,0.8,1
			c0.4,0.2,0.9,0.4,1.5,0.4c0.6,0,1.1-0.2,1.5-0.6c0.4-0.4,0.6-1,0.6-1.8v-1.6c-0.7,1.1-1.6,1.7-2.9,1.7
			C337.4,114.6,336.4,114.1,335.6,113.2z M340.8,111.9c0.5-0.5,0.7-1.1,0.7-2s-0.2-1.5-0.7-2c-0.5-0.5-1-0.7-1.7-0.7
			c-0.6,0-1.2,0.2-1.7,0.7c-0.5,0.5-0.7,1.1-0.7,2s0.2,1.5,0.7,2s1,0.7,1.7,0.7S340.3,112.3,340.8,111.9z"/>
		<path d="M353.5,102.3v4.4c0.6-1,1.5-1.5,2.8-1.5c1,0,1.9,0.3,2.5,1c0.7,0.7,1,1.6,1,2.8v5.3h-2.3v-5c0-0.7-0.2-1.3-0.5-1.6
			c-0.4-0.4-0.9-0.6-1.5-0.6c-0.6,0-1.1,0.2-1.5,0.6c-0.4,0.4-0.5,0.9-0.5,1.6v5h-2.3v-12.1H353.5z"/>
		<path d="M362.8,113.2c-0.8-0.9-1.2-2-1.2-3.4c0-1.4,0.4-2.5,1.2-3.4c0.8-0.9,1.8-1.3,3.1-1.3c1.2,0,2.2,0.5,2.9,1.5v-1.4h2.3v9.1
			h-2.3v-1.5c-0.7,1.1-1.6,1.7-2.9,1.7C364.6,114.6,363.6,114.1,362.8,113.2z M368,111.9c0.5-0.5,0.7-1.1,0.7-2s-0.2-1.5-0.7-2
			c-0.5-0.5-1-0.7-1.7-0.7c-0.6,0-1.2,0.2-1.7,0.7c-0.5,0.5-0.7,1.1-0.7,2s0.2,1.5,0.7,2s1,0.7,1.7,0.7S367.5,112.3,368,111.9z"/>
		<path d="M372.9,108c0-0.8,0.3-1.4,1-2c0.7-0.5,1.6-0.8,2.7-0.8s2,0.3,2.7,0.8c0.7,0.5,1,1.2,1.1,2.2H378c-0.1-0.8-0.5-1.1-1.4-1.1
			c-0.4,0-0.8,0.1-1,0.3c-0.2,0.2-0.4,0.4-0.4,0.7s0.2,0.5,0.5,0.7c0.4,0.2,0.8,0.3,1.3,0.4c0.5,0.1,1,0.2,1.5,0.4
			c0.5,0.1,0.9,0.4,1.3,0.8c0.4,0.4,0.5,0.9,0.5,1.5c0,0.8-0.3,1.5-1,2c-0.7,0.5-1.6,0.8-2.7,0.8s-2-0.3-2.6-0.8
			c-0.7-0.5-1.1-1.2-1.1-2.2h2.4c0.1,0.8,0.6,1.1,1.5,1.1c0.4,0,0.8-0.1,1-0.3c0.3-0.2,0.4-0.4,0.4-0.8s-0.2-0.6-0.5-0.7
			c-0.4-0.2-0.8-0.3-1.3-0.4s-1-0.2-1.5-0.4c-0.5-0.1-0.9-0.4-1.3-0.8C373.1,109.1,372.9,108.6,372.9,108z"/>
		<path d="M269.2,126.8c0.6-1,1.6-1.5,2.8-1.5c1.2,0,2.3,0.4,3.1,1.3c0.8,0.9,1.2,2,1.2,3.4c0,1.4-0.4,2.5-1.2,3.4s-1.8,1.3-3.1,1.3
			c-1.2,0-2.2-0.6-2.9-1.7v1.5h-2.3v-12.1h2.3V126.8z M273.3,131.8c0.5-0.5,0.7-1.1,0.7-2s-0.2-1.5-0.7-2c-0.5-0.5-1-0.7-1.7-0.7
			s-1.2,0.2-1.7,0.7c-0.5,0.5-0.7,1.1-0.7,2s0.2,1.5,0.7,2c0.5,0.5,1,0.7,1.7,0.7S272.8,132.3,273.3,131.8z"/>
		<path d="M278.9,133.3c-0.9-0.9-1.3-2-1.3-3.4s0.4-2.5,1.3-3.4c0.9-0.9,2-1.3,3.3-1.3c1.3,0,2.4,0.4,3.3,1.3c0.9,0.9,1.3,2,1.3,3.4
			s-0.5,2.5-1.4,3.4c-0.9,0.9-2,1.3-3.4,1.3S279.8,134.1,278.9,133.3z M282.2,132.6c0.6,0,1.2-0.2,1.7-0.7c0.5-0.5,0.7-1.1,0.7-2
			c0-0.9-0.2-1.5-0.7-2c-0.5-0.5-1-0.7-1.7-0.7c-0.7,0-1.2,0.2-1.6,0.7c-0.4,0.5-0.7,1.1-0.7,2s0.2,1.5,0.7,2
			C281,132.4,281.6,132.6,282.2,132.6z"/>
		<path d="M291.3,123c0,0.4-0.1,0.7-0.4,1c-0.3,0.3-0.6,0.4-1,0.4c-0.4,0-0.7-0.1-1-0.4c-0.3-0.3-0.4-0.6-0.4-1c0-0.4,0.1-0.7,0.4-1
			c0.3-0.3,0.6-0.4,1-0.4c0.4,0,0.7,0.1,1,0.4C291.2,122.3,291.3,122.7,291.3,123z M288.8,134.4v-9.1h2.3v9.1H288.8z"/>
		<path d="M293.5,134.4v-12.1h2.3v12.1H293.5z"/>
		<path d="M302.1,134.6c-1.3,0-2.4-0.4-3.2-1.3s-1.2-2-1.2-3.4s0.4-2.5,1.3-3.4s1.9-1.3,3.2-1.3s2.4,0.4,3.3,1.2
			c0.9,0.8,1.3,1.9,1.3,3.3c0,0.3,0,0.6-0.1,0.9H300c0.1,0.6,0.3,1.1,0.7,1.4c0.4,0.4,0.9,0.5,1.5,0.5c0.8,0,1.4-0.3,1.8-1h2.5
			c-0.3,0.9-0.8,1.6-1.5,2.1C304.1,134.3,303.2,134.6,302.1,134.6z M303.6,127.7c-0.4-0.4-0.9-0.5-1.5-0.5c-0.6,0-1.1,0.2-1.5,0.5
			c-0.4,0.4-0.6,0.8-0.7,1.4h4.3C304.3,128.6,304.1,128.1,303.6,127.7z"/>
		<path d="M309.1,133.2c-0.8-0.9-1.2-2-1.2-3.4c0-1.4,0.4-2.5,1.2-3.4c0.8-0.9,1.8-1.3,3.1-1.3c1.2,0,2.2,0.5,2.9,1.5v-4.5h2.3v12.1
			H315v-1.5c-0.7,1.1-1.6,1.7-2.9,1.7C310.9,134.6,309.9,134.1,309.1,133.2z M314.3,131.9c0.5-0.5,0.7-1.1,0.7-2s-0.2-1.5-0.7-2
			c-0.5-0.5-1-0.7-1.7-0.7c-0.6,0-1.2,0.2-1.7,0.7c-0.5,0.5-0.7,1.1-0.7,2s0.2,1.5,0.7,2s1,0.7,1.7,0.7S313.8,132.3,314.3,131.9z"/>
		<path d="M325.4,133.3c-0.9-0.9-1.3-2-1.3-3.4s0.4-2.5,1.3-3.4c0.9-0.9,2-1.3,3.3-1.3c1.3,0,2.4,0.4,3.3,1.3c0.9,0.9,1.3,2,1.3,3.4
			s-0.5,2.5-1.4,3.4c-0.9,0.9-2,1.3-3.4,1.3S326.3,134.1,325.4,133.3z M328.7,132.6c0.6,0,1.2-0.2,1.7-0.7c0.5-0.5,0.7-1.1,0.7-2
			c0-0.9-0.2-1.5-0.7-2c-0.5-0.5-1-0.7-1.7-0.7c-0.7,0-1.2,0.2-1.6,0.7c-0.4,0.5-0.7,1.1-0.7,2s0.2,1.5,0.7,2
			C327.5,132.4,328.1,132.6,328.7,132.6z"/>
		<path d="M334.1,125.4h2.5l2.3,7.1l2.3-7.1h2.5l-3.3,9.1h-2.9L334.1,125.4z"/>
		<path d="M348.9,134.6c-1.3,0-2.4-0.4-3.2-1.3s-1.2-2-1.2-3.4s0.4-2.5,1.3-3.4s1.9-1.3,3.2-1.3s2.4,0.4,3.3,1.2
			c0.9,0.8,1.3,1.9,1.3,3.3c0,0.3,0,0.6-0.1,0.9h-6.6c0.1,0.6,0.3,1.1,0.7,1.4c0.4,0.4,0.9,0.5,1.5,0.5c0.8,0,1.4-0.3,1.8-1h2.5
			c-0.3,0.9-0.8,1.6-1.5,2.1C350.9,134.3,350,134.6,348.9,134.6z M350.4,127.7c-0.4-0.4-0.9-0.5-1.5-0.5c-0.6,0-1.1,0.2-1.5,0.5
			c-0.4,0.4-0.6,0.8-0.7,1.4h4.3C351.1,128.6,350.8,128.1,350.4,127.7z"/>
		<path d="M357.6,125.4v1.6c0.6-1.2,1.5-1.7,2.7-1.7v2.4h-0.6c-0.7,0-1.2,0.2-1.6,0.5c-0.4,0.3-0.5,0.9-0.5,1.8v4.6h-2.3v-9.1H357.6
			z"/>
		<path d="M365.6,133.1c0,0.4-0.1,0.7-0.4,0.9c-0.3,0.3-0.6,0.4-0.9,0.4s-0.7-0.1-0.9-0.4c-0.3-0.3-0.4-0.6-0.4-0.9
			c0-0.4,0.1-0.7,0.4-0.9c0.3-0.3,0.6-0.4,0.9-0.4s0.7,0.1,0.9,0.4C365.5,132.4,365.6,132.8,365.6,133.1z M363.3,130.6l-0.3-8.5h2.5
			l-0.3,8.5H363.3z"/>
		<path class="st1" d="M253.5,151.4v-6.8h2.2c0.7,0,1.3,0.2,1.7,0.5s0.6,0.8,0.6,1.4c0,0.3-0.1,0.6-0.3,0.8
			c-0.2,0.2-0.4,0.4-0.8,0.5c0.4,0.1,0.7,0.3,1,0.6c0.2,0.3,0.3,0.7,0.3,1.1c0,0.6-0.2,1.1-0.6,1.4s-0.9,0.5-1.6,0.5H253.5z
			 M254.4,147.6h1.5c0.3,0,0.6-0.1,0.8-0.3c0.2-0.2,0.3-0.4,0.3-0.8c0-0.4-0.1-0.6-0.3-0.8s-0.6-0.3-1-0.3h-1.3V147.6z M254.4,148.3
			v2.4h1.6c0.4,0,0.7-0.1,1-0.3c0.2-0.2,0.3-0.5,0.3-0.9c0-0.4-0.1-0.7-0.3-0.9c-0.2-0.2-0.5-0.3-0.9-0.3H254.4z"/>
		<path class="st1" d="M262.6,150.7c-0.2,0.3-0.4,0.5-0.6,0.6c-0.2,0.1-0.5,0.2-0.9,0.2c-0.5,0-1-0.2-1.3-0.5
			c-0.3-0.3-0.5-0.9-0.5-1.6v-3h0.9v3c0,0.5,0.1,0.9,0.2,1.1c0.2,0.2,0.4,0.3,0.7,0.3c0.3,0,0.6-0.1,0.8-0.2
			c0.2-0.1,0.4-0.3,0.5-0.6v-3.6h0.9v5h-0.8L262.6,150.7z"/>
		<path class="st1" d="M267.1,147.2l-0.5,0c-0.2,0-0.4,0.1-0.6,0.2c-0.2,0.1-0.3,0.3-0.4,0.5v3.6h-0.9v-5h0.8l0.1,0.7
			c0.1-0.3,0.3-0.5,0.5-0.6c0.2-0.1,0.4-0.2,0.7-0.2c0.1,0,0.1,0,0.2,0c0.1,0,0.1,0,0.2,0L267.1,147.2z"/>
		<path class="st1" d="M268.8,146.4l0.1,0.7c0.2-0.3,0.4-0.5,0.6-0.6c0.3-0.1,0.5-0.2,0.9-0.2c0.5,0,1,0.2,1.3,0.5
			c0.3,0.3,0.4,0.8,0.4,1.5v3.2h-0.9v-3.1c0-0.4-0.1-0.8-0.3-0.9c-0.2-0.2-0.4-0.3-0.8-0.3c-0.3,0-0.5,0.1-0.7,0.2
			c-0.2,0.1-0.4,0.3-0.5,0.5v3.7H268v-5H268.8z"/>
		<path class="st1" d="M275.5,151.5c-0.7,0-1.3-0.2-1.7-0.7c-0.4-0.5-0.6-1.1-0.6-1.8v-0.2c0-0.7,0.2-1.3,0.6-1.8
			c0.4-0.5,0.9-0.7,1.5-0.7c0.7,0,1.2,0.2,1.5,0.6c0.3,0.4,0.5,1,0.5,1.6v0.6h-3.3l0,0c0,0.5,0.1,0.9,0.4,1.2c0.2,0.3,0.6,0.5,1,0.5
			c0.3,0,0.6,0,0.8-0.1c0.2-0.1,0.4-0.2,0.6-0.4l0.4,0.6c-0.2,0.2-0.4,0.3-0.7,0.4C276.3,151.5,275.9,151.5,275.5,151.5z M275.4,147
			c-0.3,0-0.6,0.1-0.8,0.4c-0.2,0.3-0.3,0.6-0.4,1l0,0h2.3v-0.1c0-0.4-0.1-0.7-0.3-0.9C276,147.2,275.7,147,275.4,147z"/>
		<path class="st1" d="M280.8,147.2l-0.5,0c-0.2,0-0.4,0.1-0.6,0.2c-0.2,0.1-0.3,0.3-0.4,0.5v3.6h-0.9v-5h0.8l0.1,0.7
			c0.1-0.3,0.3-0.5,0.5-0.6c0.2-0.1,0.4-0.2,0.7-0.2c0.1,0,0.1,0,0.2,0c0.1,0,0.1,0,0.2,0L280.8,147.2z"/>
		<path class="st1" d="M285,147.1c0.2-0.2,0.4-0.4,0.6-0.6s0.5-0.2,0.8-0.2c0.5,0,1,0.2,1.2,0.5c0.3,0.3,0.4,0.8,0.4,1.5v3.1h-0.9
			v-3.2c0-0.4-0.1-0.7-0.3-0.9c-0.2-0.2-0.4-0.3-0.8-0.3c-0.3,0-0.5,0.1-0.7,0.2c-0.2,0.1-0.4,0.3-0.5,0.5v3.7h-0.9v-7.2h0.9V147.1z
			"/>
		<path class="st1" d="M292.5,151.4c0-0.2-0.1-0.3-0.1-0.4c0-0.1,0-0.2,0-0.4c-0.2,0.2-0.4,0.4-0.7,0.6c-0.3,0.2-0.6,0.2-0.9,0.2
			c-0.5,0-0.9-0.1-1.2-0.4s-0.4-0.6-0.4-1.1c0-0.5,0.2-0.9,0.6-1.1c0.4-0.3,0.9-0.4,1.6-0.4h1V148c0-0.3-0.1-0.5-0.3-0.7
			c-0.2-0.2-0.4-0.3-0.8-0.3c-0.3,0-0.5,0.1-0.7,0.2c-0.2,0.2-0.3,0.3-0.3,0.5h-0.9l0,0c0-0.4,0.2-0.7,0.5-1
			c0.4-0.3,0.8-0.5,1.4-0.5c0.6,0,1,0.1,1.4,0.4c0.3,0.3,0.5,0.7,0.5,1.2v2.4c0,0.2,0,0.4,0,0.5c0,0.2,0.1,0.3,0.1,0.5H292.5z
			 M291,150.8c0.3,0,0.6-0.1,0.9-0.3c0.3-0.2,0.4-0.4,0.5-0.6v-0.8h-1c-0.4,0-0.7,0.1-0.9,0.3c-0.2,0.2-0.3,0.4-0.3,0.7
			c0,0.2,0.1,0.4,0.2,0.5C290.6,150.7,290.8,150.8,291,150.8z"/>
		<path class="st1" d="M297.6,150.1c0-0.2-0.1-0.4-0.2-0.5s-0.4-0.2-0.9-0.3c-0.6-0.1-1.1-0.3-1.4-0.5c-0.3-0.2-0.5-0.5-0.5-0.9
			c0-0.4,0.2-0.8,0.5-1c0.3-0.3,0.8-0.4,1.4-0.4c0.6,0,1,0.1,1.4,0.4c0.3,0.3,0.5,0.7,0.5,1.1l0,0h-0.9c0-0.2-0.1-0.4-0.3-0.6
			c-0.2-0.2-0.4-0.3-0.7-0.3c-0.3,0-0.6,0.1-0.7,0.2c-0.2,0.1-0.2,0.3-0.2,0.5c0,0.2,0.1,0.4,0.2,0.5c0.1,0.1,0.4,0.2,0.8,0.3
			c0.6,0.1,1.1,0.3,1.4,0.6c0.3,0.2,0.5,0.5,0.5,0.9c0,0.4-0.2,0.8-0.5,1.1s-0.8,0.4-1.4,0.4c-0.6,0-1.1-0.2-1.5-0.5
			c-0.4-0.3-0.5-0.7-0.5-1.1l0,0h0.9c0,0.3,0.1,0.6,0.4,0.7s0.5,0.2,0.8,0.2c0.3,0,0.6-0.1,0.8-0.2
			C297.5,150.5,297.6,150.3,297.6,150.1z"/>
		<path class="st1" d="M306.3,149.1c0,0.7-0.2,1.3-0.5,1.8c-0.3,0.4-0.8,0.7-1.4,0.7c-0.3,0-0.6-0.1-0.9-0.2
			c-0.2-0.1-0.4-0.3-0.6-0.6l-0.1,0.7H302v-7.2h0.9v2.8c0.2-0.2,0.4-0.4,0.6-0.5s0.5-0.2,0.8-0.2c0.6,0,1.1,0.2,1.4,0.7
			C306.1,147.6,306.3,148.2,306.3,149.1L306.3,149.1z M305.4,149c0-0.6-0.1-1-0.3-1.4s-0.5-0.5-1-0.5c-0.3,0-0.5,0.1-0.7,0.2
			c-0.2,0.1-0.3,0.3-0.5,0.6v2.2c0.1,0.2,0.3,0.4,0.5,0.6c0.2,0.1,0.4,0.2,0.7,0.2c0.4,0,0.8-0.2,1-0.5
			C305.3,150,305.4,149.6,305.4,149L305.4,149z"/>
		<path class="st1" d="M309.5,151.5c-0.7,0-1.3-0.2-1.7-0.7c-0.4-0.5-0.6-1.1-0.6-1.8v-0.2c0-0.7,0.2-1.3,0.6-1.8
			c0.4-0.5,0.9-0.7,1.5-0.7c0.7,0,1.2,0.2,1.5,0.6c0.3,0.4,0.5,1,0.5,1.6v0.6h-3.3l0,0c0,0.5,0.1,0.9,0.4,1.2c0.2,0.3,0.6,0.5,1,0.5
			c0.3,0,0.6,0,0.8-0.1c0.2-0.1,0.4-0.2,0.6-0.4l0.4,0.6c-0.2,0.2-0.4,0.3-0.7,0.4C310.3,151.5,309.9,151.5,309.5,151.5z M309.4,147
			c-0.3,0-0.6,0.1-0.8,0.4c-0.2,0.3-0.3,0.6-0.4,1l0,0h2.3v-0.1c0-0.4-0.1-0.7-0.3-0.9C310,147.2,309.7,147,309.4,147z"/>
		<path class="st1" d="M314.5,151.5c-0.7,0-1.3-0.2-1.7-0.7c-0.4-0.5-0.6-1.1-0.6-1.8v-0.2c0-0.7,0.2-1.3,0.6-1.8
			c0.4-0.5,0.9-0.7,1.5-0.7c0.7,0,1.2,0.2,1.5,0.6c0.3,0.4,0.5,1,0.5,1.6v0.6h-3.3l0,0c0,0.5,0.1,0.9,0.4,1.2c0.2,0.3,0.6,0.5,1,0.5
			c0.3,0,0.6,0,0.8-0.1c0.2-0.1,0.4-0.2,0.6-0.4l0.4,0.6c-0.2,0.2-0.4,0.3-0.7,0.4C315.3,151.5,314.9,151.5,314.5,151.5z M314.4,147
			c-0.3,0-0.6,0.1-0.8,0.4c-0.2,0.3-0.3,0.6-0.4,1l0,0h2.3v-0.1c0-0.4-0.1-0.7-0.3-0.9C315,147.2,314.8,147,314.4,147z"/>
		<path class="st1" d="M318.3,146.4l0.1,0.7c0.2-0.3,0.4-0.5,0.6-0.6c0.3-0.1,0.5-0.2,0.9-0.2c0.5,0,1,0.2,1.3,0.5
			c0.3,0.3,0.4,0.8,0.4,1.5v3.2h-0.9v-3.1c0-0.4-0.1-0.8-0.3-0.9c-0.2-0.2-0.4-0.3-0.8-0.3c-0.3,0-0.5,0.1-0.7,0.2
			c-0.2,0.1-0.4,0.3-0.5,0.5v3.7h-0.9v-5H318.3z"/>
		<path class="st1" d="M326.4,145.2v1.2h1v0.7h-1v3c0,0.2,0,0.4,0.1,0.5s0.2,0.1,0.4,0.1c0.1,0,0.1,0,0.2,0c0.1,0,0.1,0,0.2,0
			l0.1,0.6c-0.1,0.1-0.2,0.1-0.3,0.1s-0.3,0.1-0.4,0.1c-0.4,0-0.7-0.1-0.9-0.3c-0.2-0.2-0.3-0.6-0.3-1.1v-3h-0.8v-0.7h0.8v-1.2
			H326.4z"/>
		<path class="st1" d="M331.7,150.7c-0.2,0.3-0.4,0.5-0.6,0.6c-0.2,0.1-0.5,0.2-0.9,0.2c-0.5,0-1-0.2-1.3-0.5
			c-0.3-0.3-0.5-0.9-0.5-1.6v-3h0.9v3c0,0.5,0.1,0.9,0.2,1.1c0.2,0.2,0.4,0.3,0.7,0.3c0.3,0,0.6-0.1,0.8-0.2
			c0.2-0.1,0.4-0.3,0.5-0.6v-3.6h0.9v5h-0.8L331.7,150.7z"/>
		<path class="st1" d="M336.3,147.2l-0.5,0c-0.2,0-0.4,0.1-0.6,0.2c-0.2,0.1-0.3,0.3-0.4,0.5v3.6h-0.9v-5h0.8l0.1,0.7
			c0.1-0.3,0.3-0.5,0.5-0.6c0.2-0.1,0.4-0.2,0.7-0.2c0.1,0,0.1,0,0.2,0c0.1,0,0.1,0,0.2,0L336.3,147.2z"/>
		<path class="st1" d="M338,146.4l0.1,0.7c0.2-0.3,0.4-0.5,0.6-0.6c0.3-0.1,0.5-0.2,0.9-0.2c0.5,0,1,0.2,1.3,0.5
			c0.3,0.3,0.4,0.8,0.4,1.5v3.2h-0.9v-3.1c0-0.4-0.1-0.8-0.3-0.9c-0.2-0.2-0.4-0.3-0.8-0.3c-0.3,0-0.5,0.1-0.7,0.2
			c-0.2,0.1-0.4,0.3-0.5,0.5v3.7h-0.9v-5H338z"/>
		<path class="st1" d="M344.6,151.5c-0.7,0-1.3-0.2-1.7-0.7c-0.4-0.5-0.6-1.1-0.6-1.8v-0.2c0-0.7,0.2-1.3,0.6-1.8
			c0.4-0.5,0.9-0.7,1.5-0.7c0.7,0,1.2,0.2,1.5,0.6c0.3,0.4,0.5,1,0.5,1.6v0.6h-3.3l0,0c0,0.5,0.1,0.9,0.4,1.2c0.2,0.3,0.6,0.5,1,0.5
			c0.3,0,0.6,0,0.8-0.1c0.2-0.1,0.4-0.2,0.6-0.4l0.4,0.6c-0.2,0.2-0.4,0.3-0.7,0.4C345.4,151.5,345.1,151.5,344.6,151.5z M344.5,147
			c-0.3,0-0.6,0.1-0.8,0.4c-0.2,0.3-0.3,0.6-0.4,1l0,0h2.3v-0.1c0-0.4-0.1-0.7-0.3-0.9C345.2,147.2,344.9,147,344.5,147z"/>
		<path class="st1" d="M347.4,149c0-0.8,0.2-1.5,0.5-2c0.3-0.5,0.8-0.7,1.5-0.7c0.3,0,0.6,0.1,0.8,0.2s0.4,0.3,0.6,0.5v-2.8h0.9v7.2
			h-0.7l-0.1-0.6c-0.2,0.2-0.4,0.4-0.6,0.5c-0.2,0.1-0.5,0.2-0.8,0.2c-0.6,0-1.1-0.2-1.4-0.7C347.6,150.4,347.4,149.8,347.4,149
			L347.4,149z M348.3,149.1c0,0.5,0.1,0.9,0.3,1.2c0.2,0.3,0.5,0.5,1,0.5c0.3,0,0.5-0.1,0.7-0.2c0.2-0.1,0.3-0.3,0.5-0.5v-2.3
			c-0.1-0.2-0.3-0.4-0.5-0.5s-0.4-0.2-0.7-0.2c-0.4,0-0.8,0.2-1,0.5C348.4,148,348.3,148.4,348.3,149.1L348.3,149.1z"/>
		<path class="st1" d="M355.1,149c0-0.8,0.2-1.5,0.5-2c0.3-0.5,0.8-0.7,1.5-0.7c0.3,0,0.6,0.1,0.8,0.2s0.4,0.3,0.6,0.5v-2.8h0.9v7.2
			h-0.7l-0.1-0.6c-0.2,0.2-0.4,0.4-0.6,0.5c-0.2,0.1-0.5,0.2-0.8,0.2c-0.6,0-1.1-0.2-1.4-0.7C355.3,150.4,355.1,149.8,355.1,149
			L355.1,149z M356.1,149.1c0,0.5,0.1,0.9,0.3,1.2c0.2,0.3,0.5,0.5,1,0.5c0.3,0,0.5-0.1,0.7-0.2c0.2-0.1,0.3-0.3,0.5-0.5v-2.3
			c-0.1-0.2-0.3-0.4-0.5-0.5s-0.4-0.2-0.7-0.2c-0.4,0-0.8,0.2-1,0.5C356.2,148,356.1,148.4,356.1,149.1L356.1,149.1z"/>
		<path class="st1" d="M360.5,148.9c0-0.7,0.2-1.4,0.6-1.8c0.4-0.5,0.9-0.7,1.6-0.7c0.7,0,1.2,0.2,1.6,0.7c0.4,0.5,0.6,1.1,0.6,1.8
			v0.1c0,0.7-0.2,1.4-0.6,1.8c-0.4,0.5-0.9,0.7-1.6,0.7c-0.7,0-1.2-0.2-1.6-0.7c-0.4-0.5-0.6-1.1-0.6-1.8V148.9z M361.4,149
			c0,0.5,0.1,1,0.3,1.3c0.2,0.3,0.6,0.5,1,0.5c0.4,0,0.8-0.2,1-0.5s0.3-0.8,0.3-1.3v-0.1c0-0.5-0.1-1-0.3-1.3
			c-0.2-0.3-0.6-0.5-1-0.5c-0.4,0-0.8,0.2-1,0.5c-0.2,0.3-0.3,0.8-0.3,1.3V149z"/>
		<path class="st1" d="M367.4,149.6l0.1,0.6h0l0.1-0.6l1-3.2h0.7l1,3.2l0.1,0.7h0l0.1-0.7l0.8-3.2h0.9l-1.5,5h-0.7l-1-3.1l-0.2-0.9
			l0,0l-0.2,0.8l-1,3.1h-0.7l-1.5-5h0.9L367.4,149.6z"/>
		<path class="st1" d="M374.2,146.4l0.1,0.7c0.2-0.3,0.4-0.5,0.6-0.6c0.3-0.1,0.5-0.2,0.9-0.2c0.5,0,1,0.2,1.3,0.5
			c0.3,0.3,0.4,0.8,0.4,1.5v3.2h-0.9v-3.1c0-0.4-0.1-0.8-0.3-0.9c-0.2-0.2-0.4-0.3-0.8-0.3c-0.3,0-0.5,0.1-0.7,0.2
			c-0.2,0.1-0.4,0.3-0.5,0.5v3.7h-0.9v-5H374.2z"/>
		<path class="st1" d="M379.7,151.4h-0.9v-0.9h0.9V151.4z"/>
	</g>
	<rect x="290" y="166.5" class="st38" width="53.2" height="13.5"/>
	<g>
		<path class="st1" d="M313.1,173.8c0,0.5-0.1,1-0.4,1.3c-0.3,0.3-0.7,0.5-1.2,0.5c-0.5,0-0.9-0.2-1.2-0.5c-0.3-0.3-0.4-0.8-0.4-1.3
			v-0.7c0-0.5,0.1-1,0.4-1.3c0.3-0.3,0.7-0.5,1.2-0.5c0.5,0,0.9,0.2,1.2,0.5c0.3,0.3,0.4,0.8,0.4,1.3V173.8z M312.8,173.1
			c0-0.5-0.1-0.8-0.3-1.1c-0.2-0.3-0.5-0.4-1-0.4c-0.4,0-0.7,0.1-0.9,0.4c-0.2,0.3-0.3,0.6-0.3,1.1v0.7c0,0.5,0.1,0.8,0.3,1.1
			c0.2,0.3,0.5,0.4,0.9,0.4c0.4,0,0.7-0.1,1-0.4c0.2-0.3,0.3-0.6,0.3-1.1V173.1z"/>
		<path class="st1" d="M314.9,173.6h-0.6v2H314v-4.2h0.3v1.9h0.6l1.6-1.9h0.4l0,0l-1.7,2l1.8,2.1l0,0h-0.4L314.9,173.6z"/>
		<path class="st1" d="M320,174.4h-1.9l-0.4,1.2h-0.4l1.6-4.2h0.3l1.6,4.2h-0.4L320,174.4z M318.2,174.1h1.7l-0.8-2.3h0L318.2,174.1
			z"/>
		<path class="st1" d="M322.7,173.7l1.3-2.3h0.4l-1.5,2.7v1.5h-0.3V174l-1.5-2.6h0.4L322.7,173.7z"/>
	</g>
</g>
</svg>
