<?xml version="1.0" encoding="utf-8"?>
<!-- Generator: Adobe Illustrator 19.2.1, SVG Export Plug-In . SVG Version: 6.00 Build 0)  -->
<svg version="1.1" id="Layer_1" xmlns="http://www.w3.org/2000/svg" xmlns:xlink="http://www.w3.org/1999/xlink" x="0px" y="0px"
	 viewBox="0 0 435.5 219.8" style="enable-background:new 0 0 435.5 219.8;" xml:space="preserve">
<style type="text/css">
	.st0{clip-path:url(#SVGID_4_);}
	.st1{fill:#010101;}
	.st2{fill:#ACACAC;}
	.st3{clip-path:url(#SVGID_6_);}
	.st4{clip-path:url(#SVGID_8_);fill:none;stroke:#010101;stroke-width:0.5;stroke-miterlimit:10;}
	.st5{clip-path:url(#SVGID_10_);}
	.st6{clip-path:url(#SVGID_10_);fill:none;stroke:#979797;stroke-width:0.25;stroke-linecap:square;stroke-miterlimit:10;}
	.st7{clip-path:url(#SVGID_12_);}
	.st8{clip-path:url(#SVGID_14_);fill:#040505;}
	
		.st9{clip-path:url(#SVGID_16_);fill:none;stroke:#558DCA;stroke-width:0.375;stroke-linecap:round;stroke-linejoin:round;stroke-miterlimit:10;}
	
		.st10{clip-path:url(#SVGID_16_);fill:none;stroke:#FFFFFF;stroke-width:0.375;stroke-linecap:round;stroke-linejoin:round;stroke-miterlimit:10;}
	.st11{clip-path:url(#SVGID_18_);}
	.st12{clip-path:url(#SVGID_20_);fill:#FFFFFF;}
	.st13{clip-path:url(#SVGID_22_);}
	.st14{clip-path:url(#SVGID_24_);fill:#FFFFFF;}
	.st15{clip-path:url(#SVGID_26_);}
	.st16{clip-path:url(#SVGID_28_);fill:#FFFFFF;}
	.st17{clip-path:url(#SVGID_30_);}
	.st18{clip-path:url(#SVGID_32_);fill:#FFFFFF;}
	.st19{clip-path:url(#SVGID_34_);}
	.st20{clip-path:url(#SVGID_34_);fill:none;stroke:#010101;stroke-width:0.3125;stroke-miterlimit:10;}
	.st21{clip-path:url(#SVGID_36_);}
	.st22{clip-path:url(#SVGID_38_);fill:#010101;}
	.st23{clip-path:url(#SVGID_40_);fill:none;stroke:#010101;stroke-width:0.3125;stroke-miterlimit:10;}
	.st24{clip-path:url(#SVGID_42_);}
	.st25{clip-path:url(#SVGID_44_);fill:#9B9B9B;}
	.st26{clip-path:url(#SVGID_46_);}
	.st27{fill:#FFFFFF;}
	.st28{clip-path:url(#SVGID_46_);fill:none;stroke:#979797;stroke-width:0.25;stroke-linecap:square;stroke-miterlimit:10;}
	.st29{clip-path:url(#SVGID_48_);}
	.st30{clip-path:url(#SVGID_50_);fill:none;stroke:#010101;stroke-width:0.625;stroke-miterlimit:10;}
	.st31{clip-path:url(#SVGID_52_);}
	.st32{clip-path:url(#SVGID_54_);fill:none;stroke:#010101;stroke-width:0.625;stroke-miterlimit:10;}
	.st33{clip-path:url(#SVGID_56_);}
	.st34{clip-path:url(#SVGID_56_);fill:none;stroke:#090909;stroke-width:0.2;stroke-miterlimit:10;}
	.st35{fill:#FFFFFF;stroke:#4B4B4B;stroke-width:0.75;stroke-miterlimit:10;}
	.st36{clip-path:url(#SVGID_58_);}
	.st37{clip-path:url(#SVGID_60_);}
	.st38{clip-path:url(#SVGID_62_);fill:none;stroke:#010101;stroke-width:0.5;stroke-miterlimit:10;}
	.st39{clip-path:url(#SVGID_64_);}
	.st40{clip-path:url(#SVGID_66_);fill:none;stroke:#010101;stroke-width:0.5;stroke-miterlimit:10;}
	.st41{clip-path:url(#SVGID_68_);}
	.st42{clip-path:url(#SVGID_70_);fill:none;stroke:#010101;stroke-width:0.5;stroke-miterlimit:10;}
	.st43{clip-path:url(#SVGID_72_);}
	.st44{clip-path:url(#SVGID_74_);fill:none;stroke:#010101;stroke-width:0.5;stroke-miterlimit:10;}
	.st45{clip-path:url(#SVGID_76_);}
	.st46{clip-path:url(#SVGID_78_);fill:none;stroke:#010101;stroke-width:0.5;stroke-miterlimit:10;}
	.st47{clip-path:url(#SVGID_80_);}
	.st48{clip-path:url(#SVGID_82_);fill:none;stroke:#010101;stroke-width:0.5;stroke-miterlimit:10;}
	.st49{clip-path:url(#SVGID_84_);}
	.st50{clip-path:url(#SVGID_86_);fill:none;stroke:#010101;stroke-width:0.5;stroke-miterlimit:10;}
	.st51{clip-path:url(#SVGID_88_);}
	.st52{clip-path:url(#SVGID_88_);fill:none;stroke:#979797;stroke-width:0.25;stroke-linecap:square;stroke-miterlimit:10;}
	.st53{clip-path:url(#SVGID_90_);}
	.st54{clip-path:url(#SVGID_92_);fill:#040505;}
	
		.st55{clip-path:url(#SVGID_94_);fill:none;stroke:#558DCA;stroke-width:0.375;stroke-linecap:round;stroke-linejoin:round;stroke-miterlimit:10;}
	
		.st56{clip-path:url(#SVGID_94_);fill:none;stroke:#FFFFFF;stroke-width:0.375;stroke-linecap:round;stroke-linejoin:round;stroke-miterlimit:10;}
	.st57{clip-path:url(#SVGID_96_);}
	.st58{clip-path:url(#SVGID_98_);fill:#FFFFFF;}
	.st59{clip-path:url(#SVGID_100_);}
	.st60{clip-path:url(#SVGID_102_);fill:#FFFFFF;}
	.st61{clip-path:url(#SVGID_104_);}
	.st62{clip-path:url(#SVGID_106_);fill:#FFFFFF;}
	.st63{clip-path:url(#SVGID_108_);}
	.st64{clip-path:url(#SVGID_110_);fill:#FFFFFF;}
	.st65{clip-path:url(#SVGID_112_);}
	.st66{clip-path:url(#SVGID_114_);fill:none;stroke:#010101;stroke-width:0.625;stroke-miterlimit:10;}
	.st67{clip-path:url(#SVGID_116_);}
	.st68{clip-path:url(#SVGID_116_);fill:none;stroke:#010101;stroke-width:0.3125;stroke-miterlimit:10;}
	.st69{clip-path:url(#SVGID_118_);}
	.st70{clip-path:url(#SVGID_120_);fill:#010101;}
	.st71{clip-path:url(#SVGID_122_);fill:none;stroke:#010101;stroke-width:0.3125;stroke-miterlimit:10;}
</style>
<g>
	<defs>
		<rect id="SVGID_1_" x="1.2" y="2.3" width="244.5" height="186.8"/>
	</defs>
	<use xlink:href="#SVGID_1_"  style="overflow:visible;fill:#FFFFFF;"/>
	<clipPath id="SVGID_2_">
		<use xlink:href="#SVGID_1_"  style="overflow:visible;"/>
	</clipPath>
	<use xlink:href="#SVGID_1_"  style="overflow:visible;fill:none;stroke:#4B4B4B;stroke-width:0.75;stroke-miterlimit:10;"/>
</g>
<g>
	<g>
		<defs>
			<rect id="SVGID_3_" x="1.2" y="2.3" width="244.5" height="186.8"/>
		</defs>
		<clipPath id="SVGID_4_">
			<use xlink:href="#SVGID_3_"  style="overflow:visible;"/>
		</clipPath>
		<g class="st0">
			<path class="st1" d="M99.7,95.2c-1.2,1.4-2.1,2.8-2.7,4.3s-1,3.1-1.3,5l-0.1,0.9h-0.9l0.1-0.9c0.2-1.9,0.6-3.5,1.3-5
				c0.7-1.5,1.5-2.9,2.6-4.2h-6.2v-0.8h7.2V95.2z"/>
			<path class="st1" d="M106.4,98.4h-1v-1.2h1V98.4z M106.4,105.3h-1v-1.2h1V105.3z"/>
			<path class="st1" d="M119.2,101.1c0,1.4-0.3,2.5-0.9,3.3c-0.6,0.8-1.5,1.1-2.5,1.1c-1.1,0-1.9-0.4-2.5-1.1
				c-0.6-0.8-0.9-1.8-0.9-3.3v-2.4c0-1.4,0.3-2.5,0.9-3.3c0.6-0.8,1.5-1.1,2.5-1.1c1.1,0,1.9,0.4,2.6,1.1s0.9,1.9,0.9,3.3V101.1z
				 M118.3,98.5c0-1.1-0.2-2-0.7-2.6c-0.4-0.6-1.1-0.9-1.9-0.9c-0.8,0-1.5,0.3-1.9,0.9c-0.4,0.6-0.7,1.5-0.7,2.6v2.7
				c0,1.1,0.2,2,0.7,2.6c0.4,0.6,1.1,0.9,1.9,0.9c0.8,0,1.5-0.3,1.9-0.9c0.4-0.6,0.7-1.5,0.7-2.6V98.5z"/>
			<path class="st1" d="M128.1,101.1c0,1.4-0.3,2.5-0.9,3.3c-0.6,0.8-1.5,1.1-2.5,1.1c-1.1,0-1.9-0.4-2.5-1.1
				c-0.6-0.8-0.9-1.8-0.9-3.3v-2.4c0-1.4,0.3-2.5,0.9-3.3c0.6-0.8,1.5-1.1,2.5-1.1s1.9,0.4,2.6,1.1s0.9,1.9,0.9,3.3V101.1z
				 M127.2,98.5c0-1.1-0.2-2-0.7-2.6c-0.4-0.6-1.1-0.9-1.9-0.9s-1.5,0.3-1.9,0.9c-0.4,0.6-0.7,1.5-0.7,2.6v2.7c0,1.1,0.2,2,0.7,2.6
				c0.4,0.6,1.1,0.9,1.9,0.9c0.8,0,1.5-0.3,1.9-0.9s0.7-1.5,0.7-2.6V98.5z"/>
			<path class="st1" d="M140.2,102.3h-5l-1.1,3h-0.9l4.2-10.9h0.8l4.1,10.9h-0.9L140.2,102.3z M135.5,101.5h4.4l-2.2-5.9h0
				L135.5,101.5z"/>
			<path class="st1" d="M145.1,94.4l4,9.6h0l4-9.6h1.2v10.9h-0.9v-4.8l0.1-4.8l0,0l-4.1,9.6h-0.6l-4.1-9.6l0,0l0.1,4.7v4.8h-0.9
				V94.4H145.1z"/>
		</g>
		<g class="st0">
			<path class="st2" d="M99.2,117.7c0,0.6-0.2,1.1-0.5,1.6c-0.3,0.4-0.8,0.8-1.4,1c0.7,0.2,1.2,0.5,1.6,1c0.4,0.5,0.6,1,0.6,1.7
				c0,1-0.3,1.7-1,2.3c-0.7,0.5-1.5,0.8-2.5,0.8c-1.1,0-1.9-0.3-2.5-0.8c-0.6-0.5-1-1.3-1-2.3c0-0.6,0.2-1.2,0.6-1.7
				c0.4-0.5,0.9-0.8,1.6-1c-0.6-0.2-1-0.5-1.4-1c-0.3-0.4-0.5-1-0.5-1.5c0-0.9,0.3-1.7,0.9-2.2c0.6-0.5,1.4-0.8,2.3-0.8
				c0.9,0,1.7,0.3,2.3,0.8C98.9,116,99.2,116.8,99.2,117.7z M98.6,122.9c0-0.7-0.3-1.3-0.8-1.7c-0.5-0.4-1.1-0.6-1.9-0.6
				c-0.8,0-1.4,0.2-1.9,0.6c-0.5,0.4-0.7,1-0.7,1.7c0,0.7,0.2,1.3,0.7,1.7c0.5,0.4,1.1,0.6,1.9,0.6c0.8,0,1.4-0.2,1.9-0.6
				C98.4,124.2,98.6,123.6,98.6,122.9z M98.3,117.7c0-0.6-0.2-1.2-0.7-1.6c-0.4-0.4-1-0.6-1.7-0.6c-0.7,0-1.2,0.2-1.7,0.6
				c-0.4,0.4-0.6,0.9-0.6,1.6c0,0.6,0.2,1.2,0.6,1.6c0.4,0.4,1,0.6,1.7,0.6c0.7,0,1.2-0.2,1.7-0.6C98.1,118.9,98.3,118.3,98.3,117.7
				z"/>
			<path class="st2" d="M119.5,121.6c0,1.4-0.3,2.5-0.9,3.3c-0.6,0.8-1.5,1.1-2.5,1.1c-1.1,0-1.9-0.4-2.5-1.1
				c-0.6-0.8-0.9-1.8-0.9-3.3v-2.4c0-1.4,0.3-2.5,0.9-3.3c0.6-0.8,1.5-1.1,2.5-1.1c1.1,0,1.9,0.4,2.6,1.1s0.9,1.9,0.9,3.3V121.6z
				 M118.5,119c0-1.1-0.2-2-0.7-2.6c-0.4-0.6-1.1-0.9-1.9-0.9c-0.8,0-1.5,0.3-1.9,0.9c-0.4,0.6-0.7,1.5-0.7,2.6v2.7
				c0,1.1,0.2,2,0.7,2.6c0.4,0.6,1.1,0.9,1.9,0.9c0.8,0,1.5-0.3,1.9-0.9c0.4-0.6,0.7-1.5,0.7-2.6V119z"/>
			<path class="st2" d="M125.6,125.9h-0.9v-10l-2.8,0.3v-0.6l3.7-0.7V125.9z"/>
		</g>
		<g class="st0">
			<path class="st2" d="M134.5,121.3v4.5h-0.9v-10.9h3.8c1.1,0,2,0.3,2.7,0.9c0.6,0.6,0.9,1.4,0.9,2.3c0,1-0.3,1.7-0.9,2.3
				c-0.6,0.6-1.5,0.9-2.7,0.9H134.5z M134.5,120.5h2.9c0.9,0,1.6-0.2,2-0.7c0.5-0.5,0.7-1,0.7-1.7c0-0.7-0.2-1.3-0.7-1.7
				c-0.5-0.5-1.1-0.7-2-0.7h-2.9V120.5z"/>
			<path class="st2" d="M144.3,114.9l4,9.6h0l4-9.6h1.2v10.9h-0.9V121l0.1-4.8l0,0l-4.1,9.6h-0.6l-4.1-9.6l0,0l0.1,4.7v4.8h-0.9
				v-10.9H144.3z"/>
		</g>
		<g class="st0">
			<path class="st2" d="M96.5,73.5c0.4,0,0.7,0,1.1,0.1c0.4,0.1,0.7,0.2,1,0.4l-0.2,0.7c-0.3-0.2-0.6-0.3-0.8-0.4
				c-0.3-0.1-0.6-0.1-1-0.1c-0.8,0-1.5,0.3-2,0.9c-0.5,0.6-0.8,1.5-0.8,2.5v1c0.3-0.4,0.7-0.7,1.1-0.9c0.5-0.2,1-0.4,1.5-0.4
				c1,0,1.8,0.3,2.3,1c0.6,0.7,0.9,1.6,0.9,2.6c0,1.1-0.3,2-0.9,2.7c-0.6,0.7-1.4,1.1-2.4,1.1c-1,0-1.8-0.4-2.5-1.1
				c-0.7-0.8-1-1.8-1-3.1v-2.8c0-1.3,0.4-2.3,1.1-3.1C94.5,73.9,95.4,73.5,96.5,73.5z M96.2,78.1c-0.6,0-1.1,0.2-1.6,0.5
				c-0.5,0.3-0.8,0.7-0.9,1.2v0.8c0,1,0.2,1.9,0.7,2.5c0.5,0.6,1.1,0.9,1.8,0.9c0.7,0,1.3-0.3,1.8-0.9c0.4-0.6,0.7-1.3,0.7-2.1
				c0-0.9-0.2-1.6-0.6-2.1C97.6,78.4,97,78.1,96.2,78.1z"/>
			<path class="st2" d="M112.8,79.6l0.6-6h5.3v0.8h-4.5l-0.4,3.9c0.3-0.2,0.6-0.4,0.9-0.6c0.3-0.1,0.8-0.2,1.3-0.2
				c0.9,0,1.7,0.3,2.3,0.9s0.9,1.5,0.9,2.6c0,1.1-0.3,2-0.8,2.7c-0.6,0.7-1.4,1-2.5,1c-0.9,0-1.7-0.3-2.3-0.8
				c-0.6-0.5-0.9-1.2-0.9-2.2l0,0h0.8c0,0.7,0.2,1.3,0.6,1.7c0.4,0.4,1,0.6,1.7,0.6c0.8,0,1.4-0.2,1.8-0.7c0.4-0.5,0.6-1.2,0.6-2.1
				c0-0.8-0.2-1.5-0.6-2c-0.4-0.5-1-0.7-1.7-0.7c-0.7,0-1.2,0.1-1.6,0.3c-0.4,0.2-0.6,0.6-0.8,1L112.8,79.6z"/>
			<path class="st2" d="M123.7,84c0.8,0,1.5-0.3,2-0.8s0.7-1.3,0.7-2.4v-1.1c-0.3,0.5-0.6,0.8-1.1,1.1c-0.4,0.3-0.9,0.4-1.5,0.4
				c-1,0-1.8-0.3-2.4-1c-0.6-0.7-0.9-1.6-0.9-2.7c0-1.1,0.3-2,1-2.8c0.6-0.7,1.4-1.1,2.4-1.1c1.1,0,1.9,0.3,2.5,1c0.6,0.7,1,1.7,1,3
				v3.2c0,1.3-0.3,2.2-1,2.9s-1.6,1-2.6,1c-0.4,0-0.8,0-1.2-0.1c-0.4-0.1-0.8-0.2-1.1-0.3l0.2-0.8c0.3,0.2,0.7,0.3,1,0.3
				C122.9,83.9,123.3,84,123.7,84z M123.9,80.3c0.7,0,1.2-0.2,1.6-0.5c0.4-0.3,0.7-0.7,0.9-1.2v-1.2c0-1-0.2-1.8-0.7-2.4
				s-1.1-0.8-1.8-0.8c-0.7,0-1.3,0.3-1.7,0.9c-0.5,0.6-0.7,1.3-0.7,2.2c0,0.8,0.2,1.5,0.6,2.1S123.1,80.3,123.9,80.3z"/>
		</g>
	</g>
	<g>
		<defs>
			<rect id="SVGID_5_" x="87" y="89.8" width="73" height="20.2"/>
		</defs>
		<clipPath id="SVGID_6_">
			<use xlink:href="#SVGID_5_"  style="overflow:visible;"/>
		</clipPath>
		<g class="st3">
			<defs>
				<rect id="SVGID_7_" x="1.2" y="2.3" width="244.5" height="186.8"/>
			</defs>
			<clipPath id="SVGID_8_">
				<use xlink:href="#SVGID_7_"  style="overflow:visible;"/>
			</clipPath>
			<rect x="87" y="89.8" class="st4" width="73" height="20.2"/>
		</g>
	</g>
	<g>
		<defs>
			<rect id="SVGID_9_" x="1.2" y="2.3" width="244.5" height="186.8"/>
		</defs>
		<clipPath id="SVGID_10_">
			<use xlink:href="#SVGID_9_"  style="overflow:visible;"/>
		</clipPath>
		<g class="st5">
			<path class="st1" d="M114.7,11.3h-2.9V11l1.5-1.7c0.3-0.3,0.5-0.6,0.6-0.8c0.1-0.2,0.2-0.4,0.2-0.6c0-0.3-0.1-0.5-0.2-0.7
				S113.5,7,113.2,7c-0.4,0-0.6,0.1-0.8,0.3s-0.3,0.5-0.3,0.8h-0.4l0,0c0-0.4,0.1-0.7,0.4-1s0.6-0.4,1.1-0.4c0.4,0,0.7,0.1,1,0.3
				s0.4,0.5,0.4,0.9c0,0.3-0.1,0.5-0.2,0.8c-0.2,0.3-0.4,0.6-0.7,0.9l-1.3,1.4l0,0h2.4V11.3z"/>
			<path class="st1" d="M115.9,8.4h-0.4V7.9h0.4V8.4z M115.9,11.3h-0.4v-0.5h0.4V11.3z"/>
			<path class="st1" d="M119.8,9.5c0,0.6-0.1,1.1-0.4,1.4s-0.6,0.5-1.1,0.5c-0.5,0-0.8-0.2-1.1-0.5c-0.3-0.3-0.4-0.8-0.4-1.4v-1
				c0-0.6,0.1-1.1,0.4-1.4s0.6-0.5,1.1-0.5s0.8,0.2,1.1,0.5s0.4,0.8,0.4,1.4V9.5z M119.4,8.4c0-0.5-0.1-0.8-0.3-1.1
				c-0.2-0.3-0.5-0.4-0.8-0.4s-0.6,0.1-0.8,0.4c-0.2,0.3-0.3,0.6-0.3,1.1v1.2c0,0.5,0.1,0.8,0.3,1.1s0.5,0.4,0.8,0.4
				s0.6-0.1,0.8-0.4c0.2-0.3,0.3-0.6,0.3-1.1V8.4z"/>
			<path class="st1" d="M123.5,9.5c0,0.6-0.1,1.1-0.4,1.4s-0.6,0.5-1.1,0.5c-0.5,0-0.8-0.2-1.1-0.5c-0.3-0.3-0.4-0.8-0.4-1.4v-1
				c0-0.6,0.1-1.1,0.4-1.4s0.6-0.5,1.1-0.5s0.8,0.2,1.1,0.5s0.4,0.8,0.4,1.4V9.5z M123.2,8.4c0-0.5-0.1-0.8-0.3-1.1
				c-0.2-0.3-0.5-0.4-0.8-0.4s-0.6,0.1-0.8,0.4C121.1,7.6,121,8,121,8.4v1.2c0,0.5,0.1,0.8,0.3,1.1s0.5,0.4,0.8,0.4s0.6-0.1,0.8-0.4
				c0.2-0.3,0.3-0.6,0.3-1.1V8.4z"/>
			<path class="st1" d="M126.5,9.4v1.9h-0.4V6.7h1.6c0.5,0,0.9,0.1,1.1,0.4c0.3,0.2,0.4,0.6,0.4,1c0,0.4-0.1,0.7-0.4,1
				s-0.6,0.4-1.1,0.4H126.5z M126.5,9.1h1.2c0.4,0,0.7-0.1,0.9-0.3c0.2-0.2,0.3-0.4,0.3-0.7c0-0.3-0.1-0.5-0.3-0.7
				c-0.2-0.2-0.5-0.3-0.9-0.3h-1.2V9.1z"/>
			<path class="st1" d="M130.7,6.7l1.7,4.1h0l1.7-4.1h0.5v4.6h-0.4v-2l0-2l0,0l-1.7,4.1h-0.3l-1.7-4l0,0l0,2v2h-0.4V6.7H130.7z"/>
		</g>
		<line class="st6" x1="0.9" y1="14.9" x2="245.4" y2="14.9"/>
	</g>
	<g>
		<defs>
			<rect id="SVGID_11_" x="1.2" y="170.4" width="244.5" height="18.6"/>
		</defs>
		<clipPath id="SVGID_12_">
			<use xlink:href="#SVGID_11_"  style="overflow:visible;"/>
		</clipPath>
		<g class="st7">
			<defs>
				<rect id="SVGID_13_" x="1.2" y="2.3" width="244.5" height="186.8"/>
			</defs>
			<clipPath id="SVGID_14_">
				<use xlink:href="#SVGID_13_"  style="overflow:visible;"/>
			</clipPath>
			<rect x="0" y="169.1" class="st8" width="247" height="21.1"/>
		</g>
	</g>
	<g>
		<defs>
			<rect id="SVGID_15_" x="1.2" y="2.3" width="244.5" height="186.8"/>
		</defs>
		<clipPath id="SVGID_16_">
			<use xlink:href="#SVGID_15_"  style="overflow:visible;"/>
		</clipPath>
		<circle class="st9" cx="31.9" cy="177.6" r="1.7"/>
		<circle class="st9" cx="31.9" cy="182.6" r="1.7"/>
		<circle class="st9" cx="36.8" cy="177.6" r="1.7"/>
		<circle class="st9" cx="36.8" cy="182.6" r="1.7"/>
		<rect x="88.3" y="176" class="st10" width="11.2" height="8.5"/>
		<rect x="90.1" y="177.8" class="st10" width="7.6" height="4.8"/>
		<path class="st10" d="M157,182.8h-4.2l-1.7,1.6l-0.2-1.6h-1.3c-0.6,0-1-0.5-1-1v-4.7c0-0.6,0.5-1,1-1h7.4c0.6,0,1,0.5,1,1v4.7
			C158.1,182.4,157.6,182.8,157,182.8z"/>
	</g>
	<g>
		<defs>
			<path id="SVGID_17_" d="M153.5,177.9c-0.1,0.1-0.1,0.1-0.2,0.1c-0.1,0-0.2,0-0.2-0.1c-0.1-0.1-0.1-0.1-0.1-0.2
				c0-0.1,0-0.2,0.1-0.2s0.1-0.1,0.2-0.1s0.2,0,0.2,0.1c0.1,0.1,0.1,0.1,0.1,0.2C153.6,177.8,153.6,177.8,153.5,177.9z M153.1,181.4
				h0.4v-2.6h-0.4V181.4z"/>
		</defs>
		<clipPath id="SVGID_18_">
			<use xlink:href="#SVGID_17_"  style="overflow:visible;"/>
		</clipPath>
		<g class="st11">
			<defs>
				<rect id="SVGID_19_" x="1.2" y="2.3" width="244.5" height="186.8"/>
			</defs>
			<clipPath id="SVGID_20_">
				<use xlink:href="#SVGID_19_"  style="overflow:visible;"/>
			</clipPath>
			<rect x="151.8" y="176.1" class="st12" width="3.1" height="6.5"/>
		</g>
	</g>
	<g>
		<defs>
			<path id="SVGID_21_" d="M210.4,179.9c0,0.3-0.2,0.5-0.5,0.5c-0.3,0-0.5-0.2-0.5-0.5c0-0.3,0.2-0.5,0.5-0.5
				C210.1,179.4,210.4,179.6,210.4,179.9"/>
		</defs>
		<clipPath id="SVGID_22_">
			<use xlink:href="#SVGID_21_"  style="overflow:visible;"/>
		</clipPath>
		<g class="st13">
			<defs>
				<rect id="SVGID_23_" x="1.2" y="2.3" width="244.5" height="186.8"/>
			</defs>
			<clipPath id="SVGID_24_">
				<use xlink:href="#SVGID_23_"  style="overflow:visible;"/>
			</clipPath>
			<rect x="208" y="178.1" class="st14" width="3.6" height="3.6"/>
		</g>
	</g>
	<g>
		<defs>
			<path id="SVGID_25_" d="M213.8,179.9c0,0.3-0.2,0.5-0.5,0.5c-0.3,0-0.5-0.2-0.5-0.5c0-0.3,0.2-0.5,0.5-0.5
				C213.6,179.4,213.8,179.6,213.8,179.9"/>
		</defs>
		<clipPath id="SVGID_26_">
			<use xlink:href="#SVGID_25_"  style="overflow:visible;"/>
		</clipPath>
		<g class="st15">
			<defs>
				<rect id="SVGID_27_" x="1.2" y="2.3" width="244.5" height="186.8"/>
			</defs>
			<clipPath id="SVGID_28_">
				<use xlink:href="#SVGID_27_"  style="overflow:visible;"/>
			</clipPath>
			<rect x="211.5" y="178.1" class="st16" width="3.6" height="3.6"/>
		</g>
	</g>
	<g>
		<defs>
			<path id="SVGID_29_" d="M217.2,179.9c0,0.3-0.2,0.5-0.5,0.5c-0.3,0-0.5-0.2-0.5-0.5c0-0.3,0.2-0.5,0.5-0.5
				C217,179.4,217.2,179.6,217.2,179.9"/>
		</defs>
		<clipPath id="SVGID_30_">
			<use xlink:href="#SVGID_29_"  style="overflow:visible;"/>
		</clipPath>
		<g class="st17">
			<defs>
				<rect id="SVGID_31_" x="1.2" y="2.3" width="244.5" height="186.8"/>
			</defs>
			<clipPath id="SVGID_32_">
				<use xlink:href="#SVGID_31_"  style="overflow:visible;"/>
			</clipPath>
			<rect x="214.9" y="178.1" class="st18" width="3.6" height="3.6"/>
		</g>
	</g>
	<g>
		<defs>
			<rect id="SVGID_33_" x="1.2" y="2.3" width="244.5" height="186.8"/>
		</defs>
		<clipPath id="SVGID_34_">
			<use xlink:href="#SVGID_33_"  style="overflow:visible;"/>
		</clipPath>
		<g class="st19">
			<path class="st1" d="M108.5,61.6v1.7h-0.5v-4.1h1.3c0.5,0,0.8,0.1,1,0.3c0.2,0.2,0.4,0.5,0.4,0.8c0,0.3-0.1,0.6-0.3,0.8
				c-0.2,0.2-0.4,0.4-0.8,0.4l1.1,1.7h-0.7l-1.1-1.7H108.5z M108.5,59.7v1.5h0.8c0.3,0,0.5-0.1,0.7-0.2c0.1-0.1,0.2-0.3,0.2-0.6
				c0-0.5-0.3-0.8-0.9-0.8H108.5z"/>
			<path class="st1" d="M113.7,59.2v0.4h-1.6v1.4h1.4v0.4h-1.4v1.4h1.6v0.4h-2.2v-4.1H113.7z"/>
			<path class="st1" d="M117.3,63.3l-0.3-0.9h-1.8l-0.3,0.9h-0.5l1.5-4.1h0.6l1.5,4.1H117.3z M115.4,62h1.5l-0.8-2.1L115.4,62z"/>
			<path class="st1" d="M119.9,59.2c0.7,0,1.2,0.2,1.6,0.6c0.4,0.4,0.6,0.9,0.6,1.5s-0.2,1.1-0.6,1.5c-0.4,0.4-0.9,0.5-1.6,0.5h-1.3
				v-4.1H119.9z M119.1,62.9h0.8c0.5,0,0.9-0.1,1.2-0.4s0.4-0.7,0.4-1.2c0-0.5-0.1-0.9-0.4-1.2s-0.7-0.4-1.2-0.4h-0.8V62.9z"/>
			<path class="st1" d="M124.2,63.3h-0.5v-1.5l-1.3-2.5h0.6l1,2l1-2h0.6l-1.3,2.5V63.3z"/>
			<path class="st1" d="M127.6,59.7v-0.4h2.7v0.4h-1.1v3.6h-0.5v-3.6H127.6z"/>
			<path class="st1" d="M131,63.3v-4.1h0.5v4.1H131z"/>
			<path class="st1" d="M136.6,59.2v4.1H136v-3l-1.4,3h-0.3l-1.4-3v3h-0.5v-4.1h0.5l1.5,3.3l1.5-3.3H136.6z"/>
			<path class="st1" d="M139.6,59.2v0.4H138v1.4h1.4v0.4H138v1.4h1.6v0.4h-2.2v-4.1H139.6z"/>
		</g>
		<g class="st19">
			<path class="st1" d="M78.9,34.5H80v6.6h-1.1l-3.3-4.9v4.9h-1.1v-6.6h1.1l3.3,4.9V34.5z"/>
			<path class="st1" d="M83.6,41.2c-0.8,0-1.4-0.2-1.9-0.7s-0.7-1.1-0.7-2c0-0.8,0.2-1.5,0.7-2c0.5-0.5,1.1-0.7,1.9-0.7
				c0.8,0,1.4,0.2,1.9,0.7c0.5,0.5,0.7,1.1,0.7,1.8c0,0.2,0,0.4,0,0.5h-4c0,0.4,0.2,0.8,0.4,1c0.3,0.3,0.6,0.4,1,0.4
				c0.6,0,1-0.2,1.2-0.7H86c-0.2,0.5-0.4,0.9-0.9,1.2C84.8,41,84.2,41.2,83.6,41.2z M84.7,37c-0.3-0.3-0.6-0.4-1-0.4
				c-0.4,0-0.7,0.1-1,0.4c-0.3,0.3-0.4,0.6-0.5,1h2.9C85.1,37.6,84.9,37.3,84.7,37z"/>
			<path class="st1" d="M93.3,35.8h1.1l-1.6,5.2h-1.1l-1.1-3.9l-1.1,3.9h-1.1l-1.6-5.2h1.1l1.1,4.2l1.1-4.2h1.1l1.1,4.2L93.3,35.8z"
				/>
			<path class="st1" d="M100,35.3c-0.3,0-0.6,0.1-0.8,0.2c-0.2,0.2-0.3,0.4-0.3,0.7s0.1,0.6,0.4,0.7c0.2,0.2,0.5,0.3,0.9,0.4
				s0.7,0.2,1,0.3s0.6,0.3,0.9,0.5c0.2,0.3,0.4,0.6,0.4,1.1c0,0.5-0.2,0.9-0.6,1.3c-0.4,0.4-1,0.6-1.7,0.6s-1.3-0.2-1.7-0.5
				s-0.6-0.8-0.6-1.3H99c0,0.3,0.1,0.5,0.3,0.7c0.2,0.2,0.5,0.3,0.8,0.3s0.7-0.1,0.9-0.3s0.3-0.4,0.3-0.7c0-0.3-0.1-0.5-0.2-0.6
				c-0.1-0.1-0.3-0.3-0.5-0.3s-0.4-0.1-0.7-0.2c-0.2-0.1-0.5-0.1-0.7-0.2c-0.3-0.1-0.5-0.2-0.7-0.3c-0.2-0.1-0.4-0.3-0.5-0.5
				c-0.1-0.2-0.2-0.5-0.2-0.9c0-0.6,0.2-1,0.6-1.4c0.4-0.4,1-0.5,1.6-0.5c0.7,0,1.2,0.2,1.6,0.5c0.4,0.3,0.6,0.7,0.7,1.3h-1.2
				c0-0.3-0.1-0.5-0.3-0.6C100.6,35.3,100.4,35.3,100,35.3z"/>
			<path class="st1" d="M104.1,40.4c-0.5-0.5-0.7-1.1-0.7-2s0.2-1.5,0.7-2c0.5-0.5,1.1-0.7,1.8-0.7c0.6,0,1.2,0.2,1.6,0.5
				c0.4,0.3,0.7,0.7,0.8,1.3h-1.2c-0.2-0.6-0.6-0.8-1.2-0.8c-0.4,0-0.8,0.2-1.1,0.5c-0.3,0.3-0.4,0.8-0.4,1.3c0,0.6,0.1,1,0.4,1.3
				c0.3,0.3,0.6,0.5,1.1,0.5c0.6,0,1-0.3,1.2-0.8h1.2c-0.2,0.5-0.4,1-0.9,1.3s-0.9,0.5-1.6,0.5C105.2,41.2,104.5,40.9,104.1,40.4z"
				/>
			<path class="st1" d="M110.5,34v2.6c0.3-0.6,0.9-0.9,1.7-0.9c0.6,0,1.1,0.2,1.5,0.6c0.4,0.4,0.6,0.9,0.6,1.6v3.1h-1.1v-2.9
				c0-0.5-0.1-0.8-0.4-1.1c-0.2-0.3-0.6-0.4-1-0.4c-0.4,0-0.7,0.1-1,0.4c-0.2,0.3-0.4,0.6-0.4,1.1v2.9h-1.1v-7H110.5z"/>
			<path class="st1" d="M117.8,41.2c-0.8,0-1.4-0.2-1.9-0.7s-0.7-1.1-0.7-2c0-0.8,0.2-1.5,0.7-2c0.5-0.5,1.1-0.7,1.9-0.7
				c0.8,0,1.4,0.2,1.9,0.7c0.5,0.5,0.7,1.1,0.7,1.8c0,0.2,0,0.4,0,0.5h-4c0,0.4,0.2,0.8,0.4,1c0.3,0.3,0.6,0.4,1,0.4
				c0.6,0,1-0.2,1.2-0.7h1.2c-0.2,0.5-0.4,0.9-0.9,1.2C118.9,41,118.4,41.2,117.8,41.2z M118.8,37c-0.3-0.3-0.6-0.4-1-0.4
				c-0.4,0-0.7,0.1-1,0.4c-0.3,0.3-0.4,0.6-0.5,1h2.9C119.2,37.6,119.1,37.3,118.8,37z"/>
			<path class="st1" d="M121.8,40.4c-0.5-0.5-0.7-1.2-0.7-2c0-0.8,0.2-1.4,0.7-1.9c0.5-0.5,1.1-0.7,1.8-0.7c0.4,0,0.8,0.1,1.1,0.3
				c0.3,0.2,0.6,0.4,0.7,0.7V34h1.1v7h-1.1v-1c-0.2,0.3-0.4,0.6-0.7,0.8c-0.3,0.2-0.7,0.3-1.1,0.3C122.9,41.2,122.3,40.9,121.8,40.4
				z M124.9,39.7c0.3-0.3,0.5-0.7,0.5-1.3c0-0.5-0.2-1-0.5-1.3c-0.3-0.3-0.7-0.5-1.1-0.5c-0.4,0-0.8,0.2-1.1,0.5
				c-0.3,0.3-0.5,0.7-0.5,1.3c0,0.5,0.2,1,0.5,1.3s0.7,0.5,1.1,0.5C124.2,40.2,124.6,40.1,124.9,39.7z"/>
			<path class="st1" d="M131.5,35.8h1.1v5.2h-1.1v-0.8c-0.3,0.6-0.9,0.9-1.7,0.9c-0.6,0-1.1-0.2-1.5-0.6c-0.4-0.4-0.6-0.9-0.6-1.6
				v-3.1h1.1v2.9c0,0.5,0.1,0.8,0.4,1.1c0.2,0.3,0.6,0.4,1,0.4c0.4,0,0.7-0.1,1-0.4s0.4-0.6,0.4-1.1V35.8z"/>
			<path class="st1" d="M134,41.1v-7h1.1v7H134z"/>
			<path class="st1" d="M138.8,41.2c-0.8,0-1.4-0.2-1.9-0.7c-0.5-0.5-0.7-1.1-0.7-2c0-0.8,0.2-1.5,0.7-2c0.5-0.5,1.1-0.7,1.9-0.7
				s1.4,0.2,1.9,0.7c0.5,0.5,0.7,1.1,0.7,1.8c0,0.2,0,0.4,0,0.5h-4c0,0.4,0.2,0.8,0.4,1c0.3,0.3,0.6,0.4,1,0.4c0.6,0,1-0.2,1.2-0.7
				h1.2c-0.2,0.5-0.4,0.9-0.9,1.2C139.9,41,139.4,41.2,138.8,41.2z M139.8,37c-0.3-0.3-0.6-0.4-1-0.4s-0.7,0.1-1,0.4
				c-0.3,0.3-0.4,0.6-0.5,1h2.9C140.2,37.6,140.1,37.3,139.8,37z"/>
			<path class="st1" d="M142.8,40.4c-0.5-0.5-0.7-1.2-0.7-2c0-0.8,0.2-1.4,0.7-1.9c0.5-0.5,1.1-0.7,1.8-0.7c0.4,0,0.8,0.1,1.1,0.3
				c0.3,0.2,0.6,0.4,0.7,0.7V34h1.1v7h-1.1v-1c-0.2,0.3-0.4,0.6-0.7,0.8c-0.3,0.2-0.7,0.3-1.1,0.3C143.8,41.2,143.2,40.9,142.8,40.4
				z M145.9,39.7c0.3-0.3,0.5-0.7,0.5-1.3c0-0.5-0.2-1-0.5-1.3c-0.3-0.3-0.7-0.5-1.1-0.5c-0.4,0-0.8,0.2-1.1,0.5
				c-0.3,0.3-0.5,0.7-0.5,1.3c0,0.5,0.2,1,0.5,1.3s0.7,0.5,1.1,0.5C145.2,40.2,145.6,40.1,145.9,39.7z"/>
			<path class="st1" d="M151.4,35.3v-0.8h4.6v0.8h-1.8v5.8h-1.1v-5.8H151.4z"/>
			<path class="st1" d="M157.4,40.4c-0.5-0.5-0.7-1.2-0.7-2c0-0.8,0.2-1.4,0.7-1.9c0.5-0.5,1.1-0.7,1.8-0.7c0.4,0,0.8,0.1,1.1,0.3
				c0.3,0.2,0.6,0.4,0.7,0.7v-0.9h1.1v5.2H161v-1c-0.2,0.3-0.4,0.6-0.7,0.8c-0.3,0.2-0.7,0.3-1.1,0.3
				C158.5,41.2,157.9,40.9,157.4,40.4z M160.5,39.7c0.3-0.3,0.5-0.7,0.5-1.3c0-0.5-0.2-1-0.5-1.3c-0.3-0.3-0.7-0.5-1.1-0.5
				c-0.4,0-0.8,0.2-1.1,0.5c-0.3,0.3-0.5,0.7-0.5,1.3c0,0.5,0.2,1,0.5,1.3s0.7,0.5,1.1,0.5C159.8,40.2,160.2,40.1,160.5,39.7z"/>
			<path class="st1" d="M163.3,37.3c0-0.4,0.2-0.8,0.6-1.1c0.4-0.3,0.9-0.5,1.5-0.5c0.6,0,1.1,0.2,1.4,0.5c0.4,0.3,0.5,0.7,0.6,1.2
				h-1.1c0-0.3-0.1-0.5-0.3-0.6c-0.2-0.1-0.4-0.2-0.7-0.2s-0.5,0.1-0.7,0.2c-0.2,0.1-0.2,0.3-0.2,0.5c0,0.2,0.1,0.4,0.3,0.5
				c0.2,0.1,0.5,0.2,0.8,0.3c0.3,0.1,0.6,0.1,0.9,0.2c0.3,0.1,0.6,0.2,0.8,0.5c0.2,0.2,0.3,0.5,0.3,0.9c0,0.5-0.2,0.8-0.6,1.1
				c-0.4,0.3-0.9,0.4-1.5,0.4s-1.1-0.1-1.5-0.4c-0.4-0.3-0.6-0.7-0.6-1.2h1.1c0,0.3,0.1,0.5,0.3,0.6c0.2,0.1,0.4,0.2,0.7,0.2
				s0.5-0.1,0.7-0.2c0.2-0.1,0.3-0.3,0.3-0.5s-0.1-0.4-0.3-0.5c-0.2-0.1-0.5-0.2-0.8-0.3c-0.3-0.1-0.6-0.1-0.9-0.2
				c-0.3-0.1-0.6-0.2-0.8-0.4S163.3,37.7,163.3,37.3z"/>
			<path class="st1" d="M169.7,41.1h-1.1v-7h1.1v4.1l1.9-2.3h1.5l-2.4,2.6l2.4,2.6h-1.5l-1.9-2.3V41.1z"/>
		</g>
		<circle class="st20" cx="20.1" cy="33.9" r="4.9"/>
	</g>
	<g>
		<defs>
			<circle id="SVGID_35_" cx="28.6" cy="41.4" r="4.9"/>
		</defs>
		<clipPath id="SVGID_36_">
			<use xlink:href="#SVGID_35_"  style="overflow:visible;"/>
		</clipPath>
		<g class="st21">
			<defs>
				<rect id="SVGID_37_" x="1.2" y="2.3" width="244.5" height="186.8"/>
			</defs>
			<clipPath id="SVGID_38_">
				<use xlink:href="#SVGID_37_"  style="overflow:visible;"/>
			</clipPath>
			<rect x="22.5" y="35.3" class="st22" width="12.2" height="12.2"/>
		</g>
	</g>
	<g>
		<defs>
			<rect id="SVGID_39_" x="1.2" y="2.3" width="244.5" height="186.8"/>
		</defs>
		<clipPath id="SVGID_40_">
			<use xlink:href="#SVGID_39_"  style="overflow:visible;"/>
		</clipPath>
		<circle class="st23" cx="28.6" cy="41.4" r="4.9"/>
		<circle class="st23" cx="31.2" cy="32.3" r="3.2"/>
		<circle class="st23" cx="17.5" cy="43.1" r="3.2"/>
	</g>
	<g>
		<defs>
			<circle id="SVGID_41_" cx="50.2" cy="99.8" r="16.2"/>
		</defs>
		<clipPath id="SVGID_42_">
			<use xlink:href="#SVGID_41_"  style="overflow:visible;"/>
		</clipPath>
		<g class="st24">
			<defs>
				<rect id="SVGID_43_" x="1.2" y="2.3" width="244.5" height="186.8"/>
			</defs>
			<clipPath id="SVGID_44_">
				<use xlink:href="#SVGID_43_"  style="overflow:visible;"/>
			</clipPath>
			<rect x="32.7" y="82.3" class="st25" width="35" height="35"/>
		</g>
	</g>
	<g>
		<defs>
			<rect id="SVGID_45_" x="1.2" y="2.3" width="244.5" height="186.8"/>
		</defs>
		<clipPath id="SVGID_46_">
			<use xlink:href="#SVGID_45_"  style="overflow:visible;"/>
		</clipPath>
		<g class="st26">
			<path class="st27" d="M44.4,102.3h-0.3v-3.8L43,98.6v-0.2l1.4-0.3V102.3z"/>
			<path class="st27" d="M48.6,99.2c0,0.2-0.1,0.4-0.2,0.6c-0.1,0.2-0.3,0.3-0.5,0.4c0.3,0.1,0.5,0.2,0.6,0.4
				c0.2,0.2,0.2,0.4,0.2,0.6c0,0.4-0.1,0.7-0.4,0.9c-0.3,0.2-0.6,0.3-1,0.3c-0.4,0-0.7-0.1-1-0.3s-0.4-0.5-0.4-0.9
				c0-0.2,0.1-0.5,0.2-0.6c0.2-0.2,0.4-0.3,0.6-0.4c-0.2-0.1-0.4-0.2-0.5-0.4c-0.1-0.2-0.2-0.4-0.2-0.6c0-0.4,0.1-0.6,0.3-0.8
				c0.2-0.2,0.5-0.3,0.9-0.3c0.4,0,0.7,0.1,0.9,0.3C48.5,98.6,48.6,98.9,48.6,99.2z M48.4,101.2c0-0.3-0.1-0.5-0.3-0.6
				c-0.2-0.2-0.4-0.2-0.7-0.2c-0.3,0-0.5,0.1-0.7,0.2c-0.2,0.2-0.3,0.4-0.3,0.6c0,0.3,0.1,0.5,0.3,0.6c0.2,0.2,0.4,0.2,0.7,0.2
				c0.3,0,0.5-0.1,0.7-0.2C48.3,101.7,48.4,101.5,48.4,101.2z M48.2,99.2c0-0.2-0.1-0.4-0.3-0.6c-0.2-0.2-0.4-0.2-0.6-0.2
				c-0.3,0-0.5,0.1-0.6,0.2c-0.2,0.2-0.2,0.4-0.2,0.6c0,0.2,0.1,0.4,0.2,0.6c0.2,0.1,0.4,0.2,0.6,0.2c0.3,0,0.5-0.1,0.6-0.2
				C48.2,99.7,48.2,99.5,48.2,99.2z"/>
			<path class="st27" d="M52,100.7c0,0.5-0.1,1-0.3,1.2c-0.2,0.3-0.6,0.4-1,0.4c-0.4,0-0.7-0.1-1-0.4c-0.2-0.3-0.4-0.7-0.4-1.2v-0.9
				c0-0.5,0.1-1,0.4-1.2c0.2-0.3,0.6-0.4,1-0.4c0.4,0,0.7,0.1,1,0.4s0.4,0.7,0.4,1.2V100.7z M51.7,99.7c0-0.4-0.1-0.8-0.3-1
				c-0.2-0.2-0.4-0.3-0.7-0.3c-0.3,0-0.6,0.1-0.7,0.3c-0.2,0.2-0.2,0.6-0.2,1v1c0,0.4,0.1,0.8,0.3,1c0.2,0.2,0.4,0.4,0.7,0.4
				c0.3,0,0.6-0.1,0.7-0.3s0.3-0.6,0.3-1V99.7z"/>
			<path class="st27" d="M52.8,98.8c0-0.2,0.1-0.4,0.2-0.5s0.3-0.2,0.5-0.2c0.2,0,0.4,0.1,0.5,0.2c0.1,0.1,0.2,0.3,0.2,0.5
				c0,0.2-0.1,0.4-0.2,0.5c-0.1,0.1-0.3,0.2-0.5,0.2c-0.2,0-0.4-0.1-0.5-0.2S52.8,99,52.8,98.8z M53.1,98.8c0,0.1,0,0.2,0.1,0.3
				s0.2,0.1,0.3,0.1c0.1,0,0.2,0,0.3-0.1c0.1-0.1,0.1-0.2,0.1-0.3s0-0.2-0.1-0.3c-0.1-0.1-0.2-0.1-0.3-0.1c-0.1,0-0.2,0-0.3,0.1
				S53.1,98.7,53.1,98.8z"/>
			<path class="st27" d="M57.6,100.4h-2v2h-0.3v-4.2h2.7v0.3h-2.3v1.6h2V100.4z"/>
		</g>
		<line class="st28" x1="71.9" y1="99.9" x2="81.6" y2="99.9"/>
	</g>
	<g>
		<defs>
			<rect id="SVGID_47_" x="173.2" y="142.8" width="59.2" height="13.5"/>
		</defs>
		<clipPath id="SVGID_48_">
			<use xlink:href="#SVGID_47_"  style="overflow:visible;"/>
		</clipPath>
		<g class="st29">
			<defs>
				<rect id="SVGID_49_" x="1.2" y="2.3" width="244.5" height="186.8"/>
			</defs>
			<clipPath id="SVGID_50_">
				<use xlink:href="#SVGID_49_"  style="overflow:visible;"/>
			</clipPath>
			<rect x="173.2" y="142.8" class="st30" width="59.2" height="13.5"/>
		</g>
	</g>
	<g>
		<defs>
			<rect id="SVGID_51_" x="107.2" y="142.8" width="59.2" height="13.5"/>
		</defs>
		<clipPath id="SVGID_52_">
			<use xlink:href="#SVGID_51_"  style="overflow:visible;"/>
		</clipPath>
		<g class="st31">
			<defs>
				<rect id="SVGID_53_" x="1.2" y="2.3" width="244.5" height="186.8"/>
			</defs>
			<clipPath id="SVGID_54_">
				<use xlink:href="#SVGID_53_"  style="overflow:visible;"/>
			</clipPath>
			<rect x="107.2" y="142.8" class="st32" width="59.2" height="13.5"/>
		</g>
	</g>
	<g>
		<defs>
			<rect id="SVGID_55_" x="1.2" y="2.3" width="244.5" height="186.8"/>
		</defs>
		<clipPath id="SVGID_56_">
			<use xlink:href="#SVGID_55_"  style="overflow:visible;"/>
		</clipPath>
		<g class="st33">
			<path class="st1" d="M192,150.5L192,150.5c0,0.4-0.2,0.8-0.4,1c-0.3,0.2-0.6,0.4-1.1,0.4c-0.5,0-0.8-0.2-1.1-0.5
				c-0.3-0.3-0.4-0.8-0.4-1.3v-0.7c0-0.5,0.1-1,0.4-1.3c0.3-0.3,0.7-0.5,1.1-0.5c0.4,0,0.8,0.1,1.1,0.4c0.3,0.2,0.4,0.6,0.4,1l0,0
				h-0.3c0-0.3-0.2-0.6-0.4-0.8s-0.5-0.3-0.8-0.3c-0.4,0-0.7,0.1-0.9,0.4c-0.2,0.3-0.3,0.6-0.3,1.1v0.7c0,0.4,0.1,0.8,0.3,1.1
				c0.2,0.3,0.5,0.4,0.9,0.4c0.4,0,0.6-0.1,0.8-0.3c0.2-0.2,0.3-0.4,0.4-0.8H192z"/>
			<path class="st1" d="M195.9,150.1c0,0.5-0.1,1-0.4,1.3c-0.3,0.3-0.7,0.5-1.2,0.5c-0.5,0-0.9-0.2-1.2-0.5s-0.4-0.8-0.4-1.3v-0.7
				c0-0.5,0.1-1,0.4-1.3c0.3-0.3,0.7-0.5,1.2-0.5c0.5,0,0.9,0.2,1.2,0.5c0.3,0.3,0.4,0.8,0.4,1.3V150.1z M195.6,149.4
				c0-0.5-0.1-0.8-0.3-1.1s-0.5-0.4-1-0.4c-0.4,0-0.7,0.1-0.9,0.4c-0.2,0.3-0.3,0.6-0.3,1.1v0.7c0,0.5,0.1,0.8,0.3,1.1
				c0.2,0.3,0.5,0.4,0.9,0.4c0.4,0,0.7-0.1,1-0.4c0.2-0.3,0.3-0.6,0.3-1.1V149.4z"/>
			<path class="st1" d="M199.9,151.8h-0.3l-2.4-3.6l0,0v3.6h-0.3v-4.2h0.3l2.4,3.6l0,0v-3.6h0.3V151.8z"/>
			<path class="st1" d="M203.7,147.9h-1.4v3.9h-0.3v-3.9h-1.4v-0.3h3.2V147.9z"/>
			<path class="st1" d="M204.8,151.8h-0.3v-4.2h0.3V151.8z"/>
			<path class="st1" d="M209.1,151.8h-0.3l-2.4-3.6l0,0v3.6H206v-4.2h0.3l2.4,3.6l0,0v-3.6h0.3V151.8z"/>
			<path class="st1" d="M213.1,147.6v2.8c0,0.5-0.1,0.8-0.4,1s-0.6,0.4-1.1,0.4c-0.4,0-0.8-0.1-1.1-0.4c-0.3-0.2-0.4-0.6-0.4-1v-2.8
				h0.3v2.8c0,0.4,0.1,0.6,0.3,0.8c0.2,0.2,0.5,0.3,0.8,0.3c0.3,0,0.6-0.1,0.8-0.3c0.2-0.2,0.3-0.5,0.3-0.8v-2.8H213.1z"/>
			<path class="st1" d="M216.5,149.8h-2v1.7h2.3v0.3h-2.6v-4.2h2.6v0.3h-2.3v1.6h2V149.8z"/>
		</g>
		<g class="st33">
			<path class="st1" d="M129.2,150.5L129.2,150.5c0,0.4-0.2,0.8-0.4,1c-0.3,0.2-0.6,0.4-1.1,0.4c-0.5,0-0.8-0.2-1.1-0.5
				c-0.3-0.3-0.4-0.8-0.4-1.3v-0.7c0-0.5,0.1-1,0.4-1.3c0.3-0.3,0.7-0.5,1.1-0.5c0.4,0,0.8,0.1,1.1,0.4c0.3,0.2,0.4,0.6,0.4,1l0,0
				h-0.3c0-0.3-0.2-0.6-0.4-0.8c-0.2-0.2-0.5-0.3-0.8-0.3c-0.4,0-0.7,0.1-0.9,0.4c-0.2,0.3-0.3,0.6-0.3,1.1v0.7
				c0,0.4,0.1,0.8,0.3,1.1c0.2,0.3,0.5,0.4,0.9,0.4c0.4,0,0.6-0.1,0.8-0.3c0.2-0.2,0.3-0.4,0.4-0.8H129.2z"/>
			<path class="st1" d="M132.4,150.7h-1.9l-0.4,1.2h-0.4l1.6-4.2h0.3l1.6,4.2h-0.4L132.4,150.7z M130.6,150.3h1.7l-0.8-2.3h0
				L130.6,150.3z"/>
			<path class="st1" d="M136.9,151.8h-0.3l-2.4-3.6l0,0v3.6h-0.3v-4.2h0.3l2.4,3.6l0,0v-3.6h0.3V151.8z"/>
			<path class="st1" d="M140.9,150.5L140.9,150.5c0,0.4-0.2,0.8-0.4,1c-0.3,0.2-0.6,0.4-1.1,0.4c-0.5,0-0.8-0.2-1.1-0.5
				c-0.3-0.3-0.4-0.8-0.4-1.3v-0.7c0-0.5,0.1-1,0.4-1.3c0.3-0.3,0.7-0.5,1.1-0.5c0.4,0,0.8,0.1,1.1,0.4c0.3,0.2,0.4,0.6,0.4,1l0,0
				h-0.3c0-0.3-0.2-0.6-0.4-0.8s-0.5-0.3-0.8-0.3c-0.4,0-0.7,0.1-0.9,0.4c-0.2,0.3-0.3,0.6-0.3,1.1v0.7c0,0.4,0.1,0.8,0.3,1.1
				c0.2,0.3,0.5,0.4,0.9,0.4c0.4,0,0.6-0.1,0.8-0.3c0.2-0.2,0.3-0.4,0.4-0.8H140.9z"/>
			<path class="st1" d="M144.1,149.8h-2v1.7h2.3v0.3h-2.6v-4.2h2.6v0.3h-2.3v1.6h2V149.8z"/>
			<path class="st1" d="M145.5,151.5h2.1v0.3h-2.4v-4.2h0.3V151.5z"/>
		</g>
		<polyline class="st34" points="225.2,147.3 228.7,149.7 225.2,152.1 		"/>
	</g>
</g>
<rect x="189.8" y="31.9" class="st35" width="244.5" height="186.8"/>
<g>
	<g>
		<defs>
			<rect id="SVGID_57_" x="189.8" y="31.9" width="244.5" height="186.8"/>
		</defs>
		<clipPath id="SVGID_58_">
			<use xlink:href="#SVGID_57_"  style="overflow:visible;"/>
		</clipPath>
		<g class="st36">
			<path class="st1" d="M263.3,100.6h-6.8v-0.7l3.6-4.1c0.7-0.7,1.1-1.4,1.4-1.9c0.3-0.5,0.4-1,0.4-1.4c0-0.7-0.2-1.2-0.6-1.6
				c-0.4-0.4-0.9-0.6-1.6-0.6c-0.8,0-1.5,0.2-1.9,0.7c-0.4,0.5-0.6,1.1-0.6,1.8h-0.8l0,0c0-0.9,0.3-1.7,0.9-2.3
				c0.6-0.6,1.4-0.9,2.5-0.9c0.9,0,1.7,0.3,2.3,0.8c0.6,0.5,0.8,1.3,0.8,2.2c0,0.6-0.2,1.2-0.6,1.8s-0.9,1.3-1.6,2.1l-3,3.4l0,0h5.6
				V100.6z"/>
			<path class="st1" d="M271.9,96.4c0,1.4-0.3,2.5-0.9,3.3c-0.6,0.8-1.5,1.1-2.5,1.1c-1.1,0-1.9-0.4-2.5-1.1s-0.9-1.8-0.9-3.3V94
				c0-1.4,0.3-2.5,0.9-3.3c0.6-0.8,1.5-1.1,2.5-1.1c1.1,0,1.9,0.4,2.6,1.1c0.6,0.8,0.9,1.9,0.9,3.3V96.4z M271,93.8
				c0-1.1-0.2-2-0.7-2.6s-1.1-0.9-1.9-0.9c-0.8,0-1.5,0.3-1.9,0.9s-0.7,1.5-0.7,2.6v2.7c0,1.1,0.2,2,0.7,2.6
				c0.4,0.6,1.1,0.9,1.9,0.9c0.8,0,1.5-0.3,1.9-0.9c0.4-0.6,0.7-1.5,0.7-2.6V93.8z"/>
			<path class="st1" d="M278,100.7h-0.9v-10l-2.8,0.3v-0.6l3.7-0.7V100.7z"/>
		</g>
		<g class="st36">
			<path d="M282.5,91.4c0-0.5,0.2-1,0.5-1.3s0.8-0.6,1.3-0.6c0.5,0,0.9,0.2,1.3,0.6s0.5,0.8,0.5,1.3c0,0.5-0.2,1-0.5,1.3
				c-0.4,0.4-0.8,0.5-1.3,0.5c-0.5,0-0.9-0.2-1.3-0.5S282.5,91.9,282.5,91.4z M283.2,91.4c0,0.3,0.1,0.6,0.3,0.8
				c0.2,0.2,0.5,0.3,0.8,0.3c0.3,0,0.6-0.1,0.8-0.3s0.3-0.5,0.3-0.8s-0.1-0.6-0.3-0.9s-0.5-0.3-0.8-0.3c-0.3,0-0.6,0.1-0.8,0.3
				C283.3,90.8,283.2,91.1,283.2,91.4z"/>
			<path d="M294.9,95.5h-5.3v5.1h-0.9V89.7h7v0.8h-6.1v4.3h5.3V95.5z"/>
			<path d="M306.2,100.6c-0.1-0.3-0.1-0.5-0.1-0.7c0-0.2,0-0.4,0-0.6c-0.3,0.4-0.7,0.8-1.2,1.1s-1.1,0.4-1.7,0.4
				c-0.8,0-1.4-0.2-1.8-0.6s-0.7-1-0.7-1.7c0-0.8,0.3-1.4,1-1.8c0.6-0.5,1.5-0.7,2.6-0.7h1.8v-1c0-0.6-0.2-1-0.6-1.4
				c-0.4-0.3-0.9-0.5-1.6-0.5c-0.6,0-1.1,0.2-1.6,0.5c-0.4,0.3-0.6,0.7-0.6,1.2l-0.8,0l0,0c0-0.6,0.2-1.1,0.8-1.6s1.3-0.7,2.2-0.7
				c0.9,0,1.6,0.2,2.2,0.7c0.5,0.5,0.8,1.1,0.8,2v4c0,0.3,0,0.6,0,0.8c0,0.3,0.1,0.5,0.2,0.8H306.2z M303.3,100
				c0.6,0,1.2-0.2,1.7-0.5c0.5-0.3,0.9-0.7,1.1-1.2v-1.7h-1.8c-0.8,0-1.5,0.2-2,0.5c-0.5,0.3-0.7,0.8-0.7,1.3c0,0.4,0.2,0.8,0.5,1.1
				S302.7,100,303.3,100z"/>
			<path d="M310.7,90.4v2.1h1.8v0.7h-1.8v5.3c0,0.5,0.1,0.9,0.3,1.1c0.2,0.2,0.4,0.3,0.8,0.3c0.1,0,0.3,0,0.4,0c0.1,0,0.3,0,0.5-0.1
				l0.1,0.7c-0.2,0.1-0.3,0.1-0.5,0.1c-0.2,0-0.4,0.1-0.6,0.1c-0.6,0-1-0.2-1.3-0.5c-0.3-0.4-0.5-0.9-0.5-1.7v-5.3h-1.4v-0.7h1.4
				v-2.1H310.7z"/>
			<path d="M324.5,92.5c0,0.6-0.2,1.1-0.5,1.6c-0.3,0.4-0.8,0.8-1.4,1c0.7,0.2,1.2,0.5,1.6,1s0.6,1,0.6,1.7c0,1-0.3,1.7-1,2.3
				c-0.7,0.5-1.5,0.8-2.5,0.8c-1.1,0-1.9-0.3-2.5-0.8c-0.6-0.5-1-1.3-1-2.3c0-0.6,0.2-1.2,0.6-1.7s0.9-0.8,1.6-1
				c-0.6-0.2-1-0.5-1.4-1s-0.5-1-0.5-1.5c0-0.9,0.3-1.7,0.9-2.2s1.4-0.8,2.3-0.8c0.9,0,1.7,0.3,2.3,0.8
				C324.2,90.9,324.5,91.6,324.5,92.5z M323.9,97.7c0-0.7-0.2-1.3-0.8-1.7c-0.5-0.4-1.1-0.6-1.9-0.6c-0.8,0-1.4,0.2-1.9,0.6
				s-0.7,1-0.7,1.7c0,0.7,0.2,1.3,0.7,1.7c0.5,0.4,1.1,0.6,1.9,0.6c0.8,0,1.4-0.2,1.9-0.6S323.9,98.5,323.9,97.7z M323.6,92.5
				c0-0.6-0.2-1.2-0.7-1.6c-0.4-0.4-1-0.6-1.7-0.6c-0.7,0-1.2,0.2-1.7,0.6c-0.4,0.4-0.6,0.9-0.6,1.6c0,0.6,0.2,1.2,0.6,1.6
				c0.4,0.4,1,0.6,1.7,0.6c0.7,0,1.2-0.2,1.7-0.6C323.3,93.7,323.6,93.2,323.6,92.5z"/>
			<path d="M327.7,93.8h-1v-1.2h1V93.8z M327.7,100.6h-1v-1.2h1V100.6z"/>
			<path d="M336.7,96.4c0,1.4-0.3,2.5-0.9,3.3s-1.5,1.1-2.5,1.1c-1.1,0-1.9-0.4-2.5-1.1s-0.9-1.8-0.9-3.3V94c0-1.4,0.3-2.5,0.9-3.3
				c0.6-0.8,1.5-1.1,2.5-1.1s1.9,0.4,2.6,1.1c0.6,0.8,0.9,1.9,0.9,3.3V96.4z M335.8,93.8c0-1.1-0.2-2-0.7-2.6s-1.1-0.9-1.9-0.9
				s-1.5,0.3-1.9,0.9s-0.7,1.5-0.7,2.6v2.7c0,1.1,0.2,2,0.7,2.6c0.4,0.6,1.1,0.9,1.9,0.9s1.5-0.3,1.9-0.9c0.4-0.6,0.7-1.5,0.7-2.6
				V93.8z"/>
			<path d="M345.7,96.4c0,1.4-0.3,2.5-0.9,3.3s-1.5,1.1-2.5,1.1c-1.1,0-1.9-0.4-2.5-1.1s-0.9-1.8-0.9-3.3V94c0-1.4,0.3-2.5,0.9-3.3
				c0.6-0.8,1.5-1.1,2.5-1.1s1.9,0.4,2.6,1.1c0.6,0.8,0.9,1.9,0.9,3.3V96.4z M344.8,93.8c0-1.1-0.2-2-0.7-2.6s-1.1-0.9-1.9-0.9
				s-1.5,0.3-1.9,0.9s-0.7,1.5-0.7,2.6v2.7c0,1.1,0.2,2,0.7,2.6c0.4,0.6,1.1,0.9,1.9,0.9s1.5-0.3,1.9-0.9c0.4-0.6,0.7-1.5,0.7-2.6
				V93.8z"/>
			<path d="M354,97.6h-5l-1.1,3h-0.9l4.2-10.9h0.8l4.1,10.9h-0.9L354,97.6z M349.3,96.8h4.4l-2.2-5.9h0L349.3,96.8z"/>
			<path d="M358.9,89.7l4,9.6h0l4-9.6h1.2v10.9h-0.9v-4.8l0.1-4.8l0,0l-4.1,9.6h-0.6l-4.1-9.6l0,0l0.1,4.7v4.8h-0.9V89.7H358.9z"/>
		</g>
		<g class="st36">
			<path class="st1" d="M302.6,114.9c0,0.5-0.1,1-0.4,1.3c-0.3,0.3-0.7,0.5-1.2,0.5c-0.5,0-0.9-0.2-1.2-0.5
				c-0.3-0.3-0.4-0.8-0.4-1.3v-0.7c0-0.5,0.1-1,0.4-1.3c0.3-0.3,0.7-0.5,1.2-0.5c0.5,0,0.9,0.2,1.2,0.5c0.3,0.3,0.4,0.8,0.4,1.3
				V114.9z M302.3,114.2c0-0.5-0.1-0.8-0.3-1.1s-0.5-0.4-1-0.4c-0.4,0-0.7,0.1-0.9,0.4s-0.3,0.6-0.3,1.1v0.7c0,0.5,0.1,0.8,0.3,1.1
				s0.5,0.4,0.9,0.4c0.4,0,0.7-0.1,1-0.4s0.3-0.6,0.3-1.1V114.2z"/>
			<path class="st1" d="M306.6,116.6h-0.3l-2.4-3.6l0,0v3.6h-0.3v-4.2h0.3l2.4,3.6l0,0v-3.6h0.3V116.6z"/>
			<path class="st1" d="M311.5,114.6h-2v1.7h2.3v0.3h-2.6v-4.2h2.6v0.3h-2.3v1.6h2V114.6z"/>
			<path class="st1" d="M313.7,115.9l0.1,0.3h0l0.1-0.3l1.3-3.5h0.4l-1.6,4.2h-0.3l-1.6-4.2h0.4L313.7,115.9z"/>
			<path class="st1" d="M318.5,114.6h-2v1.7h2.3v0.3h-2.6v-4.2h2.6v0.3h-2.3v1.6h2V114.6z"/>
			<path class="st1" d="M319.9,114.8v1.9h-0.3v-4.2h1.4c0.4,0,0.8,0.1,1,0.3c0.2,0.2,0.4,0.5,0.4,0.9c0,0.2-0.1,0.4-0.2,0.6
				c-0.1,0.2-0.3,0.3-0.5,0.4c0.3,0.1,0.4,0.2,0.6,0.3c0.1,0.2,0.2,0.4,0.2,0.6v0.4c0,0.1,0,0.2,0,0.4c0,0.1,0.1,0.2,0.2,0.3v0.1
				h-0.3c-0.1-0.1-0.1-0.2-0.1-0.3c0-0.1,0-0.3,0-0.4v-0.4c0-0.3-0.1-0.5-0.2-0.6c-0.2-0.1-0.4-0.2-0.7-0.2H319.9z M319.9,114.5h1
				c0.4,0,0.7-0.1,0.8-0.2c0.2-0.2,0.3-0.4,0.3-0.6c0-0.3-0.1-0.5-0.3-0.6c-0.2-0.1-0.4-0.2-0.8-0.2h-1.1V114.5z"/>
			<path class="st1" d="M324.5,114.8l1.3-2.3h0.4l-1.5,2.7v1.5h-0.3v-1.5l-1.5-2.6h0.4L324.5,114.8z"/>
		</g>
		<g class="st36">
			<path class="st1" d="M229.2,133.2c0-0.4-0.1-0.7-0.4-0.9c-0.3-0.2-0.8-0.4-1.4-0.6c-0.7-0.2-1.3-0.4-1.7-0.7
				c-0.4-0.3-0.6-0.7-0.6-1.2c0-0.5,0.2-0.9,0.6-1.3s1-0.5,1.6-0.5c0.7,0,1.3,0.2,1.7,0.6s0.6,0.9,0.6,1.4l0,0h-0.5
				c0-0.5-0.2-0.8-0.5-1.1c-0.3-0.3-0.8-0.4-1.3-0.4c-0.5,0-1,0.1-1.3,0.4s-0.5,0.5-0.5,0.9c0,0.3,0.1,0.6,0.4,0.9
				c0.3,0.2,0.8,0.4,1.5,0.6c0.7,0.2,1.3,0.4,1.7,0.8s0.6,0.7,0.6,1.2c0,0.5-0.2,1-0.7,1.3c-0.4,0.3-1,0.5-1.7,0.5
				c-0.7,0-1.3-0.2-1.8-0.5c-0.5-0.3-0.7-0.8-0.7-1.5l0,0h0.5c0,0.5,0.2,0.9,0.6,1.2c0.4,0.3,0.9,0.4,1.4,0.4c0.5,0,1-0.1,1.3-0.4
				C229,133.9,229.2,133.6,229.2,133.2z"/>
			<path class="st1" d="M234.1,134.1c-0.2,0.3-0.4,0.5-0.6,0.7c-0.3,0.2-0.6,0.2-1,0.2c-0.5,0-0.9-0.2-1.2-0.5
				c-0.3-0.4-0.4-0.9-0.4-1.7v-2.9h0.6v2.9c0,0.6,0.1,1.1,0.3,1.3c0.2,0.3,0.5,0.4,0.9,0.4c0.4,0,0.8-0.1,1-0.3s0.4-0.4,0.5-0.8
				v-3.6h0.6v5h-0.5L234.1,134.1z"/>
		</g>
		<g class="st36">
			<path class="st1" d="M254.5,128.1l2.5,5.9h0l2.5-5.9h0.7v6.8h-0.6v-3l0-3l0,0l-2.5,5.9h-0.4l-2.5-5.9l0,0l0.1,2.9v3h-0.6v-6.8
				H254.5z"/>
		</g>
		<g class="st36">
			<path class="st1" d="M287,128.6h-2.3v6.3h-0.6v-6.3h-2.3v-0.5h5.2V128.6z"/>
		</g>
		<g class="st36">
			<path class="st1" d="M309.7,133l0.2,1l0,0l0.3-1l1.4-4.8h0.5l1.4,4.8l0.2,1l0,0l0.2-1l1.2-4.8h0.6l-1.7,6.8h-0.5l-1.5-5.2
				l-0.2-0.7h0l-0.2,0.7l-1.5,5.2h-0.5l-1.7-6.8h0.6L309.7,133z"/>
		</g>
		<g class="st36">
			<path class="st1" d="M339.1,128.6h-2.3v6.3h-0.6v-6.3h-2.3v-0.5h5.2V128.6z"/>
			<path class="st1" d="M340.6,130.7c0.2-0.3,0.4-0.5,0.7-0.7c0.3-0.2,0.6-0.3,1-0.3c0.5,0,0.9,0.2,1.2,0.5s0.4,0.8,0.4,1.5v3.1
				h-0.6v-3.1c0-0.5-0.1-0.9-0.3-1.2c-0.2-0.2-0.5-0.4-0.9-0.4c-0.4,0-0.7,0.1-1,0.3c-0.3,0.2-0.4,0.5-0.6,0.8v3.5H340v-7.2h0.6
				V130.7z"/>
		</g>
		<g class="st36">
			<path class="st1" d="M368.5,131.7h-3.3v3.2h-0.6v-6.8h4.3v0.5h-3.8v2.6h3.3V131.7z"/>
		</g>
		<g class="st36">
			<path class="st1" d="M393.7,133.2c0-0.4-0.1-0.7-0.4-0.9c-0.3-0.2-0.8-0.4-1.4-0.6c-0.7-0.2-1.3-0.4-1.7-0.7
				c-0.4-0.3-0.6-0.7-0.6-1.2c0-0.5,0.2-0.9,0.6-1.3s1-0.5,1.6-0.5c0.7,0,1.3,0.2,1.7,0.6c0.4,0.4,0.6,0.9,0.6,1.4l0,0h-0.5
				c0-0.5-0.2-0.8-0.5-1.1c-0.3-0.3-0.8-0.4-1.3-0.4c-0.5,0-1,0.1-1.3,0.4s-0.5,0.5-0.5,0.9c0,0.3,0.1,0.6,0.4,0.9
				c0.3,0.2,0.8,0.4,1.5,0.6c0.7,0.2,1.3,0.4,1.7,0.8s0.6,0.7,0.6,1.2c0,0.5-0.2,1-0.7,1.3s-1,0.5-1.7,0.5c-0.7,0-1.3-0.2-1.8-0.5
				c-0.5-0.3-0.7-0.8-0.7-1.5l0,0h0.5c0,0.5,0.2,0.9,0.6,1.2s0.9,0.4,1.4,0.4c0.5,0,1-0.1,1.3-0.4
				C393.6,133.9,393.7,133.6,393.7,133.2z"/>
			<path class="st1" d="M398.6,134.9c0-0.2-0.1-0.3-0.1-0.4c0-0.1,0-0.2,0-0.4c-0.2,0.3-0.4,0.5-0.7,0.7c-0.3,0.2-0.7,0.3-1,0.3
				c-0.5,0-0.9-0.1-1.1-0.4s-0.4-0.6-0.4-1c0-0.5,0.2-0.8,0.6-1.1s0.9-0.4,1.6-0.4h1.1v-0.6c0-0.4-0.1-0.6-0.3-0.8s-0.6-0.3-1-0.3
				c-0.4,0-0.7,0.1-1,0.3c-0.3,0.2-0.4,0.4-0.4,0.7l-0.5,0l0,0c0-0.4,0.2-0.7,0.5-1c0.4-0.3,0.8-0.4,1.4-0.4c0.6,0,1,0.1,1.3,0.4
				c0.3,0.3,0.5,0.7,0.5,1.2v2.5c0,0.2,0,0.3,0,0.5c0,0.2,0.1,0.3,0.1,0.5H398.6z M396.8,134.5c0.4,0,0.8-0.1,1.1-0.3
				c0.3-0.2,0.5-0.4,0.7-0.7v-1h-1.1c-0.5,0-0.9,0.1-1.2,0.3c-0.3,0.2-0.5,0.5-0.5,0.8c0,0.3,0.1,0.5,0.3,0.7
				C396.2,134.4,396.5,134.5,396.8,134.5z"/>
		</g>
	</g>
	<g>
		<defs>
			<rect id="SVGID_59_" x="215.8" y="122.4" width="27.7" height="17.2"/>
		</defs>
		<clipPath id="SVGID_60_">
			<use xlink:href="#SVGID_59_"  style="overflow:visible;"/>
		</clipPath>
		<g class="st37">
			<defs>
				<rect id="SVGID_61_" x="189.8" y="31.9" width="244.5" height="186.8"/>
			</defs>
			<clipPath id="SVGID_62_">
				<use xlink:href="#SVGID_61_"  style="overflow:visible;"/>
			</clipPath>
			<rect x="215.8" y="122.4" class="st38" width="27.7" height="17.2"/>
		</g>
	</g>
	<g>
		<defs>
			<rect id="SVGID_63_" x="243.2" y="122.4" width="27.7" height="17.2"/>
		</defs>
		<clipPath id="SVGID_64_">
			<use xlink:href="#SVGID_63_"  style="overflow:visible;"/>
		</clipPath>
		<g class="st39">
			<defs>
				<rect id="SVGID_65_" x="189.8" y="31.9" width="244.5" height="186.8"/>
			</defs>
			<clipPath id="SVGID_66_">
				<use xlink:href="#SVGID_65_"  style="overflow:visible;"/>
			</clipPath>
			<rect x="243.2" y="122.4" class="st40" width="27.7" height="17.2"/>
		</g>
	</g>
	<g>
		<defs>
			<rect id="SVGID_67_" x="270.5" y="122.4" width="27.7" height="17.2"/>
		</defs>
		<clipPath id="SVGID_68_">
			<use xlink:href="#SVGID_67_"  style="overflow:visible;"/>
		</clipPath>
		<g class="st41">
			<defs>
				<rect id="SVGID_69_" x="189.8" y="31.9" width="244.5" height="186.8"/>
			</defs>
			<clipPath id="SVGID_70_">
				<use xlink:href="#SVGID_69_"  style="overflow:visible;"/>
			</clipPath>
			<rect x="270.5" y="122.4" class="st42" width="27.7" height="17.2"/>
		</g>
	</g>
	<g>
		<defs>
			<rect id="SVGID_71_" x="297.9" y="122.4" width="27.7" height="17.2"/>
		</defs>
		<clipPath id="SVGID_72_">
			<use xlink:href="#SVGID_71_"  style="overflow:visible;"/>
		</clipPath>
		<g class="st43">
			<defs>
				<rect id="SVGID_73_" x="189.8" y="31.9" width="244.5" height="186.8"/>
			</defs>
			<clipPath id="SVGID_74_">
				<use xlink:href="#SVGID_73_"  style="overflow:visible;"/>
			</clipPath>
			<rect x="297.9" y="122.4" class="st44" width="27.7" height="17.2"/>
		</g>
	</g>
	<g>
		<defs>
			<rect id="SVGID_75_" x="325.3" y="122.4" width="27.7" height="17.2"/>
		</defs>
		<clipPath id="SVGID_76_">
			<use xlink:href="#SVGID_75_"  style="overflow:visible;"/>
		</clipPath>
		<g class="st45">
			<defs>
				<rect id="SVGID_77_" x="189.8" y="31.9" width="244.5" height="186.8"/>
			</defs>
			<clipPath id="SVGID_78_">
				<use xlink:href="#SVGID_77_"  style="overflow:visible;"/>
			</clipPath>
			<rect x="325.3" y="122.4" class="st46" width="27.7" height="17.2"/>
		</g>
	</g>
	<g>
		<defs>
			<rect id="SVGID_79_" x="352.7" y="122.4" width="27.7" height="17.2"/>
		</defs>
		<clipPath id="SVGID_80_">
			<use xlink:href="#SVGID_79_"  style="overflow:visible;"/>
		</clipPath>
		<g class="st47">
			<defs>
				<rect id="SVGID_81_" x="189.8" y="31.9" width="244.5" height="186.8"/>
			</defs>
			<clipPath id="SVGID_82_">
				<use xlink:href="#SVGID_81_"  style="overflow:visible;"/>
			</clipPath>
			<rect x="352.7" y="122.4" class="st48" width="27.7" height="17.2"/>
		</g>
	</g>
	<g>
		<defs>
			<rect id="SVGID_83_" x="380" y="122.4" width="27.7" height="17.2"/>
		</defs>
		<clipPath id="SVGID_84_">
			<use xlink:href="#SVGID_83_"  style="overflow:visible;"/>
		</clipPath>
		<g class="st49">
			<defs>
				<rect id="SVGID_85_" x="189.8" y="31.9" width="244.5" height="186.8"/>
			</defs>
			<clipPath id="SVGID_86_">
				<use xlink:href="#SVGID_85_"  style="overflow:visible;"/>
			</clipPath>
			<rect x="380" y="122.4" class="st50" width="27.7" height="17.2"/>
		</g>
	</g>
	<g>
		<defs>
			<rect id="SVGID_87_" x="189.8" y="31.9" width="244.5" height="186.8"/>
		</defs>
		<clipPath id="SVGID_88_">
			<use xlink:href="#SVGID_87_"  style="overflow:visible;"/>
		</clipPath>
		<g class="st51">
			<path class="st1" d="M303.3,40.9h-2.9v-0.3l1.5-1.7c0.3-0.3,0.5-0.6,0.6-0.8c0.1-0.2,0.2-0.4,0.2-0.6c0-0.3-0.1-0.5-0.2-0.7
				c-0.2-0.2-0.4-0.3-0.7-0.3c-0.4,0-0.6,0.1-0.8,0.3c-0.2,0.2-0.3,0.5-0.3,0.8h-0.4l0,0c0-0.4,0.1-0.7,0.4-1
				c0.3-0.3,0.6-0.4,1.1-0.4c0.4,0,0.7,0.1,1,0.3c0.2,0.2,0.4,0.5,0.4,0.9c0,0.3-0.1,0.5-0.2,0.8s-0.4,0.6-0.7,0.9l-1.3,1.4l0,0h2.4
				V40.9z"/>
			<path class="st1" d="M304.5,38H304v-0.5h0.4V38z M304.5,40.9H304v-0.5h0.4V40.9z"/>
			<path class="st1" d="M308.3,39.1c0,0.6-0.1,1.1-0.4,1.4c-0.3,0.3-0.6,0.5-1.1,0.5c-0.5,0-0.8-0.2-1.1-0.5s-0.4-0.8-0.4-1.4v-1
				c0-0.6,0.1-1.1,0.4-1.4c0.3-0.3,0.6-0.5,1.1-0.5s0.8,0.2,1.1,0.5s0.4,0.8,0.4,1.4V39.1z M307.9,38c0-0.5-0.1-0.8-0.3-1.1
				c-0.2-0.3-0.5-0.4-0.8-0.4s-0.6,0.1-0.8,0.4s-0.3,0.6-0.3,1.1v1.2c0,0.5,0.1,0.8,0.3,1.1c0.2,0.3,0.5,0.4,0.8,0.4
				s0.6-0.1,0.8-0.4s0.3-0.6,0.3-1.1V38z"/>
			<path class="st1" d="M312.1,39.1c0,0.6-0.1,1.1-0.4,1.4c-0.3,0.3-0.6,0.5-1.1,0.5c-0.5,0-0.8-0.2-1.1-0.5
				c-0.3-0.3-0.4-0.8-0.4-1.4v-1c0-0.6,0.1-1.1,0.4-1.4c0.3-0.3,0.6-0.5,1.1-0.5s0.8,0.2,1.1,0.5s0.4,0.8,0.4,1.4V39.1z M311.7,38
				c0-0.5-0.1-0.8-0.3-1.1c-0.2-0.3-0.5-0.4-0.8-0.4s-0.6,0.1-0.8,0.4c-0.2,0.3-0.3,0.6-0.3,1.1v1.2c0,0.5,0.1,0.8,0.3,1.1
				c0.2,0.3,0.5,0.4,0.8,0.4c0.4,0,0.6-0.1,0.8-0.4c0.2-0.3,0.3-0.6,0.3-1.1V38z"/>
			<path class="st1" d="M315.1,39v1.9h-0.4v-4.6h1.6c0.5,0,0.9,0.1,1.1,0.4s0.4,0.6,0.4,1c0,0.4-0.1,0.7-0.4,1
				c-0.3,0.2-0.6,0.4-1.1,0.4H315.1z M315.1,38.6h1.2c0.4,0,0.7-0.1,0.9-0.3c0.2-0.2,0.3-0.4,0.3-0.7c0-0.3-0.1-0.5-0.3-0.7
				s-0.5-0.3-0.9-0.3h-1.2V38.6z"/>
			<path class="st1" d="M319.2,36.3l1.7,4.1h0l1.7-4.1h0.5v4.6h-0.4v-2l0-2l0,0l-1.7,4.1h-0.3l-1.7-4l0,0l0,2v2h-0.4v-4.6H319.2z"/>
		</g>
		<line class="st52" x1="189.4" y1="44.5" x2="433.9" y2="44.5"/>
	</g>
	<g>
		<defs>
			<rect id="SVGID_89_" x="189.8" y="200" width="244.5" height="18.6"/>
		</defs>
		<clipPath id="SVGID_90_">
			<use xlink:href="#SVGID_89_"  style="overflow:visible;"/>
		</clipPath>
		<g class="st53">
			<defs>
				<rect id="SVGID_91_" x="189.8" y="31.9" width="244.5" height="186.8"/>
			</defs>
			<clipPath id="SVGID_92_">
				<use xlink:href="#SVGID_91_"  style="overflow:visible;"/>
			</clipPath>
			<rect x="188.5" y="198.7" class="st54" width="247" height="21.1"/>
		</g>
	</g>
	<g>
		<defs>
			<rect id="SVGID_93_" x="189.8" y="31.9" width="244.5" height="186.8"/>
		</defs>
		<clipPath id="SVGID_94_">
			<use xlink:href="#SVGID_93_"  style="overflow:visible;"/>
		</clipPath>
		<circle class="st55" cx="220.4" cy="207.2" r="1.7"/>
		<circle class="st55" cx="220.4" cy="212.2" r="1.7"/>
		<circle class="st55" cx="225.4" cy="207.2" r="1.7"/>
		<circle class="st55" cx="225.4" cy="212.2" r="1.7"/>
		<rect x="276.8" y="205.6" class="st56" width="11.2" height="8.5"/>
		<rect x="278.6" y="207.4" class="st56" width="7.6" height="4.8"/>
		<path class="st56" d="M345.6,212.4h-4.2l-1.7,1.6l-0.2-1.6h-1.3c-0.6,0-1-0.5-1-1v-4.7c0-0.6,0.5-1,1-1h7.4c0.6,0,1,0.5,1,1v4.7
			C346.6,211.9,346.1,212.4,345.6,212.4z"/>
	</g>
	<g>
		<defs>
			<path id="SVGID_95_" d="M342.1,207.5c-0.1,0.1-0.1,0.1-0.2,0.1c-0.1,0-0.2,0-0.2-0.1c-0.1-0.1-0.1-0.1-0.1-0.2
				c0-0.1,0-0.2,0.1-0.2c0.1-0.1,0.1-0.1,0.2-0.1s0.2,0,0.2,0.1s0.1,0.1,0.1,0.2C342.2,207.3,342.1,207.4,342.1,207.5z M341.7,211
				h0.4v-2.6h-0.4V211z"/>
		</defs>
		<clipPath id="SVGID_96_">
			<use xlink:href="#SVGID_95_"  style="overflow:visible;"/>
		</clipPath>
		<g class="st57">
			<defs>
				<rect id="SVGID_97_" x="189.8" y="31.9" width="244.5" height="186.8"/>
			</defs>
			<clipPath id="SVGID_98_">
				<use xlink:href="#SVGID_97_"  style="overflow:visible;"/>
			</clipPath>
			<rect x="340.3" y="205.7" class="st58" width="3.1" height="6.5"/>
		</g>
	</g>
	<g>
		<defs>
			<path id="SVGID_99_" d="M398.9,209.5c0,0.3-0.2,0.5-0.5,0.5s-0.5-0.2-0.5-0.5c0-0.3,0.2-0.5,0.5-0.5S398.9,209.2,398.9,209.5"/>
		</defs>
		<clipPath id="SVGID_100_">
			<use xlink:href="#SVGID_99_"  style="overflow:visible;"/>
		</clipPath>
		<g class="st59">
			<defs>
				<rect id="SVGID_101_" x="189.8" y="31.9" width="244.5" height="186.8"/>
			</defs>
			<clipPath id="SVGID_102_">
				<use xlink:href="#SVGID_101_"  style="overflow:visible;"/>
			</clipPath>
			<rect x="396.6" y="207.7" class="st60" width="3.6" height="3.6"/>
		</g>
	</g>
	<g>
		<defs>
			<path id="SVGID_103_" d="M402.4,209.5c0,0.3-0.2,0.5-0.5,0.5s-0.5-0.2-0.5-0.5c0-0.3,0.2-0.5,0.5-0.5S402.4,209.2,402.4,209.5"/>
		</defs>
		<clipPath id="SVGID_104_">
			<use xlink:href="#SVGID_103_"  style="overflow:visible;"/>
		</clipPath>
		<g class="st61">
			<defs>
				<rect id="SVGID_105_" x="189.8" y="31.9" width="244.5" height="186.8"/>
			</defs>
			<clipPath id="SVGID_106_">
				<use xlink:href="#SVGID_105_"  style="overflow:visible;"/>
			</clipPath>
			<rect x="400" y="207.7" class="st62" width="3.6" height="3.6"/>
		</g>
	</g>
	<g>
		<defs>
			<path id="SVGID_107_" d="M405.8,209.5c0,0.3-0.2,0.5-0.5,0.5s-0.5-0.2-0.5-0.5c0-0.3,0.2-0.5,0.5-0.5S405.8,209.2,405.8,209.5"/>
		</defs>
		<clipPath id="SVGID_108_">
			<use xlink:href="#SVGID_107_"  style="overflow:visible;"/>
		</clipPath>
		<g class="st63">
			<defs>
				<rect id="SVGID_109_" x="189.8" y="31.9" width="244.5" height="186.8"/>
			</defs>
			<clipPath id="SVGID_110_">
				<use xlink:href="#SVGID_109_"  style="overflow:visible;"/>
			</clipPath>
			<rect x="403.5" y="207.7" class="st64" width="3.6" height="3.6"/>
		</g>
	</g>
	<g>
		<defs>
			<rect id="SVGID_111_" x="367.8" y="172.1" width="53.5" height="13.5"/>
		</defs>
		<clipPath id="SVGID_112_">
			<use xlink:href="#SVGID_111_"  style="overflow:visible;"/>
		</clipPath>
		<g class="st65">
			<defs>
				<rect id="SVGID_113_" x="189.8" y="31.9" width="244.5" height="186.8"/>
			</defs>
			<clipPath id="SVGID_114_">
				<use xlink:href="#SVGID_113_"  style="overflow:visible;"/>
			</clipPath>
			<rect x="367.8" y="172.1" class="st66" width="53.5" height="13.5"/>
		</g>
	</g>
	<g>
		<defs>
			<rect id="SVGID_115_" x="189.8" y="31.9" width="244.5" height="186.8"/>
		</defs>
		<clipPath id="SVGID_116_">
			<use xlink:href="#SVGID_115_"  style="overflow:visible;"/>
		</clipPath>
		<g class="st67">
			<path class="st1" d="M392.3,180.1c0-0.2-0.1-0.4-0.3-0.6c-0.2-0.1-0.5-0.3-0.9-0.4c-0.5-0.1-0.8-0.3-1-0.4
				c-0.2-0.2-0.4-0.4-0.4-0.7c0-0.3,0.1-0.6,0.4-0.8c0.3-0.2,0.6-0.3,1-0.3c0.4,0,0.8,0.1,1,0.4s0.4,0.5,0.4,0.9l0,0h-0.3
				c0-0.3-0.1-0.5-0.3-0.7c-0.2-0.2-0.5-0.3-0.8-0.3c-0.3,0-0.6,0.1-0.8,0.2c-0.2,0.1-0.3,0.3-0.3,0.6c0,0.2,0.1,0.4,0.3,0.5
				s0.5,0.3,0.9,0.4c0.5,0.1,0.8,0.3,1,0.5c0.2,0.2,0.4,0.5,0.4,0.8c0,0.3-0.1,0.6-0.4,0.8c-0.3,0.2-0.6,0.3-1,0.3
				c-0.4,0-0.8-0.1-1.1-0.3c-0.3-0.2-0.5-0.5-0.5-0.9l0,0h0.3c0,0.3,0.1,0.6,0.4,0.7c0.2,0.2,0.5,0.2,0.9,0.2c0.3,0,0.6-0.1,0.8-0.2
				C392.1,180.5,392.3,180.4,392.3,180.1z"/>
			<path class="st1" d="M395.7,179.1h-2v1.7h2.3v0.3h-2.6V177h2.6v0.3h-2.3v1.6h2V179.1z"/>
			<path class="st1" d="M399.6,177.3h-1.4v3.9h-0.3v-3.9h-1.4V177h3.2V177.3z"/>
		</g>
		<g class="st67">
			<path class="st1" d="M267.5,64h1.1v6.6h-1.1l-3.3-4.9v4.9h-1.1V64h1.1l3.3,4.9V64z"/>
			<path class="st1" d="M272.2,70.7c-0.8,0-1.4-0.2-1.9-0.7c-0.5-0.5-0.7-1.1-0.7-2s0.2-1.5,0.7-2c0.5-0.5,1.1-0.7,1.9-0.7
				c0.8,0,1.4,0.2,1.9,0.7c0.5,0.5,0.7,1.1,0.7,1.8c0,0.2,0,0.4,0,0.5h-4c0,0.4,0.2,0.8,0.4,1c0.3,0.3,0.6,0.4,1,0.4
				c0.6,0,1-0.2,1.2-0.7h1.2c-0.2,0.5-0.4,0.9-0.9,1.2C273.3,70.6,272.8,70.7,272.2,70.7z M273.2,66.6c-0.3-0.3-0.6-0.4-1-0.4
				s-0.7,0.1-1,0.4c-0.3,0.3-0.4,0.6-0.5,1h2.9C273.6,67.2,273.5,66.9,273.2,66.6z"/>
			<path class="st1" d="M281.8,65.4h1.1l-1.6,5.2h-1.1l-1.1-3.9l-1.1,3.9h-1.1l-1.6-5.2h1.1l1.1,4.2l1.1-4.2h1.1l1.1,4.2L281.8,65.4
				z"/>
			<path class="st1" d="M288.6,64.8c-0.3,0-0.6,0.1-0.8,0.2c-0.2,0.2-0.3,0.4-0.3,0.7s0.1,0.6,0.4,0.7c0.2,0.2,0.5,0.3,0.9,0.4
				c0.3,0.1,0.7,0.2,1,0.3c0.3,0.1,0.6,0.3,0.9,0.5s0.4,0.6,0.4,1.1c0,0.5-0.2,0.9-0.6,1.3c-0.4,0.4-1,0.6-1.7,0.6s-1.3-0.2-1.7-0.5
				c-0.4-0.3-0.6-0.8-0.6-1.3h1.2c0,0.3,0.1,0.5,0.3,0.7c0.2,0.2,0.5,0.3,0.8,0.3c0.4,0,0.7-0.1,0.9-0.3c0.2-0.2,0.3-0.4,0.3-0.7
				s-0.1-0.5-0.2-0.6c-0.1-0.1-0.3-0.3-0.5-0.3c-0.2-0.1-0.4-0.1-0.7-0.2c-0.2-0.1-0.5-0.1-0.7-0.2c-0.2-0.1-0.5-0.2-0.7-0.3
				c-0.2-0.1-0.4-0.3-0.5-0.5c-0.1-0.2-0.2-0.5-0.2-0.9c0-0.6,0.2-1,0.6-1.4c0.4-0.4,1-0.5,1.6-0.5s1.2,0.2,1.6,0.5
				c0.4,0.3,0.6,0.7,0.7,1.3h-1.2c0-0.3-0.1-0.5-0.3-0.6C289.1,64.9,288.9,64.8,288.6,64.8z"/>
			<path class="st1" d="M292.6,70c-0.5-0.5-0.7-1.1-0.7-2s0.2-1.5,0.7-2c0.5-0.5,1.1-0.7,1.8-0.7c0.6,0,1.2,0.2,1.6,0.5
				c0.4,0.3,0.7,0.7,0.8,1.3h-1.2c-0.2-0.6-0.6-0.8-1.2-0.8c-0.4,0-0.8,0.2-1.1,0.5c-0.3,0.3-0.4,0.8-0.4,1.3c0,0.6,0.1,1,0.4,1.3
				c0.3,0.3,0.6,0.5,1.1,0.5c0.6,0,1-0.3,1.2-0.8h1.2c-0.2,0.5-0.4,1-0.9,1.3s-0.9,0.5-1.6,0.5C293.7,70.7,293.1,70.5,292.6,70z"/>
			<path class="st1" d="M299,63.6v2.6c0.3-0.6,0.9-0.9,1.7-0.9c0.6,0,1.1,0.2,1.5,0.6s0.6,0.9,0.6,1.6v3.1h-1.1v-2.9
				c0-0.5-0.1-0.8-0.4-1.1c-0.2-0.2-0.6-0.4-1-0.4c-0.4,0-0.7,0.1-1,0.4c-0.2,0.3-0.4,0.6-0.4,1.1v2.9H298v-7H299z"/>
			<path class="st1" d="M306.3,70.7c-0.8,0-1.4-0.2-1.9-0.7c-0.5-0.5-0.7-1.1-0.7-2s0.2-1.5,0.7-2c0.5-0.5,1.1-0.7,1.9-0.7
				c0.8,0,1.4,0.2,1.9,0.7c0.5,0.5,0.7,1.1,0.7,1.8c0,0.2,0,0.4,0,0.5h-4c0,0.4,0.2,0.8,0.4,1c0.3,0.3,0.6,0.4,1,0.4
				c0.6,0,1-0.2,1.2-0.7h1.2c-0.2,0.5-0.4,0.9-0.9,1.2C307.5,70.6,306.9,70.7,306.3,70.7z M307.4,66.6c-0.3-0.3-0.6-0.4-1-0.4
				s-0.7,0.1-1,0.4c-0.3,0.3-0.4,0.6-0.5,1h2.9C307.8,67.2,307.6,66.9,307.4,66.6z"/>
			<path class="st1" d="M310.3,70c-0.5-0.5-0.7-1.2-0.7-2s0.2-1.4,0.7-1.9c0.5-0.5,1.1-0.7,1.8-0.7c0.4,0,0.8,0.1,1.1,0.3
				c0.3,0.2,0.6,0.4,0.7,0.7v-2.7h1.1v7h-1.1v-1c-0.2,0.3-0.4,0.6-0.7,0.8s-0.7,0.3-1.1,0.3C311.4,70.7,310.8,70.5,310.3,70z
				 M313.4,69.3c0.3-0.3,0.5-0.7,0.5-1.3c0-0.5-0.2-1-0.5-1.3c-0.3-0.3-0.7-0.5-1.1-0.5s-0.8,0.2-1.1,0.5c-0.3,0.3-0.5,0.7-0.5,1.3
				c0,0.5,0.2,1,0.5,1.3s0.7,0.5,1.1,0.5S313.1,69.6,313.4,69.3z"/>
			<path class="st1" d="M320.1,65.4h1.1v5.2h-1.1v-0.8c-0.3,0.6-0.9,0.9-1.7,0.9c-0.6,0-1.1-0.2-1.5-0.6c-0.4-0.4-0.6-0.9-0.6-1.6
				v-3.1h1.1v2.9c0,0.5,0.1,0.8,0.4,1.1c0.2,0.3,0.6,0.4,1,0.4s0.7-0.1,1-0.4c0.2-0.2,0.4-0.6,0.4-1.1V65.4z"/>
			<path class="st1" d="M322.6,70.6v-7h1.1v7H322.6z"/>
			<path class="st1" d="M327.3,70.7c-0.8,0-1.4-0.2-1.9-0.7c-0.5-0.5-0.7-1.1-0.7-2s0.2-1.5,0.7-2c0.5-0.5,1.1-0.7,1.9-0.7
				c0.8,0,1.4,0.2,1.9,0.7c0.5,0.5,0.7,1.1,0.7,1.8c0,0.2,0,0.4,0,0.5h-4c0,0.4,0.2,0.8,0.4,1c0.3,0.3,0.6,0.4,1,0.4
				c0.6,0,1-0.2,1.2-0.7h1.2c-0.2,0.5-0.4,0.9-0.9,1.2C328.4,70.6,327.9,70.7,327.3,70.7z M328.3,66.6c-0.3-0.3-0.6-0.4-1-0.4
				s-0.7,0.1-1,0.4c-0.3,0.3-0.4,0.6-0.5,1h2.9C328.8,67.2,328.6,66.9,328.3,66.6z"/>
			<path class="st1" d="M331.3,70c-0.5-0.5-0.7-1.2-0.7-2s0.2-1.4,0.7-1.9c0.5-0.5,1.1-0.7,1.8-0.7c0.4,0,0.8,0.1,1.1,0.3
				c0.3,0.2,0.6,0.4,0.7,0.7v-2.7h1.1v7h-1.1v-1c-0.2,0.3-0.4,0.6-0.7,0.8s-0.7,0.3-1.1,0.3C332.4,70.7,331.8,70.5,331.3,70z
				 M334.4,69.3c0.3-0.3,0.5-0.7,0.5-1.3c0-0.5-0.2-1-0.5-1.3c-0.3-0.3-0.7-0.5-1.1-0.5s-0.8,0.2-1.1,0.5c-0.3,0.3-0.5,0.7-0.5,1.3
				c0,0.5,0.2,1,0.5,1.3s0.7,0.5,1.1,0.5S334.1,69.6,334.4,69.3z"/>
			<path class="st1" d="M339.9,64.9V64h4.6v0.8h-1.8v5.8h-1.1v-5.8H339.9z"/>
			<path class="st1" d="M346,70c-0.5-0.5-0.7-1.2-0.7-2s0.2-1.4,0.7-1.9c0.5-0.5,1.1-0.7,1.8-0.7c0.4,0,0.8,0.1,1.1,0.3
				c0.3,0.2,0.6,0.4,0.7,0.7v-0.9h1.1v5.2h-1.1v-1c-0.2,0.3-0.4,0.6-0.7,0.8s-0.7,0.3-1.1,0.3C347,70.7,346.4,70.5,346,70z
				 M349.1,69.3c0.3-0.3,0.5-0.7,0.5-1.3c0-0.5-0.2-1-0.5-1.3c-0.3-0.3-0.7-0.5-1.1-0.5s-0.8,0.2-1.1,0.5c-0.3,0.3-0.5,0.7-0.5,1.3
				c0,0.5,0.2,1,0.5,1.3s0.7,0.5,1.1,0.5S348.7,69.6,349.1,69.3z"/>
			<path class="st1" d="M351.8,66.9c0-0.4,0.2-0.8,0.6-1.1c0.4-0.3,0.9-0.5,1.5-0.5c0.6,0,1.1,0.2,1.4,0.5c0.4,0.3,0.5,0.7,0.6,1.2
				h-1.1c0-0.3-0.1-0.5-0.3-0.6c-0.2-0.1-0.4-0.2-0.7-0.2c-0.3,0-0.5,0.1-0.7,0.2c-0.2,0.1-0.2,0.3-0.2,0.5c0,0.2,0.1,0.4,0.3,0.5
				c0.2,0.1,0.5,0.2,0.8,0.3c0.3,0.1,0.6,0.1,0.9,0.2c0.3,0.1,0.6,0.2,0.8,0.5c0.2,0.2,0.3,0.5,0.3,0.9c0,0.5-0.2,0.8-0.6,1.1
				c-0.4,0.3-0.9,0.4-1.5,0.4s-1.1-0.1-1.5-0.4c-0.4-0.3-0.6-0.7-0.6-1.2h1.1c0,0.3,0.1,0.5,0.3,0.6c0.2,0.1,0.4,0.2,0.7,0.2
				c0.3,0,0.5-0.1,0.7-0.2c0.2-0.1,0.3-0.3,0.3-0.5s-0.1-0.4-0.3-0.5c-0.2-0.1-0.5-0.2-0.8-0.3c-0.3-0.1-0.6-0.1-0.9-0.2
				c-0.3-0.1-0.6-0.2-0.8-0.4S351.8,67.3,351.8,66.9z"/>
			<path class="st1" d="M358.2,70.6h-1.1v-7h1.1v4.1l1.9-2.3h1.5l-2.4,2.6l2.4,2.6h-1.5l-1.9-2.3V70.6z"/>
		</g>
		<circle class="st68" cx="208.7" cy="63.5" r="4.9"/>
	</g>
	<g>
		<defs>
			<circle id="SVGID_117_" cx="217.2" cy="71" r="4.9"/>
		</defs>
		<clipPath id="SVGID_118_">
			<use xlink:href="#SVGID_117_"  style="overflow:visible;"/>
		</clipPath>
		<g class="st69">
			<defs>
				<rect id="SVGID_119_" x="189.8" y="31.9" width="244.5" height="186.8"/>
			</defs>
			<clipPath id="SVGID_120_">
				<use xlink:href="#SVGID_119_"  style="overflow:visible;"/>
			</clipPath>
			<rect x="211" y="64.9" class="st70" width="12.2" height="12.2"/>
		</g>
	</g>
	<g>
		<defs>
			<rect id="SVGID_121_" x="189.8" y="31.9" width="244.5" height="186.8"/>
		</defs>
		<clipPath id="SVGID_122_">
			<use xlink:href="#SVGID_121_"  style="overflow:visible;"/>
		</clipPath>
		<circle class="st71" cx="217.2" cy="71" r="4.9"/>
		<circle class="st71" cx="219.8" cy="61.9" r="3.2"/>
		<circle class="st71" cx="206" cy="72.6" r="3.2"/>
	</g>
</g>
</svg>
