<?xml version="1.0" encoding="utf-8"?>
<!-- Generator: Adobe Illustrator 19.2.1, SVG Export Plug-In . SVG Version: 6.00 Build 0)  -->
<svg version="1.1" id="Layer_1" xmlns="http://www.w3.org/2000/svg" xmlns:xlink="http://www.w3.org/1999/xlink" x="0px" y="0px"
	 viewBox="0 0 435.5 219.8" style="enable-background:new 0 0 435.5 219.8;" xml:space="preserve">
<style type="text/css">
	.st0{fill:#FFFFFF;stroke:#4B4B4B;stroke-width:0.375;stroke-miterlimit:10;}
	.st1{clip-path:url(#SVGID_2_);}
	.st2{fill:#010101;}
	.st3{clip-path:url(#SVGID_2_);fill:none;stroke:#979797;stroke-width:0.25;stroke-linecap:square;stroke-miterlimit:10;}
	.st4{clip-path:url(#SVGID_2_);fill:none;stroke:#231F20;stroke-width:0.3125;stroke-miterlimit:10;}
	.st5{clip-path:url(#SVGID_4_);}
	.st6{clip-path:url(#SVGID_6_);fill:#4B4B4B;}
	.st7{clip-path:url(#SVGID_8_);}
	.st8{clip-path:url(#SVGID_8_);fill:none;stroke:#010101;stroke-width:0.25;stroke-linecap:square;stroke-miterlimit:10;}
	.st9{clip-path:url(#SVGID_8_);fill:none;stroke:#231F20;stroke-width:0.25;stroke-miterlimit:10;}
	.st10{clip-path:url(#SVGID_10_);}
	.st11{clip-path:url(#SVGID_12_);fill:none;stroke:#010101;stroke-width:0.625;stroke-miterlimit:10;}
	.st12{clip-path:url(#SVGID_14_);}
	.st13{clip-path:url(#SVGID_16_);fill:none;stroke:#010101;stroke-width:0.625;stroke-miterlimit:10;}
	.st14{clip-path:url(#SVGID_18_);}
	.st15{clip-path:url(#SVGID_20_);}
	.st16{clip-path:url(#SVGID_22_);fill:#040505;}
	
		.st17{clip-path:url(#SVGID_24_);fill:none;stroke:#558DCA;stroke-width:0.375;stroke-linecap:round;stroke-linejoin:round;stroke-miterlimit:10;}
	
		.st18{clip-path:url(#SVGID_24_);fill:none;stroke:#FFFFFF;stroke-width:0.375;stroke-linecap:round;stroke-linejoin:round;stroke-miterlimit:10;}
	.st19{clip-path:url(#SVGID_26_);}
	.st20{clip-path:url(#SVGID_28_);fill:#FFFFFF;}
	.st21{clip-path:url(#SVGID_30_);}
	.st22{clip-path:url(#SVGID_32_);fill:#FFFFFF;}
	.st23{clip-path:url(#SVGID_34_);}
	.st24{clip-path:url(#SVGID_36_);fill:#FFFFFF;}
	.st25{clip-path:url(#SVGID_38_);}
	.st26{clip-path:url(#SVGID_40_);fill:#FFFFFF;}
	.st27{clip-path:url(#SVGID_42_);fill:none;stroke:#010101;stroke-width:0.3125;stroke-miterlimit:10;}
	.st28{clip-path:url(#SVGID_44_);}
	.st29{clip-path:url(#SVGID_46_);fill:#010101;}
	.st30{clip-path:url(#SVGID_48_);fill:none;stroke:#010101;stroke-width:0.3125;stroke-miterlimit:10;}
	.st31{fill:#FFFFFF;stroke:#4B4B4B;stroke-width:0.5;stroke-miterlimit:10;}
	.st32{clip-path:url(#SVGID_50_);}
	.st33{clip-path:url(#SVGID_50_);fill:none;stroke:#979797;stroke-width:0.25;stroke-linecap:square;stroke-miterlimit:10;}
	.st34{clip-path:url(#SVGID_52_);}
	.st35{clip-path:url(#SVGID_54_);fill:#040505;}
	
		.st36{clip-path:url(#SVGID_56_);fill:none;stroke:#558DCA;stroke-width:0.375;stroke-linecap:round;stroke-linejoin:round;stroke-miterlimit:10;}
	
		.st37{clip-path:url(#SVGID_56_);fill:none;stroke:#FFFFFF;stroke-width:0.375;stroke-linecap:round;stroke-linejoin:round;stroke-miterlimit:10;}
	.st38{clip-path:url(#SVGID_58_);}
	.st39{clip-path:url(#SVGID_60_);fill:#FFFFFF;}
	.st40{clip-path:url(#SVGID_62_);}
	.st41{clip-path:url(#SVGID_64_);fill:#FFFFFF;}
	.st42{clip-path:url(#SVGID_66_);}
	.st43{clip-path:url(#SVGID_68_);fill:#FFFFFF;}
	.st44{clip-path:url(#SVGID_70_);}
	.st45{clip-path:url(#SVGID_72_);fill:#FFFFFF;}
	.st46{clip-path:url(#SVGID_74_);}
	.st47{fill:#ACACAC;}
	.st48{clip-path:url(#SVGID_76_);}
	.st49{clip-path:url(#SVGID_78_);fill:none;stroke:#010101;stroke-width:0.5;stroke-miterlimit:10;}
	.st50{clip-path:url(#SVGID_80_);}
	.st51{clip-path:url(#SVGID_82_);fill:#9B9B9B;}
	.st52{clip-path:url(#SVGID_84_);}
	.st53{fill:#FFFFFF;}
	.st54{clip-path:url(#SVGID_84_);fill:none;stroke:#979797;stroke-width:0.25;stroke-linecap:square;stroke-miterlimit:10;}
	.st55{clip-path:url(#SVGID_86_);}
	.st56{clip-path:url(#SVGID_88_);fill:none;stroke:#010101;stroke-width:0.5;stroke-miterlimit:10;}
	.st57{clip-path:url(#SVGID_90_);fill:none;stroke:#010101;stroke-width:0.3125;stroke-miterlimit:10;}
	.st58{clip-path:url(#SVGID_92_);}
	.st59{clip-path:url(#SVGID_94_);fill:#010101;}
	.st60{clip-path:url(#SVGID_96_);fill:none;stroke:#010101;stroke-width:0.3125;stroke-miterlimit:10;}
	.st61{clip-path:url(#SVGID_98_);}
	.st62{clip-path:url(#SVGID_100_);fill:none;stroke:#010101;stroke-width:0.625;stroke-miterlimit:10;}
	.st63{clip-path:url(#SVGID_102_);}
	.st64{clip-path:url(#SVGID_104_);fill:none;stroke:#010101;stroke-width:0.625;stroke-miterlimit:10;}
	.st65{clip-path:url(#SVGID_106_);}
	.st66{clip-path:url(#SVGID_106_);fill:none;stroke:#090909;stroke-width:0.2;stroke-miterlimit:10;}
</style>
<g>
	<rect x="1.2" y="2.3" class="st0" width="244.5" height="186.8"/>
	<g>
		<defs>
			<rect id="SVGID_1_" x="1.2" y="2.3" width="244.5" height="186.8"/>
		</defs>
		<clipPath id="SVGID_2_">
			<use xlink:href="#SVGID_1_"  style="overflow:visible;"/>
		</clipPath>
		<g class="st1">
			<path class="st2" d="M114.7,11.3h-2.9V11l1.5-1.7c0.3-0.3,0.5-0.6,0.6-0.8c0.1-0.2,0.2-0.4,0.2-0.6c0-0.3-0.1-0.5-0.2-0.7
				C113.7,7,113.5,7,113.2,7c-0.4,0-0.6,0.1-0.8,0.3c-0.2,0.2-0.3,0.5-0.3,0.8h-0.4l0,0c0-0.4,0.1-0.7,0.4-1
				c0.3-0.3,0.6-0.4,1.1-0.4c0.4,0,0.7,0.1,1,0.3s0.4,0.5,0.4,0.9c0,0.3-0.1,0.5-0.2,0.8c-0.2,0.3-0.4,0.6-0.7,0.9l-1.3,1.4l0,0h2.4
				V11.3z"/>
			<path class="st2" d="M115.9,8.4h-0.4V7.9h0.4V8.4z M115.9,11.3h-0.4v-0.5h0.4V11.3z"/>
			<path class="st2" d="M119.8,9.5c0,0.6-0.1,1.1-0.4,1.4c-0.3,0.3-0.6,0.5-1.1,0.5c-0.5,0-0.8-0.2-1.1-0.5
				c-0.3-0.3-0.4-0.8-0.4-1.4v-1c0-0.6,0.1-1.1,0.4-1.4c0.3-0.3,0.6-0.5,1.1-0.5s0.8,0.2,1.1,0.5s0.4,0.8,0.4,1.4V9.5z M119.4,8.4
				c0-0.5-0.1-0.8-0.3-1.1c-0.2-0.3-0.5-0.4-0.8-0.4s-0.6,0.1-0.8,0.4c-0.2,0.3-0.3,0.6-0.3,1.1v1.2c0,0.5,0.1,0.8,0.3,1.1
				c0.2,0.3,0.5,0.4,0.8,0.4c0.4,0,0.6-0.1,0.8-0.4c0.2-0.3,0.3-0.6,0.3-1.1V8.4z"/>
			<path class="st2" d="M123.5,9.5c0,0.6-0.1,1.1-0.4,1.4c-0.3,0.3-0.6,0.5-1.1,0.5c-0.5,0-0.8-0.2-1.1-0.5
				c-0.3-0.3-0.4-0.8-0.4-1.4v-1c0-0.6,0.1-1.1,0.4-1.4c0.3-0.3,0.6-0.5,1.1-0.5s0.8,0.2,1.1,0.5s0.4,0.8,0.4,1.4V9.5z M123.2,8.4
				c0-0.5-0.1-0.8-0.3-1.1c-0.2-0.3-0.5-0.4-0.8-0.4s-0.6,0.1-0.8,0.4C121.1,7.6,121,8,121,8.4v1.2c0,0.5,0.1,0.8,0.3,1.1
				c0.2,0.3,0.5,0.4,0.8,0.4c0.4,0,0.6-0.1,0.8-0.4c0.2-0.3,0.3-0.6,0.3-1.1V8.4z"/>
			<path class="st2" d="M126.5,9.4v1.9h-0.4V6.7h1.6c0.5,0,0.9,0.1,1.1,0.4s0.4,0.6,0.4,1c0,0.4-0.1,0.7-0.4,1
				c-0.3,0.2-0.6,0.4-1.1,0.4H126.5z M126.5,9.1h1.2c0.4,0,0.7-0.1,0.9-0.3c0.2-0.2,0.3-0.4,0.3-0.7c0-0.3-0.1-0.5-0.3-0.7
				S128.1,7,127.7,7h-1.2V9.1z"/>
			<path class="st2" d="M130.7,6.7l1.7,4.1h0l1.7-4.1h0.5v4.6h-0.4v-2l0-2l0,0l-1.7,4.1h-0.3l-1.7-4l0,0l0,2v2h-0.4V6.7H130.7z"/>
		</g>
		<line class="st3" x1="0.9" y1="14.9" x2="245.4" y2="14.9"/>
		<path class="st4" d="M80.7,112.6c0-29.3,22.1-42.3,42.7-42.3s42.7,14.3,42.7,42.3l-5.5-0.1c0-24.4-19.3-36.9-37.3-36.9
			c-18,0-37.3,11.3-37.3,36.9L80.7,112.6z"/>
	</g>
	<g>
		<defs>
			<path id="SVGID_3_" d="M150.9,86.8c-7.3-7.4-17.5-11.1-27.3-11.1c-18,0-37.3,11.4-37.3,37l-5.5,0.1c0-29.4,22.1-42.4,42.8-42.4
				c11.1,0,22.6,4.1,30.9,12.3L150.9,86.8z"/>
		</defs>
		<clipPath id="SVGID_4_">
			<use xlink:href="#SVGID_3_"  style="overflow:visible;"/>
		</clipPath>
		<g class="st5">
			<defs>
				<rect id="SVGID_5_" x="1.2" y="2.3" width="244.5" height="186.8"/>
			</defs>
			<clipPath id="SVGID_6_">
				<use xlink:href="#SVGID_5_"  style="overflow:visible;"/>
			</clipPath>
			<rect x="79.5" y="69.1" class="st6" width="76.2" height="44.9"/>
		</g>
	</g>
	<g>
		<defs>
			<rect id="SVGID_7_" x="1.2" y="2.3" width="244.5" height="186.8"/>
		</defs>
		<clipPath id="SVGID_8_">
			<use xlink:href="#SVGID_7_"  style="overflow:visible;"/>
		</clipPath>
		<g class="st7">
			<path class="st2" d="M106.6,89.6l2.5,5.9h0l2.5-5.9h0.7v6.8h-0.6v-3l0-3l0,0l-2.5,5.9h-0.4l-2.5-5.9l0,0l0.1,2.9v3h-0.6v-6.8
				H106.6z"/>
			<path class="st2" d="M117.9,93h-3.3v2.8h3.7v0.5h-4.3v-6.8h4.3V90h-3.7v2.5h3.3V93z"/>
			<path class="st2" d="M119.5,96.3v-6.8h2c0.8,0,1.5,0.3,2,0.8s0.8,1.3,0.8,2.1v0.9c0,0.9-0.3,1.6-0.8,2.1c-0.5,0.5-1.2,0.8-2,0.8
				H119.5z M120.1,90v5.8h1.4c0.7,0,1.2-0.2,1.6-0.7c0.4-0.5,0.6-1.1,0.6-1.8v-0.9c0-0.7-0.2-1.3-0.6-1.8c-0.4-0.5-1-0.7-1.6-0.7
				H120.1z"/>
			<path class="st2" d="M126.4,96.3h-0.6v-6.8h0.6V96.3z"/>
			<path class="st2" d="M133.1,89.6v4.6c0,0.7-0.2,1.3-0.7,1.7c-0.5,0.4-1,0.6-1.8,0.6c-0.7,0-1.3-0.2-1.7-0.6
				c-0.4-0.4-0.7-1-0.7-1.7v-4.6h0.6v4.6c0,0.6,0.2,1,0.5,1.3c0.3,0.3,0.8,0.5,1.3,0.5c0.6,0,1-0.2,1.4-0.5s0.5-0.8,0.5-1.3v-4.6
				H133.1z"/>
			<path class="st2" d="M135.4,89.6l2.5,5.9h0l2.5-5.9h0.7v6.8h-0.6v-3l0-3l0,0l-2.5,5.9h-0.4l-2.5-5.9l0,0l0.1,2.9v3h-0.6v-6.8
				H135.4z"/>
		</g>
		<g class="st7">
			<path class="st2" d="M118.1,108.8h-0.6v-3.1h-3.8v3.1h-0.6v-6.8h0.6v3.2h3.8v-3.2h0.6V108.8z"/>
			<path class="st2" d="M120.5,108.8H120v-6.8h0.6V108.8z"/>
			<path class="st2" d="M127.2,108c-0.2,0.2-0.4,0.4-0.8,0.6c-0.4,0.2-0.9,0.3-1.5,0.3c-0.8,0-1.4-0.3-1.9-0.8
				c-0.5-0.5-0.8-1.2-0.8-2.1v-1.2c0-0.8,0.2-1.5,0.7-2c0.5-0.5,1.1-0.8,1.9-0.8c0.7,0,1.3,0.2,1.7,0.5c0.4,0.4,0.6,0.8,0.7,1.4l0,0
				h-0.5c-0.1-0.5-0.3-0.8-0.6-1.1c-0.3-0.3-0.7-0.4-1.3-0.4c-0.6,0-1.1,0.2-1.5,0.7c-0.4,0.4-0.6,1-0.6,1.7v1.2
				c0,0.7,0.2,1.3,0.6,1.7s0.9,0.7,1.5,0.7c0.4,0,0.8-0.1,1.1-0.2c0.3-0.1,0.5-0.3,0.6-0.4v-1.8h-1.8v-0.5h2.4V108z"/>
			<path class="st2" d="M133.9,108.8h-0.6v-3.1h-3.8v3.1h-0.6v-6.8h0.6v3.2h3.8v-3.2h0.6V108.8z"/>
		</g>
		<g class="st7">
			<path class="st2" d="M159.9,75.9c-0.5,0.5-0.8,1.1-1,1.6s-0.4,1.2-0.5,1.9l0,0.4H158l0-0.4c0.1-0.7,0.2-1.3,0.5-1.9
				c0.3-0.6,0.6-1.1,1-1.6h-2.4v-0.3h2.7V75.9z"/>
			<path class="st2" d="M161.1,79.8h-0.4v-0.5h0.4V79.8z"/>
			<path class="st2" d="M164.7,78.2c0,0.5-0.1,1-0.4,1.2c-0.2,0.3-0.6,0.4-1,0.4c-0.4,0-0.7-0.1-1-0.4c-0.2-0.3-0.4-0.7-0.4-1.2
				v-0.9c0-0.5,0.1-1,0.3-1.2c0.2-0.3,0.6-0.4,1-0.4s0.7,0.1,1,0.4c0.2,0.3,0.4,0.7,0.4,1.2V78.2z M164.3,77.2c0-0.4-0.1-0.8-0.3-1
				c-0.2-0.2-0.4-0.3-0.7-0.3s-0.6,0.1-0.7,0.3c-0.2,0.2-0.2,0.6-0.2,1v1c0,0.4,0.1,0.8,0.3,1s0.4,0.4,0.7,0.4s0.6-0.1,0.7-0.3
				c0.2-0.2,0.3-0.6,0.3-1V77.2z"/>
		</g>
		<line class="st8" x1="156.4" y1="80.7" x2="150.9" y2="86.7"/>
		<g class="st7">
			<path class="st2" d="M12.2,9.5L12.2,9.5c0,0.4-0.2,0.8-0.4,1c-0.3,0.2-0.6,0.4-1.1,0.4c-0.5,0-0.8-0.2-1.1-0.5
				C9.3,10,9.2,9.6,9.2,9.1V8.4c0-0.5,0.1-1,0.4-1.3c0.3-0.3,0.7-0.5,1.1-0.5c0.4,0,0.8,0.1,1.1,0.4c0.3,0.2,0.4,0.6,0.4,1l0,0h-0.3
				c0-0.3-0.2-0.6-0.4-0.8c-0.2-0.2-0.5-0.3-0.8-0.3c-0.4,0-0.7,0.1-0.9,0.4C9.7,7.6,9.5,7.9,9.5,8.4v0.7c0,0.4,0.1,0.8,0.3,1.1
				c0.2,0.3,0.5,0.4,0.9,0.4c0.4,0,0.6-0.1,0.8-0.3c0.2-0.2,0.3-0.4,0.4-0.8H12.2z"/>
			<path class="st2" d="M15.4,9.7h-1.9L13,10.8h-0.4l1.6-4.2h0.3l1.6,4.2h-0.4L15.4,9.7z M13.6,9.3h1.7l-0.8-2.3h0L13.6,9.3z"/>
			<path class="st2" d="M19.9,10.8h-0.3l-2.4-3.6l0,0v3.6h-0.3V6.6h0.3l2.4,3.6l0,0V6.6h0.3V10.8z"/>
			<path class="st2" d="M23.9,9.5L23.9,9.5c0,0.4-0.2,0.8-0.4,1c-0.3,0.2-0.6,0.4-1.1,0.4c-0.5,0-0.8-0.2-1.1-0.5
				C21,10,20.8,9.6,20.8,9.1V8.4c0-0.5,0.1-1,0.4-1.3c0.3-0.3,0.7-0.5,1.1-0.5c0.4,0,0.8,0.1,1.1,0.4c0.3,0.2,0.4,0.6,0.4,1l0,0
				h-0.3c0-0.3-0.2-0.6-0.4-0.8C23,7,22.7,6.9,22.4,6.9c-0.4,0-0.7,0.1-0.9,0.4c-0.2,0.3-0.3,0.6-0.3,1.1v0.7c0,0.4,0.1,0.8,0.3,1.1
				c0.2,0.3,0.5,0.4,0.9,0.4c0.4,0,0.6-0.1,0.8-0.3c0.2-0.2,0.3-0.4,0.4-0.8H23.9z"/>
			<path class="st2" d="M27.1,8.8h-2v1.7h2.3v0.3h-2.6V6.6h2.6v0.3h-2.3v1.6h2V8.8z"/>
			<path class="st2" d="M28.5,10.5h2.1v0.3h-2.4V6.6h0.3V10.5z"/>
		</g>
		<polyline class="st9" points="5.5,10.1 4,8.7 5.5,7.3 		"/>
	</g>
	<g>
		<defs>
			<rect id="SVGID_9_" x="67" y="142.8" width="53.2" height="13.5"/>
		</defs>
		<clipPath id="SVGID_10_">
			<use xlink:href="#SVGID_9_"  style="overflow:visible;"/>
		</clipPath>
		<g class="st10">
			<defs>
				<rect id="SVGID_11_" x="1.2" y="2.3" width="244.5" height="186.8"/>
			</defs>
			<clipPath id="SVGID_12_">
				<use xlink:href="#SVGID_11_"  style="overflow:visible;"/>
			</clipPath>
			<rect x="67" y="142.8" class="st11" width="53.2" height="13.5"/>
		</g>
	</g>
	<g>
		<defs>
			<rect id="SVGID_13_" x="126.7" y="142.8" width="53.2" height="13.5"/>
		</defs>
		<clipPath id="SVGID_14_">
			<use xlink:href="#SVGID_13_"  style="overflow:visible;"/>
		</clipPath>
		<g class="st12">
			<defs>
				<rect id="SVGID_15_" x="1.2" y="2.3" width="244.5" height="186.8"/>
			</defs>
			<clipPath id="SVGID_16_">
				<use xlink:href="#SVGID_15_"  style="overflow:visible;"/>
			</clipPath>
			<rect x="126.7" y="142.8" class="st13" width="53.2" height="13.5"/>
		</g>
	</g>
	<g>
		<defs>
			<rect id="SVGID_17_" x="1.2" y="2.3" width="244.5" height="186.8"/>
		</defs>
		<clipPath id="SVGID_18_">
			<use xlink:href="#SVGID_17_"  style="overflow:visible;"/>
		</clipPath>
		<g class="st14">
			<path class="st2" d="M91.5,150.8c0-0.2-0.1-0.4-0.3-0.6c-0.2-0.1-0.5-0.3-0.9-0.4c-0.5-0.1-0.8-0.3-1-0.4
				c-0.2-0.2-0.4-0.4-0.4-0.7c0-0.3,0.1-0.6,0.4-0.8c0.3-0.2,0.6-0.3,1-0.3c0.4,0,0.8,0.1,1,0.4c0.3,0.2,0.4,0.5,0.4,0.9l0,0h-0.3
				c0-0.3-0.1-0.5-0.3-0.7c-0.2-0.2-0.5-0.3-0.8-0.3c-0.3,0-0.6,0.1-0.8,0.2s-0.3,0.3-0.3,0.6c0,0.2,0.1,0.4,0.3,0.5
				s0.5,0.3,0.9,0.4c0.5,0.1,0.8,0.3,1,0.5c0.2,0.2,0.4,0.5,0.4,0.8c0,0.3-0.1,0.6-0.4,0.8s-0.6,0.3-1,0.3c-0.4,0-0.8-0.1-1.1-0.3
				c-0.3-0.2-0.5-0.5-0.5-0.9l0,0h0.3c0,0.3,0.1,0.6,0.4,0.7c0.2,0.2,0.5,0.2,0.9,0.2c0.3,0,0.6-0.1,0.8-0.2
				C91.4,151.2,91.5,151,91.5,150.8z"/>
			<path class="st2" d="M95,149.8h-2v1.7h2.3v0.3h-2.6v-4.2h2.6v0.3h-2.3v1.6h2V149.8z"/>
			<path class="st2" d="M98.8,147.9h-1.4v3.9h-0.3v-3.9h-1.4v-0.3h3.2V147.9z"/>
		</g>
		<g class="st14">
			<path class="st2" d="M144.1,149.7h1.3v0.3h-1.3v1.4h-0.3V150h-1.2v-0.3h1.2v-1.3h0.3V149.7z"/>
			<path class="st2" d="M150.4,147.9H149v3.9h-0.3v-3.9h-1.4v-0.3h3.2V147.9z"/>
			<path class="st2" d="M151.5,151.8h-0.3v-4.2h0.3V151.8z"/>
			<path class="st2" d="M153.1,147.6l1.5,3.7h0l1.5-3.7h0.5v4.2h-0.3V150l0-1.8l0,0l-1.6,3.7h-0.2l-1.5-3.7l0,0l0,1.8v1.8h-0.3v-4.2
				H153.1z"/>
			<path class="st2" d="M160.1,149.8h-2v1.7h2.3v0.3h-2.6v-4.2h2.6v0.3h-2.3v1.6h2V149.8z"/>
			<path class="st2" d="M161.5,149.9v1.9h-0.3v-4.2h1.4c0.4,0,0.8,0.1,1,0.3s0.4,0.5,0.4,0.9c0,0.2-0.1,0.4-0.2,0.6
				c-0.1,0.2-0.3,0.3-0.5,0.4c0.3,0.1,0.4,0.2,0.6,0.3c0.1,0.2,0.2,0.4,0.2,0.6v0.4c0,0.1,0,0.2,0,0.3c0,0.1,0.1,0.2,0.2,0.3v0.1
				h-0.3c-0.1-0.1-0.1-0.2-0.1-0.3c0-0.1,0-0.3,0-0.4v-0.4c0-0.3-0.1-0.5-0.2-0.6c-0.2-0.1-0.4-0.2-0.7-0.2H161.5z M161.5,149.6h1
				c0.4,0,0.7-0.1,0.8-0.2c0.2-0.2,0.3-0.4,0.3-0.6c0-0.3-0.1-0.5-0.3-0.6s-0.4-0.2-0.8-0.2h-1.1V149.6z"/>
		</g>
	</g>
	<g>
		<defs>
			<rect id="SVGID_19_" x="1.2" y="170.4" width="244.5" height="18.6"/>
		</defs>
		<clipPath id="SVGID_20_">
			<use xlink:href="#SVGID_19_"  style="overflow:visible;"/>
		</clipPath>
		<g class="st15">
			<defs>
				<rect id="SVGID_21_" x="1.2" y="2.3" width="244.5" height="186.8"/>
			</defs>
			<clipPath id="SVGID_22_">
				<use xlink:href="#SVGID_21_"  style="overflow:visible;"/>
			</clipPath>
			<rect x="0" y="169.1" class="st16" width="247" height="21.1"/>
		</g>
	</g>
	<g>
		<defs>
			<rect id="SVGID_23_" x="1.2" y="2.3" width="244.5" height="186.8"/>
		</defs>
		<clipPath id="SVGID_24_">
			<use xlink:href="#SVGID_23_"  style="overflow:visible;"/>
		</clipPath>
		<circle class="st17" cx="31.9" cy="177.6" r="1.7"/>
		<circle class="st17" cx="31.9" cy="182.6" r="1.7"/>
		<circle class="st17" cx="36.8" cy="177.6" r="1.7"/>
		<circle class="st17" cx="36.8" cy="182.6" r="1.7"/>
		<rect x="88.3" y="176" class="st18" width="11.2" height="8.5"/>
		<rect x="90.1" y="177.8" class="st18" width="7.6" height="4.8"/>
		<path class="st18" d="M157,182.8h-4.2l-1.7,1.6l-0.2-1.6h-1.3c-0.6,0-1-0.5-1-1v-4.7c0-0.6,0.5-1,1-1h7.4c0.6,0,1,0.5,1,1v4.7
			C158.1,182.4,157.6,182.8,157,182.8z"/>
	</g>
	<g>
		<defs>
			<path id="SVGID_25_" d="M153.5,177.9c-0.1,0.1-0.1,0.1-0.2,0.1c-0.1,0-0.2,0-0.2-0.1c-0.1-0.1-0.1-0.1-0.1-0.2
				c0-0.1,0-0.2,0.1-0.2s0.1-0.1,0.2-0.1s0.2,0,0.2,0.1c0.1,0.1,0.1,0.1,0.1,0.2C153.6,177.8,153.6,177.8,153.5,177.9z M153.1,181.4
				h0.4v-2.6h-0.4V181.4z"/>
		</defs>
		<clipPath id="SVGID_26_">
			<use xlink:href="#SVGID_25_"  style="overflow:visible;"/>
		</clipPath>
		<g class="st19">
			<defs>
				<rect id="SVGID_27_" x="1.2" y="2.3" width="244.5" height="186.8"/>
			</defs>
			<clipPath id="SVGID_28_">
				<use xlink:href="#SVGID_27_"  style="overflow:visible;"/>
			</clipPath>
			<rect x="151.8" y="176.1" class="st20" width="3.1" height="6.5"/>
		</g>
	</g>
	<g>
		<defs>
			<path id="SVGID_29_" d="M210.4,179.9c0,0.3-0.2,0.5-0.5,0.5c-0.3,0-0.5-0.2-0.5-0.5c0-0.3,0.2-0.5,0.5-0.5
				C210.1,179.4,210.4,179.6,210.4,179.9"/>
		</defs>
		<clipPath id="SVGID_30_">
			<use xlink:href="#SVGID_29_"  style="overflow:visible;"/>
		</clipPath>
		<g class="st21">
			<defs>
				<rect id="SVGID_31_" x="1.2" y="2.3" width="244.5" height="186.8"/>
			</defs>
			<clipPath id="SVGID_32_">
				<use xlink:href="#SVGID_31_"  style="overflow:visible;"/>
			</clipPath>
			<rect x="208" y="178.1" class="st22" width="3.6" height="3.6"/>
		</g>
	</g>
	<g>
		<defs>
			<path id="SVGID_33_" d="M213.8,179.9c0,0.3-0.2,0.5-0.5,0.5c-0.3,0-0.5-0.2-0.5-0.5c0-0.3,0.2-0.5,0.5-0.5
				C213.6,179.4,213.8,179.6,213.8,179.9"/>
		</defs>
		<clipPath id="SVGID_34_">
			<use xlink:href="#SVGID_33_"  style="overflow:visible;"/>
		</clipPath>
		<g class="st23">
			<defs>
				<rect id="SVGID_35_" x="1.2" y="2.3" width="244.5" height="186.8"/>
			</defs>
			<clipPath id="SVGID_36_">
				<use xlink:href="#SVGID_35_"  style="overflow:visible;"/>
			</clipPath>
			<rect x="211.5" y="178.1" class="st24" width="3.6" height="3.6"/>
		</g>
	</g>
	<g>
		<defs>
			<path id="SVGID_37_" d="M217.2,179.9c0,0.3-0.2,0.5-0.5,0.5c-0.3,0-0.5-0.2-0.5-0.5c0-0.3,0.2-0.5,0.5-0.5
				C217,179.4,217.2,179.6,217.2,179.9"/>
		</defs>
		<clipPath id="SVGID_38_">
			<use xlink:href="#SVGID_37_"  style="overflow:visible;"/>
		</clipPath>
		<g class="st25">
			<defs>
				<rect id="SVGID_39_" x="1.2" y="2.3" width="244.5" height="186.8"/>
			</defs>
			<clipPath id="SVGID_40_">
				<use xlink:href="#SVGID_39_"  style="overflow:visible;"/>
			</clipPath>
			<rect x="214.9" y="178.1" class="st26" width="3.6" height="3.6"/>
		</g>
	</g>
	<g>
		<defs>
			<rect id="SVGID_41_" x="1.2" y="2.3" width="244.5" height="186.8"/>
		</defs>
		<clipPath id="SVGID_42_">
			<use xlink:href="#SVGID_41_"  style="overflow:visible;"/>
		</clipPath>
		<circle class="st27" cx="20.4" cy="33.9" r="4.9"/>
	</g>
	<g>
		<defs>
			<circle id="SVGID_43_" cx="28.9" cy="41.4" r="4.9"/>
		</defs>
		<clipPath id="SVGID_44_">
			<use xlink:href="#SVGID_43_"  style="overflow:visible;"/>
		</clipPath>
		<g class="st28">
			<defs>
				<rect id="SVGID_45_" x="1.2" y="2.3" width="244.5" height="186.8"/>
			</defs>
			<clipPath id="SVGID_46_">
				<use xlink:href="#SVGID_45_"  style="overflow:visible;"/>
			</clipPath>
			<rect x="22.7" y="35.3" class="st29" width="12.2" height="12.2"/>
		</g>
	</g>
	<g>
		<defs>
			<rect id="SVGID_47_" x="1.2" y="2.3" width="244.5" height="186.8"/>
		</defs>
		<clipPath id="SVGID_48_">
			<use xlink:href="#SVGID_47_"  style="overflow:visible;"/>
		</clipPath>
		<circle class="st30" cx="28.9" cy="41.4" r="4.9"/>
		<circle class="st30" cx="31.5" cy="32.3" r="3.2"/>
		<circle class="st30" cx="17.7" cy="43.1" r="3.2"/>
	</g>
</g>
<g>
	<rect x="189.8" y="31.9" class="st31" width="244.5" height="186.8"/>
	<g>
		<defs>
			<rect id="SVGID_49_" x="189.8" y="31.9" width="244.5" height="186.8"/>
		</defs>
		<clipPath id="SVGID_50_">
			<use xlink:href="#SVGID_49_"  style="overflow:visible;"/>
		</clipPath>
		<g class="st32">
			<path class="st2" d="M303.3,40.9h-2.9v-0.3l1.5-1.7c0.3-0.3,0.5-0.6,0.6-0.8c0.1-0.2,0.2-0.4,0.2-0.6c0-0.3-0.1-0.5-0.2-0.7
				c-0.2-0.2-0.4-0.3-0.7-0.3c-0.4,0-0.6,0.1-0.8,0.3c-0.2,0.2-0.3,0.5-0.3,0.8h-0.4l0,0c0-0.4,0.1-0.7,0.4-1s0.6-0.4,1.1-0.4
				c0.4,0,0.7,0.1,1,0.3c0.2,0.2,0.4,0.5,0.4,0.9c0,0.3-0.1,0.5-0.2,0.8s-0.4,0.6-0.7,0.9l-1.3,1.4l0,0h2.4V40.9z"/>
			<path class="st2" d="M304.5,38H304v-0.5h0.4V38z M304.5,40.9H304v-0.5h0.4V40.9z"/>
			<path class="st2" d="M308.3,39.1c0,0.6-0.1,1.1-0.4,1.4c-0.3,0.3-0.6,0.5-1.1,0.5c-0.5,0-0.8-0.2-1.1-0.5
				c-0.3-0.3-0.4-0.8-0.4-1.4v-1c0-0.6,0.1-1.1,0.4-1.4s0.6-0.5,1.1-0.5s0.8,0.2,1.1,0.5s0.4,0.8,0.4,1.4V39.1z M307.9,38
				c0-0.5-0.1-0.8-0.3-1.1s-0.5-0.4-0.8-0.4s-0.6,0.1-0.8,0.4s-0.3,0.6-0.3,1.1v1.2c0,0.5,0.1,0.8,0.3,1.1c0.2,0.3,0.5,0.4,0.8,0.4
				s0.6-0.1,0.8-0.4s0.3-0.6,0.3-1.1V38z"/>
			<path class="st2" d="M312.1,39.1c0,0.6-0.1,1.1-0.4,1.4c-0.3,0.3-0.6,0.5-1.1,0.5c-0.5,0-0.8-0.2-1.1-0.5s-0.4-0.8-0.4-1.4v-1
				c0-0.6,0.1-1.1,0.4-1.4c0.3-0.3,0.6-0.5,1.1-0.5s0.8,0.2,1.1,0.5s0.4,0.8,0.4,1.4V39.1z M311.7,38c0-0.5-0.1-0.8-0.3-1.1
				c-0.2-0.3-0.5-0.4-0.8-0.4s-0.6,0.1-0.8,0.4c-0.2,0.3-0.3,0.6-0.3,1.1v1.2c0,0.5,0.1,0.8,0.3,1.1s0.5,0.4,0.8,0.4
				c0.3,0,0.6-0.1,0.8-0.4c0.2-0.3,0.3-0.6,0.3-1.1V38z"/>
			<path class="st2" d="M315.1,39v1.9h-0.4v-4.6h1.6c0.5,0,0.9,0.1,1.1,0.4s0.4,0.6,0.4,1c0,0.4-0.1,0.7-0.4,1
				c-0.3,0.2-0.6,0.4-1.1,0.4H315.1z M315.1,38.6h1.2c0.4,0,0.7-0.1,0.9-0.3c0.2-0.2,0.3-0.4,0.3-0.7c0-0.3-0.1-0.5-0.3-0.7
				c-0.2-0.2-0.5-0.3-0.9-0.3h-1.2V38.6z"/>
			<path class="st2" d="M319.2,36.3l1.7,4.1h0l1.7-4.1h0.5v4.6h-0.4v-2l0-2l0,0l-1.7,4.1h-0.3l-1.7-4l0,0l0,2v2h-0.4v-4.6H319.2z"/>
		</g>
		<line class="st33" x1="189.4" y1="44.5" x2="433.9" y2="44.5"/>
		<g class="st32">
			<path class="st2" d="M285.5,84.9v-0.3h2.5v0.3h-1.1v3.7h-0.4v-3.7H285.5z"/>
			<path class="st2" d="M288.7,88.6v-4.1h0.4v4.1H288.7z"/>
			<path class="st2" d="M294,84.6v4.1h-0.4v-3.1l-1.5,3.1h-0.2l-1.5-3.1v3.1H290v-4.1h0.4L292,88l1.6-3.5H294z"/>
			<path class="st2" d="M297,84.6v0.3h-1.7v1.5h1.5v0.3h-1.5v1.5h1.7v0.3h-2.1v-4.1H297z"/>
			<path class="st2" d="M298.2,86.9v1.7h-0.4v-4.1h1.2c0.5,0,0.8,0.1,1,0.3s0.4,0.5,0.4,0.8c0,0.3-0.1,0.6-0.3,0.8
				c-0.2,0.2-0.5,0.3-0.8,0.4l1.2,1.7h-0.5l-1.1-1.7H298.2z M298.2,84.9v1.7h0.8c0.6,0,1-0.3,1-0.8s-0.3-0.8-1-0.8H298.2z"/>
		</g>
	</g>
	<g>
		<defs>
			<rect id="SVGID_51_" x="189.8" y="200" width="244.5" height="18.6"/>
		</defs>
		<clipPath id="SVGID_52_">
			<use xlink:href="#SVGID_51_"  style="overflow:visible;"/>
		</clipPath>
		<g class="st34">
			<defs>
				<rect id="SVGID_53_" x="189.8" y="31.9" width="244.5" height="186.8"/>
			</defs>
			<clipPath id="SVGID_54_">
				<use xlink:href="#SVGID_53_"  style="overflow:visible;"/>
			</clipPath>
			<rect x="188.5" y="198.7" class="st35" width="247" height="21.1"/>
		</g>
	</g>
	<g>
		<defs>
			<rect id="SVGID_55_" x="189.8" y="31.9" width="244.5" height="186.8"/>
		</defs>
		<clipPath id="SVGID_56_">
			<use xlink:href="#SVGID_55_"  style="overflow:visible;"/>
		</clipPath>
		<circle class="st36" cx="220.4" cy="207.2" r="1.7"/>
		<circle class="st36" cx="220.4" cy="212.2" r="1.7"/>
		<circle class="st36" cx="225.4" cy="207.2" r="1.7"/>
		<circle class="st36" cx="225.4" cy="212.2" r="1.7"/>
		<rect x="276.8" y="205.6" class="st37" width="11.2" height="8.5"/>
		<rect x="278.6" y="207.4" class="st37" width="7.6" height="4.8"/>
		<path class="st37" d="M345.6,212.4h-4.2l-1.7,1.6l-0.2-1.6h-1.3c-0.6,0-1-0.5-1-1v-4.7c0-0.6,0.5-1,1-1h7.4c0.6,0,1,0.5,1,1v4.7
			C346.6,211.9,346.1,212.4,345.6,212.4z"/>
	</g>
	<g>
		<defs>
			<path id="SVGID_57_" d="M342.1,207.5c-0.1,0.1-0.1,0.1-0.2,0.1c-0.1,0-0.2,0-0.2-0.1c-0.1-0.1-0.1-0.1-0.1-0.2
				c0-0.1,0-0.2,0.1-0.2c0.1-0.1,0.1-0.1,0.2-0.1s0.2,0,0.2,0.1s0.1,0.1,0.1,0.2C342.2,207.3,342.1,207.4,342.1,207.5z M341.7,211
				h0.4v-2.6h-0.4V211z"/>
		</defs>
		<clipPath id="SVGID_58_">
			<use xlink:href="#SVGID_57_"  style="overflow:visible;"/>
		</clipPath>
		<g class="st38">
			<defs>
				<rect id="SVGID_59_" x="189.8" y="31.9" width="244.5" height="186.8"/>
			</defs>
			<clipPath id="SVGID_60_">
				<use xlink:href="#SVGID_59_"  style="overflow:visible;"/>
			</clipPath>
			<rect x="340.3" y="205.7" class="st39" width="3.1" height="6.5"/>
		</g>
	</g>
	<g>
		<defs>
			<path id="SVGID_61_" d="M398.9,209.5c0,0.3-0.2,0.5-0.5,0.5s-0.5-0.2-0.5-0.5c0-0.3,0.2-0.5,0.5-0.5S398.9,209.2,398.9,209.5"/>
		</defs>
		<clipPath id="SVGID_62_">
			<use xlink:href="#SVGID_61_"  style="overflow:visible;"/>
		</clipPath>
		<g class="st40">
			<defs>
				<rect id="SVGID_63_" x="189.8" y="31.9" width="244.5" height="186.8"/>
			</defs>
			<clipPath id="SVGID_64_">
				<use xlink:href="#SVGID_63_"  style="overflow:visible;"/>
			</clipPath>
			<rect x="396.6" y="207.7" class="st41" width="3.6" height="3.6"/>
		</g>
	</g>
	<g>
		<defs>
			<path id="SVGID_65_" d="M402.4,209.5c0,0.3-0.2,0.5-0.5,0.5s-0.5-0.2-0.5-0.5c0-0.3,0.2-0.5,0.5-0.5S402.4,209.2,402.4,209.5"/>
		</defs>
		<clipPath id="SVGID_66_">
			<use xlink:href="#SVGID_65_"  style="overflow:visible;"/>
		</clipPath>
		<g class="st42">
			<defs>
				<rect id="SVGID_67_" x="189.8" y="31.9" width="244.5" height="186.8"/>
			</defs>
			<clipPath id="SVGID_68_">
				<use xlink:href="#SVGID_67_"  style="overflow:visible;"/>
			</clipPath>
			<rect x="400" y="207.7" class="st43" width="3.6" height="3.6"/>
		</g>
	</g>
	<g>
		<defs>
			<path id="SVGID_69_" d="M405.8,209.5c0,0.3-0.2,0.5-0.5,0.5s-0.5-0.2-0.5-0.5c0-0.3,0.2-0.5,0.5-0.5S405.8,209.2,405.8,209.5"/>
		</defs>
		<clipPath id="SVGID_70_">
			<use xlink:href="#SVGID_69_"  style="overflow:visible;"/>
		</clipPath>
		<g class="st44">
			<defs>
				<rect id="SVGID_71_" x="189.8" y="31.9" width="244.5" height="186.8"/>
			</defs>
			<clipPath id="SVGID_72_">
				<use xlink:href="#SVGID_71_"  style="overflow:visible;"/>
			</clipPath>
			<rect x="403.5" y="207.7" class="st45" width="3.6" height="3.6"/>
		</g>
	</g>
	<g>
		<defs>
			<rect id="SVGID_73_" x="189.8" y="31.9" width="244.5" height="186.8"/>
		</defs>
		<clipPath id="SVGID_74_">
			<use xlink:href="#SVGID_73_"  style="overflow:visible;"/>
		</clipPath>
		<g class="st46">
			<path class="st2" d="M269.3,130.9c0,1.4-0.3,2.5-0.9,3.3c-0.6,0.8-1.5,1.1-2.5,1.1c-1.1,0-1.9-0.4-2.5-1.1
				c-0.6-0.8-0.9-1.8-0.9-3.3v-2.4c0-1.4,0.3-2.5,0.9-3.3s1.5-1.1,2.5-1.1s1.9,0.4,2.6,1.1s0.9,1.9,0.9,3.3V130.9z M268.4,128.3
				c0-1.1-0.2-2-0.7-2.6c-0.4-0.6-1.1-0.9-1.9-0.9s-1.5,0.3-1.9,0.9s-0.7,1.5-0.7,2.6v2.7c0,1.1,0.2,2,0.7,2.6
				c0.4,0.6,1.1,0.9,1.9,0.9c0.8,0,1.5-0.3,1.9-0.9c0.4-0.6,0.7-1.5,0.7-2.6V128.3z"/>
		</g>
		<g class="st46">
			<path class="st2" d="M278.5,135.1h-0.9v-3h-3.3v3h-0.9v-6.8h0.9v3.1h3.3v-3.1h0.9V135.1z"/>
			<path class="st2" d="M281.1,132.2v2.9h-0.9v-6.7h2.4c0.7,0,1.3,0.2,1.7,0.5c0.4,0.3,0.6,0.8,0.6,1.4c0,0.3-0.1,0.6-0.3,0.9
				s-0.4,0.5-0.8,0.6c0.4,0.1,0.6,0.3,0.8,0.6s0.2,0.6,0.2,1v0.6c0,0.2,0,0.4,0.1,0.6s0.1,0.3,0.2,0.4v0.1h-0.9
				c-0.1-0.1-0.2-0.3-0.2-0.5c0-0.2-0.1-0.4-0.1-0.6v-0.6c0-0.4-0.1-0.7-0.3-0.9s-0.5-0.3-0.9-0.3H281.1z M281.1,131.5h1.4
				c0.5,0,0.9-0.1,1.1-0.3c0.2-0.2,0.3-0.5,0.3-0.9c0-0.4-0.1-0.7-0.3-0.9c-0.2-0.2-0.6-0.3-1-0.3h-1.5V131.5z"/>
		</g>
		<g class="st46">
			<path class="st2" d="M302.9,130.9c0,1.4-0.3,2.5-0.9,3.3c-0.6,0.8-1.5,1.1-2.5,1.1c-1.1,0-1.9-0.4-2.5-1.1
				c-0.6-0.8-0.9-1.8-0.9-3.3v-2.4c0-1.4,0.3-2.5,0.9-3.3s1.5-1.1,2.5-1.1s1.9,0.4,2.6,1.1s0.9,1.9,0.9,3.3V130.9z M302,128.3
				c0-1.1-0.2-2-0.7-2.6c-0.4-0.6-1.1-0.9-1.9-0.9s-1.5,0.3-1.9,0.9s-0.7,1.5-0.7,2.6v2.7c0,1.1,0.2,2,0.7,2.6
				c0.4,0.6,1.1,0.9,1.9,0.9c0.8,0,1.5-0.3,1.9-0.9c0.4-0.6,0.7-1.5,0.7-2.6V128.3z"/>
		</g>
		<g class="st46">
			<path class="st2" d="M308.2,128.4l2.2,5.5h0l2.2-5.5h1.2v6.8h-0.9v-2.7l0.1-2.7l0,0l-2.2,5.4h-0.6l-2.2-5.4l0,0l0.1,2.7v2.7H307
				v-6.8H308.2z"/>
			<path class="st2" d="M316.3,135.1h-0.9v-6.8h0.9V135.1z"/>
			<path class="st2" d="M323.2,135.1h-0.9l-3.3-5.2l0,0v5.2h-0.9v-6.8h0.9l3.2,5.2l0,0v-5.2h0.9V135.1z"/>
		</g>
		<g class="st46">
			<path class="st47" d="M266.8,155.7h-0.9v-10l-2.8,0.3v-0.6l3.7-0.7V155.7z"/>
		</g>
		<g class="st46">
			<path class="st47" d="M302,155.7h-0.9v-10l-2.8,0.3v-0.6l3.7-0.7V155.7z"/>
		</g>
	</g>
	<g>
		<defs>
			<rect id="SVGID_75_" x="256" y="119.6" width="73" height="20.2"/>
		</defs>
		<clipPath id="SVGID_76_">
			<use xlink:href="#SVGID_75_"  style="overflow:visible;"/>
		</clipPath>
		<g class="st48">
			<defs>
				<rect id="SVGID_77_" x="189.8" y="31.9" width="244.5" height="186.8"/>
			</defs>
			<clipPath id="SVGID_78_">
				<use xlink:href="#SVGID_77_"  style="overflow:visible;"/>
			</clipPath>
			<rect x="256" y="119.6" class="st49" width="73" height="20.2"/>
		</g>
	</g>
	<g>
		<defs>
			<circle id="SVGID_79_" cx="220" cy="129.4" r="16.2"/>
		</defs>
		<clipPath id="SVGID_80_">
			<use xlink:href="#SVGID_79_"  style="overflow:visible;"/>
		</clipPath>
		<g class="st50">
			<defs>
				<rect id="SVGID_81_" x="189.8" y="31.9" width="244.5" height="186.8"/>
			</defs>
			<clipPath id="SVGID_82_">
				<use xlink:href="#SVGID_81_"  style="overflow:visible;"/>
			</clipPath>
			<rect x="202.5" y="111.9" class="st51" width="35" height="35"/>
		</g>
	</g>
	<g>
		<defs>
			<rect id="SVGID_83_" x="189.8" y="31.9" width="244.5" height="186.8"/>
		</defs>
		<clipPath id="SVGID_84_">
			<use xlink:href="#SVGID_83_"  style="overflow:visible;"/>
		</clipPath>
		<g class="st52">
			<path class="st53" d="M209.6,124.7l1.3,3.4h0l1.3-3.4h0.7v4.2h-0.6v-1.7l0.1-1.7l0,0l-1.4,3.4h-0.4l-1.3-3.3l0,0l0.1,1.7v1.7
				h-0.6v-4.2H209.6z"/>
			<path class="st53" d="M216.6,127h-1.9v1.5h2.2v0.4h-2.8v-4.2h2.7v0.4h-2.2v1.4h1.9V127z"/>
			<path class="st53" d="M217.5,128.9v-4.2h1.3c0.5,0,1,0.2,1.3,0.5c0.3,0.3,0.5,0.8,0.5,1.3v0.6c0,0.5-0.2,1-0.5,1.3
				c-0.3,0.3-0.8,0.5-1.3,0.5H217.5z M218.1,125.2v3.3h0.7c0.4,0,0.7-0.1,0.9-0.4c0.2-0.3,0.3-0.6,0.3-1v-0.6c0-0.4-0.1-0.7-0.3-1
				c-0.2-0.3-0.5-0.4-0.9-0.4H218.1z"/>
			<path class="st53" d="M222,128.9h-0.6v-4.2h0.6V128.9z"/>
			<path class="st53" d="M226.1,124.7v2.8c0,0.5-0.1,0.8-0.4,1c-0.3,0.2-0.7,0.4-1.2,0.4c-0.5,0-0.8-0.1-1.1-0.4
				c-0.3-0.2-0.4-0.6-0.4-1v-2.8h0.6v2.8c0,0.3,0.1,0.6,0.3,0.7c0.2,0.2,0.4,0.2,0.7,0.2c0.3,0,0.6-0.1,0.8-0.2
				c0.2-0.2,0.3-0.4,0.3-0.7v-2.8H226.1z"/>
			<path class="st53" d="M227.7,124.7l1.3,3.4h0l1.3-3.4h0.7v4.2h-0.6v-1.7l0.1-1.7l0,0l-1.4,3.4h-0.4l-1.3-3.3l0,0l0.1,1.7v1.7H227
				v-4.2H227.7z"/>
		</g>
		<g class="st52">
			<path class="st53" d="M216.7,136.6h-0.6v-1.8h-2v1.8h-0.6v-4.2h0.6v1.9h2v-1.9h0.6V136.6z"/>
			<path class="st53" d="M218.3,136.6h-0.6v-4.2h0.6V136.6z"/>
			<path class="st53" d="M222.4,136.1c-0.1,0.2-0.3,0.3-0.5,0.4s-0.6,0.2-1,0.2c-0.5,0-0.9-0.2-1.2-0.5s-0.5-0.7-0.5-1.2v-0.9
				c0-0.5,0.2-0.9,0.5-1.2s0.7-0.5,1.2-0.5c0.5,0,0.9,0.1,1.1,0.4s0.4,0.5,0.4,0.9l0,0h-0.5c0-0.2-0.1-0.4-0.3-0.6
				c-0.2-0.2-0.4-0.2-0.7-0.2c-0.3,0-0.6,0.1-0.8,0.4c-0.2,0.2-0.3,0.5-0.3,0.9v0.9c0,0.4,0.1,0.7,0.3,0.9c0.2,0.2,0.5,0.4,0.8,0.4
				c0.2,0,0.4,0,0.6-0.1c0.2-0.1,0.3-0.1,0.3-0.2V135h-0.9v-0.4h1.5V136.1z"/>
			<path class="st53" d="M226.5,136.6H226v-1.8h-2v1.8h-0.6v-4.2h0.6v1.9h2v-1.9h0.6V136.6z"/>
		</g>
		<line class="st54" x1="241.7" y1="129.5" x2="251.4" y2="129.5"/>
		<line class="st54" x1="334.2" y1="129.5" x2="343.9" y2="129.5"/>
		<g class="st52">
			<path class="st2" d="M377.8,88.6l-0.3-0.9h-1.9l-0.3,0.9h-0.4l1.5-4.1h0.4l1.5,4.1H377.8z M375.7,87.4h1.7l-0.8-2.3L375.7,87.4z"
				/>
			<path class="st2" d="M379.4,88.1c-0.4-0.4-0.6-0.9-0.6-1.5s0.2-1.1,0.6-1.5c0.4-0.4,0.9-0.6,1.5-0.6c0.4,0,0.8,0.1,1.1,0.3
				c0.3,0.2,0.6,0.5,0.7,0.8h-0.5c-0.1-0.2-0.3-0.4-0.5-0.6c-0.2-0.1-0.5-0.2-0.8-0.2c-0.5,0-0.9,0.2-1.2,0.5
				c-0.3,0.3-0.5,0.7-0.5,1.2s0.2,0.9,0.5,1.2c0.3,0.3,0.7,0.5,1.2,0.5c0.3,0,0.6-0.1,0.8-0.2c0.2-0.1,0.4-0.3,0.5-0.6h0.5
				c-0.2,0.4-0.4,0.6-0.7,0.8c-0.3,0.2-0.7,0.3-1.1,0.3C380.2,88.7,379.8,88.5,379.4,88.1z"/>
			<path class="st2" d="M383.4,84.9v-0.3h2.5v0.3h-1.1v3.7h-0.4v-3.7H383.4z"/>
			<path class="st2" d="M386.7,88.6v-4.1h0.4v4.1H386.7z"/>
			<path class="st2" d="M388.3,88.1c-0.4-0.4-0.6-0.9-0.6-1.5s0.2-1.1,0.6-1.5c0.4-0.4,0.9-0.6,1.5-0.6s1.1,0.2,1.5,0.6
				c0.4,0.4,0.6,0.9,0.6,1.5s-0.2,1.1-0.6,1.5c-0.4,0.4-0.9,0.6-1.5,0.6S388.7,88.5,388.3,88.1z M391,87.9c0.3-0.3,0.5-0.7,0.5-1.2
				s-0.2-0.9-0.5-1.2c-0.3-0.3-0.7-0.5-1.2-0.5c-0.5,0-0.9,0.2-1.2,0.5c-0.3,0.3-0.5,0.7-0.5,1.2s0.2,0.9,0.5,1.2
				c0.3,0.3,0.7,0.5,1.2,0.5S390.7,88.2,391,87.9z"/>
			<path class="st2" d="M395.2,84.6h0.4v4.1h-0.4l-2.3-3.4v3.4h-0.4v-4.1h0.4l2.3,3.4V84.6z"/>
		</g>
		<g class="st52">
			<path class="st2" d="M380.3,130.6c0,1.4-0.4,2.6-1.2,3.4c-0.8,0.9-1.8,1.3-3.1,1.3c-1.3,0-2.3-0.4-3.1-1.3s-1.1-2-1.1-3.4v-1.8
				c0-1.4,0.4-2.5,1.1-3.4c0.8-0.9,1.8-1.3,3.1-1.3c1.3,0,2.3,0.4,3.1,1.3c0.8,0.9,1.2,2,1.2,3.4V130.6z M379.4,128.8
				c0-1.2-0.3-2.1-0.9-2.9c-0.6-0.7-1.4-1.1-2.5-1.1c-1,0-1.9,0.4-2.4,1.1s-0.9,1.7-0.9,2.9v1.8c0,1.2,0.3,2.2,0.9,2.9
				c0.6,0.7,1.4,1.1,2.4,1.1c1.1,0,1.9-0.4,2.5-1.1c0.6-0.7,0.9-1.7,0.9-2.9V128.8z"/>
			<path class="st2" d="M388.9,130h-5.3v5.1h-0.9v-10.9h7v0.8h-6.1v4.3h5.3V130z"/>
			<path class="st2" d="M397.7,130h-5.3v5.1h-0.9v-10.9h7v0.8h-6.1v4.3h5.3V130z"/>
		</g>
		<g class="st52">
			<path class="st47" d="M363.1,153c0-0.6-0.2-1.1-0.7-1.5c-0.4-0.4-1.2-0.7-2.3-1c-1.2-0.3-2.1-0.7-2.7-1.2
				c-0.6-0.5-0.9-1.1-0.9-1.9c0-0.8,0.3-1.5,1-2c0.7-0.5,1.6-0.8,2.7-0.8c1.1,0,2,0.3,2.7,0.9c0.7,0.6,1,1.4,1,2.3l0,0H363
				c0-0.7-0.3-1.3-0.8-1.8c-0.5-0.5-1.2-0.7-2.1-0.7c-0.9,0-1.6,0.2-2.1,0.6c-0.5,0.4-0.7,0.9-0.7,1.5c0,0.6,0.2,1,0.7,1.4
				c0.5,0.4,1.2,0.7,2.4,1c1.2,0.3,2.1,0.7,2.7,1.2c0.6,0.5,0.9,1.2,0.9,2c0,0.9-0.4,1.6-1.1,2.1s-1.6,0.8-2.7,0.8
				c-1.1,0-2-0.3-2.9-0.8c-0.8-0.5-1.2-1.3-1.2-2.4l0,0h0.8c0,0.8,0.3,1.5,1,1.9c0.6,0.4,1.4,0.6,2.2,0.6c0.9,0,1.6-0.2,2.1-0.6
				S363.1,153.6,363.1,153z"/>
			<path class="st47" d="M367.2,155.6h-0.9v-10.9h0.9V155.6z"/>
			<path class="st47" d="M371.4,144.7l4,9.6h0l4-9.6h1.2v10.9h-0.9v-4.8l0.1-4.8l0,0l-4.1,9.6h-0.6l-4.1-9.6l0,0l0.1,4.7v4.8h-0.9
				v-10.9H371.4z"/>
			<path class="st47" d="M384.7,144.7l4,9.6h0l4-9.6h1.2v10.9h-0.9v-4.8l0.1-4.8l0,0l-4.1,9.6h-0.6l-4.1-9.6l0,0l0.1,4.7v4.8h-0.9
				v-10.9H384.7z"/>
			<path class="st47" d="M403,150.3h-5.3v4.5h6v0.8h-6.9v-10.9h6.9v0.8h-6v4.1h5.3V150.3z"/>
			<path class="st47" d="M406.6,150.7v4.9h-0.9v-10.9h3.7c1.2,0,2.1,0.3,2.7,0.8c0.6,0.5,0.9,1.3,0.9,2.2c0,0.6-0.2,1.1-0.5,1.6
				s-0.8,0.8-1.4,1c0.7,0.2,1.2,0.5,1.5,0.9c0.3,0.4,0.4,1,0.4,1.6v1c0,0.3,0,0.6,0.1,0.9c0.1,0.3,0.2,0.5,0.4,0.7v0.2h-0.9
				c-0.2-0.2-0.3-0.4-0.4-0.8c-0.1-0.3-0.1-0.7-0.1-1v-1c0-0.7-0.2-1.2-0.7-1.6c-0.4-0.4-1-0.6-1.8-0.6H406.6z M406.6,149.9h2.7
				c1,0,1.7-0.2,2.2-0.6c0.5-0.4,0.7-0.9,0.7-1.6c0-0.7-0.2-1.3-0.7-1.7c-0.5-0.4-1.1-0.6-2.1-0.6h-2.8V149.9z"/>
		</g>
		<g class="st52">
			<path class="st47" d="M369.6,110.6h-5l-1.1,3h-0.9l4.2-10.9h0.8l4.1,10.9h-0.9L369.6,110.6z M364.9,109.8h4.4l-2.2-5.9h0
				L364.9,109.8z"/>
			<path class="st47" d="M374.3,112.9h5.4v0.8h-6.3v-10.9h0.9V112.9z"/>
			<path class="st47" d="M387.6,108.3h-5.3v4.5h6v0.8h-6.9v-10.9h6.9v0.8h-6v4.1h5.3V108.3z"/>
			<path class="st47" d="M391.2,108.7v4.9h-0.9v-10.9h3.7c1.2,0,2.1,0.3,2.7,0.8c0.6,0.5,0.9,1.3,0.9,2.2c0,0.6-0.2,1.1-0.5,1.6
				c-0.3,0.5-0.8,0.8-1.4,1c0.7,0.2,1.2,0.5,1.5,0.9c0.3,0.4,0.4,1,0.4,1.6v1c0,0.3,0,0.6,0.1,0.9s0.2,0.5,0.4,0.7v0.2h-0.9
				c-0.2-0.2-0.3-0.4-0.4-0.8c-0.1-0.3-0.1-0.7-0.1-1v-1c0-0.7-0.2-1.2-0.6-1.6c-0.4-0.4-1-0.6-1.8-0.6H391.2z M391.2,107.9h2.7
				c1,0,1.7-0.2,2.2-0.6s0.7-0.9,0.7-1.6c0-0.7-0.2-1.3-0.7-1.7c-0.5-0.4-1.1-0.6-2.1-0.6h-2.8V107.9z"/>
			<path class="st47" d="M407.2,103.5h-3.8v10.2h-0.9v-10.2h-3.8v-0.8h8.4V103.5z"/>
		</g>
	</g>
	<g>
		<defs>
			<rect id="SVGID_85_" x="348.3" y="119.4" width="73" height="20.2"/>
		</defs>
		<clipPath id="SVGID_86_">
			<use xlink:href="#SVGID_85_"  style="overflow:visible;"/>
		</clipPath>
		<g class="st55">
			<defs>
				<rect id="SVGID_87_" x="189.8" y="31.9" width="244.5" height="186.8"/>
			</defs>
			<clipPath id="SVGID_88_">
				<use xlink:href="#SVGID_87_"  style="overflow:visible;"/>
			</clipPath>
			<rect x="348.3" y="119.4" class="st56" width="73" height="20.2"/>
		</g>
	</g>
	<g>
		<defs>
			<rect id="SVGID_89_" x="189.8" y="31.9" width="244.5" height="186.8"/>
		</defs>
		<clipPath id="SVGID_90_">
			<use xlink:href="#SVGID_89_"  style="overflow:visible;"/>
		</clipPath>
		<circle class="st57" cx="208.7" cy="63.5" r="4.9"/>
	</g>
	<g>
		<defs>
			<circle id="SVGID_91_" cx="217.2" cy="71" r="4.9"/>
		</defs>
		<clipPath id="SVGID_92_">
			<use xlink:href="#SVGID_91_"  style="overflow:visible;"/>
		</clipPath>
		<g class="st58">
			<defs>
				<rect id="SVGID_93_" x="189.8" y="31.9" width="244.5" height="186.8"/>
			</defs>
			<clipPath id="SVGID_94_">
				<use xlink:href="#SVGID_93_"  style="overflow:visible;"/>
			</clipPath>
			<rect x="211" y="64.9" class="st59" width="12.2" height="12.2"/>
		</g>
	</g>
	<g>
		<defs>
			<rect id="SVGID_95_" x="189.8" y="31.9" width="244.5" height="186.8"/>
		</defs>
		<clipPath id="SVGID_96_">
			<use xlink:href="#SVGID_95_"  style="overflow:visible;"/>
		</clipPath>
		<circle class="st60" cx="217.2" cy="71" r="4.9"/>
		<circle class="st60" cx="219.8" cy="61.9" r="3.2"/>
		<circle class="st60" cx="206" cy="72.6" r="3.2"/>
	</g>
	<g>
		<defs>
			<rect id="SVGID_97_" x="362" y="172.4" width="59.2" height="13.5"/>
		</defs>
		<clipPath id="SVGID_98_">
			<use xlink:href="#SVGID_97_"  style="overflow:visible;"/>
		</clipPath>
		<g class="st61">
			<defs>
				<rect id="SVGID_99_" x="189.8" y="31.9" width="244.5" height="186.8"/>
			</defs>
			<clipPath id="SVGID_100_">
				<use xlink:href="#SVGID_99_"  style="overflow:visible;"/>
			</clipPath>
			<rect x="362" y="172.4" class="st62" width="59.2" height="13.5"/>
		</g>
	</g>
	<g>
		<defs>
			<rect id="SVGID_101_" x="296" y="172.4" width="59.2" height="13.5"/>
		</defs>
		<clipPath id="SVGID_102_">
			<use xlink:href="#SVGID_101_"  style="overflow:visible;"/>
		</clipPath>
		<g class="st63">
			<defs>
				<rect id="SVGID_103_" x="189.8" y="31.9" width="244.5" height="186.8"/>
			</defs>
			<clipPath id="SVGID_104_">
				<use xlink:href="#SVGID_103_"  style="overflow:visible;"/>
			</clipPath>
			<rect x="296" y="172.4" class="st64" width="59.2" height="13.5"/>
		</g>
	</g>
	<g>
		<defs>
			<rect id="SVGID_105_" x="189.8" y="31.9" width="244.5" height="186.8"/>
		</defs>
		<clipPath id="SVGID_106_">
			<use xlink:href="#SVGID_105_"  style="overflow:visible;"/>
		</clipPath>
		<g class="st65">
			<path class="st2" d="M380.7,180.1L380.7,180.1c0,0.4-0.2,0.8-0.4,1s-0.6,0.4-1.1,0.4c-0.5,0-0.8-0.2-1.1-0.5
				c-0.3-0.3-0.4-0.8-0.4-1.3V179c0-0.5,0.1-1,0.4-1.3c0.3-0.3,0.7-0.5,1.1-0.5c0.4,0,0.8,0.1,1.1,0.4s0.4,0.6,0.4,1l0,0h-0.3
				c0-0.3-0.2-0.6-0.4-0.8s-0.5-0.3-0.8-0.3c-0.4,0-0.7,0.1-0.9,0.4c-0.2,0.3-0.3,0.6-0.3,1.1v0.7c0,0.4,0.1,0.8,0.3,1.1
				c0.2,0.3,0.5,0.4,0.9,0.4c0.4,0,0.6-0.1,0.8-0.3c0.2-0.2,0.3-0.4,0.4-0.8H380.7z"/>
			<path class="st2" d="M384.6,179.6c0,0.5-0.1,1-0.4,1.3c-0.3,0.3-0.7,0.5-1.2,0.5c-0.5,0-0.9-0.2-1.2-0.5
				c-0.3-0.3-0.4-0.8-0.4-1.3V179c0-0.5,0.1-1,0.4-1.3c0.3-0.3,0.7-0.5,1.2-0.5c0.5,0,0.9,0.2,1.2,0.5c0.3,0.3,0.4,0.8,0.4,1.3
				V179.6z M384.2,179c0-0.5-0.1-0.8-0.3-1.1c-0.2-0.3-0.5-0.4-1-0.4c-0.4,0-0.7,0.1-0.9,0.4c-0.2,0.3-0.3,0.6-0.3,1.1v0.7
				c0,0.5,0.1,0.8,0.3,1.1c0.2,0.3,0.5,0.4,0.9,0.4c0.4,0,0.7-0.1,1-0.4c0.2-0.3,0.3-0.6,0.3-1.1V179z"/>
			<path class="st2" d="M388.6,181.4h-0.3l-2.4-3.6l0,0v3.6h-0.3v-4.2h0.3l2.4,3.6l0,0v-3.6h0.3V181.4z"/>
			<path class="st2" d="M392.4,177.5h-1.4v3.9h-0.3v-3.9h-1.4v-0.3h3.2V177.5z"/>
			<path class="st2" d="M393.5,181.4h-0.3v-4.2h0.3V181.4z"/>
			<path class="st2" d="M397.7,181.4h-0.3l-2.4-3.6l0,0v3.6h-0.3v-4.2h0.3l2.4,3.6l0,0v-3.6h0.3V181.4z"/>
			<path class="st2" d="M401.7,177.2v2.8c0,0.5-0.1,0.8-0.4,1c-0.3,0.2-0.6,0.4-1.1,0.4c-0.4,0-0.8-0.1-1.1-0.4s-0.4-0.6-0.4-1v-2.8
				h0.3v2.8c0,0.4,0.1,0.6,0.3,0.8c0.2,0.2,0.5,0.3,0.8,0.3c0.3,0,0.6-0.1,0.8-0.3c0.2-0.2,0.3-0.5,0.3-0.8v-2.8H401.7z"/>
			<path class="st2" d="M405.1,179.4h-2v1.7h2.3v0.3h-2.6v-4.2h2.6v0.3h-2.3v1.6h2V179.4z"/>
		</g>
		<g class="st65">
			<path class="st2" d="M318,180.1L318,180.1c0,0.4-0.2,0.8-0.4,1s-0.6,0.4-1.1,0.4c-0.5,0-0.8-0.2-1.1-0.5
				c-0.3-0.3-0.4-0.8-0.4-1.3V179c0-0.5,0.1-1,0.4-1.3c0.3-0.3,0.7-0.5,1.1-0.5c0.4,0,0.8,0.1,1.1,0.4s0.4,0.6,0.4,1l0,0h-0.3
				c0-0.3-0.2-0.6-0.4-0.8s-0.5-0.3-0.8-0.3c-0.4,0-0.7,0.1-0.9,0.4c-0.2,0.3-0.3,0.6-0.3,1.1v0.7c0,0.4,0.1,0.8,0.3,1.1
				c0.2,0.3,0.5,0.4,0.9,0.4c0.4,0,0.6-0.1,0.8-0.3c0.2-0.2,0.3-0.4,0.4-0.8H318z"/>
			<path class="st2" d="M321.2,180.2h-1.9l-0.4,1.2h-0.4l1.6-4.2h0.3l1.6,4.2h-0.4L321.2,180.2z M319.4,179.9h1.7l-0.8-2.3h0
				L319.4,179.9z"/>
			<path class="st2" d="M325.7,181.4h-0.3l-2.4-3.6l0,0v3.6h-0.3v-4.2h0.3l2.4,3.6l0,0v-3.6h0.3V181.4z"/>
			<path class="st2" d="M329.6,180.1L329.6,180.1c0,0.4-0.2,0.8-0.4,1s-0.6,0.4-1.1,0.4c-0.5,0-0.8-0.2-1.1-0.5s-0.4-0.8-0.4-1.3
				V179c0-0.5,0.1-1,0.4-1.3c0.3-0.3,0.7-0.5,1.1-0.5c0.4,0,0.8,0.1,1.1,0.4s0.4,0.6,0.4,1l0,0h-0.3c0-0.3-0.2-0.6-0.4-0.8
				c-0.2-0.2-0.5-0.3-0.8-0.3c-0.4,0-0.7,0.1-0.9,0.4c-0.2,0.3-0.3,0.6-0.3,1.1v0.7c0,0.4,0.1,0.8,0.3,1.1c0.2,0.3,0.5,0.4,0.9,0.4
				c0.4,0,0.6-0.1,0.8-0.3c0.2-0.2,0.3-0.4,0.4-0.8H329.6z"/>
			<path class="st2" d="M332.9,179.4h-2v1.7h2.3v0.3h-2.6v-4.2h2.6v0.3h-2.3v1.6h2V179.4z"/>
			<path class="st2" d="M334.3,181.1h2.1v0.3h-2.4v-4.2h0.3V181.1z"/>
		</g>
		<polyline class="st66" points="414,176.9 417.5,179.3 414,181.6 		"/>
	</g>
</g>
</svg>
