<?xml version="1.0" encoding="utf-8"?>
<!-- Generator: Adobe Illustrator 19.2.1, SVG Export Plug-In . SVG Version: 6.00 Build 0)  -->
<svg version="1.1" id="Layer_1" xmlns="http://www.w3.org/2000/svg" xmlns:xlink="http://www.w3.org/1999/xlink" x="0px" y="0px"
	 viewBox="0 0 435.5 219.8" style="enable-background:new 0 0 435.5 219.8;" xml:space="preserve">
<style type="text/css">
	.st0{clip-path:url(#SVGID_2_);fill:none;stroke:#010101;stroke-width:0.3125;stroke-miterlimit:10;}
	.st1{clip-path:url(#SVGID_2_);}
	.st2{fill:#010101;}
	.st3{clip-path:url(#SVGID_4_);fill:none;stroke:#231F20;stroke-width:0.25;stroke-miterlimit:10;}
	.st4{clip-path:url(#SVGID_4_);}
	.st5{clip-path:url(#SVGID_4_);fill:none;stroke:#979797;stroke-width:0.25;stroke-linecap:square;stroke-miterlimit:10;}
	.st6{clip-path:url(#SVGID_6_);}
	.st7{clip-path:url(#SVGID_8_);fill:none;stroke:#010101;stroke-width:0.5;stroke-miterlimit:10;}
	.st8{clip-path:url(#SVGID_10_);fill:none;stroke:#979797;stroke-width:0.25;stroke-linecap:square;stroke-miterlimit:10;}
	.st9{clip-path:url(#SVGID_12_);}
	.st10{clip-path:url(#SVGID_14_);fill:none;stroke:#010101;stroke-width:0.5;stroke-miterlimit:10;}
	.st11{clip-path:url(#SVGID_16_);fill:none;stroke:#979797;stroke-width:0.25;stroke-linecap:square;stroke-miterlimit:10;}
	.st12{clip-path:url(#SVGID_18_);}
	.st13{clip-path:url(#SVGID_20_);fill:none;stroke:#010101;stroke-width:0.5;stroke-miterlimit:10;}
	.st14{clip-path:url(#SVGID_22_);fill:none;stroke:#979797;stroke-width:0.25;stroke-linecap:square;stroke-miterlimit:10;}
	.st15{clip-path:url(#SVGID_24_);}
	.st16{clip-path:url(#SVGID_26_);fill:none;stroke:#010101;stroke-width:0.5;stroke-miterlimit:10;}
	.st17{clip-path:url(#SVGID_28_);fill:none;stroke:#979797;stroke-width:0.25;stroke-linecap:square;stroke-miterlimit:10;}
	.st18{clip-path:url(#SVGID_30_);}
	.st19{clip-path:url(#SVGID_32_);fill:none;stroke:#010101;stroke-width:0.5;stroke-miterlimit:10;}
	.st20{clip-path:url(#SVGID_34_);fill:none;stroke:#979797;stroke-width:0.25;stroke-linecap:square;stroke-miterlimit:10;}
	.st21{clip-path:url(#SVGID_36_);}
	.st22{clip-path:url(#SVGID_38_);fill:#040505;}
	
		.st23{clip-path:url(#SVGID_40_);fill:none;stroke:#558DCA;stroke-width:0.375;stroke-linecap:round;stroke-linejoin:round;stroke-miterlimit:10;}
	
		.st24{clip-path:url(#SVGID_40_);fill:none;stroke:#FFFFFF;stroke-width:0.375;stroke-linecap:round;stroke-linejoin:round;stroke-miterlimit:10;}
	.st25{clip-path:url(#SVGID_42_);}
	.st26{clip-path:url(#SVGID_44_);fill:#FFFFFF;}
	.st27{clip-path:url(#SVGID_46_);}
	.st28{clip-path:url(#SVGID_48_);fill:#FFFFFF;}
	.st29{clip-path:url(#SVGID_50_);}
	.st30{clip-path:url(#SVGID_52_);fill:#FFFFFF;}
	.st31{clip-path:url(#SVGID_54_);}
	.st32{clip-path:url(#SVGID_56_);fill:#FFFFFF;}
	.st33{clip-path:url(#SVGID_58_);fill:none;stroke:#010101;stroke-width:0.3125;stroke-miterlimit:10;}
	.st34{clip-path:url(#SVGID_60_);}
	.st35{clip-path:url(#SVGID_62_);fill:#010101;}
	.st36{fill:#FFFFFF;stroke:#4B4B4B;stroke-width:0.75;stroke-miterlimit:10;}
	.st37{clip-path:url(#SVGID_64_);}
	.st38{clip-path:url(#SVGID_66_);enable-background:new    ;}
	.st39{clip-path:url(#SVGID_68_);}
	.st40{clip-path:url(#SVGID_70_);}
	.st41{clip-path:url(#SVGID_72_);fill:#FFFFFF;}
	.st42{clip-path:url(#SVGID_74_);fill:none;stroke:#010101;stroke-width:0.25;stroke-miterlimit:10;}
	.st43{clip-path:url(#SVGID_76_);}
	.st44{clip-path:url(#SVGID_78_);enable-background:new    ;}
	.st45{clip-path:url(#SVGID_80_);}
	.st46{clip-path:url(#SVGID_82_);}
	.st47{clip-path:url(#SVGID_84_);fill:#010101;}
	.st48{clip-path:url(#SVGID_86_);}
	.st49{clip-path:url(#SVGID_86_);fill:none;stroke:#979797;stroke-width:0.25;stroke-linecap:square;stroke-miterlimit:10;}
	.st50{clip-path:url(#SVGID_88_);}
	.st51{clip-path:url(#SVGID_90_);fill:none;stroke:#010101;stroke-width:0.5;stroke-miterlimit:10;}
	.st52{clip-path:url(#SVGID_92_);fill:none;stroke:#979797;stroke-width:0.25;stroke-linecap:square;stroke-miterlimit:10;}
	.st53{clip-path:url(#SVGID_94_);}
	.st54{clip-path:url(#SVGID_96_);fill:#040505;}
	
		.st55{clip-path:url(#SVGID_98_);fill:none;stroke:#558DCA;stroke-width:0.375;stroke-linecap:round;stroke-linejoin:round;stroke-miterlimit:10;}
	
		.st56{clip-path:url(#SVGID_98_);fill:none;stroke:#FFFFFF;stroke-width:0.375;stroke-linecap:round;stroke-linejoin:round;stroke-miterlimit:10;}
	.st57{clip-path:url(#SVGID_100_);}
	.st58{clip-path:url(#SVGID_102_);fill:#FFFFFF;}
	.st59{clip-path:url(#SVGID_104_);}
	.st60{clip-path:url(#SVGID_106_);fill:#FFFFFF;}
	.st61{clip-path:url(#SVGID_108_);}
	.st62{clip-path:url(#SVGID_110_);fill:#FFFFFF;}
	.st63{clip-path:url(#SVGID_112_);}
	.st64{clip-path:url(#SVGID_114_);fill:#FFFFFF;}
	.st65{clip-path:url(#SVGID_116_);}
</style>
<g>
	<defs>
		<rect id="SVGID_1_" x="1.2" y="2.3" width="244.5" height="186.8"/>
	</defs>
	<use xlink:href="#SVGID_1_"  style="overflow:visible;fill:#FFFFFF;"/>
	<clipPath id="SVGID_2_">
		<use xlink:href="#SVGID_1_"  style="overflow:visible;"/>
	</clipPath>
	<circle class="st0" cx="28.5" cy="41.4" r="4.9"/>
	<circle class="st0" cx="31.1" cy="32.3" r="3.2"/>
	<circle class="st0" cx="17.4" cy="43.1" r="3.2"/>
	<g class="st1">
		<path class="st2" d="M23.3,120.3c-0.3,0-0.6,0.1-0.8,0.2c-0.2,0.2-0.3,0.4-0.3,0.7s0.1,0.6,0.4,0.7c0.2,0.2,0.5,0.3,0.9,0.4
			c0.3,0.1,0.7,0.2,1,0.3c0.3,0.1,0.6,0.3,0.9,0.5c0.2,0.3,0.4,0.6,0.4,1.1c0,0.5-0.2,0.9-0.6,1.3s-1,0.6-1.7,0.6s-1.3-0.2-1.7-0.5
			s-0.6-0.8-0.6-1.3h1.2c0,0.3,0.1,0.5,0.3,0.7c0.2,0.2,0.5,0.3,0.8,0.3c0.4,0,0.7-0.1,0.9-0.3c0.2-0.2,0.3-0.4,0.3-0.7
			s-0.1-0.5-0.2-0.6c-0.1-0.1-0.3-0.3-0.5-0.3c-0.2-0.1-0.4-0.1-0.7-0.2c-0.2-0.1-0.5-0.1-0.7-0.2s-0.5-0.2-0.7-0.3
			c-0.2-0.1-0.4-0.3-0.5-0.5c-0.1-0.2-0.2-0.5-0.2-0.8c0-0.6,0.2-1,0.6-1.4c0.4-0.4,1-0.5,1.6-0.5s1.2,0.2,1.6,0.5
			c0.4,0.3,0.6,0.7,0.7,1.3h-1.2c0-0.3-0.1-0.5-0.3-0.6S23.7,120.3,23.3,120.3z"/>
		<path class="st2" d="M29.6,121.7h-1.3v2.9c0,0.2,0,0.3,0.1,0.4c0.1,0.1,0.2,0.1,0.5,0.1h0.7v0.9h-0.9c-1,0-1.5-0.5-1.5-1.5v-2.9
			h-0.6v-0.9h0.6v-1.3h1.1v1.3h1.3V121.7z"/>
		<path class="st2" d="M31.6,120.8v0.9c0.3-0.7,0.9-1,1.6-1v1.1h-0.3c-0.4,0-0.7,0.1-1,0.3c-0.2,0.2-0.3,0.6-0.3,1.1v2.8h-1.1v-5.2
			H31.6z"/>
		<path class="st2" d="M35.4,119.4c0,0.2-0.1,0.4-0.2,0.5c-0.1,0.1-0.3,0.2-0.5,0.2c-0.2,0-0.4-0.1-0.5-0.2
			c-0.1-0.1-0.2-0.3-0.2-0.5s0.1-0.4,0.2-0.5s0.3-0.2,0.5-0.2c0.2,0,0.4,0.1,0.5,0.2S35.4,119.2,35.4,119.4z M34.2,126.1v-5.2h1.1
			v5.2H34.2z"/>
		<path class="st2" d="M39.6,120.7c0.7,0,1.3,0.2,1.8,0.7s0.7,1.1,0.7,1.9s-0.2,1.4-0.7,2s-1.1,0.8-1.8,0.8c-0.4,0-0.8-0.1-1.1-0.3
			c-0.3-0.2-0.6-0.5-0.7-0.8v3.5h-1.1v-7.7h1.1v0.9c0.2-0.3,0.4-0.5,0.7-0.7C38.8,120.8,39.2,120.7,39.6,120.7z M40.5,124.7
			c0.3-0.3,0.5-0.8,0.5-1.3s-0.2-1-0.5-1.3c-0.3-0.3-0.7-0.5-1.1-0.5c-0.4,0-0.8,0.2-1.1,0.5s-0.5,0.7-0.5,1.3c0,0.5,0.2,1,0.5,1.3
			c0.3,0.3,0.7,0.5,1.1,0.5S40.2,125,40.5,124.7z"/>
	</g>
	<g class="st1">
		<path class="st2" d="M24.6,137.1h-0.3v-3.8l-1.1,0.1v-0.2l1.4-0.3V137.1z"/>
		<path class="st2" d="M27.4,135.4h-1.4v-0.3h1.4V135.4z"/>
		<path class="st2" d="M30.1,135.7h0.7v0.3h-0.7v1.1h-0.3V136h-2v-0.2l1.9-2.9h0.4V135.7z M28.2,135.7h1.6v-2.4l0,0l-0.1,0.3
			L28.2,135.7z"/>
		<path class="st2" d="M35.9,137.1h-0.3v-1.9h-2.4v1.9h-0.3v-4.2h0.3v2h2.4v-2h0.3V137.1z"/>
		<path class="st2" d="M37.3,135.2v1.9H37v-4.2h1.4c0.4,0,0.8,0.1,1,0.3c0.2,0.2,0.4,0.5,0.4,0.9c0,0.2-0.1,0.4-0.2,0.6
			c-0.1,0.2-0.3,0.3-0.5,0.4c0.3,0.1,0.4,0.2,0.6,0.3c0.1,0.2,0.2,0.4,0.2,0.6v0.4c0,0.1,0,0.2,0,0.3c0,0.1,0.1,0.2,0.2,0.3v0.1
			h-0.4c-0.1-0.1-0.1-0.2-0.1-0.3c0-0.1,0-0.3,0-0.4V136c0-0.3-0.1-0.5-0.2-0.6c-0.2-0.1-0.4-0.2-0.7-0.2H37.3z M37.3,134.9h1
			c0.4,0,0.7-0.1,0.8-0.2c0.2-0.2,0.3-0.4,0.3-0.6c0-0.3-0.1-0.5-0.3-0.6c-0.2-0.1-0.4-0.2-0.8-0.2h-1.1V134.9z"/>
	</g>
	<g class="st1">
		<path class="st2" d="M84.1,137.1h-0.3v-3.8l-1.1,0.1v-0.2l1.4-0.3V137.1z"/>
		<path class="st2" d="M86.9,135.4h-1.4v-0.3h1.4V135.4z"/>
		<path class="st2" d="M89.6,135.7h0.7v0.3h-0.7v1.1h-0.3V136h-2v-0.2l1.9-2.9h0.4V135.7z M87.7,135.7h1.6v-2.4l0,0l-0.1,0.3
			L87.7,135.7z"/>
		<path class="st2" d="M95.4,137.1h-0.3v-1.9h-2.4v1.9h-0.3v-4.2h0.3v2h2.4v-2h0.3V137.1z"/>
		<path class="st2" d="M96.8,135.2v1.9h-0.3v-4.2h1.4c0.4,0,0.8,0.1,1,0.3c0.2,0.2,0.4,0.5,0.4,0.9c0,0.2-0.1,0.4-0.2,0.6
			c-0.1,0.2-0.3,0.3-0.5,0.4c0.3,0.1,0.4,0.2,0.6,0.3c0.1,0.2,0.2,0.4,0.2,0.6v0.4c0,0.1,0,0.2,0,0.3c0,0.1,0.1,0.2,0.2,0.3v0.1
			h-0.4c-0.1-0.1-0.1-0.2-0.1-0.3c0-0.1,0-0.3,0-0.4V136c0-0.3-0.1-0.5-0.2-0.6c-0.2-0.1-0.4-0.2-0.7-0.2H96.8z M96.8,134.9h1
			c0.4,0,0.7-0.1,0.8-0.2c0.2-0.2,0.3-0.4,0.3-0.6c0-0.3-0.1-0.5-0.3-0.6c-0.2-0.1-0.4-0.2-0.8-0.2h-1.1V134.9z"/>
	</g>
	<g class="st1">
		<path class="st2" d="M140.5,135.2l0.2-2.3h2v0.3H141l-0.2,1.5c0.1-0.1,0.2-0.2,0.3-0.2c0.1-0.1,0.3-0.1,0.5-0.1
			c0.4,0,0.6,0.1,0.9,0.4c0.2,0.2,0.3,0.6,0.3,1c0,0.4-0.1,0.8-0.3,1c-0.2,0.3-0.5,0.4-1,0.4c-0.3,0-0.6-0.1-0.9-0.3
			s-0.3-0.5-0.3-0.9l0,0h0.3c0,0.3,0.1,0.5,0.2,0.6s0.4,0.2,0.6,0.2c0.3,0,0.5-0.1,0.7-0.3s0.2-0.5,0.2-0.8c0-0.3-0.1-0.6-0.2-0.7
			c-0.2-0.2-0.4-0.3-0.6-0.3c-0.3,0-0.5,0-0.6,0.1c-0.1,0.1-0.2,0.2-0.3,0.4L140.5,135.2z"/>
		<path class="st2" d="M144.7,135.4h-1.4v-0.3h1.4V135.4z"/>
		<path class="st2" d="M146.8,137.1h-0.3v-3.8l-1.1,0.1v-0.2l1.4-0.3V137.1z"/>
		<path class="st2" d="M151.2,135.4c0,0.5-0.1,1-0.4,1.2c-0.2,0.3-0.6,0.4-1,0.4c-0.4,0-0.7-0.1-1-0.4c-0.2-0.3-0.4-0.7-0.4-1.2
			v-0.9c0-0.5,0.1-1,0.4-1.2s0.6-0.4,1-0.4c0.4,0,0.7,0.1,1,0.4s0.4,0.7,0.4,1.2V135.4z M150.9,134.5c0-0.4-0.1-0.8-0.3-1
			c-0.2-0.2-0.4-0.3-0.7-0.3c-0.3,0-0.6,0.1-0.7,0.3s-0.2,0.6-0.2,1v1c0,0.4,0.1,0.8,0.3,1c0.2,0.2,0.4,0.4,0.7,0.4s0.6-0.1,0.7-0.3
			c0.2-0.2,0.3-0.6,0.3-1V134.5z"/>
		<path class="st2" d="M156.6,137.1h-0.3v-1.9h-2.4v1.9h-0.3v-4.2h0.3v2h2.4v-2h0.3V137.1z"/>
		<path class="st2" d="M158,135.2v1.9h-0.3v-4.2h1.4c0.4,0,0.8,0.1,1,0.3c0.2,0.2,0.4,0.5,0.4,0.9c0,0.2-0.1,0.4-0.2,0.6
			c-0.1,0.2-0.3,0.3-0.5,0.4c0.3,0.1,0.4,0.2,0.6,0.3c0.1,0.2,0.2,0.4,0.2,0.6v0.4c0,0.1,0,0.2,0,0.3c0,0.1,0.1,0.2,0.2,0.3v0.1
			h-0.3c-0.1-0.1-0.1-0.2-0.1-0.3c0-0.1,0-0.3,0-0.4V136c0-0.3-0.1-0.5-0.2-0.6c-0.2-0.1-0.4-0.2-0.7-0.2H158z M158,134.9h1
			c0.4,0,0.7-0.1,0.8-0.2c0.2-0.2,0.3-0.4,0.3-0.6c0-0.3-0.1-0.5-0.3-0.6c-0.2-0.1-0.4-0.2-0.8-0.2H158V134.9z"/>
	</g>
	<g class="st1">
		<path class="st2" d="M199,135.7h0.7v0.3H199v1.1h-0.3V136h-2v-0.2l1.9-2.9h0.4V135.7z M197.1,135.7h1.6v-2.4l0,0l-0.1,0.3
			L197.1,135.7z"/>
		<path class="st2" d="M200.3,135.2l0.2-2.3h2v0.3h-1.7l-0.2,1.5c0.1-0.1,0.2-0.2,0.3-0.2c0.1-0.1,0.3-0.1,0.5-0.1
			c0.4,0,0.6,0.1,0.9,0.4c0.2,0.2,0.3,0.6,0.3,1c0,0.4-0.1,0.8-0.3,1c-0.2,0.3-0.5,0.4-1,0.4c-0.3,0-0.6-0.1-0.9-0.3
			s-0.3-0.5-0.3-0.9l0,0h0.3c0,0.3,0.1,0.5,0.2,0.6c0.2,0.1,0.4,0.2,0.6,0.2c0.3,0,0.5-0.1,0.7-0.3c0.2-0.2,0.2-0.5,0.2-0.8
			c0-0.3-0.1-0.6-0.2-0.7c-0.2-0.2-0.4-0.3-0.6-0.3c-0.3,0-0.5,0-0.6,0.1c-0.1,0.1-0.2,0.2-0.3,0.4L200.3,135.2z"/>
		<path class="st2" d="M204.5,135.4h-1.4v-0.3h1.4V135.4z"/>
		<path class="st2" d="M207.7,133.2c-0.5,0.5-0.8,1.1-1,1.6s-0.4,1.2-0.5,1.9l0,0.3h-0.3l0-0.3c0.1-0.7,0.2-1.3,0.5-1.9
			c0.3-0.6,0.6-1.1,1-1.6h-2.4v-0.3h2.7V133.2z"/>
		<path class="st2" d="M208.5,135.2l0.2-2.3h2v0.3H209l-0.2,1.5c0.1-0.1,0.2-0.2,0.3-0.2c0.1-0.1,0.3-0.1,0.5-0.1
			c0.4,0,0.6,0.1,0.9,0.4c0.2,0.2,0.3,0.6,0.3,1c0,0.4-0.1,0.8-0.3,1c-0.2,0.3-0.5,0.4-1,0.4c-0.3,0-0.6-0.1-0.9-0.3
			s-0.3-0.5-0.3-0.9l0,0h0.3c0,0.3,0.1,0.5,0.2,0.6c0.2,0.1,0.4,0.2,0.6,0.2c0.3,0,0.5-0.1,0.7-0.3c0.2-0.2,0.2-0.5,0.2-0.8
			c0-0.3-0.1-0.6-0.2-0.7c-0.2-0.2-0.4-0.3-0.6-0.3c-0.3,0-0.5,0-0.6,0.1c-0.1,0.1-0.2,0.2-0.3,0.4L208.5,135.2z"/>
		<path class="st2" d="M213.6,132.9l1.5,3.7h0l1.5-3.7h0.5v4.2h-0.3v-1.8l0-1.8l0,0l-1.6,3.7h-0.2l-1.5-3.7l0,0l0,1.8v1.8h-0.3v-4.2
			H213.6z"/>
		<path class="st2" d="M218.7,137.1h-0.3v-4.2h0.3V137.1z"/>
		<path class="st2" d="M222.9,137.1h-0.3l-2.4-3.6l0,0v3.6h-0.3v-4.2h0.3l2.4,3.6l0,0v-3.6h0.3V137.1z"/>
	</g>
	<g class="st1">
		<path class="st2" d="M75.5,123.4v2.7h-1.1v-6.6h2.3c0.7,0,1.3,0.2,1.7,0.6c0.4,0.4,0.6,0.8,0.6,1.4c0,0.4-0.1,0.8-0.4,1.2
			c-0.3,0.4-0.7,0.6-1.2,0.7l1.7,2.7h-1.3l-1.7-2.7H75.5z M75.5,120.3v2.2h1.2c0.4,0,0.7-0.1,0.9-0.3s0.3-0.5,0.3-0.8
			s-0.1-0.6-0.3-0.8s-0.5-0.3-0.9-0.3H75.5z"/>
		<path class="st2" d="M81.6,119.4c0,0.2-0.1,0.4-0.2,0.5c-0.1,0.1-0.3,0.2-0.5,0.2c-0.2,0-0.4-0.1-0.5-0.2
			c-0.1-0.1-0.2-0.3-0.2-0.5s0.1-0.4,0.2-0.5s0.3-0.2,0.5-0.2c0.2,0,0.4,0.1,0.5,0.2S81.6,119.2,81.6,119.4z M80.4,126.1v-5.2h1.1
			v5.2H80.4z"/>
		<path class="st2" d="M85.8,120.7c0.7,0,1.3,0.2,1.8,0.7s0.7,1.1,0.7,1.9s-0.2,1.4-0.7,2s-1.1,0.8-1.8,0.8c-0.4,0-0.8-0.1-1.1-0.3
			c-0.3-0.2-0.6-0.5-0.7-0.8v1h-1.1v-7H84v2.7c0.2-0.3,0.4-0.5,0.7-0.7C85,120.8,85.4,120.7,85.8,120.7z M86.7,124.7
			c0.3-0.3,0.5-0.8,0.5-1.3s-0.2-1-0.5-1.3c-0.3-0.3-0.7-0.5-1.1-0.5c-0.4,0-0.8,0.2-1.1,0.5s-0.5,0.7-0.5,1.3c0,0.5,0.2,1,0.5,1.3
			c0.3,0.3,0.7,0.5,1.1,0.5S86.4,125,86.7,124.7z"/>
		<path class="st2" d="M95.8,119.5v0.8h-2.6v2h2.3v0.8h-2.3v2.1h2.6v0.8h-3.6v-6.6H95.8z"/>
		<path class="st2" d="M98.6,126l-2.1-5.1h1.2l1.5,4l1.5-4h1.1l-3.2,7.7h-1.1L98.6,126z"/>
		<path class="st2" d="M104.9,126.2c-0.8,0-1.4-0.2-1.9-0.7s-0.7-1.1-0.7-2c0-0.8,0.2-1.5,0.7-2c0.5-0.5,1.1-0.7,1.9-0.7
			c0.8,0,1.4,0.2,1.9,0.7c0.5,0.5,0.7,1.1,0.7,1.8c0,0.2,0,0.4,0,0.5h-4c0,0.4,0.2,0.8,0.4,1c0.3,0.3,0.6,0.4,1,0.4
			c0.6,0,1-0.2,1.2-0.7h1.2c-0.2,0.5-0.4,0.9-0.9,1.2C106,126,105.5,126.2,104.9,126.2z M105.9,122c-0.3-0.3-0.6-0.4-1-0.4
			s-0.7,0.1-1,0.4c-0.3,0.3-0.4,0.6-0.5,1h2.9C106.3,122.6,106.2,122.3,105.9,122z"/>
	</g>
	<g class="st1">
		<path class="st2" d="M129.6,123.4v2.7h-1.1v-6.6h2.3c0.7,0,1.3,0.2,1.7,0.6c0.4,0.4,0.6,0.8,0.6,1.4c0,0.4-0.1,0.8-0.4,1.2
			c-0.3,0.4-0.7,0.6-1.2,0.7l1.7,2.7h-1.3l-1.7-2.7H129.6z M129.6,120.3v2.2h1.2c0.4,0,0.7-0.1,0.9-0.3s0.3-0.5,0.3-0.8
			s-0.1-0.6-0.3-0.8s-0.5-0.3-0.9-0.3H129.6z"/>
		<path class="st2" d="M135.7,119.4c0,0.2-0.1,0.4-0.2,0.5c-0.1,0.1-0.3,0.2-0.5,0.2c-0.2,0-0.4-0.1-0.5-0.2
			c-0.1-0.1-0.2-0.3-0.2-0.5s0.1-0.4,0.2-0.5s0.3-0.2,0.5-0.2c0.2,0,0.4,0.1,0.5,0.2S135.7,119.2,135.7,119.4z M134.5,126.1v-5.2
			h1.1v5.2H134.5z"/>
		<path class="st2" d="M139.9,120.7c0.7,0,1.3,0.2,1.8,0.7s0.7,1.1,0.7,1.9s-0.2,1.4-0.7,2s-1.1,0.8-1.8,0.8c-0.4,0-0.8-0.1-1.1-0.3
			c-0.3-0.2-0.6-0.5-0.7-0.8v1H137v-7h1.1v2.7c0.2-0.3,0.4-0.5,0.7-0.7C139.1,120.8,139.5,120.7,139.9,120.7z M140.8,124.7
			c0.3-0.3,0.5-0.8,0.5-1.3s-0.2-1-0.5-1.3c-0.3-0.3-0.7-0.5-1.1-0.5c-0.4,0-0.8,0.2-1.1,0.5s-0.5,0.7-0.5,1.3c0,0.5,0.2,1,0.5,1.3
			c0.3,0.3,0.7,0.5,1.1,0.5S140.5,125,140.8,124.7z"/>
		<path class="st2" d="M147.4,123.4v2.7h-1.1v-6.6h2.3c0.7,0,1.3,0.2,1.7,0.6c0.4,0.4,0.6,0.8,0.6,1.4c0,0.4-0.1,0.8-0.4,1.2
			c-0.3,0.4-0.7,0.6-1.2,0.7l1.7,2.7h-1.3l-1.7-2.7H147.4z M147.4,120.3v2.2h1.2c0.4,0,0.7-0.1,0.9-0.3s0.3-0.5,0.3-0.8
			s-0.1-0.6-0.3-0.8s-0.5-0.3-0.9-0.3H147.4z"/>
		<path class="st2" d="M154.6,126.2c-0.8,0-1.4-0.2-1.9-0.7s-0.7-1.1-0.7-2s0.3-1.5,0.8-2c0.5-0.5,1.1-0.7,1.9-0.7s1.4,0.2,1.9,0.7
			s0.8,1.1,0.8,2c0,0.8-0.3,1.5-0.8,2C156,125.9,155.3,126.2,154.6,126.2z M155.7,124.8c0.3-0.3,0.5-0.8,0.5-1.3
			c0-0.6-0.2-1-0.5-1.3c-0.3-0.3-0.7-0.5-1.1-0.5c-0.4,0-0.8,0.2-1.1,0.5c-0.3,0.3-0.4,0.8-0.4,1.3c0,0.6,0.1,1,0.4,1.3
			s0.7,0.5,1.1,0.5C155,125.2,155.4,125.1,155.7,124.8z"/>
		<path class="st2" d="M158.7,125.4c-0.5-0.5-0.7-1.2-0.7-2s0.2-1.4,0.7-1.9c0.5-0.5,1.1-0.7,1.8-0.7c0.4,0,0.8,0.1,1.1,0.3
			c0.3,0.2,0.6,0.4,0.7,0.7v-0.9h1.1v5.2h-1.1v-1c-0.2,0.3-0.4,0.6-0.7,0.8s-0.7,0.3-1.1,0.3C159.8,126.2,159.2,125.9,158.7,125.4z
			 M161.8,124.7c0.3-0.3,0.5-0.7,0.5-1.3c0-0.5-0.2-1-0.5-1.3s-0.7-0.5-1.1-0.5s-0.8,0.2-1.1,0.5c-0.3,0.3-0.5,0.7-0.5,1.3
			s0.2,1,0.5,1.3s0.7,0.5,1.1,0.5S161.5,125.1,161.8,124.7z"/>
		<path class="st2" d="M164.6,122.3c0-0.4,0.2-0.8,0.6-1.1c0.4-0.3,0.9-0.5,1.5-0.5c0.6,0,1.1,0.2,1.4,0.5c0.4,0.3,0.5,0.7,0.6,1.2
			h-1.1c0-0.3-0.1-0.5-0.3-0.6c-0.2-0.1-0.4-0.2-0.7-0.2c-0.3,0-0.5,0.1-0.7,0.2c-0.2,0.1-0.2,0.3-0.2,0.5s0.1,0.4,0.3,0.5
			c0.2,0.1,0.5,0.2,0.8,0.3s0.6,0.1,0.9,0.2s0.6,0.2,0.8,0.5s0.3,0.5,0.3,0.9c0,0.5-0.2,0.8-0.6,1.1c-0.4,0.3-0.9,0.4-1.5,0.4
			s-1.1-0.1-1.5-0.4c-0.4-0.3-0.6-0.7-0.6-1.2h1.1c0,0.3,0.1,0.5,0.3,0.6c0.2,0.1,0.4,0.2,0.7,0.2c0.3,0,0.5-0.1,0.7-0.2
			c0.2-0.1,0.3-0.3,0.3-0.5c0-0.2-0.1-0.4-0.3-0.5s-0.5-0.2-0.8-0.3s-0.6-0.1-0.9-0.2c-0.3-0.1-0.6-0.2-0.8-0.4
			S164.6,122.7,164.6,122.3z"/>
		<path class="st2" d="M172.4,121.7h-1.3v2.9c0,0.2,0,0.3,0.1,0.4c0.1,0.1,0.2,0.1,0.5,0.1h0.7v0.9h-0.9c-1,0-1.5-0.5-1.5-1.5v-2.9
			h-0.6v-0.9h0.6v-1.3h1.1v1.3h1.3V121.7z"/>
	</g>
	<g class="st1">
		<path class="st2" d="M184.8,120.3v-0.8h4.6v0.8h-1.8v5.8h-1.1v-5.8H184.8z"/>
		<path class="st2" d="M192.7,126.2c-0.8,0-1.4-0.2-1.9-0.7c-0.5-0.5-0.7-1.1-0.7-2c0-0.8,0.2-1.5,0.7-2c0.5-0.5,1.1-0.7,1.9-0.7
			c0.8,0,1.4,0.2,1.9,0.7c0.5,0.5,0.7,1.1,0.7,1.8c0,0.2,0,0.4,0,0.5h-4c0,0.4,0.2,0.8,0.4,1c0.3,0.3,0.6,0.4,1,0.4
			c0.6,0,1-0.2,1.2-0.7h1.2c-0.2,0.5-0.4,0.9-0.9,1.2C193.9,126,193.3,126.2,192.7,126.2z M193.8,122c-0.3-0.3-0.6-0.4-1-0.4
			s-0.7,0.1-1,0.4c-0.3,0.3-0.4,0.6-0.5,1h2.9C194.2,122.6,194,122.3,193.8,122z"/>
		<path class="st2" d="M197.5,120.8v0.8c0.3-0.6,0.9-0.9,1.7-0.9c0.6,0,1.1,0.2,1.5,0.6s0.6,0.9,0.6,1.6v3.1h-1.1v-2.9
			c0-0.5-0.1-0.8-0.4-1.1s-0.6-0.4-1-0.4s-0.7,0.1-1,0.4c-0.2,0.2-0.4,0.6-0.4,1.1v2.9h-1.1v-5.2H197.5z"/>
		<path class="st2" d="M202.9,125.4c-0.5-0.5-0.7-1.2-0.7-2s0.2-1.4,0.7-1.9c0.5-0.5,1.1-0.7,1.8-0.7c0.4,0,0.8,0.1,1.1,0.3
			c0.3,0.2,0.6,0.4,0.7,0.7V119h1.1v7h-1.1v-1c-0.2,0.3-0.4,0.6-0.7,0.8s-0.7,0.3-1.1,0.3C204,126.2,203.4,125.9,202.9,125.4z
			 M206,124.7c0.3-0.3,0.5-0.7,0.5-1.3c0-0.5-0.2-1-0.5-1.3s-0.7-0.5-1.1-0.5s-0.8,0.2-1.1,0.5c-0.3,0.3-0.5,0.7-0.5,1.3
			s0.2,1,0.5,1.3s0.7,0.5,1.1,0.5S205.7,125.1,206,124.7z"/>
		<path class="st2" d="M211.2,126.2c-0.8,0-1.4-0.2-1.9-0.7c-0.5-0.5-0.7-1.1-0.7-2c0-0.8,0.2-1.5,0.7-2c0.5-0.5,1.1-0.7,1.9-0.7
			c0.8,0,1.4,0.2,1.9,0.7c0.5,0.5,0.7,1.1,0.7,1.8c0,0.2,0,0.4,0,0.5h-4c0,0.4,0.2,0.8,0.4,1c0.3,0.3,0.6,0.4,1,0.4
			c0.6,0,1-0.2,1.2-0.7h1.2c-0.2,0.5-0.4,0.9-0.9,1.2C212.3,126,211.8,126.2,211.2,126.2z M212.2,122c-0.3-0.3-0.6-0.4-1-0.4
			s-0.7,0.1-1,0.4c-0.3,0.3-0.4,0.6-0.5,1h2.9C212.7,122.6,212.5,122.3,212.2,122z"/>
		<path class="st2" d="M215.9,120.8v0.9c0.3-0.7,0.9-1,1.6-1v1.1h-0.3c-0.4,0-0.7,0.1-1,0.3c-0.2,0.2-0.3,0.6-0.3,1.1v2.8h-1.1v-5.2
			H215.9z"/>
		<path class="st2" d="M218.5,126.1v-7h1.1v7H218.5z"/>
		<path class="st2" d="M223.3,126.2c-0.8,0-1.4-0.2-1.9-0.7c-0.5-0.5-0.7-1.1-0.7-2s0.3-1.5,0.8-2s1.1-0.7,1.9-0.7s1.4,0.2,1.9,0.7
			s0.8,1.1,0.8,2c0,0.8-0.3,1.5-0.8,2C224.7,125.9,224.1,126.2,223.3,126.2z M224.4,124.8c0.3-0.3,0.5-0.8,0.5-1.3
			c0-0.6-0.2-1-0.5-1.3c-0.3-0.3-0.7-0.5-1.1-0.5c-0.4,0-0.8,0.2-1.1,0.5s-0.4,0.8-0.4,1.3c0,0.6,0.1,1,0.4,1.3
			c0.3,0.3,0.7,0.5,1.1,0.5C223.7,125.2,224.1,125.1,224.4,124.8z"/>
		<path class="st2" d="M228.3,119.4c0,0.2-0.1,0.4-0.2,0.5c-0.1,0.1-0.3,0.2-0.5,0.2s-0.4-0.1-0.5-0.2c-0.1-0.1-0.2-0.3-0.2-0.5
			s0.1-0.4,0.2-0.5s0.3-0.2,0.5-0.2s0.4,0.1,0.5,0.2S228.3,119.2,228.3,119.4z M227.1,126.1v-5.2h1.1v5.2H227.1z"/>
		<path class="st2" d="M230.7,120.8v0.8c0.3-0.6,0.9-0.9,1.7-0.9c0.6,0,1.1,0.2,1.5,0.6s0.6,0.9,0.6,1.6v3.1h-1.1v-2.9
			c0-0.5-0.1-0.8-0.4-1.1s-0.6-0.4-1-0.4s-0.7,0.1-1,0.4c-0.2,0.2-0.4,0.6-0.4,1.1v2.9h-1.1v-5.2H230.7z"/>
	</g>
	<use xlink:href="#SVGID_1_"  style="overflow:visible;fill:none;stroke:#4B4B4B;stroke-width:0.75;stroke-miterlimit:10;"/>
</g>
<g>
	<g>
		<defs>
			<rect id="SVGID_3_" x="1.2" y="2.3" width="244.5" height="186.8"/>
		</defs>
		<clipPath id="SVGID_4_">
			<use xlink:href="#SVGID_3_"  style="overflow:visible;"/>
		</clipPath>
		<polyline class="st3" points="5.9,10.1 4.4,8.7 5.9,7.3 		"/>
		<g class="st4">
			<path class="st2" d="M12.3,9.5L12.3,9.5c0,0.4-0.2,0.8-0.4,1c-0.3,0.2-0.6,0.4-1.1,0.4c-0.5,0-0.8-0.2-1.1-0.5
				C9.4,10,9.3,9.6,9.3,9.1V8.4c0-0.5,0.1-1,0.4-1.3c0.3-0.3,0.7-0.5,1.1-0.5c0.4,0,0.8,0.1,1.1,0.4c0.3,0.2,0.4,0.6,0.4,1l0,0H12
				c0-0.3-0.2-0.6-0.4-0.8c-0.2-0.2-0.5-0.3-0.8-0.3c-0.4,0-0.7,0.1-0.9,0.4C9.7,7.6,9.6,7.9,9.6,8.4v0.7c0,0.4,0.1,0.8,0.3,1.1
				c0.2,0.3,0.5,0.4,0.9,0.4c0.4,0,0.6-0.1,0.8-0.3c0.2-0.2,0.3-0.4,0.4-0.8H12.3z"/>
			<path class="st2" d="M15.4,9.7h-1.9l-0.4,1.2h-0.4l1.6-4.2h0.3l1.6,4.2h-0.4L15.4,9.7z M13.6,9.3h1.7l-0.8-2.3h0L13.6,9.3z"/>
			<path class="st2" d="M19.3,6.9h-1.4v3.9h-0.3V6.9h-1.4V6.6h3.2V6.9z"/>
			<path class="st2" d="M22.3,8.8h-2v1.7h2.3v0.3H20V6.6h2.6v0.3h-2.3v1.6h2V8.8z"/>
			<path class="st2" d="M26.3,10.3c-0.1,0.1-0.3,0.3-0.5,0.4c-0.2,0.1-0.6,0.2-0.9,0.2c-0.5,0-0.9-0.2-1.2-0.5
				c-0.3-0.3-0.5-0.8-0.5-1.3V8.3c0-0.5,0.1-0.9,0.4-1.3c0.3-0.3,0.7-0.5,1.1-0.5c0.4,0,0.8,0.1,1.1,0.3s0.4,0.5,0.4,0.9l0,0H26
				c0-0.3-0.2-0.5-0.4-0.7c-0.2-0.2-0.5-0.3-0.8-0.3c-0.4,0-0.7,0.1-0.9,0.4c-0.2,0.3-0.3,0.6-0.3,1v0.8c0,0.4,0.1,0.8,0.4,1.1
				c0.2,0.3,0.6,0.4,1,0.4c0.3,0,0.5,0,0.7-0.1c0.2-0.1,0.3-0.2,0.4-0.3V9.1h-1.1V8.8h1.5V10.3z"/>
			<path class="st2" d="M30.4,9.1c0,0.5-0.1,1-0.4,1.3c-0.3,0.3-0.7,0.5-1.2,0.5c-0.5,0-0.9-0.2-1.2-0.5c-0.3-0.3-0.4-0.8-0.4-1.3
				V8.4c0-0.5,0.1-1,0.4-1.3c0.3-0.3,0.7-0.5,1.2-0.5c0.5,0,0.9,0.2,1.2,0.5c0.3,0.3,0.4,0.8,0.4,1.3V9.1z M30.1,8.4
				c0-0.5-0.1-0.8-0.3-1.1s-0.5-0.4-1-0.4c-0.4,0-0.7,0.1-0.9,0.4s-0.3,0.6-0.3,1.1v0.7c0,0.5,0.1,0.8,0.3,1.1s0.5,0.4,0.9,0.4
				c0.4,0,0.7-0.1,1-0.4s0.3-0.6,0.3-1.1V8.4z"/>
			<path class="st2" d="M31.7,8.9v1.9h-0.3V6.6h1.4c0.4,0,0.8,0.1,1,0.3c0.2,0.2,0.4,0.5,0.4,0.9c0,0.2-0.1,0.4-0.2,0.6
				c-0.1,0.2-0.3,0.3-0.5,0.4c0.3,0.1,0.4,0.2,0.6,0.3s0.2,0.4,0.2,0.6v0.4c0,0.1,0,0.2,0,0.4c0,0.1,0.1,0.2,0.2,0.3v0.1H34
				c-0.1-0.1-0.1-0.2-0.1-0.3c0-0.1,0-0.3,0-0.4V9.8c0-0.3-0.1-0.5-0.2-0.6c-0.2-0.1-0.4-0.2-0.7-0.2H31.7z M31.7,8.6h1
				c0.4,0,0.7-0.1,0.8-0.2c0.2-0.2,0.3-0.4,0.3-0.6c0-0.3-0.1-0.5-0.3-0.6c-0.2-0.1-0.4-0.2-0.8-0.2h-1.1V8.6z"/>
			<path class="st2" d="M36.3,9l1.3-2.3H38l-1.5,2.7v1.5h-0.3V9.3l-1.5-2.6H35L36.3,9z"/>
		</g>
		<g class="st4">
			<path class="st2" d="M84.7,61c-0.4-0.4-0.6-0.9-0.6-1.5s0.2-1.1,0.6-1.5c0.4-0.4,0.9-0.6,1.5-0.6c0.4,0,0.8,0.1,1.1,0.3
				c0.3,0.2,0.6,0.5,0.7,0.8h-0.5c-0.1-0.2-0.3-0.4-0.5-0.6c-0.2-0.1-0.5-0.2-0.8-0.2c-0.5,0-0.9,0.2-1.2,0.5
				c-0.3,0.3-0.5,0.7-0.5,1.2s0.2,0.9,0.5,1.2s0.7,0.5,1.2,0.5c0.3,0,0.6-0.1,0.8-0.2c0.2-0.1,0.4-0.3,0.5-0.6H88
				c-0.2,0.4-0.4,0.6-0.7,0.8c-0.3,0.2-0.7,0.3-1.1,0.3C85.5,61.6,85,61.4,84.7,61z"/>
			<path class="st2" d="M91.4,57.5h0.4v4.1h-0.4v-1.9h-2.2v1.9h-0.4v-4.1h0.4v1.9h2.2V57.5z"/>
			<path class="st2" d="M93.1,61c-0.4-0.4-0.6-0.9-0.6-1.5s0.2-1.1,0.6-1.5c0.4-0.4,0.9-0.6,1.5-0.6c0.6,0,1.1,0.2,1.5,0.6
				c0.4,0.4,0.6,0.9,0.6,1.5S96.4,60.6,96,61c-0.4,0.4-0.9,0.6-1.5,0.6C94,61.6,93.5,61.4,93.1,61z M95.7,60.8
				c0.3-0.3,0.5-0.7,0.5-1.2s-0.2-0.9-0.5-1.2c-0.3-0.3-0.7-0.5-1.2-0.5c-0.5,0-0.9,0.2-1.2,0.5c-0.3,0.3-0.5,0.7-0.5,1.2
				s0.2,0.9,0.5,1.2s0.7,0.5,1.2,0.5C95,61.3,95.4,61.1,95.7,60.8z"/>
			<path class="st2" d="M97.7,61c-0.4-0.4-0.6-0.9-0.6-1.5s0.2-1.1,0.6-1.5c0.4-0.4,0.9-0.6,1.5-0.6c0.6,0,1.1,0.2,1.5,0.6
				c0.4,0.4,0.6,0.9,0.6,1.5s-0.2,1.1-0.6,1.5c-0.4,0.4-0.9,0.6-1.5,0.6C98.6,61.6,98.1,61.4,97.7,61z M100.3,60.8
				c0.3-0.3,0.5-0.7,0.5-1.2s-0.2-0.9-0.5-1.2c-0.3-0.3-0.7-0.5-1.2-0.5c-0.5,0-0.9,0.2-1.2,0.5c-0.3,0.3-0.5,0.7-0.5,1.2
				s0.2,0.9,0.5,1.2s0.7,0.5,1.2,0.5C99.6,61.3,100,61.1,100.3,60.8z"/>
			<path class="st2" d="M102.2,58.6c0,0.2,0,0.3,0.1,0.4c0.1,0.1,0.2,0.2,0.3,0.2c0.1,0,0.3,0.1,0.4,0.1s0.3,0.1,0.5,0.1
				c0.2,0,0.3,0.1,0.4,0.2c0.1,0.1,0.2,0.2,0.3,0.3c0.1,0.1,0.1,0.3,0.1,0.5c0,0.3-0.1,0.6-0.3,0.8c-0.2,0.2-0.5,0.3-0.9,0.3
				s-0.7-0.1-1-0.3s-0.4-0.4-0.4-0.7h0.4c0,0.2,0.1,0.3,0.2,0.5c0.1,0.1,0.4,0.2,0.6,0.2c0.3,0,0.5-0.1,0.7-0.2s0.3-0.3,0.3-0.6
				s-0.1-0.4-0.2-0.5c-0.2-0.1-0.3-0.2-0.6-0.2s-0.4-0.1-0.7-0.1c-0.2-0.1-0.4-0.2-0.6-0.3c-0.2-0.2-0.2-0.4-0.2-0.7
				c0-0.3,0.1-0.6,0.3-0.8c0.2-0.2,0.5-0.3,0.9-0.3s0.7,0.1,0.9,0.3c0.2,0.2,0.4,0.4,0.4,0.7h-0.5c0-0.2-0.1-0.3-0.2-0.4
				c-0.1-0.1-0.4-0.2-0.6-0.2c-0.3,0-0.5,0.1-0.6,0.2C102.3,58.1,102.2,58.3,102.2,58.6z"/>
			<path class="st2" d="M107.3,57.5v0.3h-1.7v1.5h1.5v0.3h-1.5v1.5h1.7v0.3h-2.1v-4.1H107.3z"/>
			<path class="st2" d="M111.2,61.6h-0.4V60l-1.3-2.5h0.4l1.1,2.1l1.1-2.1h0.4l-1.3,2.5V61.6z"/>
			<path class="st2" d="M113.4,61c-0.4-0.4-0.6-0.9-0.6-1.5s0.2-1.1,0.6-1.5c0.4-0.4,0.9-0.6,1.5-0.6c0.6,0,1.1,0.2,1.5,0.6
				c0.4,0.4,0.6,0.9,0.6,1.5s-0.2,1.1-0.6,1.5c-0.4,0.4-0.9,0.6-1.5,0.6C114.3,61.6,113.8,61.4,113.4,61z M116.1,60.8
				c0.3-0.3,0.5-0.7,0.5-1.2s-0.2-0.9-0.5-1.2c-0.3-0.3-0.7-0.5-1.2-0.5c-0.5,0-0.9,0.2-1.2,0.5c-0.3,0.3-0.5,0.7-0.5,1.2
				s0.2,0.9,0.5,1.2s0.7,0.5,1.2,0.5C115.4,61.3,115.8,61.1,116.1,60.8z"/>
			<path class="st2" d="M117.6,60.2v-2.7h0.4v2.7c0,0.4,0.1,0.6,0.3,0.8s0.5,0.3,0.8,0.3c0.3,0,0.6-0.1,0.8-0.3s0.3-0.4,0.3-0.8
				v-2.7h0.4v2.7c0,0.5-0.1,0.8-0.4,1c-0.3,0.2-0.6,0.4-1.1,0.4c-0.4,0-0.8-0.1-1.1-0.4C117.8,61,117.6,60.7,117.6,60.2z"/>
			<path class="st2" d="M121.9,59.9v1.7h-0.4v-4.1h1.2c0.5,0,0.8,0.1,1,0.3s0.4,0.5,0.4,0.8c0,0.3-0.1,0.6-0.3,0.8
				c-0.2,0.2-0.5,0.3-0.8,0.4l1.2,1.7h-0.5l-1.1-1.7H121.9z M121.9,57.8v1.7h0.8c0.6,0,1-0.3,1-0.8s-0.3-0.8-1-0.8H121.9z"/>
			<path class="st2" d="M127.2,61c-0.4-0.4-0.6-0.9-0.6-1.5s0.2-1.1,0.6-1.5c0.4-0.4,0.9-0.6,1.5-0.6c0.4,0,0.8,0.1,1.1,0.3
				c0.3,0.2,0.6,0.5,0.7,0.8H130c-0.1-0.2-0.3-0.4-0.5-0.6c-0.2-0.1-0.5-0.2-0.8-0.2c-0.5,0-0.9,0.2-1.2,0.5
				c-0.3,0.3-0.5,0.7-0.5,1.2s0.2,0.9,0.5,1.2s0.7,0.5,1.2,0.5c0.3,0,0.6-0.1,0.8-0.2c0.2-0.1,0.4-0.3,0.5-0.6h0.5
				c-0.2,0.4-0.4,0.6-0.7,0.8c-0.3,0.2-0.7,0.3-1.1,0.3C128.1,61.6,127.6,61.4,127.2,61z"/>
			<path class="st2" d="M131.4,60.2v-2.7h0.4v2.7c0,0.4,0.1,0.6,0.3,0.8s0.5,0.3,0.8,0.3c0.3,0,0.6-0.1,0.8-0.3s0.3-0.4,0.3-0.8
				v-2.7h0.4v2.7c0,0.5-0.1,0.8-0.4,1c-0.3,0.2-0.6,0.4-1.1,0.4c-0.4,0-0.8-0.1-1.1-0.4C131.5,61,131.4,60.7,131.4,60.2z"/>
			<path class="st2" d="M135.1,57.8v-0.3h2.5v0.3h-1.1v3.7h-0.4v-3.7H135.1z"/>
			<path class="st2" d="M140.5,61c-0.4-0.4-0.6-0.9-0.6-1.5s0.2-1.1,0.6-1.5c0.4-0.4,0.9-0.6,1.5-0.6c0.6,0,1.1,0.2,1.5,0.6
				c0.4,0.4,0.6,0.9,0.6,1.5s-0.2,1.1-0.6,1.5c-0.4,0.4-0.9,0.6-1.5,0.6C141.4,61.6,140.9,61.4,140.5,61z M143.2,60.8
				c0.3-0.3,0.5-0.7,0.5-1.2s-0.2-0.9-0.5-1.2c-0.3-0.3-0.7-0.5-1.2-0.5c-0.5,0-0.9,0.2-1.2,0.5c-0.3,0.3-0.5,0.7-0.5,1.2
				s0.2,0.9,0.5,1.2s0.7,0.5,1.2,0.5C142.5,61.3,142.8,61.1,143.2,60.8z"/>
			<path class="st2" d="M144.7,61.6v-4.1h2.2v0.3h-1.8v1.5h1.4v0.3h-1.4v1.9H144.7z"/>
			<path class="st2" d="M153.2,57.5v4.1h-0.4v-3.1l-1.5,3.1h-0.2l-1.5-3.1v3.1h-0.4v-4.1h0.4l1.6,3.5l1.6-3.5H153.2z"/>
			<path class="st2" d="M156.2,57.5v0.3h-1.7v1.5h1.5v0.3h-1.5v1.5h1.7v0.3h-2.1v-4.1H156.2z"/>
			<path class="st2" d="M159.8,61.6l-0.3-0.9h-1.9l-0.3,0.9h-0.4l1.5-4.1h0.4l1.5,4.1H159.8z M157.7,60.3h1.7l-0.8-2.3L157.7,60.3z"
				/>
			<path class="st2" d="M160.9,57.8v-0.3h2.5v0.3h-1.1v3.7h-0.4v-3.7H160.9z"/>
		</g>
		<g class="st4">
			<path class="st2" d="M115.1,11.3h-2.9V11l1.5-1.7c0.3-0.3,0.5-0.6,0.6-0.8c0.1-0.2,0.2-0.4,0.2-0.6c0-0.3-0.1-0.5-0.2-0.7
				C114.1,7,113.9,7,113.6,7c-0.4,0-0.6,0.1-0.8,0.3c-0.2,0.2-0.3,0.5-0.3,0.8h-0.4l0,0c0-0.4,0.1-0.7,0.4-1
				c0.3-0.3,0.6-0.4,1.1-0.4c0.4,0,0.7,0.1,1,0.3c0.2,0.2,0.4,0.5,0.4,0.9c0,0.3-0.1,0.5-0.2,0.8s-0.4,0.6-0.7,0.9l-1.3,1.4l0,0h2.4
				V11.3z"/>
			<path class="st2" d="M116.3,8.4h-0.4V7.9h0.4V8.4z M116.3,11.3h-0.4v-0.5h0.4V11.3z"/>
			<path class="st2" d="M120.1,9.5c0,0.6-0.1,1.1-0.4,1.4c-0.3,0.3-0.6,0.5-1.1,0.5c-0.5,0-0.8-0.2-1.1-0.5s-0.4-0.8-0.4-1.4v-1
				c0-0.6,0.1-1.1,0.4-1.4c0.3-0.3,0.6-0.5,1.1-0.5s0.8,0.2,1.1,0.5s0.4,0.8,0.4,1.4V9.5z M119.7,8.4c0-0.5-0.1-0.8-0.3-1.1
				C119.3,7.1,119,7,118.7,7s-0.6,0.1-0.8,0.4s-0.3,0.6-0.3,1.1v1.2c0,0.5,0.1,0.8,0.3,1.1c0.2,0.3,0.5,0.4,0.8,0.4s0.6-0.1,0.8-0.4
				s0.3-0.6,0.3-1.1V8.4z"/>
			<path class="st2" d="M123.9,9.5c0,0.6-0.1,1.1-0.4,1.4c-0.3,0.3-0.6,0.5-1.1,0.5c-0.5,0-0.8-0.2-1.1-0.5s-0.4-0.8-0.4-1.4v-1
				c0-0.6,0.1-1.1,0.4-1.4c0.3-0.3,0.6-0.5,1.1-0.5s0.8,0.2,1.1,0.5s0.4,0.8,0.4,1.4V9.5z M123.5,8.4c0-0.5-0.1-0.8-0.3-1.1
				c-0.2-0.3-0.5-0.4-0.8-0.4s-0.6,0.1-0.8,0.4s-0.3,0.6-0.3,1.1v1.2c0,0.5,0.1,0.8,0.3,1.1c0.2,0.3,0.5,0.4,0.8,0.4
				s0.6-0.1,0.8-0.4s0.3-0.6,0.3-1.1V8.4z"/>
			<path class="st2" d="M126.9,9.4v1.9h-0.4V6.7h1.6c0.5,0,0.9,0.1,1.1,0.4s0.4,0.6,0.4,1c0,0.4-0.1,0.7-0.4,1
				c-0.3,0.2-0.6,0.4-1.1,0.4H126.9z M126.9,9.1h1.2c0.4,0,0.7-0.1,0.9-0.3c0.2-0.2,0.3-0.4,0.3-0.7c0-0.3-0.1-0.5-0.3-0.7
				S128.5,7,128.1,7h-1.2V9.1z"/>
			<path class="st2" d="M131.1,6.7l1.7,4.1h0l1.7-4.1h0.5v4.6h-0.4v-2l0-2l0,0l-1.7,4.1h-0.3l-1.7-4l0,0l0,2v2h-0.4V6.7H131.1z"/>
		</g>
		<line class="st5" x1="1.2" y1="14.9" x2="245.7" y2="14.9"/>
	</g>
	<g>
		<defs>
			<rect id="SVGID_5_" x="1.6" y="76.4" width="59.6" height="94.2"/>
		</defs>
		<clipPath id="SVGID_6_">
			<use xlink:href="#SVGID_5_"  style="overflow:visible;"/>
		</clipPath>
		<g class="st6">
			<defs>
				<rect id="SVGID_7_" x="1.2" y="2.3" width="244.5" height="186.8"/>
			</defs>
			<clipPath id="SVGID_8_">
				<use xlink:href="#SVGID_7_"  style="overflow:visible;"/>
			</clipPath>
			<rect x="1.6" y="76.4" class="st7" width="59.6" height="94.2"/>
		</g>
	</g>
	<g>
		<defs>
			<rect id="SVGID_9_" x="1.2" y="2.3" width="244.5" height="186.8"/>
		</defs>
		<clipPath id="SVGID_10_">
			<use xlink:href="#SVGID_9_"  style="overflow:visible;"/>
		</clipPath>
		<line class="st8" x1="2" y1="76.6" x2="60.7" y2="170.3"/>
		<line class="st8" x1="60.9" y1="76.6" x2="2.2" y2="170.3"/>
	</g>
	<g>
		<defs>
			<rect id="SVGID_11_" x="61.1" y="76.4" width="59.6" height="94.2"/>
		</defs>
		<clipPath id="SVGID_12_">
			<use xlink:href="#SVGID_11_"  style="overflow:visible;"/>
		</clipPath>
		<g class="st9">
			<defs>
				<rect id="SVGID_13_" x="1.2" y="2.3" width="244.5" height="186.8"/>
			</defs>
			<clipPath id="SVGID_14_">
				<use xlink:href="#SVGID_13_"  style="overflow:visible;"/>
			</clipPath>
			<rect x="61.1" y="76.4" class="st10" width="59.6" height="94.2"/>
		</g>
	</g>
	<g>
		<defs>
			<rect id="SVGID_15_" x="1.2" y="2.3" width="244.5" height="186.8"/>
		</defs>
		<clipPath id="SVGID_16_">
			<use xlink:href="#SVGID_15_"  style="overflow:visible;"/>
		</clipPath>
		<line class="st11" x1="61.5" y1="76.6" x2="120.2" y2="170.3"/>
		<line class="st11" x1="120.4" y1="76.6" x2="61.7" y2="170.3"/>
	</g>
	<g>
		<defs>
			<rect id="SVGID_17_" x="120.6" y="76.4" width="59.6" height="94.2"/>
		</defs>
		<clipPath id="SVGID_18_">
			<use xlink:href="#SVGID_17_"  style="overflow:visible;"/>
		</clipPath>
		<g class="st12">
			<defs>
				<rect id="SVGID_19_" x="1.2" y="2.3" width="244.5" height="186.8"/>
			</defs>
			<clipPath id="SVGID_20_">
				<use xlink:href="#SVGID_19_"  style="overflow:visible;"/>
			</clipPath>
			<rect x="120.6" y="76.4" class="st13" width="59.6" height="94.2"/>
		</g>
	</g>
	<g>
		<defs>
			<rect id="SVGID_21_" x="1.2" y="2.3" width="244.5" height="186.8"/>
		</defs>
		<clipPath id="SVGID_22_">
			<use xlink:href="#SVGID_21_"  style="overflow:visible;"/>
		</clipPath>
		<line class="st14" x1="121" y1="76.6" x2="179.7" y2="170.3"/>
		<line class="st14" x1="179.9" y1="76.6" x2="121.2" y2="170.3"/>
	</g>
	<g>
		<defs>
			<rect id="SVGID_23_" x="180.1" y="76.4" width="59.6" height="94.2"/>
		</defs>
		<clipPath id="SVGID_24_">
			<use xlink:href="#SVGID_23_"  style="overflow:visible;"/>
		</clipPath>
		<g class="st15">
			<defs>
				<rect id="SVGID_25_" x="1.2" y="2.3" width="244.5" height="186.8"/>
			</defs>
			<clipPath id="SVGID_26_">
				<use xlink:href="#SVGID_25_"  style="overflow:visible;"/>
			</clipPath>
			<rect x="180.1" y="76.4" class="st16" width="59.6" height="94.2"/>
		</g>
	</g>
	<g>
		<defs>
			<rect id="SVGID_27_" x="1.2" y="2.3" width="244.5" height="186.8"/>
		</defs>
		<clipPath id="SVGID_28_">
			<use xlink:href="#SVGID_27_"  style="overflow:visible;"/>
		</clipPath>
		<line class="st17" x1="180.5" y1="76.6" x2="239.2" y2="170.3"/>
		<line class="st17" x1="239.4" y1="76.6" x2="180.7" y2="170.3"/>
	</g>
	<g>
		<defs>
			<rect id="SVGID_29_" x="239.6" y="76.4" width="59.6" height="94.2"/>
		</defs>
		<clipPath id="SVGID_30_">
			<use xlink:href="#SVGID_29_"  style="overflow:visible;"/>
		</clipPath>
		<g class="st18">
			<defs>
				<rect id="SVGID_31_" x="1.2" y="2.3" width="244.5" height="186.8"/>
			</defs>
			<clipPath id="SVGID_32_">
				<use xlink:href="#SVGID_31_"  style="overflow:visible;"/>
			</clipPath>
			<rect x="239.6" y="76.4" class="st19" width="59.6" height="94.2"/>
		</g>
	</g>
	<g>
		<defs>
			<rect id="SVGID_33_" x="1.2" y="2.3" width="244.5" height="186.8"/>
		</defs>
		<clipPath id="SVGID_34_">
			<use xlink:href="#SVGID_33_"  style="overflow:visible;"/>
		</clipPath>
		<line class="st20" x1="240" y1="76.6" x2="298.7" y2="170.3"/>
		<line class="st20" x1="298.9" y1="76.6" x2="240.2" y2="170.3"/>
	</g>
	<g>
		<defs>
			<rect id="SVGID_35_" x="1.6" y="170.4" width="244.5" height="18.6"/>
		</defs>
		<clipPath id="SVGID_36_">
			<use xlink:href="#SVGID_35_"  style="overflow:visible;"/>
		</clipPath>
		<g class="st21">
			<defs>
				<rect id="SVGID_37_" x="1.2" y="2.3" width="244.5" height="186.8"/>
			</defs>
			<clipPath id="SVGID_38_">
				<use xlink:href="#SVGID_37_"  style="overflow:visible;"/>
			</clipPath>
			<rect x="0.4" y="169.1" class="st22" width="247" height="21.1"/>
		</g>
	</g>
	<g>
		<defs>
			<rect id="SVGID_39_" x="1.2" y="2.3" width="244.5" height="186.8"/>
		</defs>
		<clipPath id="SVGID_40_">
			<use xlink:href="#SVGID_39_"  style="overflow:visible;"/>
		</clipPath>
		<circle class="st23" cx="32.3" cy="177.6" r="1.7"/>
		<circle class="st23" cx="32.3" cy="182.6" r="1.7"/>
		<circle class="st23" cx="37.2" cy="177.6" r="1.7"/>
		<circle class="st23" cx="37.2" cy="182.6" r="1.7"/>
		<rect x="88.6" y="176" class="st24" width="11.2" height="8.5"/>
		<rect x="90.4" y="177.8" class="st24" width="7.6" height="4.8"/>
		<path class="st24" d="M157.4,182.8h-4.2l-1.7,1.6l-0.2-1.6H150c-0.6,0-1-0.5-1-1v-4.7c0-0.6,0.5-1,1-1h7.4c0.6,0,1,0.5,1,1v4.7
			C158.4,182.4,158,182.8,157.4,182.8z"/>
	</g>
	<g>
		<defs>
			<path id="SVGID_41_" d="M153.9,177.9c-0.1,0.1-0.1,0.1-0.2,0.1c-0.1,0-0.2,0-0.2-0.1c-0.1-0.1-0.1-0.1-0.1-0.2
				c0-0.1,0-0.2,0.1-0.2s0.1-0.1,0.2-0.1s0.2,0,0.2,0.1c0.1,0.1,0.1,0.1,0.1,0.2C154,177.8,154,177.8,153.9,177.9z M153.5,181.4h0.4
				v-2.6h-0.4V181.4z"/>
		</defs>
		<clipPath id="SVGID_42_">
			<use xlink:href="#SVGID_41_"  style="overflow:visible;"/>
		</clipPath>
		<g class="st25">
			<defs>
				<rect id="SVGID_43_" x="1.2" y="2.3" width="244.5" height="186.8"/>
			</defs>
			<clipPath id="SVGID_44_">
				<use xlink:href="#SVGID_43_"  style="overflow:visible;"/>
			</clipPath>
			<rect x="152.2" y="176.1" class="st26" width="3.1" height="6.5"/>
		</g>
	</g>
	<g>
		<defs>
			<path id="SVGID_45_" d="M210.7,179.9c0,0.3-0.2,0.5-0.5,0.5c-0.3,0-0.5-0.2-0.5-0.5c0-0.3,0.2-0.5,0.5-0.5
				C210.5,179.4,210.7,179.6,210.7,179.9"/>
		</defs>
		<clipPath id="SVGID_46_">
			<use xlink:href="#SVGID_45_"  style="overflow:visible;"/>
		</clipPath>
		<g class="st27">
			<defs>
				<rect id="SVGID_47_" x="1.2" y="2.3" width="244.5" height="186.8"/>
			</defs>
			<clipPath id="SVGID_48_">
				<use xlink:href="#SVGID_47_"  style="overflow:visible;"/>
			</clipPath>
			<rect x="208.4" y="178.1" class="st28" width="3.6" height="3.6"/>
		</g>
	</g>
	<g>
		<defs>
			<path id="SVGID_49_" d="M214.2,179.9c0,0.3-0.2,0.5-0.5,0.5c-0.3,0-0.5-0.2-0.5-0.5c0-0.3,0.2-0.5,0.5-0.5
				C213.9,179.4,214.2,179.6,214.2,179.9"/>
		</defs>
		<clipPath id="SVGID_50_">
			<use xlink:href="#SVGID_49_"  style="overflow:visible;"/>
		</clipPath>
		<g class="st29">
			<defs>
				<rect id="SVGID_51_" x="1.2" y="2.3" width="244.5" height="186.8"/>
			</defs>
			<clipPath id="SVGID_52_">
				<use xlink:href="#SVGID_51_"  style="overflow:visible;"/>
			</clipPath>
			<rect x="211.9" y="178.1" class="st30" width="3.6" height="3.6"/>
		</g>
	</g>
	<g>
		<defs>
			<path id="SVGID_53_" d="M217.6,179.9c0,0.3-0.2,0.5-0.5,0.5c-0.3,0-0.5-0.2-0.5-0.5c0-0.3,0.2-0.5,0.5-0.5
				C217.4,179.4,217.6,179.6,217.6,179.9"/>
		</defs>
		<clipPath id="SVGID_54_">
			<use xlink:href="#SVGID_53_"  style="overflow:visible;"/>
		</clipPath>
		<g class="st31">
			<defs>
				<rect id="SVGID_55_" x="1.2" y="2.3" width="244.5" height="186.8"/>
			</defs>
			<clipPath id="SVGID_56_">
				<use xlink:href="#SVGID_55_"  style="overflow:visible;"/>
			</clipPath>
			<rect x="215.3" y="178.1" class="st32" width="3.6" height="3.6"/>
		</g>
	</g>
	<g>
		<defs>
			<rect id="SVGID_57_" x="1.2" y="2.3" width="244.5" height="186.8"/>
		</defs>
		<clipPath id="SVGID_58_">
			<use xlink:href="#SVGID_57_"  style="overflow:visible;"/>
		</clipPath>
		<circle class="st33" cx="20" cy="33.9" r="4.9"/>
	</g>
	<g>
		<defs>
			<circle id="SVGID_59_" cx="28.5" cy="41.4" r="4.9"/>
		</defs>
		<clipPath id="SVGID_60_">
			<use xlink:href="#SVGID_59_"  style="overflow:visible;"/>
		</clipPath>
		<g class="st34">
			<defs>
				<rect id="SVGID_61_" x="1.2" y="2.3" width="244.5" height="186.8"/>
			</defs>
			<clipPath id="SVGID_62_">
				<use xlink:href="#SVGID_61_"  style="overflow:visible;"/>
			</clipPath>
			<rect x="22.4" y="35.3" class="st35" width="12.2" height="12.2"/>
		</g>
	</g>
</g>
<rect x="189.8" y="31.9" class="st36" width="244.5" height="186.8"/>
<g>
	<g>
		<defs>
			<rect id="SVGID_63_" x="269" y="141.9" width="86" height="2.9"/>
		</defs>
		<clipPath id="SVGID_64_">
			<use xlink:href="#SVGID_63_"  style="overflow:visible;"/>
		</clipPath>
		<g class="st37">
			<defs>
				<rect id="SVGID_65_" x="189.8" y="31.9" width="244.5" height="186.8"/>
			</defs>
			<clipPath id="SVGID_66_">
				<use xlink:href="#SVGID_65_"  style="overflow:visible;"/>
			</clipPath>
			<g class="st38">
				<g>
					<defs>
						<rect id="SVGID_67_" x="269" y="141.6" width="86" height="3.2"/>
					</defs>
					<clipPath id="SVGID_68_">
						<use xlink:href="#SVGID_67_"  style="overflow:visible;"/>
					</clipPath>
					<g class="st39">
						<defs>
							<path id="SVGID_69_" d="M353.3,141.9h-82.6c-0.9,0-1.7,0.7-1.7,1.5c0,0.8,0.8,1.5,1.7,1.5h82.6c0.9,0,1.7-0.7,1.7-1.5
								C355,142.5,354.3,141.9,353.3,141.9"/>
						</defs>
						<clipPath id="SVGID_70_">
							<use xlink:href="#SVGID_69_"  style="overflow:visible;"/>
						</clipPath>
						<g class="st40">
							<defs>
								<rect id="SVGID_71_" x="269" y="141.6" width="86" height="3.2"/>
							</defs>
							<clipPath id="SVGID_72_">
								<use xlink:href="#SVGID_71_"  style="overflow:visible;"/>
							</clipPath>
							<rect x="267.8" y="140.6" class="st41" width="88.5" height="5.4"/>
						</g>
					</g>
					<g class="st39">
						<defs>
							<rect id="SVGID_73_" x="269" y="141.6" width="86" height="3.2"/>
						</defs>
						<clipPath id="SVGID_74_">
							<use xlink:href="#SVGID_73_"  style="overflow:visible;"/>
						</clipPath>
						<path class="st42" d="M353.3,141.9h-82.6c-0.9,0-1.7,0.7-1.7,1.5s0.8,1.5,1.7,1.5h82.6c0.9,0,1.7-0.7,1.7-1.5
							S354.3,141.9,353.3,141.9"/>
					</g>
				</g>
			</g>
		</g>
	</g>
	<g>
		<defs>
			<polygon id="SVGID_75_" points="297.7,144.8 269,144.8 269,141.9 297.7,141.9 326.4,141.9 326.4,144.8 			"/>
		</defs>
		<clipPath id="SVGID_76_">
			<use xlink:href="#SVGID_75_"  style="overflow:visible;"/>
		</clipPath>
		<g class="st43">
			<defs>
				<rect id="SVGID_77_" x="189.8" y="31.9" width="244.5" height="186.8"/>
			</defs>
			<clipPath id="SVGID_78_">
				<use xlink:href="#SVGID_77_"  style="overflow:visible;"/>
			</clipPath>
			<g class="st44">
				<g>
					<defs>
						<rect id="SVGID_79_" x="269" y="141.6" width="57.5" height="3.2"/>
					</defs>
					<clipPath id="SVGID_80_">
						<use xlink:href="#SVGID_79_"  style="overflow:visible;"/>
					</clipPath>
					<g class="st45">
						<defs>
							<path id="SVGID_81_" d="M326.4,144.8h-55.7c-0.9,0-1.7-0.7-1.7-1.5c0-0.8,0.8-1.5,1.7-1.5h55.7V144.8z"/>
						</defs>
						<clipPath id="SVGID_82_">
							<use xlink:href="#SVGID_81_"  style="overflow:visible;"/>
						</clipPath>
						<g class="st46">
							<defs>
								<rect id="SVGID_83_" x="269" y="141.6" width="57.5" height="3.2"/>
							</defs>
							<clipPath id="SVGID_84_">
								<use xlink:href="#SVGID_83_"  style="overflow:visible;"/>
							</clipPath>
							<rect x="267.8" y="140.6" class="st47" width="59.8" height="5.4"/>
						</g>
					</g>
				</g>
			</g>
		</g>
	</g>
	<g>
		<defs>
			<rect id="SVGID_85_" x="189.8" y="31.9" width="244.5" height="186.8"/>
		</defs>
		<clipPath id="SVGID_86_">
			<use xlink:href="#SVGID_85_"  style="overflow:visible;"/>
		</clipPath>
		<g class="st48">
			<path class="st2" d="M307.3,151.4c0.2-0.1,0.4-0.1,0.6-0.1c0.2,0,0.4,0,0.6,0.1c0.2,0.1,0.3,0.2,0.4,0.3c0.1,0.1,0.2,0.3,0.2,0.5
				c0.1,0.2,0.1,0.4,0.1,0.6s0,0.4,0,0.7s0,0.5,0,0.7c0,0.2-0.1,0.4-0.1,0.6c-0.1,0.2-0.1,0.3-0.2,0.5c-0.1,0.1-0.2,0.2-0.4,0.3
				c-0.2,0.1-0.4,0.1-0.6,0.1c-0.2,0-0.4,0-0.6-0.1c-0.2-0.1-0.3-0.2-0.4-0.3c-0.1-0.1-0.2-0.3-0.2-0.5c-0.1-0.2-0.1-0.4-0.1-0.6
				c0-0.2,0-0.4,0-0.7s0-0.5,0-0.7s0.1-0.4,0.1-0.6c0.1-0.2,0.1-0.3,0.2-0.5C307,151.6,307.1,151.5,307.3,151.4z M308.3,151.8
				c-0.1-0.1-0.3-0.1-0.5-0.1c-0.2,0-0.3,0-0.5,0.1c-0.1,0.1-0.2,0.2-0.3,0.3c-0.1,0.1-0.1,0.2-0.2,0.4c0,0.2-0.1,0.3-0.1,0.5
				c0,0.2,0,0.3,0,0.5c0,0.2,0,0.4,0,0.5c0,0.2,0,0.3,0.1,0.5c0,0.2,0.1,0.3,0.2,0.4c0.1,0.1,0.2,0.2,0.3,0.3
				c0.1,0.1,0.3,0.1,0.5,0.1c0.2,0,0.3,0,0.5-0.1c0.1-0.1,0.2-0.2,0.3-0.3s0.1-0.2,0.2-0.4c0-0.2,0.1-0.3,0.1-0.5c0-0.2,0-0.3,0-0.5
				c0-0.2,0-0.4,0-0.5c0-0.2,0-0.3-0.1-0.5c0-0.2-0.1-0.3-0.2-0.4S308.5,151.9,308.3,151.8z"/>
			<path class="st2" d="M310.7,153c-0.1,0.1-0.1,0.1-0.2,0.1s-0.1,0-0.2-0.1c-0.1-0.1-0.1-0.1-0.1-0.2s0-0.1,0.1-0.2
				c0.1-0.1,0.1-0.1,0.2-0.1s0.1,0,0.2,0.1c0.1,0.1,0.1,0.1,0.1,0.2S310.8,153,310.7,153z M310.7,155.6c-0.1,0.1-0.1,0.1-0.2,0.1
				s-0.1,0-0.2-0.1c-0.1-0.1-0.1-0.1-0.1-0.2s0-0.1,0.1-0.2c0.1-0.1,0.1-0.1,0.2-0.1s0.1,0,0.2,0.1c0.1,0.1,0.1,0.1,0.1,0.2
				S310.8,155.5,310.7,155.6z"/>
			<path class="st2" d="M312.3,151.5c0.3-0.2,0.6-0.3,0.9-0.3s0.7,0.1,0.9,0.3c0.2,0.2,0.3,0.5,0.3,0.8c0,0.2-0.1,0.4-0.2,0.6
				c-0.1,0.2-0.3,0.3-0.5,0.4v0c0.3,0.1,0.4,0.2,0.6,0.4c0.1,0.2,0.2,0.5,0.2,0.8s-0.1,0.6-0.3,0.8c-0.2,0.2-0.6,0.3-1,0.3
				s-0.7-0.1-1-0.3s-0.4-0.5-0.4-0.9h0.4c0,0.2,0.1,0.4,0.3,0.6c0.2,0.2,0.4,0.2,0.7,0.2s0.5-0.1,0.7-0.2c0.2-0.2,0.2-0.4,0.2-0.6
				c0-0.3-0.1-0.6-0.3-0.7c-0.2-0.1-0.5-0.2-1-0.2h-0.1v-0.3h0.1c0.8,0,1.2-0.3,1.2-0.8c0-0.2-0.1-0.4-0.2-0.6
				c-0.2-0.1-0.4-0.2-0.6-0.2c-0.3,0-0.5,0.1-0.7,0.2c-0.2,0.1-0.3,0.3-0.3,0.5h-0.4C311.9,152,312,151.7,312.3,151.5z"/>
			<path class="st2" d="M315.3,155.6v-0.3c0.1-0.1,0.2-0.2,0.4-0.3c0.2-0.2,0.3-0.3,0.4-0.4s0.2-0.2,0.4-0.3
				c0.2-0.1,0.3-0.3,0.4-0.3s0.2-0.2,0.3-0.3c0.1-0.1,0.2-0.2,0.2-0.3c0.1-0.2,0.2-0.5,0.2-0.7c0-0.2-0.1-0.4-0.2-0.6
				c-0.1-0.2-0.4-0.2-0.7-0.2s-0.5,0.1-0.7,0.3c-0.2,0.2-0.3,0.4-0.3,0.7h-0.4c0-0.4,0.2-0.8,0.4-1s0.6-0.4,0.9-0.4s0.7,0.1,0.9,0.3
				c0.2,0.2,0.4,0.5,0.4,0.9c0,0.2,0,0.4-0.1,0.5c-0.1,0.2-0.2,0.3-0.2,0.5c-0.1,0.1-0.2,0.3-0.4,0.5c-0.2,0.2-0.3,0.3-0.4,0.4
				c-0.1,0.1-0.3,0.2-0.5,0.4c-0.2,0.2-0.3,0.3-0.4,0.3h2.1v0.4H315.3z"/>
		</g>
		<g class="st48">
			<path class="st2" d="M297.8,161.9v1.7h-0.4v-4.1h1.2c0.5,0,0.8,0.1,1,0.3c0.2,0.2,0.4,0.5,0.4,0.8s-0.1,0.6-0.3,0.8
				c-0.2,0.2-0.5,0.3-0.8,0.4l1.2,1.7h-0.5l-1.1-1.7H297.8z M297.8,159.9v1.7h0.8c0.6,0,1-0.3,1-0.8c0-0.6-0.3-0.8-1-0.8H297.8z"/>
			<path class="st2" d="M303,159.6v0.3h-1.7v1.5h1.5v0.3h-1.5v1.5h1.7v0.3h-2.1v-4.1H303z"/>
			<path class="st2" d="M307.8,159.6v4.1h-0.4v-3.1l-1.5,3.1h-0.2l-1.5-3.1v3.1h-0.4v-4.1h0.4l1.6,3.5l1.6-3.5H307.8z"/>
			<path class="st2" d="M311.5,163.6l-0.3-0.9h-1.9l-0.3,0.9h-0.4l1.5-4.1h0.4l1.5,4.1H311.5z M309.4,162.4h1.7l-0.8-2.3
				L309.4,162.4z"/>
			<path class="st2" d="M312.7,163.6v-4.1h0.4v4.1H312.7z"/>
			<path class="st2" d="M316.7,159.6h0.4v4.1h-0.4l-2.3-3.4v3.4H314v-4.1h0.4l2.3,3.4V159.6z"/>
			<path class="st2" d="M318,163.6v-4.1h0.4v4.1H318z"/>
			<path class="st2" d="M322,159.6h0.4v4.1H322l-2.3-3.4v3.4h-0.4v-4.1h0.4l2.3,3.4V159.6z"/>
			<path class="st2" d="M323.6,163.1c-0.4-0.4-0.6-0.9-0.6-1.5c0-0.6,0.2-1.1,0.6-1.5s0.9-0.6,1.5-0.6c0.4,0,0.8,0.1,1.1,0.3
				c0.3,0.2,0.6,0.5,0.7,0.8h-0.5c-0.1-0.2-0.3-0.4-0.5-0.6c-0.2-0.1-0.5-0.2-0.8-0.2c-0.5,0-0.9,0.2-1.2,0.5s-0.5,0.7-0.5,1.2
				c0,0.5,0.2,0.9,0.5,1.2s0.7,0.5,1.2,0.5s0.8-0.1,1.1-0.4s0.5-0.6,0.5-1.1h-1.8v-0.3h2.2v0.3c-0.1,0.6-0.3,1-0.7,1.4
				s-0.9,0.5-1.4,0.5C324.5,163.7,324,163.5,323.6,163.1z"/>
		</g>
		<g class="st48">
			<path class="st2" d="M303.3,40.9h-2.9v-0.3l1.5-1.7c0.3-0.3,0.5-0.6,0.6-0.8c0.1-0.2,0.2-0.4,0.2-0.6c0-0.3-0.1-0.5-0.2-0.7
				c-0.2-0.2-0.4-0.3-0.7-0.3c-0.4,0-0.6,0.1-0.8,0.3c-0.2,0.2-0.3,0.5-0.3,0.8h-0.4l0,0c0-0.4,0.1-0.7,0.4-1
				c0.3-0.3,0.6-0.4,1.1-0.4c0.4,0,0.7,0.1,1,0.3s0.4,0.5,0.4,0.9c0,0.3-0.1,0.5-0.2,0.8c-0.2,0.3-0.4,0.6-0.7,0.9l-1.3,1.4l0,0h2.4
				V40.9z"/>
			<path class="st2" d="M304.5,38H304v-0.5h0.4V38z M304.5,40.9H304v-0.5h0.4V40.9z"/>
			<path class="st2" d="M308.3,39.1c0,0.6-0.1,1.1-0.4,1.4c-0.3,0.3-0.6,0.5-1.1,0.5c-0.5,0-0.8-0.2-1.1-0.5
				c-0.3-0.3-0.4-0.8-0.4-1.4v-1c0-0.6,0.1-1.1,0.4-1.4s0.6-0.5,1.1-0.5s0.8,0.2,1.1,0.5c0.3,0.3,0.4,0.8,0.4,1.4V39.1z M307.9,38
				c0-0.5-0.1-0.8-0.3-1.1c-0.2-0.3-0.5-0.4-0.8-0.4s-0.6,0.1-0.8,0.4c-0.2,0.3-0.3,0.6-0.3,1.1v1.2c0,0.5,0.1,0.8,0.3,1.1
				s0.5,0.4,0.8,0.4c0.4,0,0.6-0.1,0.8-0.4c0.2-0.3,0.3-0.6,0.3-1.1V38z"/>
			<path class="st2" d="M312.1,39.1c0,0.6-0.1,1.1-0.4,1.4c-0.3,0.3-0.6,0.5-1.1,0.5c-0.5,0-0.8-0.2-1.1-0.5
				c-0.3-0.3-0.4-0.8-0.4-1.4v-1c0-0.6,0.1-1.1,0.4-1.4s0.6-0.5,1.1-0.5s0.8,0.2,1.1,0.5s0.4,0.8,0.4,1.4V39.1z M311.7,38
				c0-0.5-0.1-0.8-0.3-1.1c-0.2-0.3-0.5-0.4-0.8-0.4s-0.6,0.1-0.8,0.4c-0.2,0.3-0.3,0.6-0.3,1.1v1.2c0,0.5,0.1,0.8,0.3,1.1
				s0.5,0.4,0.8,0.4c0.4,0,0.6-0.1,0.8-0.4c0.2-0.3,0.3-0.6,0.3-1.1V38z"/>
			<path class="st2" d="M315.1,39v1.9h-0.4v-4.6h1.6c0.5,0,0.9,0.1,1.1,0.4s0.4,0.6,0.4,1c0,0.4-0.1,0.7-0.4,1
				c-0.3,0.2-0.6,0.4-1.1,0.4H315.1z M315.1,38.6h1.2c0.4,0,0.7-0.1,0.9-0.3c0.2-0.2,0.3-0.4,0.3-0.7c0-0.3-0.1-0.5-0.3-0.7
				s-0.5-0.3-0.9-0.3h-1.2V38.6z"/>
			<path class="st2" d="M319.2,36.3l1.7,4.1h0l1.7-4.1h0.5v4.6h-0.4v-2l0-2l0,0l-1.7,4.1h-0.3l-1.7-4l0,0l0,2v2h-0.4v-4.6H319.2z"/>
		</g>
		<line class="st49" x1="189.4" y1="44.5" x2="433.9" y2="44.5"/>
		<g class="st48">
			<path class="st2" d="M285.2,126.8h1.1v6.6h-1.1l-3.3-4.9v4.9h-1.1v-6.6h1.1l3.3,4.9V126.8z"/>
			<path class="st2" d="M290,133.5c-0.8,0-1.4-0.2-1.9-0.7s-0.7-1.1-0.7-2s0.3-1.5,0.8-2c0.5-0.5,1.1-0.7,1.9-0.7s1.4,0.2,1.9,0.7
				s0.8,1.1,0.8,2s-0.3,1.5-0.8,2S290.8,133.5,290,133.5z M291.2,132.1c0.3-0.3,0.5-0.8,0.5-1.3s-0.2-1-0.5-1.3
				c-0.3-0.3-0.7-0.5-1.1-0.5c-0.4,0-0.8,0.2-1.1,0.5c-0.3,0.3-0.4,0.8-0.4,1.3c0,0.6,0.1,1,0.4,1.3c0.3,0.3,0.7,0.5,1.1,0.5
				S290.8,132.4,291.2,132.1z"/>
			<path class="st2" d="M299.8,128.2h1.1l-1.6,5.2h-1.1l-1.1-3.9l-1.1,3.9h-1.1l-1.6-5.2h1.1l1.1,4.2l1.1-4.2h1.1l1.1,4.2
				L299.8,128.2z"/>
			<path class="st2" d="M305.1,132.5c-0.7-0.6-1-1.4-1-2.4s0.3-1.8,1-2.4c0.7-0.6,1.5-1,2.4-1c0.7,0,1.3,0.2,1.9,0.5
				c0.5,0.3,0.9,0.8,1.2,1.5h-1.3c-0.4-0.7-0.9-1-1.8-1c-0.7,0-1.2,0.2-1.6,0.7c-0.4,0.4-0.6,1-0.6,1.7s0.2,1.3,0.6,1.7
				c0.4,0.4,1,0.7,1.6,0.7c0.8,0,1.4-0.3,1.8-1h1.3c-0.2,0.6-0.6,1.1-1.2,1.5c-0.5,0.3-1.2,0.5-1.9,0.5
				C306.6,133.4,305.8,133.1,305.1,132.5z"/>
			<path class="st2" d="M314.1,133.5c-0.8,0-1.4-0.2-1.9-0.7c-0.5-0.5-0.7-1.1-0.7-2s0.3-1.5,0.8-2s1.1-0.7,1.9-0.7s1.4,0.2,1.9,0.7
				s0.8,1.1,0.8,2s-0.3,1.5-0.8,2S314.9,133.5,314.1,133.5z M315.2,132.1c0.3-0.3,0.5-0.8,0.5-1.3s-0.2-1-0.5-1.3
				c-0.3-0.3-0.7-0.5-1.1-0.5c-0.4,0-0.8,0.2-1.1,0.5c-0.3,0.3-0.4,0.8-0.4,1.3c0,0.6,0.1,1,0.4,1.3c0.3,0.3,0.7,0.5,1.1,0.5
				C314.6,132.6,314.9,132.4,315.2,132.1z"/>
			<path class="st2" d="M320.2,133.5c-0.8,0-1.4-0.2-1.9-0.7c-0.5-0.5-0.7-1.1-0.7-2s0.3-1.5,0.8-2s1.1-0.7,1.9-0.7s1.4,0.2,1.9,0.7
				s0.8,1.1,0.8,2s-0.3,1.5-0.8,2S320.9,133.5,320.2,133.5z M321.3,132.1c0.3-0.3,0.5-0.8,0.5-1.3s-0.2-1-0.5-1.3
				c-0.3-0.3-0.7-0.5-1.1-0.5c-0.4,0-0.8,0.2-1.1,0.5c-0.3,0.3-0.4,0.8-0.4,1.3c0,0.6,0.1,1,0.4,1.3c0.3,0.3,0.7,0.5,1.1,0.5
				C320.6,132.6,321,132.4,321.3,132.1z"/>
			<path class="st2" d="M325.1,133.4H324v-7h1.1v4.1l1.9-2.3h1.5l-2.4,2.6l2.4,2.6H327l-1.9-2.3V133.4z"/>
			<path class="st2" d="M330.5,126.8c0,0.2-0.1,0.4-0.2,0.5s-0.3,0.2-0.5,0.2s-0.4-0.1-0.5-0.2s-0.2-0.3-0.2-0.5s0.1-0.4,0.2-0.5
				c0.1-0.1,0.3-0.2,0.5-0.2s0.4,0.1,0.5,0.2C330.4,126.4,330.5,126.6,330.5,126.8z M329.2,133.4v-5.2h1.1v5.2H329.2z"/>
			<path class="st2" d="M332.8,128.2v0.8c0.3-0.6,0.9-0.9,1.7-0.9c0.6,0,1.1,0.2,1.5,0.6s0.6,0.9,0.6,1.6v3.1h-1.1v-2.9
				c0-0.5-0.1-0.8-0.4-1.1c-0.2-0.2-0.6-0.4-1-0.4s-0.7,0.1-1,0.4c-0.2,0.3-0.4,0.6-0.4,1.1v2.9h-1.1v-5.2H332.8z"/>
			<path class="st2" d="M338.3,132.7c-0.5-0.5-0.7-1.2-0.7-2s0.2-1.4,0.7-1.9c0.5-0.5,1.1-0.7,1.8-0.7c0.4,0,0.8,0.1,1.1,0.3
				s0.6,0.4,0.7,0.7v-0.9h1.1v5.3c0,0.7-0.2,1.3-0.7,1.8c-0.5,0.5-1.1,0.7-1.8,0.7s-1.4-0.2-1.8-0.5c-0.5-0.3-0.7-0.8-0.8-1.4h1.1
				c0.1,0.3,0.3,0.5,0.5,0.7c0.3,0.2,0.6,0.3,1,0.3s0.7-0.1,1-0.4c0.3-0.3,0.4-0.7,0.4-1.2v-1.1c-0.2,0.3-0.4,0.6-0.7,0.8
				s-0.7,0.3-1.1,0.3C339.3,133.5,338.7,133.2,338.3,132.7z M341.4,132.1c0.3-0.3,0.5-0.7,0.5-1.3s-0.2-1-0.5-1.3
				c-0.3-0.3-0.7-0.5-1.1-0.5s-0.8,0.2-1.1,0.5s-0.5,0.7-0.5,1.3c0,0.5,0.2,1,0.5,1.3s0.7,0.5,1.1,0.5S341,132.4,341.4,132.1z"/>
		</g>
	</g>
	<g>
		<defs>
			<rect id="SVGID_87_" x="298.9" y="90.5" width="26.7" height="26.7"/>
		</defs>
		<clipPath id="SVGID_88_">
			<use xlink:href="#SVGID_87_"  style="overflow:visible;"/>
		</clipPath>
		<g class="st50">
			<defs>
				<rect id="SVGID_89_" x="189.8" y="31.9" width="244.5" height="186.8"/>
			</defs>
			<clipPath id="SVGID_90_">
				<use xlink:href="#SVGID_89_"  style="overflow:visible;"/>
			</clipPath>
			<rect x="298.9" y="90.5" class="st51" width="26.7" height="26.7"/>
		</g>
	</g>
	<g>
		<defs>
			<rect id="SVGID_91_" x="189.8" y="31.9" width="244.5" height="186.8"/>
		</defs>
		<clipPath id="SVGID_92_">
			<use xlink:href="#SVGID_91_"  style="overflow:visible;"/>
		</clipPath>
		<line class="st52" x1="298.7" y1="90.3" x2="325.1" y2="117"/>
		<line class="st52" x1="325.4" y1="90.3" x2="299" y2="117"/>
	</g>
	<g>
		<defs>
			<rect id="SVGID_93_" x="189.8" y="200" width="244.5" height="18.6"/>
		</defs>
		<clipPath id="SVGID_94_">
			<use xlink:href="#SVGID_93_"  style="overflow:visible;"/>
		</clipPath>
		<g class="st53">
			<defs>
				<rect id="SVGID_95_" x="189.8" y="31.9" width="244.5" height="186.8"/>
			</defs>
			<clipPath id="SVGID_96_">
				<use xlink:href="#SVGID_95_"  style="overflow:visible;"/>
			</clipPath>
			<rect x="188.5" y="198.7" class="st54" width="247" height="21.1"/>
		</g>
	</g>
	<g>
		<defs>
			<rect id="SVGID_97_" x="189.8" y="31.9" width="244.5" height="186.8"/>
		</defs>
		<clipPath id="SVGID_98_">
			<use xlink:href="#SVGID_97_"  style="overflow:visible;"/>
		</clipPath>
		<circle class="st55" cx="220.4" cy="207.2" r="1.7"/>
		<circle class="st55" cx="220.4" cy="212.2" r="1.7"/>
		<circle class="st55" cx="225.4" cy="207.2" r="1.7"/>
		<circle class="st55" cx="225.4" cy="212.2" r="1.7"/>
		<rect x="276.8" y="205.6" class="st56" width="11.2" height="8.5"/>
		<rect x="278.6" y="207.4" class="st56" width="7.6" height="4.8"/>
		<path class="st56" d="M345.6,212.4h-4.2l-1.7,1.6l-0.2-1.6h-1.3c-0.6,0-1-0.5-1-1v-4.7c0-0.6,0.5-1,1-1h7.4c0.6,0,1,0.5,1,1v4.7
			C346.6,211.9,346.1,212.4,345.6,212.4z"/>
	</g>
	<g>
		<defs>
			<path id="SVGID_99_" d="M342.1,207.5c-0.1,0.1-0.1,0.1-0.2,0.1c-0.1,0-0.2,0-0.2-0.1c-0.1-0.1-0.1-0.1-0.1-0.2
				c0-0.1,0-0.2,0.1-0.2c0.1-0.1,0.1-0.1,0.2-0.1s0.2,0,0.2,0.1s0.1,0.1,0.1,0.2C342.2,207.3,342.1,207.4,342.1,207.5z M341.7,211
				h0.4v-2.6h-0.4V211z"/>
		</defs>
		<clipPath id="SVGID_100_">
			<use xlink:href="#SVGID_99_"  style="overflow:visible;"/>
		</clipPath>
		<g class="st57">
			<defs>
				<rect id="SVGID_101_" x="189.8" y="31.9" width="244.5" height="186.8"/>
			</defs>
			<clipPath id="SVGID_102_">
				<use xlink:href="#SVGID_101_"  style="overflow:visible;"/>
			</clipPath>
			<rect x="340.3" y="205.7" class="st58" width="3.1" height="6.5"/>
		</g>
	</g>
	<g>
		<defs>
			<path id="SVGID_103_" d="M398.9,209.5c0,0.3-0.2,0.5-0.5,0.5s-0.5-0.2-0.5-0.5c0-0.3,0.2-0.5,0.5-0.5S398.9,209.2,398.9,209.5"/>
		</defs>
		<clipPath id="SVGID_104_">
			<use xlink:href="#SVGID_103_"  style="overflow:visible;"/>
		</clipPath>
		<g class="st59">
			<defs>
				<rect id="SVGID_105_" x="189.8" y="31.9" width="244.5" height="186.8"/>
			</defs>
			<clipPath id="SVGID_106_">
				<use xlink:href="#SVGID_105_"  style="overflow:visible;"/>
			</clipPath>
			<rect x="396.6" y="207.7" class="st60" width="3.6" height="3.6"/>
		</g>
	</g>
	<g>
		<defs>
			<path id="SVGID_107_" d="M402.4,209.5c0,0.3-0.2,0.5-0.5,0.5s-0.5-0.2-0.5-0.5c0-0.3,0.2-0.5,0.5-0.5S402.4,209.2,402.4,209.5"/>
		</defs>
		<clipPath id="SVGID_108_">
			<use xlink:href="#SVGID_107_"  style="overflow:visible;"/>
		</clipPath>
		<g class="st61">
			<defs>
				<rect id="SVGID_109_" x="189.8" y="31.9" width="244.5" height="186.8"/>
			</defs>
			<clipPath id="SVGID_110_">
				<use xlink:href="#SVGID_109_"  style="overflow:visible;"/>
			</clipPath>
			<rect x="400" y="207.7" class="st62" width="3.6" height="3.6"/>
		</g>
	</g>
	<g>
		<defs>
			<path id="SVGID_111_" d="M405.8,209.5c0,0.3-0.2,0.5-0.5,0.5s-0.5-0.2-0.5-0.5c0-0.3,0.2-0.5,0.5-0.5S405.8,209.2,405.8,209.5"/>
		</defs>
		<clipPath id="SVGID_112_">
			<use xlink:href="#SVGID_111_"  style="overflow:visible;"/>
		</clipPath>
		<g class="st63">
			<defs>
				<rect id="SVGID_113_" x="189.8" y="31.9" width="244.5" height="186.8"/>
			</defs>
			<clipPath id="SVGID_114_">
				<use xlink:href="#SVGID_113_"  style="overflow:visible;"/>
			</clipPath>
			<rect x="403.5" y="207.7" class="st64" width="3.6" height="3.6"/>
		</g>
	</g>
	<g>
		<defs>
			<rect id="SVGID_115_" x="189.8" y="31.9" width="244.5" height="186.8"/>
		</defs>
		<clipPath id="SVGID_116_">
			<use xlink:href="#SVGID_115_"  style="overflow:visible;"/>
		</clipPath>
		<g class="st65">
			<path class="st2" d="M252.1,63.2c0,0.2,0,0.3,0.1,0.4s0.2,0.2,0.3,0.2c0.1,0,0.3,0.1,0.4,0.1c0.2,0,0.3,0.1,0.5,0.1
				c0.2,0,0.3,0.1,0.4,0.2c0.1,0.1,0.2,0.2,0.3,0.3c0.1,0.1,0.1,0.3,0.1,0.5c0,0.3-0.1,0.6-0.3,0.8c-0.2,0.2-0.5,0.3-0.9,0.3
				s-0.7-0.1-1-0.3c-0.3-0.2-0.4-0.4-0.4-0.7h0.4c0,0.2,0.1,0.3,0.2,0.5c0.1,0.1,0.4,0.2,0.6,0.2c0.3,0,0.5-0.1,0.7-0.2
				c0.2-0.1,0.3-0.3,0.3-0.6s-0.1-0.4-0.2-0.5c-0.2-0.1-0.3-0.2-0.6-0.2c-0.2,0-0.4-0.1-0.7-0.1c-0.2-0.1-0.4-0.2-0.6-0.3
				c-0.2-0.2-0.2-0.4-0.2-0.7c0-0.3,0.1-0.6,0.3-0.8c0.2-0.2,0.5-0.3,0.9-0.3s0.7,0.1,0.9,0.3c0.2,0.2,0.4,0.4,0.4,0.7h-0.5
				c0-0.2-0.1-0.3-0.2-0.4c-0.1-0.1-0.4-0.2-0.6-0.2s-0.5,0.1-0.6,0.2C252.2,62.7,252.1,62.9,252.1,63.2z"/>
			<path class="st2" d="M255.6,65.6c-0.4-0.4-0.6-0.9-0.6-1.5c0-0.6,0.2-1.1,0.6-1.5s0.9-0.6,1.5-0.6s1.1,0.2,1.5,0.6
				s0.6,0.9,0.6,1.5c0,0.6-0.2,1.1-0.6,1.5s-0.9,0.6-1.5,0.6S256,66,255.6,65.6z M258.2,65.4c0.3-0.3,0.5-0.7,0.5-1.2
				c0-0.5-0.2-0.9-0.5-1.2c-0.3-0.3-0.7-0.5-1.2-0.5s-0.9,0.2-1.2,0.5c-0.3,0.3-0.5,0.7-0.5,1.2c0,0.5,0.2,0.9,0.5,1.2
				s0.7,0.5,1.2,0.5S257.9,65.7,258.2,65.4z"/>
			<path class="st2" d="M259.8,64.8v-2.7h0.4v2.7c0,0.4,0.1,0.6,0.3,0.8c0.2,0.2,0.5,0.3,0.8,0.3c0.3,0,0.6-0.1,0.8-0.3
				c0.2-0.2,0.3-0.4,0.3-0.8v-2.7h0.4v2.7c0,0.5-0.1,0.8-0.4,1c-0.3,0.2-0.6,0.4-1.1,0.4c-0.4,0-0.8-0.1-1.1-0.4
				C259.9,65.6,259.8,65.2,259.8,64.8z"/>
			<path class="st2" d="M263.9,63.2c0,0.2,0,0.3,0.1,0.4s0.2,0.2,0.3,0.2c0.1,0,0.3,0.1,0.4,0.1c0.2,0,0.3,0.1,0.5,0.1
				c0.2,0,0.3,0.1,0.4,0.2c0.1,0.1,0.2,0.2,0.3,0.3c0.1,0.1,0.1,0.3,0.1,0.5c0,0.3-0.1,0.6-0.3,0.8c-0.2,0.2-0.5,0.3-0.9,0.3
				s-0.7-0.1-1-0.3c-0.3-0.2-0.4-0.4-0.4-0.7h0.4c0,0.2,0.1,0.3,0.2,0.5c0.1,0.1,0.4,0.2,0.6,0.2c0.3,0,0.5-0.1,0.7-0.2
				c0.2-0.1,0.3-0.3,0.3-0.6s-0.1-0.4-0.2-0.5c-0.2-0.1-0.3-0.2-0.6-0.2c-0.2,0-0.4-0.1-0.7-0.1c-0.2-0.1-0.4-0.2-0.6-0.3
				c-0.2-0.2-0.2-0.4-0.2-0.7c0-0.3,0.1-0.6,0.3-0.8c0.2-0.2,0.5-0.3,0.9-0.3s0.7,0.1,0.9,0.3c0.2,0.2,0.4,0.4,0.4,0.7h-0.5
				c0-0.2-0.1-0.3-0.2-0.4c-0.1-0.1-0.4-0.2-0.6-0.2s-0.5,0.1-0.6,0.2C264,62.7,263.9,62.9,263.9,63.2z"/>
			<path class="st2" d="M267.1,64.1v-0.4h2.3v0.4H267.1z"/>
			<path class="st2" d="M271.8,66.1l-1.6-4.1h0.4l1.4,3.6l1.4-3.6h0.4l-1.6,4.1H271.8z"/>
			<path class="st2" d="M274.4,66.1v-4.1h0.4v4.1H274.4z"/>
			<path class="st2" d="M276.9,62.1c0.7,0,1.2,0.2,1.5,0.5s0.6,0.9,0.6,1.5c0,0.6-0.2,1.1-0.6,1.5s-0.9,0.5-1.5,0.5h-1.2v-4.1H276.9
				z M276.1,65.8h0.8c0.5,0,1-0.1,1.2-0.4s0.4-0.7,0.4-1.2c0-0.5-0.1-0.9-0.4-1.2c-0.3-0.3-0.7-0.4-1.2-0.4h-0.8V65.8z"/>
			<path class="st2" d="M281.8,62.1v0.3h-1.7v1.5h1.5v0.3h-1.5v1.5h1.7v0.3h-2.1v-4.1H281.8z"/>
			<path class="st2" d="M284.6,63.2c0,0.2,0,0.3,0.1,0.4s0.2,0.2,0.3,0.2c0.1,0,0.3,0.1,0.4,0.1c0.2,0,0.3,0.1,0.5,0.1
				c0.2,0,0.3,0.1,0.4,0.2c0.1,0.1,0.2,0.2,0.3,0.3c0.1,0.1,0.1,0.3,0.1,0.5c0,0.3-0.1,0.6-0.3,0.8c-0.2,0.2-0.5,0.3-0.9,0.3
				s-0.7-0.1-1-0.3c-0.3-0.2-0.4-0.4-0.4-0.7h0.4c0,0.2,0.1,0.3,0.2,0.5c0.1,0.1,0.4,0.2,0.6,0.2c0.3,0,0.5-0.1,0.7-0.2
				c0.2-0.1,0.3-0.3,0.3-0.6s-0.1-0.4-0.2-0.5c-0.2-0.1-0.3-0.2-0.6-0.2c-0.2,0-0.4-0.1-0.7-0.1c-0.2-0.1-0.4-0.2-0.6-0.3
				c-0.2-0.2-0.2-0.4-0.2-0.7c0-0.3,0.1-0.6,0.3-0.8c0.2-0.2,0.5-0.3,0.9-0.3s0.7,0.1,0.9,0.3c0.2,0.2,0.4,0.4,0.4,0.7h-0.5
				c0-0.2-0.1-0.3-0.2-0.4c-0.1-0.1-0.4-0.2-0.6-0.2s-0.5,0.1-0.6,0.2C284.7,62.7,284.6,62.9,284.6,63.2z"/>
			<path class="st2" d="M287.5,62.4v-0.3h2.5v0.3H289v3.7h-0.4v-3.7H287.5z"/>
			<path class="st2" d="M291.2,64.4v1.7h-0.4v-4.1h1.2c0.5,0,0.8,0.1,1,0.3c0.2,0.2,0.4,0.5,0.4,0.8c0,0.3-0.1,0.6-0.3,0.8
				c-0.2,0.2-0.5,0.3-0.8,0.4l1.2,1.7h-0.5l-1.1-1.7H291.2z M291.2,62.4v1.7h0.8c0.6,0,1-0.3,1-0.8s-0.3-0.8-1-0.8H291.2z"/>
			<path class="st2" d="M294.3,66.1v-4.1h0.4v4.1H294.3z"/>
			<path class="st2" d="M297.9,62.4c0.2,0.2,0.4,0.5,0.4,0.9s-0.1,0.6-0.3,0.9c-0.2,0.2-0.6,0.3-1,0.3H296v1.7h-0.4v-4.1h1.2
				C297.3,62.1,297.7,62.2,297.9,62.4z M296,64.1h0.8c0.6,0,1-0.3,1-0.8s-0.3-0.8-1-0.8H296V64.1z"/>
			<path class="st2" d="M301,63.2c0,0.2,0,0.3,0.1,0.4c0.1,0.1,0.2,0.2,0.3,0.2c0.1,0,0.3,0.1,0.4,0.1c0.2,0,0.3,0.1,0.5,0.1
				c0.2,0,0.3,0.1,0.4,0.2c0.1,0.1,0.2,0.2,0.3,0.3s0.1,0.3,0.1,0.5c0,0.3-0.1,0.6-0.3,0.8c-0.2,0.2-0.5,0.3-0.9,0.3s-0.7-0.1-1-0.3
				c-0.2-0.2-0.4-0.4-0.4-0.7h0.4c0,0.2,0.1,0.3,0.2,0.5c0.1,0.1,0.4,0.2,0.6,0.2s0.5-0.1,0.7-0.2c0.2-0.1,0.3-0.3,0.3-0.6
				s-0.1-0.4-0.2-0.5c-0.2-0.1-0.3-0.2-0.6-0.2c-0.2,0-0.4-0.1-0.7-0.1c-0.2-0.1-0.4-0.2-0.6-0.3c-0.2-0.2-0.2-0.4-0.2-0.7
				c0-0.3,0.1-0.6,0.3-0.8c0.2-0.2,0.5-0.3,0.9-0.3s0.7,0.1,0.9,0.3s0.4,0.4,0.4,0.7h-0.5c0-0.2-0.1-0.3-0.2-0.4
				c-0.1-0.1-0.4-0.2-0.6-0.2c-0.3,0-0.5,0.1-0.6,0.2C301.1,62.7,301,62.9,301,63.2z"/>
			<path class="st2" d="M303.9,62.4v-0.3h2.5v0.3h-1.1v3.7H305v-3.7H303.9z"/>
			<path class="st2" d="M309.2,62.1v0.3h-1.7v1.5h1.5v0.3h-1.5v1.5h1.7v0.3h-2.1v-4.1H309.2z"/>
			<path class="st2" d="M312.9,66.1l-0.3-0.9h-1.9l-0.3,0.9h-0.4l1.5-4.1h0.4l1.5,4.1H312.9z M310.8,64.9h1.7l-0.8-2.3L310.8,64.9z"
				/>
			<path class="st2" d="M314.4,66.1H314v-4.1h0.4V64l1.8-1.9h0.5l-2,2.1l2,2h-0.6l-1.7-1.8V66.1z"/>
			<path class="st2" d="M319.4,66.1v-3.8H319V62h0.8v4.2H319.4z"/>
			<path class="st2" d="M322.9,66.1v-3.8h-0.4V62h0.8v4.2H322.9z"/>
			<path class="st2" d="M324.5,67.1l1.6-6.5h0.4l-1.6,6.5H324.5z"/>
			<path class="st2" d="M327.6,66.1v-0.3c0.1-0.1,0.2-0.2,0.4-0.3c0.2-0.2,0.3-0.3,0.4-0.4c0.1-0.1,0.2-0.2,0.4-0.3
				c0.2-0.1,0.3-0.3,0.4-0.3c0.1-0.1,0.2-0.2,0.3-0.3c0.1-0.1,0.2-0.2,0.2-0.3c0.1-0.2,0.2-0.5,0.2-0.7s-0.1-0.4-0.2-0.6
				c-0.1-0.2-0.4-0.2-0.7-0.2s-0.5,0.1-0.7,0.3c-0.2,0.2-0.3,0.4-0.3,0.7h-0.4c0-0.4,0.2-0.8,0.4-1c0.2-0.2,0.6-0.4,0.9-0.4
				s0.7,0.1,0.9,0.3s0.4,0.5,0.4,0.9c0,0.2,0,0.4-0.1,0.5s-0.2,0.3-0.2,0.5c-0.1,0.1-0.2,0.3-0.4,0.5c-0.2,0.2-0.3,0.3-0.4,0.4
				c-0.1,0.1-0.3,0.2-0.5,0.4c-0.2,0.2-0.3,0.3-0.4,0.3h2.1v0.4H327.6z"/>
			<path class="st2" d="M330.9,62.6l-0.1-1.1h0.4l-0.1,1.1H330.9z M331.6,62.6l-0.1-1.1h0.4l-0.1,1.1H331.6z"/>
			<path class="st2" d="M338.3,62.1v4.1h-0.4V63l-1.5,3.1h-0.2l-1.5-3.1v3.1h-0.4v-4.1h0.4l1.6,3.5l1.6-3.5H338.3z"/>
			<path class="st2" d="M341.3,62.1v0.3h-1.7v1.5h1.5v0.3h-1.5v1.5h1.7v0.3h-2.1v-4.1H341.3z"/>
			<path class="st2" d="M343.3,62.1c0.7,0,1.2,0.2,1.5,0.5s0.6,0.9,0.6,1.5c0,0.6-0.2,1.1-0.6,1.5s-0.9,0.5-1.5,0.5h-1.2v-4.1H343.3
				z M342.5,65.8h0.8c0.5,0,1-0.1,1.2-0.4s0.4-0.7,0.4-1.2c0-0.5-0.1-0.9-0.4-1.2c-0.3-0.3-0.7-0.4-1.2-0.4h-0.8V65.8z"/>
			<path class="st2" d="M346.1,66.1v-4.1h0.4v4.1H346.1z"/>
			<path class="st2" d="M347.4,64.8v-2.7h0.4v2.7c0,0.4,0.1,0.6,0.3,0.8c0.2,0.2,0.5,0.3,0.8,0.3s0.6-0.1,0.8-0.3
				c0.2-0.2,0.3-0.4,0.3-0.8v-2.7h0.4v2.7c0,0.5-0.1,0.8-0.4,1c-0.3,0.2-0.6,0.4-1.1,0.4s-0.8-0.1-1.1-0.4
				C347.5,65.6,347.4,65.2,347.4,64.8z"/>
			<path class="st2" d="M355.3,62.1v4.1h-0.4V63l-1.5,3.1h-0.2l-1.5-3.1v3.1h-0.4v-4.1h0.4l1.6,3.5l1.6-3.5H355.3z"/>
			<path class="st2" d="M358.3,64.4v1.7h-0.4v-4.1h1.2c0.5,0,0.8,0.1,1,0.3c0.2,0.2,0.4,0.5,0.4,0.8c0,0.3-0.1,0.6-0.3,0.8
				c-0.2,0.2-0.5,0.3-0.8,0.4l1.2,1.7H360l-1.1-1.7H358.3z M358.3,62.4v1.7h0.8c0.6,0,1-0.3,1-0.8s-0.3-0.8-1-0.8H358.3z"/>
			<path class="st2" d="M364.3,66.1l-0.3-0.9h-1.9l-0.3,0.9h-0.4l1.5-4.1h0.4l1.5,4.1H364.3z M362.2,64.9h1.7l-0.8-2.3L362.2,64.9z"
				/>
			<path class="st2" d="M365.9,64.4v1.7h-0.4v-4.1h1.2c0.5,0,0.8,0.1,1,0.3c0.2,0.2,0.4,0.5,0.4,0.8c0,0.3-0.1,0.6-0.3,0.8
				c-0.2,0.2-0.5,0.3-0.8,0.4l1.2,1.7h-0.5l-1.1-1.7H365.9z M365.9,62.4v1.7h0.8c0.6,0,1-0.3,1-0.8s-0.3-0.8-1-0.8H365.9z"/>
			<path class="st2" d="M371.1,62.1v0.3h-1.7v1.5h1.5v0.3h-1.5v1.5h1.7v0.3H369v-4.1H371.1z"/>
		</g>
	</g>
</g>
</svg>
