<?xml version="1.0" encoding="utf-8"?>
<!-- Generator: Adobe Illustrator 19.2.1, SVG Export Plug-In . SVG Version: 6.00 Build 0)  -->
<svg version="1.1" id="Layer_1" xmlns="http://www.w3.org/2000/svg" xmlns:xlink="http://www.w3.org/1999/xlink" x="0px" y="0px"
	 viewBox="0 0 195.8 196.8" style="enable-background:new 0 0 195.8 196.8;" xml:space="preserve">
<style type="text/css">
	.st0{fill:#252525;}
	.st1{fill:#3CBEBC;}
</style>
<g>
	<g>
		<path class="st0" d="M174,35.3C155.2,12.9,127.6,0,98.4,0C44.1,0,0,44.1,0,98.4s44.1,98.4,98.4,98.4c29.2,0,56.8-12.9,75.5-35.3
			l-6.9-5.8c-17.1,20.4-42.1,32.1-68.6,32.1C49.1,187.8,9,147.7,9,98.4S49.1,9,98.4,9c24,0,46.8,9.6,63.5,26.5h11.8L174,35.3z"/>
	</g>
</g>
<g>
	<path class="st1" d="M195.8,93.9h-90.5l-4.8,9h86.2c-0.3,6.7-1.4,13.8-3.2,20.4l7.1,5C193.6,118.5,195.8,107,195.8,93.9z"/>
</g>
</svg>
