<?xml version="1.0" encoding="utf-8"?>
<!-- Generator: Adobe Illustrator 19.2.1, SVG Export Plug-In . SVG Version: 6.00 Build 0)  -->
<svg version="1.1" id="Layer_1" xmlns="http://www.w3.org/2000/svg" xmlns:xlink="http://www.w3.org/1999/xlink" x="0px" y="0px"
	 viewBox="0 0 33.6 33.8" style="enable-background:new 0 0 33.6 33.8;" xml:space="preserve">
<style type="text/css">
	.st0{fill:#FFFFFF;}
	.st1{fill:#3CBEBC;}
</style>
<g>
	<path class="st0" d="M27.9,26.1c-2.7,3.3-6.8,5.2-11,5.2C9,31.3,2.5,24.8,2.5,16.9S9,2.5,16.9,2.5c3.9,0,7.5,1.5,10.2,4.3l0.1,0.1
		h2.4l0.6-0.5l-0.3-0.4C26.6,2.2,21.9,0,16.9,0C7.6,0,0,7.6,0,16.9s7.6,16.9,16.9,16.9c5,0,9.7-2.2,13-6.1l0.3-0.4l-1.9-1.6
		L27.9,26.1z"/>
	<path class="st1" d="M17.7,15.6l-1.3,2.5h14.7c-0.1,0.9-0.2,1.9-0.5,2.8l-0.1,0.3l2,1.4l0.2-0.7c0.6-1.9,0.9-3.9,0.9-5.9v-0.5H17.7
		z"/>
</g>
</svg>
